G04 #@! TF.GenerationSoftware,KiCad,Pcbnew,5.1.5+dfsg1-2build2*
G04 #@! TF.CreationDate,2021-10-27T23:18:45+10:30*
G04 #@! TF.ProjectId,xover-psu,786f7665-722d-4707-9375-2e6b69636164,rev?*
G04 #@! TF.SameCoordinates,Original*
G04 #@! TF.FileFunction,Soldermask,Top*
G04 #@! TF.FilePolarity,Negative*
%FSLAX46Y46*%
G04 Gerber Fmt 4.6, Leading zero omitted, Abs format (unit mm)*
G04 Created by KiCad (PCBNEW 5.1.5+dfsg1-2build2) date 2021-10-27 23:18:45*
%MOMM*%
%LPD*%
G04 APERTURE LIST*
%ADD10C,0.100000*%
G04 APERTURE END LIST*
D10*
G36*
X36951000Y-123301000D02*
G01*
X35049000Y-123301000D01*
X35049000Y-120699000D01*
X36951000Y-120699000D01*
X36951000Y-123301000D01*
G37*
G36*
X120831606Y-117258562D02*
G01*
X121350455Y-117473476D01*
X121817407Y-117785484D01*
X122214516Y-118182593D01*
X122526524Y-118649545D01*
X122741438Y-119168394D01*
X122851000Y-119719201D01*
X122851000Y-120280799D01*
X122741438Y-120831606D01*
X122526524Y-121350455D01*
X122214516Y-121817407D01*
X121817407Y-122214516D01*
X121350455Y-122526524D01*
X120831606Y-122741438D01*
X120280800Y-122851000D01*
X119719200Y-122851000D01*
X119168394Y-122741438D01*
X118649545Y-122526524D01*
X118182593Y-122214516D01*
X117785484Y-121817407D01*
X117473476Y-121350455D01*
X117258562Y-120831606D01*
X117149000Y-120280799D01*
X117149000Y-119719201D01*
X117258562Y-119168394D01*
X117473476Y-118649545D01*
X117785484Y-118182593D01*
X118182593Y-117785484D01*
X118649545Y-117473476D01*
X119168394Y-117258562D01*
X119719200Y-117149000D01*
X120280800Y-117149000D01*
X120831606Y-117258562D01*
G37*
G36*
X30831606Y-117258562D02*
G01*
X31350455Y-117473476D01*
X31817407Y-117785484D01*
X32214516Y-118182593D01*
X32526524Y-118649545D01*
X32741438Y-119168394D01*
X32851000Y-119719201D01*
X32851000Y-120280799D01*
X32741438Y-120831606D01*
X32526524Y-121350455D01*
X32214516Y-121817407D01*
X31817407Y-122214516D01*
X31350455Y-122526524D01*
X30831606Y-122741438D01*
X30280800Y-122851000D01*
X29719200Y-122851000D01*
X29168394Y-122741438D01*
X28649545Y-122526524D01*
X28182593Y-122214516D01*
X27785484Y-121817407D01*
X27473476Y-121350455D01*
X27258562Y-120831606D01*
X27149000Y-120280799D01*
X27149000Y-119719201D01*
X27258562Y-119168394D01*
X27473476Y-118649545D01*
X27785484Y-118182593D01*
X28182593Y-117785484D01*
X28649545Y-117473476D01*
X29168394Y-117258562D01*
X29719200Y-117149000D01*
X30280800Y-117149000D01*
X30831606Y-117258562D01*
G37*
G36*
X42389943Y-116066248D02*
G01*
X42945189Y-116296238D01*
X42945190Y-116296239D01*
X43444899Y-116630134D01*
X43869866Y-117055101D01*
X43869867Y-117055103D01*
X44203762Y-117554811D01*
X44433752Y-118110057D01*
X44551000Y-118699501D01*
X44551000Y-119300499D01*
X44433752Y-119889943D01*
X44203762Y-120445189D01*
X44203761Y-120445190D01*
X43869866Y-120944899D01*
X43444899Y-121369866D01*
X43193347Y-121537948D01*
X42945189Y-121703762D01*
X42389943Y-121933752D01*
X41800499Y-122051000D01*
X41199501Y-122051000D01*
X40610057Y-121933752D01*
X40054811Y-121703762D01*
X39806653Y-121537948D01*
X39555101Y-121369866D01*
X39130134Y-120944899D01*
X38796239Y-120445190D01*
X38796238Y-120445189D01*
X38566248Y-119889943D01*
X38449000Y-119300499D01*
X38449000Y-118699501D01*
X38566248Y-118110057D01*
X38796238Y-117554811D01*
X39130133Y-117055103D01*
X39130134Y-117055101D01*
X39555101Y-116630134D01*
X40054810Y-116296239D01*
X40054811Y-116296238D01*
X40610057Y-116066248D01*
X41199501Y-115949000D01*
X41800499Y-115949000D01*
X42389943Y-116066248D01*
G37*
G36*
X87389943Y-116066248D02*
G01*
X87945189Y-116296238D01*
X87945190Y-116296239D01*
X88444899Y-116630134D01*
X88869866Y-117055101D01*
X88869867Y-117055103D01*
X89203762Y-117554811D01*
X89433752Y-118110057D01*
X89551000Y-118699501D01*
X89551000Y-119300499D01*
X89433752Y-119889943D01*
X89203762Y-120445189D01*
X89203761Y-120445190D01*
X88869866Y-120944899D01*
X88444899Y-121369866D01*
X88193347Y-121537948D01*
X87945189Y-121703762D01*
X87389943Y-121933752D01*
X86800499Y-122051000D01*
X86199501Y-122051000D01*
X85610057Y-121933752D01*
X85054811Y-121703762D01*
X84806653Y-121537948D01*
X84555101Y-121369866D01*
X84130134Y-120944899D01*
X83796239Y-120445190D01*
X83796238Y-120445189D01*
X83566248Y-119889943D01*
X83449000Y-119300499D01*
X83449000Y-118699501D01*
X83566248Y-118110057D01*
X83796238Y-117554811D01*
X84130133Y-117055103D01*
X84130134Y-117055101D01*
X84555101Y-116630134D01*
X85054810Y-116296239D01*
X85054811Y-116296238D01*
X85610057Y-116066248D01*
X86199501Y-115949000D01*
X86800499Y-115949000D01*
X87389943Y-116066248D01*
G37*
G36*
X108879487Y-118748996D02*
G01*
X109116253Y-118847068D01*
X109116255Y-118847069D01*
X109329339Y-118989447D01*
X109510553Y-119170661D01*
X109597643Y-119301000D01*
X109652932Y-119383747D01*
X109751004Y-119620513D01*
X109801000Y-119871861D01*
X109801000Y-120128139D01*
X109751004Y-120379487D01*
X109652932Y-120616253D01*
X109652931Y-120616255D01*
X109510553Y-120829339D01*
X109329339Y-121010553D01*
X109116255Y-121152931D01*
X109116254Y-121152932D01*
X109116253Y-121152932D01*
X108879487Y-121251004D01*
X108628139Y-121301000D01*
X108371861Y-121301000D01*
X108120513Y-121251004D01*
X107883747Y-121152932D01*
X107883746Y-121152932D01*
X107883745Y-121152931D01*
X107670661Y-121010553D01*
X107489447Y-120829339D01*
X107347069Y-120616255D01*
X107347068Y-120616253D01*
X107248996Y-120379487D01*
X107199000Y-120128139D01*
X107199000Y-119871861D01*
X107248996Y-119620513D01*
X107347068Y-119383747D01*
X107402358Y-119301000D01*
X107489447Y-119170661D01*
X107670661Y-118989447D01*
X107883745Y-118847069D01*
X107883747Y-118847068D01*
X108120513Y-118748996D01*
X108371861Y-118699000D01*
X108628139Y-118699000D01*
X108879487Y-118748996D01*
G37*
G36*
X113879487Y-118748996D02*
G01*
X114116253Y-118847068D01*
X114116255Y-118847069D01*
X114329339Y-118989447D01*
X114510553Y-119170661D01*
X114597643Y-119301000D01*
X114652932Y-119383747D01*
X114751004Y-119620513D01*
X114801000Y-119871861D01*
X114801000Y-120128139D01*
X114751004Y-120379487D01*
X114652932Y-120616253D01*
X114652931Y-120616255D01*
X114510553Y-120829339D01*
X114329339Y-121010553D01*
X114116255Y-121152931D01*
X114116254Y-121152932D01*
X114116253Y-121152932D01*
X113879487Y-121251004D01*
X113628139Y-121301000D01*
X113371861Y-121301000D01*
X113120513Y-121251004D01*
X112883747Y-121152932D01*
X112883746Y-121152932D01*
X112883745Y-121152931D01*
X112670661Y-121010553D01*
X112489447Y-120829339D01*
X112347069Y-120616255D01*
X112347068Y-120616253D01*
X112248996Y-120379487D01*
X112199000Y-120128139D01*
X112199000Y-119871861D01*
X112248996Y-119620513D01*
X112347068Y-119383747D01*
X112402358Y-119301000D01*
X112489447Y-119170661D01*
X112670661Y-118989447D01*
X112883745Y-118847069D01*
X112883747Y-118847068D01*
X113120513Y-118748996D01*
X113371861Y-118699000D01*
X113628139Y-118699000D01*
X113879487Y-118748996D01*
G37*
G36*
X104801000Y-121301000D02*
G01*
X102199000Y-121301000D01*
X102199000Y-118699000D01*
X104801000Y-118699000D01*
X104801000Y-121301000D01*
G37*
G36*
X99220584Y-118748996D02*
G01*
X99370445Y-118778805D01*
X99601571Y-118874541D01*
X99809578Y-119013527D01*
X99986473Y-119190422D01*
X100125459Y-119398429D01*
X100217450Y-119620513D01*
X100221195Y-119629556D01*
X100270000Y-119874915D01*
X100270000Y-120125085D01*
X100245598Y-120247764D01*
X100221195Y-120370445D01*
X100125459Y-120601571D01*
X99986473Y-120809578D01*
X99809578Y-120986473D01*
X99601571Y-121125459D01*
X99370445Y-121221195D01*
X99247765Y-121245597D01*
X99125085Y-121270000D01*
X98874915Y-121270000D01*
X98752235Y-121245597D01*
X98629555Y-121221195D01*
X98398429Y-121125459D01*
X98190422Y-120986473D01*
X98013527Y-120809578D01*
X97874541Y-120601571D01*
X97778805Y-120370445D01*
X97754402Y-120247764D01*
X97730000Y-120125085D01*
X97730000Y-119874915D01*
X97778805Y-119629556D01*
X97782551Y-119620513D01*
X97874541Y-119398429D01*
X98013527Y-119190422D01*
X98190422Y-119013527D01*
X98398429Y-118874541D01*
X98629555Y-118778805D01*
X98779416Y-118748996D01*
X98874915Y-118730000D01*
X99125085Y-118730000D01*
X99220584Y-118748996D01*
G37*
G36*
X78301000Y-120451000D02*
G01*
X75699000Y-120451000D01*
X75699000Y-118549000D01*
X78301000Y-118549000D01*
X78301000Y-120451000D01*
G37*
G36*
X68301000Y-120451000D02*
G01*
X65699000Y-120451000D01*
X65699000Y-118549000D01*
X68301000Y-118549000D01*
X68301000Y-120451000D01*
G37*
G36*
X72301000Y-120451000D02*
G01*
X69699000Y-120451000D01*
X69699000Y-118549000D01*
X72301000Y-118549000D01*
X72301000Y-120451000D01*
G37*
G36*
X48301000Y-120451000D02*
G01*
X45699000Y-120451000D01*
X45699000Y-118549000D01*
X48301000Y-118549000D01*
X48301000Y-120451000D01*
G37*
G36*
X52301000Y-120451000D02*
G01*
X49699000Y-120451000D01*
X49699000Y-118549000D01*
X52301000Y-118549000D01*
X52301000Y-120451000D01*
G37*
G36*
X58301000Y-120451000D02*
G01*
X55699000Y-120451000D01*
X55699000Y-118549000D01*
X58301000Y-118549000D01*
X58301000Y-120451000D01*
G37*
G36*
X62301000Y-120451000D02*
G01*
X59699000Y-120451000D01*
X59699000Y-118549000D01*
X62301000Y-118549000D01*
X62301000Y-120451000D01*
G37*
G36*
X82301000Y-120451000D02*
G01*
X79699000Y-120451000D01*
X79699000Y-118549000D01*
X82301000Y-118549000D01*
X82301000Y-120451000D01*
G37*
G36*
X36951000Y-119301000D02*
G01*
X35049000Y-119301000D01*
X35049000Y-116699000D01*
X36951000Y-116699000D01*
X36951000Y-119301000D01*
G37*
G36*
X74352477Y-114490103D02*
G01*
X74452352Y-114509969D01*
X74569259Y-114558394D01*
X74734591Y-114626876D01*
X74988601Y-114796600D01*
X75204620Y-115012619D01*
X75374344Y-115266629D01*
X75491251Y-115548869D01*
X75550850Y-115848491D01*
X75550850Y-116153989D01*
X75491251Y-116453611D01*
X75374344Y-116735851D01*
X75204620Y-116989861D01*
X74988601Y-117205880D01*
X74734591Y-117375604D01*
X74569259Y-117444086D01*
X74452352Y-117492511D01*
X74352477Y-117512377D01*
X74152729Y-117552110D01*
X73847231Y-117552110D01*
X73647483Y-117512377D01*
X73547608Y-117492511D01*
X73430701Y-117444086D01*
X73265369Y-117375604D01*
X73011359Y-117205880D01*
X72795340Y-116989861D01*
X72625616Y-116735851D01*
X72508709Y-116453611D01*
X72449110Y-116153989D01*
X72449110Y-115848491D01*
X72508709Y-115548869D01*
X72625616Y-115266629D01*
X72795340Y-115012619D01*
X73011359Y-114796600D01*
X73265369Y-114626876D01*
X73430701Y-114558394D01*
X73547608Y-114509969D01*
X73647483Y-114490103D01*
X73847231Y-114450370D01*
X74152729Y-114450370D01*
X74352477Y-114490103D01*
G37*
G36*
X69353757Y-114490103D02*
G01*
X69453632Y-114509969D01*
X69570539Y-114558394D01*
X69735871Y-114626876D01*
X69989881Y-114796600D01*
X70205900Y-115012619D01*
X70375624Y-115266629D01*
X70492531Y-115548869D01*
X70552130Y-115848491D01*
X70552130Y-116153989D01*
X70492531Y-116453611D01*
X70375624Y-116735851D01*
X70205900Y-116989861D01*
X69989881Y-117205880D01*
X69735871Y-117375604D01*
X69570539Y-117444086D01*
X69453632Y-117492511D01*
X69353757Y-117512377D01*
X69154009Y-117552110D01*
X68848511Y-117552110D01*
X68648763Y-117512377D01*
X68548888Y-117492511D01*
X68431981Y-117444086D01*
X68266649Y-117375604D01*
X68012639Y-117205880D01*
X67796620Y-116989861D01*
X67626896Y-116735851D01*
X67509989Y-116453611D01*
X67450390Y-116153989D01*
X67450390Y-115848491D01*
X67509989Y-115548869D01*
X67626896Y-115266629D01*
X67796620Y-115012619D01*
X68012639Y-114796600D01*
X68266649Y-114626876D01*
X68431981Y-114558394D01*
X68548888Y-114509969D01*
X68648763Y-114490103D01*
X68848511Y-114450370D01*
X69154009Y-114450370D01*
X69353757Y-114490103D01*
G37*
G36*
X54352517Y-114490103D02*
G01*
X54452392Y-114509969D01*
X54569299Y-114558394D01*
X54734631Y-114626876D01*
X54988641Y-114796600D01*
X55204660Y-115012619D01*
X55374384Y-115266629D01*
X55491291Y-115548869D01*
X55550890Y-115848491D01*
X55550890Y-116153989D01*
X55491291Y-116453611D01*
X55374384Y-116735851D01*
X55204660Y-116989861D01*
X54988641Y-117205880D01*
X54734631Y-117375604D01*
X54569299Y-117444086D01*
X54452392Y-117492511D01*
X54352517Y-117512377D01*
X54152769Y-117552110D01*
X53847271Y-117552110D01*
X53647523Y-117512377D01*
X53547648Y-117492511D01*
X53430741Y-117444086D01*
X53265409Y-117375604D01*
X53011399Y-117205880D01*
X52795380Y-116989861D01*
X52625656Y-116735851D01*
X52508749Y-116453611D01*
X52449150Y-116153989D01*
X52449150Y-115848491D01*
X52508749Y-115548869D01*
X52625656Y-115266629D01*
X52795380Y-115012619D01*
X53011399Y-114796600D01*
X53265409Y-114626876D01*
X53430741Y-114558394D01*
X53547648Y-114509969D01*
X53647523Y-114490103D01*
X53847271Y-114450370D01*
X54152769Y-114450370D01*
X54352517Y-114490103D01*
G37*
G36*
X59351237Y-114490103D02*
G01*
X59451112Y-114509969D01*
X59568019Y-114558394D01*
X59733351Y-114626876D01*
X59987361Y-114796600D01*
X60203380Y-115012619D01*
X60373104Y-115266629D01*
X60490011Y-115548869D01*
X60549610Y-115848491D01*
X60549610Y-116153989D01*
X60490011Y-116453611D01*
X60373104Y-116735851D01*
X60203380Y-116989861D01*
X59987361Y-117205880D01*
X59733351Y-117375604D01*
X59568019Y-117444086D01*
X59451112Y-117492511D01*
X59351237Y-117512377D01*
X59151489Y-117552110D01*
X58845991Y-117552110D01*
X58646243Y-117512377D01*
X58546368Y-117492511D01*
X58429461Y-117444086D01*
X58264129Y-117375604D01*
X58010119Y-117205880D01*
X57794100Y-116989861D01*
X57624376Y-116735851D01*
X57507469Y-116453611D01*
X57447870Y-116153989D01*
X57447870Y-115848491D01*
X57507469Y-115548869D01*
X57624376Y-115266629D01*
X57794100Y-115012619D01*
X58010119Y-114796600D01*
X58264129Y-114626876D01*
X58429461Y-114558394D01*
X58546368Y-114509969D01*
X58646243Y-114490103D01*
X58845991Y-114450370D01*
X59151489Y-114450370D01*
X59351237Y-114490103D01*
G37*
G36*
X49351257Y-114490103D02*
G01*
X49451132Y-114509969D01*
X49568039Y-114558394D01*
X49733371Y-114626876D01*
X49987381Y-114796600D01*
X50203400Y-115012619D01*
X50373124Y-115266629D01*
X50490031Y-115548869D01*
X50549630Y-115848491D01*
X50549630Y-116153989D01*
X50490031Y-116453611D01*
X50373124Y-116735851D01*
X50203400Y-116989861D01*
X49987381Y-117205880D01*
X49733371Y-117375604D01*
X49568039Y-117444086D01*
X49451132Y-117492511D01*
X49351257Y-117512377D01*
X49151509Y-117552110D01*
X48846011Y-117552110D01*
X48646263Y-117512377D01*
X48546388Y-117492511D01*
X48429481Y-117444086D01*
X48264149Y-117375604D01*
X48010139Y-117205880D01*
X47794120Y-116989861D01*
X47624396Y-116735851D01*
X47507489Y-116453611D01*
X47447890Y-116153989D01*
X47447890Y-115848491D01*
X47507489Y-115548869D01*
X47624396Y-115266629D01*
X47794120Y-115012619D01*
X48010139Y-114796600D01*
X48264149Y-114626876D01*
X48429481Y-114558394D01*
X48546388Y-114509969D01*
X48646263Y-114490103D01*
X48846011Y-114450370D01*
X49151509Y-114450370D01*
X49351257Y-114490103D01*
G37*
G36*
X79353737Y-114490103D02*
G01*
X79453612Y-114509969D01*
X79570519Y-114558394D01*
X79735851Y-114626876D01*
X79989861Y-114796600D01*
X80205880Y-115012619D01*
X80375604Y-115266629D01*
X80492511Y-115548869D01*
X80552110Y-115848491D01*
X80552110Y-116153989D01*
X80492511Y-116453611D01*
X80375604Y-116735851D01*
X80205880Y-116989861D01*
X79989861Y-117205880D01*
X79735851Y-117375604D01*
X79570519Y-117444086D01*
X79453612Y-117492511D01*
X79353737Y-117512377D01*
X79153989Y-117552110D01*
X78848491Y-117552110D01*
X78648743Y-117512377D01*
X78548868Y-117492511D01*
X78431961Y-117444086D01*
X78266629Y-117375604D01*
X78012619Y-117205880D01*
X77796600Y-116989861D01*
X77626876Y-116735851D01*
X77509969Y-116453611D01*
X77450370Y-116153989D01*
X77450370Y-115848491D01*
X77509969Y-115548869D01*
X77626876Y-115266629D01*
X77796600Y-115012619D01*
X78012619Y-114796600D01*
X78266629Y-114626876D01*
X78431961Y-114558394D01*
X78548868Y-114509969D01*
X78648743Y-114490103D01*
X78848491Y-114450370D01*
X79153989Y-114450370D01*
X79353737Y-114490103D01*
G37*
G36*
X33247765Y-113754403D02*
G01*
X33370445Y-113778805D01*
X33601571Y-113874541D01*
X33809578Y-114013527D01*
X33986473Y-114190422D01*
X34125459Y-114398429D01*
X34221195Y-114629555D01*
X34270000Y-114874916D01*
X34270000Y-115125084D01*
X34221195Y-115370445D01*
X34125459Y-115601571D01*
X33986473Y-115809578D01*
X33809578Y-115986473D01*
X33601571Y-116125459D01*
X33370445Y-116221195D01*
X33247764Y-116245598D01*
X33125085Y-116270000D01*
X32874915Y-116270000D01*
X32752236Y-116245598D01*
X32629555Y-116221195D01*
X32398429Y-116125459D01*
X32190422Y-115986473D01*
X32013527Y-115809578D01*
X31874541Y-115601571D01*
X31778805Y-115370445D01*
X31730000Y-115125084D01*
X31730000Y-114874916D01*
X31778805Y-114629555D01*
X31874541Y-114398429D01*
X32013527Y-114190422D01*
X32190422Y-114013527D01*
X32398429Y-113874541D01*
X32629555Y-113778805D01*
X32752235Y-113754403D01*
X32874915Y-113730000D01*
X33125085Y-113730000D01*
X33247765Y-113754403D01*
G37*
G36*
X38951000Y-115801000D02*
G01*
X37049000Y-115801000D01*
X37049000Y-113199000D01*
X38951000Y-113199000D01*
X38951000Y-115801000D01*
G37*
G36*
X72747070Y-105950877D02*
G01*
X72759493Y-105954646D01*
X72770954Y-105960772D01*
X72780991Y-105969009D01*
X72789228Y-105979046D01*
X72795354Y-105990507D01*
X72799123Y-106002930D01*
X72801000Y-106021994D01*
X72801000Y-113478006D01*
X72799123Y-113497070D01*
X72795354Y-113509493D01*
X72789228Y-113520954D01*
X72780991Y-113530991D01*
X72770954Y-113539228D01*
X72759493Y-113545354D01*
X72747070Y-113549123D01*
X72728006Y-113551000D01*
X66271994Y-113551000D01*
X66252930Y-113549123D01*
X66240507Y-113545354D01*
X66229046Y-113539228D01*
X66219009Y-113530991D01*
X66210772Y-113520954D01*
X66204646Y-113509493D01*
X66200877Y-113497070D01*
X66199000Y-113478006D01*
X66199000Y-106021994D01*
X66200877Y-106002930D01*
X66204646Y-105990507D01*
X66210772Y-105979046D01*
X66219009Y-105969009D01*
X66229046Y-105960772D01*
X66240507Y-105954646D01*
X66252930Y-105950877D01*
X66271994Y-105949000D01*
X72728006Y-105949000D01*
X72747070Y-105950877D01*
G37*
G36*
X117747070Y-105950877D02*
G01*
X117759493Y-105954646D01*
X117770954Y-105960772D01*
X117780991Y-105969009D01*
X117789228Y-105979046D01*
X117795354Y-105990507D01*
X117799123Y-106002930D01*
X117801000Y-106021994D01*
X117801000Y-113478006D01*
X117799123Y-113497070D01*
X117795354Y-113509493D01*
X117789228Y-113520954D01*
X117780991Y-113530991D01*
X117770954Y-113539228D01*
X117759493Y-113545354D01*
X117747070Y-113549123D01*
X117728006Y-113551000D01*
X111271994Y-113551000D01*
X111252930Y-113549123D01*
X111240507Y-113545354D01*
X111229046Y-113539228D01*
X111219009Y-113530991D01*
X111210772Y-113520954D01*
X111204646Y-113509493D01*
X111200877Y-113497070D01*
X111199000Y-113478006D01*
X111199000Y-106021994D01*
X111200877Y-106002930D01*
X111204646Y-105990507D01*
X111210772Y-105979046D01*
X111219009Y-105969009D01*
X111229046Y-105960772D01*
X111240507Y-105954646D01*
X111252930Y-105950877D01*
X111271994Y-105949000D01*
X117728006Y-105949000D01*
X117747070Y-105950877D01*
G37*
G36*
X97747070Y-105950877D02*
G01*
X97759493Y-105954646D01*
X97770954Y-105960772D01*
X97780991Y-105969009D01*
X97789228Y-105979046D01*
X97795354Y-105990507D01*
X97799123Y-106002930D01*
X97801000Y-106021994D01*
X97801000Y-113478006D01*
X97799123Y-113497070D01*
X97795354Y-113509493D01*
X97789228Y-113520954D01*
X97780991Y-113530991D01*
X97770954Y-113539228D01*
X97759493Y-113545354D01*
X97747070Y-113549123D01*
X97728006Y-113551000D01*
X91271994Y-113551000D01*
X91252930Y-113549123D01*
X91240507Y-113545354D01*
X91229046Y-113539228D01*
X91219009Y-113530991D01*
X91210772Y-113520954D01*
X91204646Y-113509493D01*
X91200877Y-113497070D01*
X91199000Y-113478006D01*
X91199000Y-106021994D01*
X91200877Y-106002930D01*
X91204646Y-105990507D01*
X91210772Y-105979046D01*
X91219009Y-105969009D01*
X91229046Y-105960772D01*
X91240507Y-105954646D01*
X91252930Y-105950877D01*
X91271994Y-105949000D01*
X97728006Y-105949000D01*
X97747070Y-105950877D01*
G37*
G36*
X52747070Y-105950877D02*
G01*
X52759493Y-105954646D01*
X52770954Y-105960772D01*
X52780991Y-105969009D01*
X52789228Y-105979046D01*
X52795354Y-105990507D01*
X52799123Y-106002930D01*
X52801000Y-106021994D01*
X52801000Y-113478006D01*
X52799123Y-113497070D01*
X52795354Y-113509493D01*
X52789228Y-113520954D01*
X52780991Y-113530991D01*
X52770954Y-113539228D01*
X52759493Y-113545354D01*
X52747070Y-113549123D01*
X52728006Y-113551000D01*
X46271994Y-113551000D01*
X46252930Y-113549123D01*
X46240507Y-113545354D01*
X46229046Y-113539228D01*
X46219009Y-113530991D01*
X46210772Y-113520954D01*
X46204646Y-113509493D01*
X46200877Y-113497070D01*
X46199000Y-113478006D01*
X46199000Y-106021994D01*
X46200877Y-106002930D01*
X46204646Y-105990507D01*
X46210772Y-105979046D01*
X46219009Y-105969009D01*
X46229046Y-105960772D01*
X46240507Y-105954646D01*
X46252930Y-105950877D01*
X46271994Y-105949000D01*
X52728006Y-105949000D01*
X52747070Y-105950877D01*
G37*
G36*
X81401000Y-112701000D02*
G01*
X80599000Y-112701000D01*
X80599000Y-111299000D01*
X81401000Y-111299000D01*
X81401000Y-112701000D01*
G37*
G36*
X83301000Y-112701000D02*
G01*
X82499000Y-112701000D01*
X82499000Y-111299000D01*
X83301000Y-111299000D01*
X83301000Y-112701000D01*
G37*
G36*
X38951000Y-111801000D02*
G01*
X37049000Y-111801000D01*
X37049000Y-109199000D01*
X38951000Y-109199000D01*
X38951000Y-111801000D01*
G37*
G36*
X81401000Y-110201000D02*
G01*
X80599000Y-110201000D01*
X80599000Y-108799000D01*
X81401000Y-108799000D01*
X81401000Y-110201000D01*
G37*
G36*
X83301000Y-110201000D02*
G01*
X82499000Y-110201000D01*
X82499000Y-108799000D01*
X83301000Y-108799000D01*
X83301000Y-110201000D01*
G37*
G36*
X38951000Y-108051000D02*
G01*
X37049000Y-108051000D01*
X37049000Y-105449000D01*
X38951000Y-105449000D01*
X38951000Y-108051000D01*
G37*
G36*
X81401000Y-107701000D02*
G01*
X80599000Y-107701000D01*
X80599000Y-106299000D01*
X81401000Y-106299000D01*
X81401000Y-107701000D01*
G37*
G36*
X83301000Y-107701000D02*
G01*
X82499000Y-107701000D01*
X82499000Y-106299000D01*
X83301000Y-106299000D01*
X83301000Y-107701000D01*
G37*
G36*
X30357610Y-102821114D02*
G01*
X30580727Y-102913532D01*
X30580729Y-102913533D01*
X30631269Y-102947303D01*
X30781529Y-103047703D01*
X30952297Y-103218471D01*
X31086468Y-103419273D01*
X31178886Y-103642390D01*
X31226000Y-103879248D01*
X31226000Y-104120752D01*
X31178886Y-104357610D01*
X31086468Y-104580727D01*
X30952297Y-104781529D01*
X30781529Y-104952297D01*
X30631269Y-105052697D01*
X30580729Y-105086467D01*
X30580728Y-105086468D01*
X30580727Y-105086468D01*
X30357610Y-105178886D01*
X30120752Y-105226000D01*
X29879248Y-105226000D01*
X29642390Y-105178886D01*
X29419273Y-105086468D01*
X29419272Y-105086468D01*
X29419271Y-105086467D01*
X29368731Y-105052697D01*
X29218471Y-104952297D01*
X29047703Y-104781529D01*
X28913532Y-104580727D01*
X28821114Y-104357610D01*
X28774000Y-104120752D01*
X28774000Y-103879248D01*
X28821114Y-103642390D01*
X28913532Y-103419273D01*
X29047703Y-103218471D01*
X29218471Y-103047703D01*
X29368731Y-102947303D01*
X29419271Y-102913533D01*
X29419273Y-102913532D01*
X29642390Y-102821114D01*
X29879248Y-102774000D01*
X30120752Y-102774000D01*
X30357610Y-102821114D01*
G37*
G36*
X81401000Y-105201000D02*
G01*
X80599000Y-105201000D01*
X80599000Y-103799000D01*
X81401000Y-103799000D01*
X81401000Y-105201000D01*
G37*
G36*
X83301000Y-105201000D02*
G01*
X82499000Y-105201000D01*
X82499000Y-103799000D01*
X83301000Y-103799000D01*
X83301000Y-105201000D01*
G37*
G36*
X38951000Y-104051000D02*
G01*
X37049000Y-104051000D01*
X37049000Y-101449000D01*
X38951000Y-101449000D01*
X38951000Y-104051000D01*
G37*
G36*
X83351000Y-102201000D02*
G01*
X82549000Y-102201000D01*
X82549000Y-100799000D01*
X83351000Y-100799000D01*
X83351000Y-102201000D01*
G37*
G36*
X81451000Y-102201000D02*
G01*
X80649000Y-102201000D01*
X80649000Y-100799000D01*
X81451000Y-100799000D01*
X81451000Y-102201000D01*
G37*
G36*
X38951000Y-100301000D02*
G01*
X37049000Y-100301000D01*
X37049000Y-97699000D01*
X38951000Y-97699000D01*
X38951000Y-100301000D01*
G37*
G36*
X117747070Y-92450877D02*
G01*
X117759493Y-92454646D01*
X117770954Y-92460772D01*
X117780991Y-92469009D01*
X117789228Y-92479046D01*
X117795354Y-92490507D01*
X117799123Y-92502930D01*
X117801000Y-92521994D01*
X117801000Y-99978006D01*
X117799123Y-99997070D01*
X117795354Y-100009493D01*
X117789228Y-100020954D01*
X117780991Y-100030991D01*
X117770954Y-100039228D01*
X117759493Y-100045354D01*
X117747070Y-100049123D01*
X117728006Y-100051000D01*
X111271994Y-100051000D01*
X111252930Y-100049123D01*
X111240507Y-100045354D01*
X111229046Y-100039228D01*
X111219009Y-100030991D01*
X111210772Y-100020954D01*
X111204646Y-100009493D01*
X111200877Y-99997070D01*
X111199000Y-99978006D01*
X111199000Y-92521994D01*
X111200877Y-92502930D01*
X111204646Y-92490507D01*
X111210772Y-92479046D01*
X111219009Y-92469009D01*
X111229046Y-92460772D01*
X111240507Y-92454646D01*
X111252930Y-92450877D01*
X111271994Y-92449000D01*
X117728006Y-92449000D01*
X117747070Y-92450877D01*
G37*
G36*
X97747070Y-92450877D02*
G01*
X97759493Y-92454646D01*
X97770954Y-92460772D01*
X97780991Y-92469009D01*
X97789228Y-92479046D01*
X97795354Y-92490507D01*
X97799123Y-92502930D01*
X97801000Y-92521994D01*
X97801000Y-99978006D01*
X97799123Y-99997070D01*
X97795354Y-100009493D01*
X97789228Y-100020954D01*
X97780991Y-100030991D01*
X97770954Y-100039228D01*
X97759493Y-100045354D01*
X97747070Y-100049123D01*
X97728006Y-100051000D01*
X91271994Y-100051000D01*
X91252930Y-100049123D01*
X91240507Y-100045354D01*
X91229046Y-100039228D01*
X91219009Y-100030991D01*
X91210772Y-100020954D01*
X91204646Y-100009493D01*
X91200877Y-99997070D01*
X91199000Y-99978006D01*
X91199000Y-92521994D01*
X91200877Y-92502930D01*
X91204646Y-92490507D01*
X91210772Y-92479046D01*
X91219009Y-92469009D01*
X91229046Y-92460772D01*
X91240507Y-92454646D01*
X91252930Y-92450877D01*
X91271994Y-92449000D01*
X97728006Y-92449000D01*
X97747070Y-92450877D01*
G37*
G36*
X72747070Y-92450877D02*
G01*
X72759493Y-92454646D01*
X72770954Y-92460772D01*
X72780991Y-92469009D01*
X72789228Y-92479046D01*
X72795354Y-92490507D01*
X72799123Y-92502930D01*
X72801000Y-92521994D01*
X72801000Y-99978006D01*
X72799123Y-99997070D01*
X72795354Y-100009493D01*
X72789228Y-100020954D01*
X72780991Y-100030991D01*
X72770954Y-100039228D01*
X72759493Y-100045354D01*
X72747070Y-100049123D01*
X72728006Y-100051000D01*
X66271994Y-100051000D01*
X66252930Y-100049123D01*
X66240507Y-100045354D01*
X66229046Y-100039228D01*
X66219009Y-100030991D01*
X66210772Y-100020954D01*
X66204646Y-100009493D01*
X66200877Y-99997070D01*
X66199000Y-99978006D01*
X66199000Y-92521994D01*
X66200877Y-92502930D01*
X66204646Y-92490507D01*
X66210772Y-92479046D01*
X66219009Y-92469009D01*
X66229046Y-92460772D01*
X66240507Y-92454646D01*
X66252930Y-92450877D01*
X66271994Y-92449000D01*
X72728006Y-92449000D01*
X72747070Y-92450877D01*
G37*
G36*
X52747070Y-92450877D02*
G01*
X52759493Y-92454646D01*
X52770954Y-92460772D01*
X52780991Y-92469009D01*
X52789228Y-92479046D01*
X52795354Y-92490507D01*
X52799123Y-92502930D01*
X52801000Y-92521994D01*
X52801000Y-99978006D01*
X52799123Y-99997070D01*
X52795354Y-100009493D01*
X52789228Y-100020954D01*
X52780991Y-100030991D01*
X52770954Y-100039228D01*
X52759493Y-100045354D01*
X52747070Y-100049123D01*
X52728006Y-100051000D01*
X46271994Y-100051000D01*
X46252930Y-100049123D01*
X46240507Y-100045354D01*
X46229046Y-100039228D01*
X46219009Y-100030991D01*
X46210772Y-100020954D01*
X46204646Y-100009493D01*
X46200877Y-99997070D01*
X46199000Y-99978006D01*
X46199000Y-92521994D01*
X46200877Y-92502930D01*
X46204646Y-92490507D01*
X46210772Y-92479046D01*
X46219009Y-92469009D01*
X46229046Y-92460772D01*
X46240507Y-92454646D01*
X46252930Y-92450877D01*
X46271994Y-92449000D01*
X52728006Y-92449000D01*
X52747070Y-92450877D01*
G37*
G36*
X83301000Y-99701000D02*
G01*
X82499000Y-99701000D01*
X82499000Y-98299000D01*
X83301000Y-98299000D01*
X83301000Y-99701000D01*
G37*
G36*
X81401000Y-99701000D02*
G01*
X80599000Y-99701000D01*
X80599000Y-98299000D01*
X81401000Y-98299000D01*
X81401000Y-99701000D01*
G37*
G36*
X30357610Y-96821114D02*
G01*
X30580727Y-96913532D01*
X30580729Y-96913533D01*
X30631269Y-96947303D01*
X30781529Y-97047703D01*
X30952297Y-97218471D01*
X31086468Y-97419273D01*
X31178886Y-97642390D01*
X31226000Y-97879248D01*
X31226000Y-98120752D01*
X31178886Y-98357610D01*
X31086468Y-98580727D01*
X30952297Y-98781529D01*
X30781529Y-98952297D01*
X30631269Y-99052697D01*
X30580729Y-99086467D01*
X30580728Y-99086468D01*
X30580727Y-99086468D01*
X30357610Y-99178886D01*
X30120752Y-99226000D01*
X29879248Y-99226000D01*
X29642390Y-99178886D01*
X29419273Y-99086468D01*
X29419272Y-99086468D01*
X29419271Y-99086467D01*
X29368731Y-99052697D01*
X29218471Y-98952297D01*
X29047703Y-98781529D01*
X28913532Y-98580727D01*
X28821114Y-98357610D01*
X28774000Y-98120752D01*
X28774000Y-97879248D01*
X28821114Y-97642390D01*
X28913532Y-97419273D01*
X29047703Y-97218471D01*
X29218471Y-97047703D01*
X29368731Y-96947303D01*
X29419271Y-96913533D01*
X29419273Y-96913532D01*
X29642390Y-96821114D01*
X29879248Y-96774000D01*
X30120752Y-96774000D01*
X30357610Y-96821114D01*
G37*
G36*
X81401000Y-97201000D02*
G01*
X80599000Y-97201000D01*
X80599000Y-95799000D01*
X81401000Y-95799000D01*
X81401000Y-97201000D01*
G37*
G36*
X83301000Y-97201000D02*
G01*
X82499000Y-97201000D01*
X82499000Y-95799000D01*
X83301000Y-95799000D01*
X83301000Y-97201000D01*
G37*
G36*
X38951000Y-96301000D02*
G01*
X37049000Y-96301000D01*
X37049000Y-93699000D01*
X38951000Y-93699000D01*
X38951000Y-96301000D01*
G37*
G36*
X81401000Y-94701000D02*
G01*
X80599000Y-94701000D01*
X80599000Y-93299000D01*
X81401000Y-93299000D01*
X81401000Y-94701000D01*
G37*
G36*
X83301000Y-94701000D02*
G01*
X82499000Y-94701000D01*
X82499000Y-93299000D01*
X83301000Y-93299000D01*
X83301000Y-94701000D01*
G37*
G36*
X102801000Y-91951000D02*
G01*
X100199000Y-91951000D01*
X100199000Y-90049000D01*
X102801000Y-90049000D01*
X102801000Y-91951000D01*
G37*
G36*
X106801000Y-91951000D02*
G01*
X104199000Y-91951000D01*
X104199000Y-90049000D01*
X106801000Y-90049000D01*
X106801000Y-91951000D01*
G37*
G36*
X99051000Y-90301000D02*
G01*
X97949000Y-90301000D01*
X97949000Y-87699000D01*
X99051000Y-87699000D01*
X99051000Y-90301000D01*
G37*
G36*
X96051000Y-90301000D02*
G01*
X94949000Y-90301000D01*
X94949000Y-87699000D01*
X96051000Y-87699000D01*
X96051000Y-90301000D01*
G37*
G36*
X30357610Y-86821114D02*
G01*
X30580727Y-86913532D01*
X30580729Y-86913533D01*
X30631269Y-86947303D01*
X30781529Y-87047703D01*
X30952297Y-87218471D01*
X31086468Y-87419273D01*
X31178886Y-87642390D01*
X31226000Y-87879248D01*
X31226000Y-88120752D01*
X31178886Y-88357610D01*
X31086468Y-88580727D01*
X30952297Y-88781529D01*
X30781529Y-88952297D01*
X30631269Y-89052697D01*
X30580729Y-89086467D01*
X30580728Y-89086468D01*
X30580727Y-89086468D01*
X30357610Y-89178886D01*
X30120752Y-89226000D01*
X29879248Y-89226000D01*
X29642390Y-89178886D01*
X29419273Y-89086468D01*
X29419272Y-89086468D01*
X29419271Y-89086467D01*
X29368731Y-89052697D01*
X29218471Y-88952297D01*
X29047703Y-88781529D01*
X28913532Y-88580727D01*
X28821114Y-88357610D01*
X28774000Y-88120752D01*
X28774000Y-87879248D01*
X28821114Y-87642390D01*
X28913532Y-87419273D01*
X29047703Y-87218471D01*
X29218471Y-87047703D01*
X29368731Y-86947303D01*
X29419271Y-86913533D01*
X29419273Y-86913532D01*
X29642390Y-86821114D01*
X29879248Y-86774000D01*
X30120752Y-86774000D01*
X30357610Y-86821114D01*
G37*
G36*
X109301000Y-88451000D02*
G01*
X106699000Y-88451000D01*
X106699000Y-86549000D01*
X109301000Y-86549000D01*
X109301000Y-88451000D01*
G37*
G36*
X113301000Y-88451000D02*
G01*
X110699000Y-88451000D01*
X110699000Y-86549000D01*
X113301000Y-86549000D01*
X113301000Y-88451000D01*
G37*
G36*
X121651000Y-87701000D02*
G01*
X120849000Y-87701000D01*
X120849000Y-86299000D01*
X121651000Y-86299000D01*
X121651000Y-87701000D01*
G37*
G36*
X119751000Y-87701000D02*
G01*
X118949000Y-87701000D01*
X118949000Y-86299000D01*
X119751000Y-86299000D01*
X119751000Y-87701000D01*
G37*
G36*
X118151000Y-87651000D02*
G01*
X116849000Y-87651000D01*
X116849000Y-86349000D01*
X118151000Y-86349000D01*
X118151000Y-87651000D01*
G37*
G36*
X115951000Y-87651000D02*
G01*
X114649000Y-87651000D01*
X114649000Y-86349000D01*
X115951000Y-86349000D01*
X115951000Y-87651000D01*
G37*
G36*
X79353737Y-84487623D02*
G01*
X79453612Y-84507489D01*
X79570519Y-84555914D01*
X79735851Y-84624396D01*
X79989861Y-84794120D01*
X80205880Y-85010139D01*
X80375604Y-85264149D01*
X80492511Y-85546389D01*
X80552110Y-85846011D01*
X80552110Y-86151509D01*
X80492511Y-86451131D01*
X80375604Y-86733371D01*
X80205880Y-86987381D01*
X79989861Y-87203400D01*
X79735851Y-87373124D01*
X79570519Y-87441606D01*
X79453612Y-87490031D01*
X79353737Y-87509897D01*
X79153989Y-87549630D01*
X78848491Y-87549630D01*
X78648743Y-87509897D01*
X78548868Y-87490031D01*
X78431961Y-87441606D01*
X78266629Y-87373124D01*
X78012619Y-87203400D01*
X77796600Y-86987381D01*
X77626876Y-86733371D01*
X77509969Y-86451131D01*
X77450370Y-86151509D01*
X77450370Y-85846011D01*
X77509969Y-85546389D01*
X77626876Y-85264149D01*
X77796600Y-85010139D01*
X78012619Y-84794120D01*
X78266629Y-84624396D01*
X78431961Y-84555914D01*
X78548868Y-84507489D01*
X78648743Y-84487623D01*
X78848491Y-84447890D01*
X79153989Y-84447890D01*
X79353737Y-84487623D01*
G37*
G36*
X49351257Y-84487623D02*
G01*
X49451132Y-84507489D01*
X49568039Y-84555914D01*
X49733371Y-84624396D01*
X49987381Y-84794120D01*
X50203400Y-85010139D01*
X50373124Y-85264149D01*
X50490031Y-85546389D01*
X50549630Y-85846011D01*
X50549630Y-86151509D01*
X50490031Y-86451131D01*
X50373124Y-86733371D01*
X50203400Y-86987381D01*
X49987381Y-87203400D01*
X49733371Y-87373124D01*
X49568039Y-87441606D01*
X49451132Y-87490031D01*
X49351257Y-87509897D01*
X49151509Y-87549630D01*
X48846011Y-87549630D01*
X48646263Y-87509897D01*
X48546388Y-87490031D01*
X48429481Y-87441606D01*
X48264149Y-87373124D01*
X48010139Y-87203400D01*
X47794120Y-86987381D01*
X47624396Y-86733371D01*
X47507489Y-86451131D01*
X47447890Y-86151509D01*
X47447890Y-85846011D01*
X47507489Y-85546389D01*
X47624396Y-85264149D01*
X47794120Y-85010139D01*
X48010139Y-84794120D01*
X48264149Y-84624396D01*
X48429481Y-84555914D01*
X48546388Y-84507489D01*
X48646263Y-84487623D01*
X48846011Y-84447890D01*
X49151509Y-84447890D01*
X49351257Y-84487623D01*
G37*
G36*
X69353757Y-84487623D02*
G01*
X69453632Y-84507489D01*
X69570539Y-84555914D01*
X69735871Y-84624396D01*
X69989881Y-84794120D01*
X70205900Y-85010139D01*
X70375624Y-85264149D01*
X70492531Y-85546389D01*
X70552130Y-85846011D01*
X70552130Y-86151509D01*
X70492531Y-86451131D01*
X70375624Y-86733371D01*
X70205900Y-86987381D01*
X69989881Y-87203400D01*
X69735871Y-87373124D01*
X69570539Y-87441606D01*
X69453632Y-87490031D01*
X69353757Y-87509897D01*
X69154009Y-87549630D01*
X68848511Y-87549630D01*
X68648763Y-87509897D01*
X68548888Y-87490031D01*
X68431981Y-87441606D01*
X68266649Y-87373124D01*
X68012639Y-87203400D01*
X67796620Y-86987381D01*
X67626896Y-86733371D01*
X67509989Y-86451131D01*
X67450390Y-86151509D01*
X67450390Y-85846011D01*
X67509989Y-85546389D01*
X67626896Y-85264149D01*
X67796620Y-85010139D01*
X68012639Y-84794120D01*
X68266649Y-84624396D01*
X68431981Y-84555914D01*
X68548888Y-84507489D01*
X68648763Y-84487623D01*
X68848511Y-84447890D01*
X69154009Y-84447890D01*
X69353757Y-84487623D01*
G37*
G36*
X59351237Y-84487623D02*
G01*
X59451112Y-84507489D01*
X59568019Y-84555914D01*
X59733351Y-84624396D01*
X59987361Y-84794120D01*
X60203380Y-85010139D01*
X60373104Y-85264149D01*
X60490011Y-85546389D01*
X60549610Y-85846011D01*
X60549610Y-86151509D01*
X60490011Y-86451131D01*
X60373104Y-86733371D01*
X60203380Y-86987381D01*
X59987361Y-87203400D01*
X59733351Y-87373124D01*
X59568019Y-87441606D01*
X59451112Y-87490031D01*
X59351237Y-87509897D01*
X59151489Y-87549630D01*
X58845991Y-87549630D01*
X58646243Y-87509897D01*
X58546368Y-87490031D01*
X58429461Y-87441606D01*
X58264129Y-87373124D01*
X58010119Y-87203400D01*
X57794100Y-86987381D01*
X57624376Y-86733371D01*
X57507469Y-86451131D01*
X57447870Y-86151509D01*
X57447870Y-85846011D01*
X57507469Y-85546389D01*
X57624376Y-85264149D01*
X57794100Y-85010139D01*
X58010119Y-84794120D01*
X58264129Y-84624396D01*
X58429461Y-84555914D01*
X58546368Y-84507489D01*
X58646243Y-84487623D01*
X58845991Y-84447890D01*
X59151489Y-84447890D01*
X59351237Y-84487623D01*
G37*
G36*
X98801000Y-87201000D02*
G01*
X97999000Y-87201000D01*
X97999000Y-85799000D01*
X98801000Y-85799000D01*
X98801000Y-87201000D01*
G37*
G36*
X96901000Y-87201000D02*
G01*
X96099000Y-87201000D01*
X96099000Y-85799000D01*
X96901000Y-85799000D01*
X96901000Y-87201000D01*
G37*
G36*
X106176000Y-87051000D02*
G01*
X104824000Y-87051000D01*
X104824000Y-85949000D01*
X106176000Y-85949000D01*
X106176000Y-87051000D01*
G37*
G36*
X102951000Y-86951000D02*
G01*
X101049000Y-86951000D01*
X101049000Y-85049000D01*
X102951000Y-85049000D01*
X102951000Y-86951000D01*
G37*
G36*
X42389943Y-80066248D02*
G01*
X42945189Y-80296238D01*
X43027146Y-80351000D01*
X43444899Y-80630134D01*
X43869866Y-81055101D01*
X43979026Y-81218471D01*
X44203762Y-81554811D01*
X44433752Y-82110057D01*
X44551000Y-82699501D01*
X44551000Y-83300499D01*
X44433752Y-83889943D01*
X44203762Y-84445189D01*
X44203761Y-84445190D01*
X43869866Y-84944899D01*
X43444899Y-85369866D01*
X43193347Y-85537948D01*
X42945189Y-85703762D01*
X42389943Y-85933752D01*
X41800499Y-86051000D01*
X41199501Y-86051000D01*
X40610057Y-85933752D01*
X40054811Y-85703762D01*
X39806653Y-85537948D01*
X39555101Y-85369866D01*
X39130134Y-84944899D01*
X38796239Y-84445190D01*
X38796238Y-84445189D01*
X38566248Y-83889943D01*
X38449000Y-83300499D01*
X38449000Y-82699501D01*
X38566248Y-82110057D01*
X38796238Y-81554811D01*
X39020974Y-81218471D01*
X39130134Y-81055101D01*
X39555101Y-80630134D01*
X39972854Y-80351000D01*
X40054811Y-80296238D01*
X40610057Y-80066248D01*
X41199501Y-79949000D01*
X41800499Y-79949000D01*
X42389943Y-80066248D01*
G37*
G36*
X87389943Y-80066248D02*
G01*
X87945189Y-80296238D01*
X88027146Y-80351000D01*
X88444899Y-80630134D01*
X88869866Y-81055101D01*
X88979026Y-81218471D01*
X89203762Y-81554811D01*
X89433752Y-82110057D01*
X89551000Y-82699501D01*
X89551000Y-83300499D01*
X89433752Y-83889943D01*
X89203762Y-84445189D01*
X89203761Y-84445190D01*
X88869866Y-84944899D01*
X88444899Y-85369866D01*
X88193347Y-85537948D01*
X87945189Y-85703762D01*
X87389943Y-85933752D01*
X86800499Y-86051000D01*
X86199501Y-86051000D01*
X85610057Y-85933752D01*
X85054811Y-85703762D01*
X84806653Y-85537948D01*
X84555101Y-85369866D01*
X84130134Y-84944899D01*
X83796239Y-84445190D01*
X83796238Y-84445189D01*
X83566248Y-83889943D01*
X83449000Y-83300499D01*
X83449000Y-82699501D01*
X83566248Y-82110057D01*
X83796238Y-81554811D01*
X84020974Y-81218471D01*
X84130134Y-81055101D01*
X84555101Y-80630134D01*
X84972854Y-80351000D01*
X85054811Y-80296238D01*
X85610057Y-80066248D01*
X86199501Y-79949000D01*
X86800499Y-79949000D01*
X87389943Y-80066248D01*
G37*
G36*
X111248228Y-83681703D02*
G01*
X111403100Y-83745853D01*
X111542481Y-83838985D01*
X111661015Y-83957519D01*
X111754147Y-84096900D01*
X111818297Y-84251772D01*
X111851000Y-84416184D01*
X111851000Y-84583816D01*
X111818297Y-84748228D01*
X111754147Y-84903100D01*
X111661015Y-85042481D01*
X111542481Y-85161015D01*
X111403100Y-85254147D01*
X111248228Y-85318297D01*
X111083816Y-85351000D01*
X110916184Y-85351000D01*
X110751772Y-85318297D01*
X110596900Y-85254147D01*
X110457519Y-85161015D01*
X110338985Y-85042481D01*
X110245853Y-84903100D01*
X110181703Y-84748228D01*
X110149000Y-84583816D01*
X110149000Y-84416184D01*
X110181703Y-84251772D01*
X110245853Y-84096900D01*
X110338985Y-83957519D01*
X110457519Y-83838985D01*
X110596900Y-83745853D01*
X110751772Y-83681703D01*
X110916184Y-83649000D01*
X111083816Y-83649000D01*
X111248228Y-83681703D01*
G37*
G36*
X96901000Y-85201000D02*
G01*
X96099000Y-85201000D01*
X96099000Y-83799000D01*
X96901000Y-83799000D01*
X96901000Y-85201000D01*
G37*
G36*
X98801000Y-85201000D02*
G01*
X97999000Y-85201000D01*
X97999000Y-83799000D01*
X98801000Y-83799000D01*
X98801000Y-85201000D01*
G37*
G36*
X109301000Y-85051000D02*
G01*
X106699000Y-85051000D01*
X106699000Y-82949000D01*
X109301000Y-82949000D01*
X109301000Y-85051000D01*
G37*
G36*
X106176000Y-85051000D02*
G01*
X104824000Y-85051000D01*
X104824000Y-83949000D01*
X106176000Y-83949000D01*
X106176000Y-85051000D01*
G37*
G36*
X102277395Y-82545546D02*
G01*
X102450466Y-82617234D01*
X102450467Y-82617235D01*
X102606227Y-82721310D01*
X102738690Y-82853773D01*
X102738691Y-82853775D01*
X102842766Y-83009534D01*
X102914454Y-83182605D01*
X102951000Y-83366333D01*
X102951000Y-83553667D01*
X102914454Y-83737395D01*
X102842766Y-83910466D01*
X102842765Y-83910467D01*
X102738690Y-84066227D01*
X102606227Y-84198690D01*
X102527818Y-84251081D01*
X102450466Y-84302766D01*
X102277395Y-84374454D01*
X102093667Y-84411000D01*
X101906333Y-84411000D01*
X101722605Y-84374454D01*
X101549534Y-84302766D01*
X101472182Y-84251081D01*
X101393773Y-84198690D01*
X101261310Y-84066227D01*
X101157235Y-83910467D01*
X101157234Y-83910466D01*
X101085546Y-83737395D01*
X101049000Y-83553667D01*
X101049000Y-83366333D01*
X101085546Y-83182605D01*
X101157234Y-83009534D01*
X101261309Y-82853775D01*
X101261310Y-82853773D01*
X101393773Y-82721310D01*
X101549533Y-82617235D01*
X101549534Y-82617234D01*
X101722605Y-82545546D01*
X101906333Y-82509000D01*
X102093667Y-82509000D01*
X102277395Y-82545546D01*
G37*
G36*
X121301000Y-84301000D02*
G01*
X118699000Y-84301000D01*
X118699000Y-81699000D01*
X121301000Y-81699000D01*
X121301000Y-84301000D01*
G37*
G36*
X30357610Y-80821114D02*
G01*
X30580727Y-80913532D01*
X30580729Y-80913533D01*
X30631269Y-80947303D01*
X30781529Y-81047703D01*
X30952297Y-81218471D01*
X31086468Y-81419273D01*
X31178886Y-81642390D01*
X31226000Y-81879248D01*
X31226000Y-82120752D01*
X31178886Y-82357610D01*
X31086468Y-82580727D01*
X30952297Y-82781529D01*
X30781529Y-82952297D01*
X30695867Y-83009534D01*
X30580729Y-83086467D01*
X30580728Y-83086468D01*
X30580727Y-83086468D01*
X30357610Y-83178886D01*
X30120752Y-83226000D01*
X29879248Y-83226000D01*
X29642390Y-83178886D01*
X29419273Y-83086468D01*
X29419272Y-83086468D01*
X29419271Y-83086467D01*
X29304133Y-83009534D01*
X29218471Y-82952297D01*
X29047703Y-82781529D01*
X28913532Y-82580727D01*
X28821114Y-82357610D01*
X28774000Y-82120752D01*
X28774000Y-81879248D01*
X28821114Y-81642390D01*
X28913532Y-81419273D01*
X29047703Y-81218471D01*
X29218471Y-81047703D01*
X29368731Y-80947303D01*
X29419271Y-80913533D01*
X29419273Y-80913532D01*
X29642390Y-80821114D01*
X29879248Y-80774000D01*
X30120752Y-80774000D01*
X30357610Y-80821114D01*
G37*
G36*
X96901000Y-82701000D02*
G01*
X95099000Y-82701000D01*
X95099000Y-81299000D01*
X96901000Y-81299000D01*
X96901000Y-82701000D01*
G37*
G36*
X99201000Y-82401000D02*
G01*
X97799000Y-82401000D01*
X97799000Y-81599000D01*
X99201000Y-81599000D01*
X99201000Y-82401000D01*
G37*
G36*
X102277395Y-80005546D02*
G01*
X102450466Y-80077234D01*
X102450467Y-80077235D01*
X102606227Y-80181310D01*
X102738690Y-80313773D01*
X102738691Y-80313775D01*
X102842766Y-80469534D01*
X102914454Y-80642605D01*
X102951000Y-80826333D01*
X102951000Y-81013667D01*
X102914454Y-81197395D01*
X102842766Y-81370466D01*
X102842765Y-81370467D01*
X102738690Y-81526227D01*
X102606227Y-81658690D01*
X102527818Y-81711081D01*
X102450466Y-81762766D01*
X102277395Y-81834454D01*
X102093667Y-81871000D01*
X101906333Y-81871000D01*
X101722605Y-81834454D01*
X101549534Y-81762766D01*
X101472182Y-81711081D01*
X101393773Y-81658690D01*
X101261310Y-81526227D01*
X101157235Y-81370467D01*
X101157234Y-81370466D01*
X101085546Y-81197395D01*
X101049000Y-81013667D01*
X101049000Y-80826333D01*
X101085546Y-80642605D01*
X101157234Y-80469534D01*
X101261309Y-80313775D01*
X101261310Y-80313773D01*
X101393773Y-80181310D01*
X101549533Y-80077235D01*
X101549534Y-80077234D01*
X101722605Y-80005546D01*
X101906333Y-79969000D01*
X102093667Y-79969000D01*
X102277395Y-80005546D01*
G37*
G36*
X109301000Y-81051000D02*
G01*
X106699000Y-81051000D01*
X106699000Y-78949000D01*
X109301000Y-78949000D01*
X109301000Y-81051000D01*
G37*
G36*
X99201000Y-80501000D02*
G01*
X97799000Y-80501000D01*
X97799000Y-79699000D01*
X99201000Y-79699000D01*
X99201000Y-80501000D01*
G37*
G36*
X111851000Y-80351000D02*
G01*
X110149000Y-80351000D01*
X110149000Y-78649000D01*
X111851000Y-78649000D01*
X111851000Y-80351000D01*
G37*
G36*
X79300651Y-77465784D02*
G01*
X76965784Y-79800651D01*
X74630917Y-77465784D01*
X76965784Y-75130917D01*
X79300651Y-77465784D01*
G37*
G36*
X66369083Y-77465784D02*
G01*
X64034216Y-79800651D01*
X61699349Y-77465784D01*
X64034216Y-75130917D01*
X66369083Y-77465784D01*
G37*
G36*
X120379487Y-76748996D02*
G01*
X120616253Y-76847068D01*
X120616255Y-76847069D01*
X120829339Y-76989447D01*
X121010553Y-77170661D01*
X121131052Y-77351000D01*
X121152932Y-77383747D01*
X121251004Y-77620513D01*
X121301000Y-77871861D01*
X121301000Y-78128139D01*
X121251004Y-78379487D01*
X121152932Y-78616253D01*
X121152931Y-78616255D01*
X121010553Y-78829339D01*
X120829339Y-79010553D01*
X120616255Y-79152931D01*
X120616254Y-79152932D01*
X120616253Y-79152932D01*
X120379487Y-79251004D01*
X120128139Y-79301000D01*
X119871861Y-79301000D01*
X119620513Y-79251004D01*
X119383747Y-79152932D01*
X119383746Y-79152932D01*
X119383745Y-79152931D01*
X119170661Y-79010553D01*
X118989447Y-78829339D01*
X118847069Y-78616255D01*
X118847068Y-78616253D01*
X118748996Y-78379487D01*
X118699000Y-78128139D01*
X118699000Y-77871861D01*
X118748996Y-77620513D01*
X118847068Y-77383747D01*
X118868949Y-77351000D01*
X118989447Y-77170661D01*
X119170661Y-76989447D01*
X119383745Y-76847069D01*
X119383747Y-76847068D01*
X119620513Y-76748996D01*
X119871861Y-76699000D01*
X120128139Y-76699000D01*
X120379487Y-76748996D01*
G37*
G36*
X96901000Y-79201000D02*
G01*
X95099000Y-79201000D01*
X95099000Y-77799000D01*
X96901000Y-77799000D01*
X96901000Y-79201000D01*
G37*
G36*
X30357610Y-75821114D02*
G01*
X30580727Y-75913532D01*
X30580729Y-75913533D01*
X30631269Y-75947303D01*
X30781529Y-76047703D01*
X30952297Y-76218471D01*
X31086468Y-76419273D01*
X31178886Y-76642390D01*
X31226000Y-76879248D01*
X31226000Y-77120752D01*
X31178886Y-77357610D01*
X31086468Y-77580727D01*
X30952297Y-77781529D01*
X30781529Y-77952297D01*
X30631269Y-78052697D01*
X30580729Y-78086467D01*
X30580728Y-78086468D01*
X30580727Y-78086468D01*
X30357610Y-78178886D01*
X30120752Y-78226000D01*
X29879248Y-78226000D01*
X29642390Y-78178886D01*
X29419273Y-78086468D01*
X29419272Y-78086468D01*
X29419271Y-78086467D01*
X29368731Y-78052697D01*
X29218471Y-77952297D01*
X29047703Y-77781529D01*
X28913532Y-77580727D01*
X28821114Y-77357610D01*
X28774000Y-77120752D01*
X28774000Y-76879248D01*
X28821114Y-76642390D01*
X28913532Y-76419273D01*
X29047703Y-76218471D01*
X29218471Y-76047703D01*
X29368731Y-75947303D01*
X29419271Y-75913533D01*
X29419273Y-75913532D01*
X29642390Y-75821114D01*
X29879248Y-75774000D01*
X30120752Y-75774000D01*
X30357610Y-75821114D01*
G37*
G36*
X111248228Y-75681703D02*
G01*
X111403100Y-75745853D01*
X111542481Y-75838985D01*
X111661015Y-75957519D01*
X111754147Y-76096900D01*
X111818297Y-76251772D01*
X111851000Y-76416184D01*
X111851000Y-76583816D01*
X111818297Y-76748228D01*
X111754147Y-76903100D01*
X111661015Y-77042481D01*
X111542481Y-77161015D01*
X111403100Y-77254147D01*
X111248228Y-77318297D01*
X111083816Y-77351000D01*
X110916184Y-77351000D01*
X110751772Y-77318297D01*
X110596900Y-77254147D01*
X110457519Y-77161015D01*
X110338985Y-77042481D01*
X110245853Y-76903100D01*
X110181703Y-76748228D01*
X110149000Y-76583816D01*
X110149000Y-76416184D01*
X110181703Y-76251772D01*
X110245853Y-76096900D01*
X110338985Y-75957519D01*
X110457519Y-75838985D01*
X110596900Y-75745853D01*
X110751772Y-75681703D01*
X110916184Y-75649000D01*
X111083816Y-75649000D01*
X111248228Y-75681703D01*
G37*
G36*
X109301000Y-77051000D02*
G01*
X106699000Y-77051000D01*
X106699000Y-74949000D01*
X109301000Y-74949000D01*
X109301000Y-77051000D01*
G37*
G36*
X99051000Y-76801000D02*
G01*
X97949000Y-76801000D01*
X97949000Y-74199000D01*
X99051000Y-74199000D01*
X99051000Y-76801000D01*
G37*
G36*
X96051000Y-76801000D02*
G01*
X94949000Y-76801000D01*
X94949000Y-74199000D01*
X96051000Y-74199000D01*
X96051000Y-76801000D01*
G37*
G36*
X52364903Y-74297075D02*
G01*
X52592571Y-74391378D01*
X52797466Y-74528285D01*
X52971715Y-74702534D01*
X52971716Y-74702536D01*
X53108623Y-74907431D01*
X53202925Y-75135097D01*
X53251000Y-75376786D01*
X53251000Y-75623214D01*
X53202925Y-75864903D01*
X53127207Y-76047704D01*
X53108622Y-76092571D01*
X52971715Y-76297466D01*
X52797466Y-76471715D01*
X52592571Y-76608622D01*
X52592570Y-76608623D01*
X52592569Y-76608623D01*
X52364903Y-76702925D01*
X52123214Y-76751000D01*
X51876786Y-76751000D01*
X51635097Y-76702925D01*
X51407431Y-76608623D01*
X51407430Y-76608623D01*
X51407429Y-76608622D01*
X51202534Y-76471715D01*
X51028285Y-76297466D01*
X50891378Y-76092571D01*
X50872794Y-76047704D01*
X50797075Y-75864903D01*
X50749000Y-75623214D01*
X50749000Y-75376786D01*
X50797075Y-75135097D01*
X50891377Y-74907431D01*
X51028284Y-74702536D01*
X51028285Y-74702534D01*
X51202534Y-74528285D01*
X51407429Y-74391378D01*
X51635097Y-74297075D01*
X51876786Y-74249000D01*
X52123214Y-74249000D01*
X52364903Y-74297075D01*
G37*
G36*
X59364903Y-74297075D02*
G01*
X59592571Y-74391378D01*
X59797466Y-74528285D01*
X59971715Y-74702534D01*
X59971716Y-74702536D01*
X60108623Y-74907431D01*
X60202925Y-75135097D01*
X60251000Y-75376786D01*
X60251000Y-75623214D01*
X60202925Y-75864903D01*
X60127207Y-76047704D01*
X60108622Y-76092571D01*
X59971715Y-76297466D01*
X59797466Y-76471715D01*
X59592571Y-76608622D01*
X59592570Y-76608623D01*
X59592569Y-76608623D01*
X59364903Y-76702925D01*
X59123214Y-76751000D01*
X58876786Y-76751000D01*
X58635097Y-76702925D01*
X58407431Y-76608623D01*
X58407430Y-76608623D01*
X58407429Y-76608622D01*
X58202534Y-76471715D01*
X58028285Y-76297466D01*
X57891378Y-76092571D01*
X57872794Y-76047704D01*
X57797075Y-75864903D01*
X57749000Y-75623214D01*
X57749000Y-75376786D01*
X57797075Y-75135097D01*
X57891377Y-74907431D01*
X58028284Y-74702536D01*
X58028285Y-74702534D01*
X58202534Y-74528285D01*
X58407429Y-74391378D01*
X58635097Y-74297075D01*
X58876786Y-74249000D01*
X59123214Y-74249000D01*
X59364903Y-74297075D01*
G37*
G36*
X102951000Y-75951000D02*
G01*
X101049000Y-75951000D01*
X101049000Y-74049000D01*
X102951000Y-74049000D01*
X102951000Y-75951000D01*
G37*
G36*
X120379487Y-71748996D02*
G01*
X120616253Y-71847068D01*
X120616255Y-71847069D01*
X120829339Y-71989447D01*
X121010553Y-72170661D01*
X121141297Y-72366333D01*
X121152932Y-72383747D01*
X121251004Y-72620513D01*
X121301000Y-72871861D01*
X121301000Y-73128139D01*
X121251004Y-73379487D01*
X121152932Y-73616253D01*
X121152931Y-73616255D01*
X121010553Y-73829339D01*
X120829339Y-74010553D01*
X120616255Y-74152931D01*
X120616254Y-74152932D01*
X120616253Y-74152932D01*
X120379487Y-74251004D01*
X120128139Y-74301000D01*
X119871861Y-74301000D01*
X119620513Y-74251004D01*
X119383747Y-74152932D01*
X119383746Y-74152932D01*
X119383745Y-74152931D01*
X119170661Y-74010553D01*
X118989447Y-73829339D01*
X118847069Y-73616255D01*
X118847068Y-73616253D01*
X118748996Y-73379487D01*
X118699000Y-73128139D01*
X118699000Y-72871861D01*
X118748996Y-72620513D01*
X118847068Y-72383747D01*
X118858704Y-72366333D01*
X118989447Y-72170661D01*
X119170661Y-71989447D01*
X119383745Y-71847069D01*
X119383747Y-71847068D01*
X119620513Y-71748996D01*
X119871861Y-71699000D01*
X120128139Y-71699000D01*
X120379487Y-71748996D01*
G37*
G36*
X96901000Y-73701000D02*
G01*
X96099000Y-73701000D01*
X96099000Y-72299000D01*
X96901000Y-72299000D01*
X96901000Y-73701000D01*
G37*
G36*
X98801000Y-73701000D02*
G01*
X97999000Y-73701000D01*
X97999000Y-72299000D01*
X98801000Y-72299000D01*
X98801000Y-73701000D01*
G37*
G36*
X102277395Y-71545546D02*
G01*
X102450466Y-71617234D01*
X102450467Y-71617235D01*
X102606227Y-71721310D01*
X102738690Y-71853773D01*
X102738691Y-71853775D01*
X102842766Y-72009534D01*
X102914454Y-72182605D01*
X102951000Y-72366333D01*
X102951000Y-72553667D01*
X102914454Y-72737395D01*
X102842766Y-72910466D01*
X102842765Y-72910467D01*
X102738690Y-73066227D01*
X102606227Y-73198690D01*
X102527818Y-73251081D01*
X102450466Y-73302766D01*
X102277395Y-73374454D01*
X102093667Y-73411000D01*
X101906333Y-73411000D01*
X101722605Y-73374454D01*
X101549534Y-73302766D01*
X101472182Y-73251081D01*
X101393773Y-73198690D01*
X101261310Y-73066227D01*
X101157235Y-72910467D01*
X101157234Y-72910466D01*
X101085546Y-72737395D01*
X101049000Y-72553667D01*
X101049000Y-72366333D01*
X101085546Y-72182605D01*
X101157234Y-72009534D01*
X101261309Y-71853775D01*
X101261310Y-71853773D01*
X101393773Y-71721310D01*
X101549533Y-71617235D01*
X101549534Y-71617234D01*
X101722605Y-71545546D01*
X101906333Y-71509000D01*
X102093667Y-71509000D01*
X102277395Y-71545546D01*
G37*
G36*
X109301000Y-73051000D02*
G01*
X106699000Y-73051000D01*
X106699000Y-70949000D01*
X109301000Y-70949000D01*
X109301000Y-73051000D01*
G37*
G36*
X39777395Y-71085546D02*
G01*
X39950466Y-71157234D01*
X39950467Y-71157235D01*
X40106227Y-71261310D01*
X40238690Y-71393773D01*
X40238691Y-71393775D01*
X40342766Y-71549534D01*
X40414454Y-71722605D01*
X40451000Y-71906333D01*
X40451000Y-72093667D01*
X40414454Y-72277395D01*
X40342766Y-72450466D01*
X40342765Y-72450467D01*
X40238690Y-72606227D01*
X40106227Y-72738690D01*
X40027818Y-72791081D01*
X39950466Y-72842766D01*
X39777395Y-72914454D01*
X39593667Y-72951000D01*
X39406333Y-72951000D01*
X39222605Y-72914454D01*
X39049534Y-72842766D01*
X38972182Y-72791081D01*
X38893773Y-72738690D01*
X38761310Y-72606227D01*
X38657235Y-72450467D01*
X38657234Y-72450466D01*
X38585546Y-72277395D01*
X38549000Y-72093667D01*
X38549000Y-71906333D01*
X38585546Y-71722605D01*
X38657234Y-71549534D01*
X38761309Y-71393775D01*
X38761310Y-71393773D01*
X38893773Y-71261310D01*
X39049533Y-71157235D01*
X39049534Y-71157234D01*
X39222605Y-71085546D01*
X39406333Y-71049000D01*
X39593667Y-71049000D01*
X39777395Y-71085546D01*
G37*
G36*
X46027395Y-71085546D02*
G01*
X46200466Y-71157234D01*
X46200467Y-71157235D01*
X46356227Y-71261310D01*
X46488690Y-71393773D01*
X46488691Y-71393775D01*
X46592766Y-71549534D01*
X46664454Y-71722605D01*
X46701000Y-71906333D01*
X46701000Y-72093667D01*
X46664454Y-72277395D01*
X46592766Y-72450466D01*
X46592765Y-72450467D01*
X46488690Y-72606227D01*
X46356227Y-72738690D01*
X46277818Y-72791081D01*
X46200466Y-72842766D01*
X46027395Y-72914454D01*
X45843667Y-72951000D01*
X45656333Y-72951000D01*
X45472605Y-72914454D01*
X45299534Y-72842766D01*
X45222182Y-72791081D01*
X45143773Y-72738690D01*
X45011310Y-72606227D01*
X44907235Y-72450467D01*
X44907234Y-72450466D01*
X44835546Y-72277395D01*
X44799000Y-72093667D01*
X44799000Y-71906333D01*
X44835546Y-71722605D01*
X44907234Y-71549534D01*
X45011309Y-71393775D01*
X45011310Y-71393773D01*
X45143773Y-71261310D01*
X45299533Y-71157235D01*
X45299534Y-71157234D01*
X45472605Y-71085546D01*
X45656333Y-71049000D01*
X45843667Y-71049000D01*
X46027395Y-71085546D01*
G37*
G36*
X111851000Y-72351000D02*
G01*
X110149000Y-72351000D01*
X110149000Y-70649000D01*
X111851000Y-70649000D01*
X111851000Y-72351000D01*
G37*
G36*
X30357610Y-69821114D02*
G01*
X30580727Y-69913532D01*
X30580729Y-69913533D01*
X30631269Y-69947303D01*
X30781529Y-70047703D01*
X30952297Y-70218471D01*
X31086468Y-70419273D01*
X31178886Y-70642390D01*
X31226000Y-70879248D01*
X31226000Y-71120752D01*
X31178886Y-71357610D01*
X31086468Y-71580727D01*
X30952297Y-71781529D01*
X30781529Y-71952297D01*
X30695867Y-72009534D01*
X30580729Y-72086467D01*
X30580728Y-72086468D01*
X30580727Y-72086468D01*
X30357610Y-72178886D01*
X30120752Y-72226000D01*
X29879248Y-72226000D01*
X29642390Y-72178886D01*
X29419273Y-72086468D01*
X29419272Y-72086468D01*
X29419271Y-72086467D01*
X29304133Y-72009534D01*
X29218471Y-71952297D01*
X29047703Y-71781529D01*
X28913532Y-71580727D01*
X28821114Y-71357610D01*
X28774000Y-71120752D01*
X28774000Y-70879248D01*
X28821114Y-70642390D01*
X28913532Y-70419273D01*
X29047703Y-70218471D01*
X29218471Y-70047703D01*
X29368731Y-69947303D01*
X29419271Y-69913533D01*
X29419273Y-69913532D01*
X29642390Y-69821114D01*
X29879248Y-69774000D01*
X30120752Y-69774000D01*
X30357610Y-69821114D01*
G37*
G36*
X96901000Y-71701000D02*
G01*
X96099000Y-71701000D01*
X96099000Y-70299000D01*
X96901000Y-70299000D01*
X96901000Y-71701000D01*
G37*
G36*
X98801000Y-71701000D02*
G01*
X97999000Y-71701000D01*
X97999000Y-70299000D01*
X98801000Y-70299000D01*
X98801000Y-71701000D01*
G37*
G36*
X102277395Y-69005546D02*
G01*
X102450466Y-69077234D01*
X102450467Y-69077235D01*
X102606227Y-69181310D01*
X102738690Y-69313773D01*
X102738691Y-69313775D01*
X102842766Y-69469534D01*
X102914454Y-69642605D01*
X102951000Y-69826333D01*
X102951000Y-70013667D01*
X102914454Y-70197395D01*
X102842766Y-70370466D01*
X102842765Y-70370467D01*
X102738690Y-70526227D01*
X102606227Y-70658690D01*
X102527818Y-70711081D01*
X102450466Y-70762766D01*
X102277395Y-70834454D01*
X102093667Y-70871000D01*
X101906333Y-70871000D01*
X101722605Y-70834454D01*
X101549534Y-70762766D01*
X101472182Y-70711081D01*
X101393773Y-70658690D01*
X101261310Y-70526227D01*
X101157235Y-70370467D01*
X101157234Y-70370466D01*
X101085546Y-70197395D01*
X101049000Y-70013667D01*
X101049000Y-69826333D01*
X101085546Y-69642605D01*
X101157234Y-69469534D01*
X101261309Y-69313775D01*
X101261310Y-69313773D01*
X101393773Y-69181310D01*
X101549533Y-69077235D01*
X101549534Y-69077234D01*
X101722605Y-69005546D01*
X101906333Y-68969000D01*
X102093667Y-68969000D01*
X102277395Y-69005546D01*
G37*
G36*
X106176000Y-70551000D02*
G01*
X104824000Y-70551000D01*
X104824000Y-69449000D01*
X106176000Y-69449000D01*
X106176000Y-70551000D01*
G37*
G36*
X121551000Y-69701000D02*
G01*
X120749000Y-69701000D01*
X120749000Y-68299000D01*
X121551000Y-68299000D01*
X121551000Y-69701000D01*
G37*
G36*
X119651000Y-69701000D02*
G01*
X118849000Y-69701000D01*
X118849000Y-68299000D01*
X119651000Y-68299000D01*
X119651000Y-69701000D01*
G37*
G36*
X115951000Y-69651000D02*
G01*
X114649000Y-69651000D01*
X114649000Y-68349000D01*
X115951000Y-68349000D01*
X115951000Y-69651000D01*
G37*
G36*
X118151000Y-69651000D02*
G01*
X116849000Y-69651000D01*
X116849000Y-68349000D01*
X118151000Y-68349000D01*
X118151000Y-69651000D01*
G37*
G36*
X109301000Y-69451000D02*
G01*
X106699000Y-69451000D01*
X106699000Y-67549000D01*
X109301000Y-67549000D01*
X109301000Y-69451000D01*
G37*
G36*
X113301000Y-69451000D02*
G01*
X110699000Y-69451000D01*
X110699000Y-67549000D01*
X113301000Y-67549000D01*
X113301000Y-69451000D01*
G37*
G36*
X96901000Y-69201000D02*
G01*
X95099000Y-69201000D01*
X95099000Y-67799000D01*
X96901000Y-67799000D01*
X96901000Y-69201000D01*
G37*
G36*
X99201000Y-68901000D02*
G01*
X97799000Y-68901000D01*
X97799000Y-68099000D01*
X99201000Y-68099000D01*
X99201000Y-68901000D01*
G37*
G36*
X106176000Y-68551000D02*
G01*
X104824000Y-68551000D01*
X104824000Y-67449000D01*
X106176000Y-67449000D01*
X106176000Y-68551000D01*
G37*
G36*
X99201000Y-67001000D02*
G01*
X97799000Y-67001000D01*
X97799000Y-66199000D01*
X99201000Y-66199000D01*
X99201000Y-67001000D01*
G37*
G36*
X79300651Y-64534216D02*
G01*
X76965784Y-66869083D01*
X74630917Y-64534216D01*
X76965784Y-62199349D01*
X79300651Y-64534216D01*
G37*
G36*
X66369083Y-64534216D02*
G01*
X64034216Y-66869083D01*
X61699349Y-64534216D01*
X64034216Y-62199349D01*
X66369083Y-64534216D01*
G37*
G36*
X106801000Y-65951000D02*
G01*
X104199000Y-65951000D01*
X104199000Y-64049000D01*
X106801000Y-64049000D01*
X106801000Y-65951000D01*
G37*
G36*
X102801000Y-65951000D02*
G01*
X100199000Y-65951000D01*
X100199000Y-64049000D01*
X102801000Y-64049000D01*
X102801000Y-65951000D01*
G37*
G36*
X122149228Y-64186703D02*
G01*
X122304100Y-64250853D01*
X122443481Y-64343985D01*
X122562015Y-64462519D01*
X122655147Y-64601900D01*
X122719297Y-64756772D01*
X122752000Y-64921184D01*
X122752000Y-65088816D01*
X122719297Y-65253228D01*
X122655147Y-65408100D01*
X122562015Y-65547481D01*
X122443481Y-65666015D01*
X122304100Y-65759147D01*
X122149228Y-65823297D01*
X121984816Y-65856000D01*
X121817184Y-65856000D01*
X121652772Y-65823297D01*
X121497900Y-65759147D01*
X121358519Y-65666015D01*
X121239985Y-65547481D01*
X121146853Y-65408100D01*
X121082703Y-65253228D01*
X121050000Y-65088816D01*
X121050000Y-64921184D01*
X121082703Y-64756772D01*
X121146853Y-64601900D01*
X121239985Y-64462519D01*
X121358519Y-64343985D01*
X121497900Y-64250853D01*
X121652772Y-64186703D01*
X121817184Y-64154000D01*
X121984816Y-64154000D01*
X122149228Y-64186703D01*
G37*
G36*
X114529228Y-64186703D02*
G01*
X114684100Y-64250853D01*
X114823481Y-64343985D01*
X114942015Y-64462519D01*
X115035147Y-64601900D01*
X115099297Y-64756772D01*
X115132000Y-64921184D01*
X115132000Y-65088816D01*
X115099297Y-65253228D01*
X115035147Y-65408100D01*
X114942015Y-65547481D01*
X114823481Y-65666015D01*
X114684100Y-65759147D01*
X114529228Y-65823297D01*
X114364816Y-65856000D01*
X114197184Y-65856000D01*
X114032772Y-65823297D01*
X113877900Y-65759147D01*
X113738519Y-65666015D01*
X113619985Y-65547481D01*
X113526853Y-65408100D01*
X113462703Y-65253228D01*
X113430000Y-65088816D01*
X113430000Y-64921184D01*
X113462703Y-64756772D01*
X113526853Y-64601900D01*
X113619985Y-64462519D01*
X113738519Y-64343985D01*
X113877900Y-64250853D01*
X114032772Y-64186703D01*
X114197184Y-64154000D01*
X114364816Y-64154000D01*
X114529228Y-64186703D01*
G37*
G36*
X120135000Y-65805000D02*
G01*
X118333000Y-65805000D01*
X118333000Y-64403000D01*
X120135000Y-64403000D01*
X120135000Y-65805000D01*
G37*
G36*
X117649000Y-65721000D02*
G01*
X116247000Y-65721000D01*
X116247000Y-64919000D01*
X117649000Y-64919000D01*
X117649000Y-65721000D01*
G37*
G36*
X96901000Y-65701000D02*
G01*
X95099000Y-65701000D01*
X95099000Y-64299000D01*
X96901000Y-64299000D01*
X96901000Y-65701000D01*
G37*
G36*
X38377395Y-63585546D02*
G01*
X38550466Y-63657234D01*
X38550467Y-63657235D01*
X38706227Y-63761310D01*
X38838690Y-63893773D01*
X38838691Y-63893775D01*
X38942766Y-64049534D01*
X39014454Y-64222605D01*
X39051000Y-64406333D01*
X39051000Y-64593667D01*
X39014454Y-64777395D01*
X38942766Y-64950466D01*
X38942765Y-64950467D01*
X38838690Y-65106227D01*
X38706227Y-65238690D01*
X38627818Y-65291081D01*
X38550466Y-65342766D01*
X38377395Y-65414454D01*
X38193667Y-65451000D01*
X38006333Y-65451000D01*
X37822605Y-65414454D01*
X37649534Y-65342766D01*
X37572182Y-65291081D01*
X37493773Y-65238690D01*
X37361310Y-65106227D01*
X37257235Y-64950467D01*
X37257234Y-64950466D01*
X37185546Y-64777395D01*
X37149000Y-64593667D01*
X37149000Y-64406333D01*
X37185546Y-64222605D01*
X37257234Y-64049534D01*
X37361309Y-63893775D01*
X37361310Y-63893773D01*
X37493773Y-63761310D01*
X37649533Y-63657235D01*
X37649534Y-63657234D01*
X37822605Y-63585546D01*
X38006333Y-63549000D01*
X38193667Y-63549000D01*
X38377395Y-63585546D01*
G37*
G36*
X44627395Y-63585546D02*
G01*
X44800466Y-63657234D01*
X44800467Y-63657235D01*
X44956227Y-63761310D01*
X45088690Y-63893773D01*
X45088691Y-63893775D01*
X45192766Y-64049534D01*
X45264454Y-64222605D01*
X45301000Y-64406333D01*
X45301000Y-64593667D01*
X45264454Y-64777395D01*
X45192766Y-64950466D01*
X45192765Y-64950467D01*
X45088690Y-65106227D01*
X44956227Y-65238690D01*
X44877818Y-65291081D01*
X44800466Y-65342766D01*
X44627395Y-65414454D01*
X44443667Y-65451000D01*
X44256333Y-65451000D01*
X44072605Y-65414454D01*
X43899534Y-65342766D01*
X43822182Y-65291081D01*
X43743773Y-65238690D01*
X43611310Y-65106227D01*
X43507235Y-64950467D01*
X43507234Y-64950466D01*
X43435546Y-64777395D01*
X43399000Y-64593667D01*
X43399000Y-64406333D01*
X43435546Y-64222605D01*
X43507234Y-64049534D01*
X43611309Y-63893775D01*
X43611310Y-63893773D01*
X43743773Y-63761310D01*
X43899533Y-63657235D01*
X43899534Y-63657234D01*
X44072605Y-63585546D01*
X44256333Y-63549000D01*
X44443667Y-63549000D01*
X44627395Y-63585546D01*
G37*
G36*
X117649000Y-63821000D02*
G01*
X116247000Y-63821000D01*
X116247000Y-63019000D01*
X117649000Y-63019000D01*
X117649000Y-63821000D01*
G37*
G36*
X122752000Y-63316000D02*
G01*
X121050000Y-63316000D01*
X121050000Y-61614000D01*
X122752000Y-61614000D01*
X122752000Y-63316000D01*
G37*
G36*
X114529228Y-61646703D02*
G01*
X114684100Y-61710853D01*
X114823481Y-61803985D01*
X114942015Y-61922519D01*
X115035147Y-62061900D01*
X115099297Y-62216772D01*
X115132000Y-62381184D01*
X115132000Y-62548816D01*
X115099297Y-62713228D01*
X115035147Y-62868100D01*
X114942015Y-63007481D01*
X114823481Y-63126015D01*
X114684100Y-63219147D01*
X114529228Y-63283297D01*
X114364816Y-63316000D01*
X114197184Y-63316000D01*
X114032772Y-63283297D01*
X113877900Y-63219147D01*
X113738519Y-63126015D01*
X113619985Y-63007481D01*
X113526853Y-62868100D01*
X113462703Y-62713228D01*
X113430000Y-62548816D01*
X113430000Y-62381184D01*
X113462703Y-62216772D01*
X113526853Y-62061900D01*
X113619985Y-61922519D01*
X113738519Y-61803985D01*
X113877900Y-61710853D01*
X114032772Y-61646703D01*
X114197184Y-61614000D01*
X114364816Y-61614000D01*
X114529228Y-61646703D01*
G37*
G36*
X110579487Y-60148996D02*
G01*
X110816253Y-60247068D01*
X110816255Y-60247069D01*
X111010390Y-60376786D01*
X111029339Y-60389447D01*
X111210553Y-60570661D01*
X111352932Y-60783747D01*
X111451004Y-61020513D01*
X111501000Y-61271861D01*
X111501000Y-61528139D01*
X111451004Y-61779487D01*
X111352932Y-62016253D01*
X111352931Y-62016255D01*
X111210553Y-62229339D01*
X111029339Y-62410553D01*
X110816255Y-62552931D01*
X110816254Y-62552932D01*
X110816253Y-62552932D01*
X110579487Y-62651004D01*
X110328139Y-62701000D01*
X110071861Y-62701000D01*
X109820513Y-62651004D01*
X109583747Y-62552932D01*
X109583746Y-62552932D01*
X109583745Y-62552931D01*
X109370661Y-62410553D01*
X109189447Y-62229339D01*
X109047069Y-62016255D01*
X109047068Y-62016253D01*
X108948996Y-61779487D01*
X108899000Y-61528139D01*
X108899000Y-61271861D01*
X108948996Y-61020513D01*
X109047068Y-60783747D01*
X109189447Y-60570661D01*
X109370661Y-60389447D01*
X109389610Y-60376786D01*
X109583745Y-60247069D01*
X109583747Y-60247068D01*
X109820513Y-60148996D01*
X110071861Y-60099000D01*
X110328139Y-60099000D01*
X110579487Y-60148996D01*
G37*
G36*
X120135000Y-62305000D02*
G01*
X118333000Y-62305000D01*
X118333000Y-60903000D01*
X120135000Y-60903000D01*
X120135000Y-62305000D01*
G37*
G36*
X30357610Y-59821114D02*
G01*
X30580727Y-59913532D01*
X30580729Y-59913533D01*
X30631269Y-59947303D01*
X30781529Y-60047703D01*
X30952297Y-60218471D01*
X31086468Y-60419273D01*
X31178886Y-60642390D01*
X31226000Y-60879248D01*
X31226000Y-61120752D01*
X31178886Y-61357610D01*
X31086468Y-61580727D01*
X30952297Y-61781529D01*
X30781529Y-61952297D01*
X30631269Y-62052697D01*
X30580729Y-62086467D01*
X30580728Y-62086468D01*
X30580727Y-62086468D01*
X30357610Y-62178886D01*
X30120752Y-62226000D01*
X29879248Y-62226000D01*
X29642390Y-62178886D01*
X29419273Y-62086468D01*
X29419272Y-62086468D01*
X29419271Y-62086467D01*
X29368731Y-62052697D01*
X29218471Y-61952297D01*
X29047703Y-61781529D01*
X28913532Y-61580727D01*
X28821114Y-61357610D01*
X28774000Y-61120752D01*
X28774000Y-60879248D01*
X28821114Y-60642390D01*
X28913532Y-60419273D01*
X29047703Y-60218471D01*
X29218471Y-60047703D01*
X29368731Y-59947303D01*
X29419271Y-59913533D01*
X29419273Y-59913532D01*
X29642390Y-59821114D01*
X29879248Y-59774000D01*
X30120752Y-59774000D01*
X30357610Y-59821114D01*
G37*
G36*
X108201000Y-61901000D02*
G01*
X106799000Y-61901000D01*
X106799000Y-60099000D01*
X108201000Y-60099000D01*
X108201000Y-61901000D01*
G37*
G36*
X104701000Y-61901000D02*
G01*
X103299000Y-61901000D01*
X103299000Y-60099000D01*
X104701000Y-60099000D01*
X104701000Y-61901000D01*
G37*
G36*
X52364903Y-59297075D02*
G01*
X52592571Y-59391378D01*
X52797466Y-59528285D01*
X52971715Y-59702534D01*
X53058542Y-59832480D01*
X53108623Y-59907431D01*
X53202925Y-60135097D01*
X53251000Y-60376786D01*
X53251000Y-60623214D01*
X53219068Y-60783745D01*
X53202925Y-60864903D01*
X53108622Y-61092571D01*
X52971715Y-61297466D01*
X52797466Y-61471715D01*
X52592571Y-61608622D01*
X52592570Y-61608623D01*
X52592569Y-61608623D01*
X52364903Y-61702925D01*
X52123214Y-61751000D01*
X51876786Y-61751000D01*
X51635097Y-61702925D01*
X51407431Y-61608623D01*
X51407430Y-61608623D01*
X51407429Y-61608622D01*
X51202534Y-61471715D01*
X51028285Y-61297466D01*
X50891378Y-61092571D01*
X50797075Y-60864903D01*
X50780932Y-60783745D01*
X50749000Y-60623214D01*
X50749000Y-60376786D01*
X50797075Y-60135097D01*
X50891377Y-59907431D01*
X50941458Y-59832480D01*
X51028285Y-59702534D01*
X51202534Y-59528285D01*
X51407429Y-59391378D01*
X51635097Y-59297075D01*
X51876786Y-59249000D01*
X52123214Y-59249000D01*
X52364903Y-59297075D01*
G37*
G36*
X59364903Y-59297075D02*
G01*
X59592571Y-59391378D01*
X59797466Y-59528285D01*
X59971715Y-59702534D01*
X60058542Y-59832480D01*
X60108623Y-59907431D01*
X60202925Y-60135097D01*
X60251000Y-60376786D01*
X60251000Y-60623214D01*
X60219068Y-60783745D01*
X60202925Y-60864903D01*
X60108622Y-61092571D01*
X59971715Y-61297466D01*
X59797466Y-61471715D01*
X59592571Y-61608622D01*
X59592570Y-61608623D01*
X59592569Y-61608623D01*
X59364903Y-61702925D01*
X59123214Y-61751000D01*
X58876786Y-61751000D01*
X58635097Y-61702925D01*
X58407431Y-61608623D01*
X58407430Y-61608623D01*
X58407429Y-61608622D01*
X58202534Y-61471715D01*
X58028285Y-61297466D01*
X57891378Y-61092571D01*
X57797075Y-60864903D01*
X57780932Y-60783745D01*
X57749000Y-60623214D01*
X57749000Y-60376786D01*
X57797075Y-60135097D01*
X57891377Y-59907431D01*
X57941458Y-59832480D01*
X58028285Y-59702534D01*
X58202534Y-59528285D01*
X58407429Y-59391378D01*
X58635097Y-59297075D01*
X58876786Y-59249000D01*
X59123214Y-59249000D01*
X59364903Y-59297075D01*
G37*
G36*
X100851000Y-60951000D02*
G01*
X100049000Y-60951000D01*
X100049000Y-59549000D01*
X100851000Y-59549000D01*
X100851000Y-60951000D01*
G37*
G36*
X88851000Y-60951000D02*
G01*
X88049000Y-60951000D01*
X88049000Y-59549000D01*
X88851000Y-59549000D01*
X88851000Y-60951000D01*
G37*
G36*
X86951000Y-60951000D02*
G01*
X86149000Y-60951000D01*
X86149000Y-59549000D01*
X86951000Y-59549000D01*
X86951000Y-60951000D01*
G37*
G36*
X91201000Y-60951000D02*
G01*
X90399000Y-60951000D01*
X90399000Y-59549000D01*
X91201000Y-59549000D01*
X91201000Y-60951000D01*
G37*
G36*
X98951000Y-60951000D02*
G01*
X98149000Y-60951000D01*
X98149000Y-59549000D01*
X98951000Y-59549000D01*
X98951000Y-60951000D01*
G37*
G36*
X93101000Y-60951000D02*
G01*
X92299000Y-60951000D01*
X92299000Y-59549000D01*
X93101000Y-59549000D01*
X93101000Y-60951000D01*
G37*
G36*
X114529228Y-58471703D02*
G01*
X114684100Y-58535853D01*
X114823481Y-58628985D01*
X114942015Y-58747519D01*
X115035147Y-58886900D01*
X115099297Y-59041772D01*
X115132000Y-59206184D01*
X115132000Y-59373816D01*
X115099297Y-59538228D01*
X115035147Y-59693100D01*
X114942015Y-59832481D01*
X114823481Y-59951015D01*
X114684100Y-60044147D01*
X114529228Y-60108297D01*
X114364816Y-60141000D01*
X114197184Y-60141000D01*
X114032772Y-60108297D01*
X113877900Y-60044147D01*
X113738519Y-59951015D01*
X113619985Y-59832481D01*
X113526853Y-59693100D01*
X113462703Y-59538228D01*
X113430000Y-59373816D01*
X113430000Y-59206184D01*
X113462703Y-59041772D01*
X113526853Y-58886900D01*
X113619985Y-58747519D01*
X113738519Y-58628985D01*
X113877900Y-58535853D01*
X114032772Y-58471703D01*
X114197184Y-58439000D01*
X114364816Y-58439000D01*
X114529228Y-58471703D01*
G37*
G36*
X122149228Y-58471703D02*
G01*
X122304100Y-58535853D01*
X122443481Y-58628985D01*
X122562015Y-58747519D01*
X122655147Y-58886900D01*
X122719297Y-59041772D01*
X122752000Y-59206184D01*
X122752000Y-59373816D01*
X122719297Y-59538228D01*
X122655147Y-59693100D01*
X122562015Y-59832481D01*
X122443481Y-59951015D01*
X122304100Y-60044147D01*
X122149228Y-60108297D01*
X121984816Y-60141000D01*
X121817184Y-60141000D01*
X121652772Y-60108297D01*
X121497900Y-60044147D01*
X121358519Y-59951015D01*
X121239985Y-59832481D01*
X121146853Y-59693100D01*
X121082703Y-59538228D01*
X121050000Y-59373816D01*
X121050000Y-59206184D01*
X121082703Y-59041772D01*
X121146853Y-58886900D01*
X121239985Y-58747519D01*
X121358519Y-58628985D01*
X121497900Y-58535853D01*
X121652772Y-58471703D01*
X121817184Y-58439000D01*
X121984816Y-58439000D01*
X122149228Y-58471703D01*
G37*
G36*
X103201000Y-58851000D02*
G01*
X101799000Y-58851000D01*
X101799000Y-58049000D01*
X103201000Y-58049000D01*
X103201000Y-58851000D01*
G37*
G36*
X108051000Y-58801000D02*
G01*
X106949000Y-58801000D01*
X106949000Y-56199000D01*
X108051000Y-56199000D01*
X108051000Y-58801000D01*
G37*
G36*
X105051000Y-58801000D02*
G01*
X103949000Y-58801000D01*
X103949000Y-56199000D01*
X105051000Y-56199000D01*
X105051000Y-58801000D01*
G37*
G36*
X122752000Y-57601000D02*
G01*
X121050000Y-57601000D01*
X121050000Y-55899000D01*
X122752000Y-55899000D01*
X122752000Y-57601000D01*
G37*
G36*
X114529228Y-55931703D02*
G01*
X114684100Y-55995853D01*
X114823481Y-56088985D01*
X114942015Y-56207519D01*
X115035147Y-56346900D01*
X115099297Y-56501772D01*
X115132000Y-56666184D01*
X115132000Y-56833816D01*
X115099297Y-56998228D01*
X115035147Y-57153100D01*
X114942015Y-57292481D01*
X114823481Y-57411015D01*
X114684100Y-57504147D01*
X114529228Y-57568297D01*
X114364816Y-57601000D01*
X114197184Y-57601000D01*
X114032772Y-57568297D01*
X113877900Y-57504147D01*
X113738519Y-57411015D01*
X113619985Y-57292481D01*
X113526853Y-57153100D01*
X113462703Y-56998228D01*
X113430000Y-56833816D01*
X113430000Y-56666184D01*
X113462703Y-56501772D01*
X113526853Y-56346900D01*
X113619985Y-56207519D01*
X113738519Y-56088985D01*
X113877900Y-55995853D01*
X114032772Y-55931703D01*
X114197184Y-55899000D01*
X114364816Y-55899000D01*
X114529228Y-55931703D01*
G37*
G36*
X100901000Y-57501000D02*
G01*
X99999000Y-57501000D01*
X99999000Y-56499000D01*
X100901000Y-56499000D01*
X100901000Y-57501000D01*
G37*
G36*
X99001000Y-57501000D02*
G01*
X98099000Y-57501000D01*
X98099000Y-56499000D01*
X99001000Y-56499000D01*
X99001000Y-57501000D01*
G37*
G36*
X92901000Y-57501000D02*
G01*
X91999000Y-57501000D01*
X91999000Y-56499000D01*
X92901000Y-56499000D01*
X92901000Y-57501000D01*
G37*
G36*
X88901000Y-57501000D02*
G01*
X87999000Y-57501000D01*
X87999000Y-56499000D01*
X88901000Y-56499000D01*
X88901000Y-57501000D01*
G37*
G36*
X95001000Y-57501000D02*
G01*
X94099000Y-57501000D01*
X94099000Y-56499000D01*
X95001000Y-56499000D01*
X95001000Y-57501000D01*
G37*
G36*
X87001000Y-57501000D02*
G01*
X86099000Y-57501000D01*
X86099000Y-56499000D01*
X87001000Y-56499000D01*
X87001000Y-57501000D01*
G37*
G36*
X91001000Y-57501000D02*
G01*
X90099000Y-57501000D01*
X90099000Y-56499000D01*
X91001000Y-56499000D01*
X91001000Y-57501000D01*
G37*
G36*
X96901000Y-57501000D02*
G01*
X95999000Y-57501000D01*
X95999000Y-56499000D01*
X96901000Y-56499000D01*
X96901000Y-57501000D01*
G37*
G36*
X44798254Y-53427818D02*
G01*
X45171511Y-53582426D01*
X45171513Y-53582427D01*
X45507436Y-53806884D01*
X45793116Y-54092564D01*
X45877245Y-54218471D01*
X46017574Y-54428489D01*
X46172182Y-54801746D01*
X46251000Y-55197993D01*
X46251000Y-55602007D01*
X46172182Y-55998254D01*
X46027768Y-56346900D01*
X46017573Y-56371513D01*
X45793116Y-56707436D01*
X45507436Y-56993116D01*
X45171513Y-57217573D01*
X45171512Y-57217574D01*
X45171511Y-57217574D01*
X44798254Y-57372182D01*
X44402007Y-57451000D01*
X43997993Y-57451000D01*
X43601746Y-57372182D01*
X43228489Y-57217574D01*
X43228488Y-57217574D01*
X43228487Y-57217573D01*
X42892564Y-56993116D01*
X42606884Y-56707436D01*
X42382427Y-56371513D01*
X42372232Y-56346900D01*
X42227818Y-55998254D01*
X42149000Y-55602007D01*
X42149000Y-55197993D01*
X42227818Y-54801746D01*
X42382426Y-54428489D01*
X42522756Y-54218471D01*
X42606884Y-54092564D01*
X42892564Y-53806884D01*
X43228487Y-53582427D01*
X43228489Y-53582426D01*
X43601746Y-53427818D01*
X43997993Y-53349000D01*
X44402007Y-53349000D01*
X44798254Y-53427818D01*
G37*
G36*
X37198254Y-53427818D02*
G01*
X37571511Y-53582426D01*
X37571513Y-53582427D01*
X37907436Y-53806884D01*
X38193116Y-54092564D01*
X38277245Y-54218471D01*
X38417574Y-54428489D01*
X38572182Y-54801746D01*
X38651000Y-55197993D01*
X38651000Y-55602007D01*
X38572182Y-55998254D01*
X38427768Y-56346900D01*
X38417573Y-56371513D01*
X38193116Y-56707436D01*
X37907436Y-56993116D01*
X37571513Y-57217573D01*
X37571512Y-57217574D01*
X37571511Y-57217574D01*
X37198254Y-57372182D01*
X36802007Y-57451000D01*
X36397993Y-57451000D01*
X36001746Y-57372182D01*
X35628489Y-57217574D01*
X35628488Y-57217574D01*
X35628487Y-57217573D01*
X35292564Y-56993116D01*
X35006884Y-56707436D01*
X34782427Y-56371513D01*
X34772232Y-56346900D01*
X34627818Y-55998254D01*
X34549000Y-55602007D01*
X34549000Y-55197993D01*
X34627818Y-54801746D01*
X34782426Y-54428489D01*
X34922756Y-54218471D01*
X35006884Y-54092564D01*
X35292564Y-53806884D01*
X35628487Y-53582427D01*
X35628489Y-53582426D01*
X36001746Y-53427818D01*
X36397993Y-53349000D01*
X36802007Y-53349000D01*
X37198254Y-53427818D01*
G37*
G36*
X103201000Y-56951000D02*
G01*
X101799000Y-56951000D01*
X101799000Y-56149000D01*
X103201000Y-56149000D01*
X103201000Y-56951000D01*
G37*
G36*
X30357610Y-53821114D02*
G01*
X30580727Y-53913532D01*
X30580729Y-53913533D01*
X30631269Y-53947303D01*
X30781529Y-54047703D01*
X30952297Y-54218471D01*
X31086468Y-54419273D01*
X31178886Y-54642390D01*
X31226000Y-54879248D01*
X31226000Y-55120752D01*
X31178886Y-55357610D01*
X31086468Y-55580727D01*
X30952297Y-55781529D01*
X30781529Y-55952297D01*
X30631269Y-56052697D01*
X30580729Y-56086467D01*
X30580728Y-56086468D01*
X30580727Y-56086468D01*
X30357610Y-56178886D01*
X30120752Y-56226000D01*
X29879248Y-56226000D01*
X29642390Y-56178886D01*
X29419273Y-56086468D01*
X29419272Y-56086468D01*
X29419271Y-56086467D01*
X29368731Y-56052697D01*
X29218471Y-55952297D01*
X29047703Y-55781529D01*
X28913532Y-55580727D01*
X28821114Y-55357610D01*
X28774000Y-55120752D01*
X28774000Y-54879248D01*
X28821114Y-54642390D01*
X28913532Y-54419273D01*
X29047703Y-54218471D01*
X29218471Y-54047703D01*
X29368731Y-53947303D01*
X29419271Y-53913533D01*
X29419273Y-53913532D01*
X29642390Y-53821114D01*
X29879248Y-53774000D01*
X30120752Y-53774000D01*
X30357610Y-53821114D01*
G37*
G36*
X95951000Y-55501000D02*
G01*
X95049000Y-55501000D01*
X95049000Y-54499000D01*
X95951000Y-54499000D01*
X95951000Y-55501000D01*
G37*
G36*
X91951000Y-55501000D02*
G01*
X91049000Y-55501000D01*
X91049000Y-54499000D01*
X91951000Y-54499000D01*
X91951000Y-55501000D01*
G37*
G36*
X87951000Y-55501000D02*
G01*
X87049000Y-55501000D01*
X87049000Y-54499000D01*
X87951000Y-54499000D01*
X87951000Y-55501000D01*
G37*
G36*
X99951000Y-55501000D02*
G01*
X99049000Y-55501000D01*
X99049000Y-54499000D01*
X99951000Y-54499000D01*
X99951000Y-55501000D01*
G37*
G36*
X104351000Y-55451000D02*
G01*
X103549000Y-55451000D01*
X103549000Y-54049000D01*
X104351000Y-54049000D01*
X104351000Y-55451000D01*
G37*
G36*
X107851000Y-55451000D02*
G01*
X107049000Y-55451000D01*
X107049000Y-54049000D01*
X107851000Y-54049000D01*
X107851000Y-55451000D01*
G37*
G36*
X102451000Y-55451000D02*
G01*
X101649000Y-55451000D01*
X101649000Y-54049000D01*
X102451000Y-54049000D01*
X102451000Y-55451000D01*
G37*
G36*
X105951000Y-55451000D02*
G01*
X105149000Y-55451000D01*
X105149000Y-54049000D01*
X105951000Y-54049000D01*
X105951000Y-55451000D01*
G37*
G36*
X68079487Y-52648996D02*
G01*
X68316253Y-52747068D01*
X68316255Y-52747069D01*
X68441871Y-52831003D01*
X68529339Y-52889447D01*
X68710553Y-53070661D01*
X68852932Y-53283747D01*
X68951004Y-53520513D01*
X69001000Y-53771861D01*
X69001000Y-54028139D01*
X68951004Y-54279487D01*
X68889286Y-54428487D01*
X68852931Y-54516255D01*
X68710553Y-54729339D01*
X68529339Y-54910553D01*
X68316255Y-55052931D01*
X68316254Y-55052932D01*
X68316253Y-55052932D01*
X68079487Y-55151004D01*
X67828139Y-55201000D01*
X67571861Y-55201000D01*
X67320513Y-55151004D01*
X67083747Y-55052932D01*
X67083746Y-55052932D01*
X67083745Y-55052931D01*
X66870661Y-54910553D01*
X66689447Y-54729339D01*
X66547069Y-54516255D01*
X66510714Y-54428487D01*
X66448996Y-54279487D01*
X66399000Y-54028139D01*
X66399000Y-53771861D01*
X66448996Y-53520513D01*
X66547068Y-53283747D01*
X66689447Y-53070661D01*
X66870661Y-52889447D01*
X66958129Y-52831003D01*
X67083745Y-52747069D01*
X67083747Y-52747068D01*
X67320513Y-52648996D01*
X67571861Y-52599000D01*
X67828139Y-52599000D01*
X68079487Y-52648996D01*
G37*
G36*
X121297000Y-53733000D02*
G01*
X118695000Y-53733000D01*
X118695000Y-51131000D01*
X121297000Y-51131000D01*
X121297000Y-53733000D01*
G37*
G36*
X100701000Y-53551000D02*
G01*
X99299000Y-53551000D01*
X99299000Y-52749000D01*
X100701000Y-52749000D01*
X100701000Y-53551000D01*
G37*
G36*
X89451000Y-53551000D02*
G01*
X88049000Y-53551000D01*
X88049000Y-52749000D01*
X89451000Y-52749000D01*
X89451000Y-53551000D01*
G37*
G36*
X91451000Y-53551000D02*
G01*
X90049000Y-53551000D01*
X90049000Y-52749000D01*
X91451000Y-52749000D01*
X91451000Y-53551000D01*
G37*
G36*
X93451000Y-53551000D02*
G01*
X92049000Y-53551000D01*
X92049000Y-52749000D01*
X93451000Y-52749000D01*
X93451000Y-53551000D01*
G37*
G36*
X95451000Y-53551000D02*
G01*
X94049000Y-53551000D01*
X94049000Y-52749000D01*
X95451000Y-52749000D01*
X95451000Y-53551000D01*
G37*
G36*
X98701000Y-53551000D02*
G01*
X97299000Y-53551000D01*
X97299000Y-52749000D01*
X98701000Y-52749000D01*
X98701000Y-53551000D01*
G37*
G36*
X59819487Y-50328996D02*
G01*
X60056253Y-50427068D01*
X60056255Y-50427069D01*
X60269339Y-50569447D01*
X60450553Y-50750661D01*
X60592932Y-50963747D01*
X60691004Y-51200513D01*
X60741000Y-51451861D01*
X60741000Y-51708139D01*
X60691004Y-51959487D01*
X60592932Y-52196253D01*
X60592931Y-52196255D01*
X60450553Y-52409339D01*
X60269339Y-52590553D01*
X60056255Y-52732931D01*
X60056254Y-52732932D01*
X60056253Y-52732932D01*
X59819487Y-52831004D01*
X59568139Y-52881000D01*
X59311861Y-52881000D01*
X59060513Y-52831004D01*
X58823747Y-52732932D01*
X58823746Y-52732932D01*
X58823745Y-52732931D01*
X58610661Y-52590553D01*
X58429447Y-52409339D01*
X58287069Y-52196255D01*
X58287068Y-52196253D01*
X58188996Y-51959487D01*
X58139000Y-51708139D01*
X58139000Y-51451861D01*
X58188996Y-51200513D01*
X58287068Y-50963747D01*
X58429447Y-50750661D01*
X58610661Y-50569447D01*
X58823745Y-50427069D01*
X58823747Y-50427068D01*
X59060513Y-50328996D01*
X59311861Y-50279000D01*
X59568139Y-50279000D01*
X59819487Y-50328996D01*
G37*
G36*
X91451000Y-51651000D02*
G01*
X90049000Y-51651000D01*
X90049000Y-50849000D01*
X91451000Y-50849000D01*
X91451000Y-51651000D01*
G37*
G36*
X95451000Y-51651000D02*
G01*
X94049000Y-51651000D01*
X94049000Y-50849000D01*
X95451000Y-50849000D01*
X95451000Y-51651000D01*
G37*
G36*
X100701000Y-51651000D02*
G01*
X99299000Y-51651000D01*
X99299000Y-50849000D01*
X100701000Y-50849000D01*
X100701000Y-51651000D01*
G37*
G36*
X98701000Y-51651000D02*
G01*
X97299000Y-51651000D01*
X97299000Y-50849000D01*
X98701000Y-50849000D01*
X98701000Y-51651000D01*
G37*
G36*
X93451000Y-51651000D02*
G01*
X92049000Y-51651000D01*
X92049000Y-50849000D01*
X93451000Y-50849000D01*
X93451000Y-51651000D01*
G37*
G36*
X89451000Y-51651000D02*
G01*
X88049000Y-51651000D01*
X88049000Y-50849000D01*
X89451000Y-50849000D01*
X89451000Y-51651000D01*
G37*
G36*
X86151000Y-50701000D02*
G01*
X84349000Y-50701000D01*
X84349000Y-49299000D01*
X86151000Y-49299000D01*
X86151000Y-50701000D01*
G37*
G36*
X104301000Y-49051000D02*
G01*
X101699000Y-49051000D01*
X101699000Y-44949000D01*
X104301000Y-44949000D01*
X104301000Y-49051000D01*
G37*
G36*
X93301000Y-49051000D02*
G01*
X90699000Y-49051000D01*
X90699000Y-44949000D01*
X93301000Y-44949000D01*
X93301000Y-49051000D01*
G37*
G36*
X120375487Y-46180996D02*
G01*
X120612253Y-46279068D01*
X120612255Y-46279069D01*
X120825339Y-46421447D01*
X121006553Y-46602661D01*
X121082453Y-46716253D01*
X121148932Y-46815747D01*
X121247004Y-47052513D01*
X121297000Y-47303861D01*
X121297000Y-47560139D01*
X121247004Y-47811487D01*
X121239609Y-47829339D01*
X121148931Y-48048255D01*
X121006553Y-48261339D01*
X120825339Y-48442553D01*
X120612255Y-48584931D01*
X120612254Y-48584932D01*
X120612253Y-48584932D01*
X120375487Y-48683004D01*
X120124139Y-48733000D01*
X119867861Y-48733000D01*
X119616513Y-48683004D01*
X119379747Y-48584932D01*
X119379746Y-48584932D01*
X119379745Y-48584931D01*
X119166661Y-48442553D01*
X118985447Y-48261339D01*
X118843069Y-48048255D01*
X118752391Y-47829339D01*
X118744996Y-47811487D01*
X118695000Y-47560139D01*
X118695000Y-47303861D01*
X118744996Y-47052513D01*
X118843068Y-46815747D01*
X118909548Y-46716253D01*
X118985447Y-46602661D01*
X119166661Y-46421447D01*
X119379745Y-46279069D01*
X119379747Y-46279068D01*
X119616513Y-46180996D01*
X119867861Y-46131000D01*
X120124139Y-46131000D01*
X120375487Y-46180996D01*
G37*
G36*
X30379487Y-45748996D02*
G01*
X30616253Y-45847068D01*
X30616255Y-45847069D01*
X30829339Y-45989447D01*
X31010553Y-46170661D01*
X31048959Y-46228139D01*
X31152932Y-46383747D01*
X31251004Y-46620513D01*
X31301000Y-46871861D01*
X31301000Y-47128139D01*
X31251004Y-47379487D01*
X31176176Y-47560137D01*
X31152931Y-47616255D01*
X31010553Y-47829339D01*
X30829339Y-48010553D01*
X30616255Y-48152931D01*
X30616254Y-48152932D01*
X30616253Y-48152932D01*
X30379487Y-48251004D01*
X30128139Y-48301000D01*
X29871861Y-48301000D01*
X29620513Y-48251004D01*
X29383747Y-48152932D01*
X29383746Y-48152932D01*
X29383745Y-48152931D01*
X29170661Y-48010553D01*
X28989447Y-47829339D01*
X28847069Y-47616255D01*
X28823824Y-47560137D01*
X28748996Y-47379487D01*
X28699000Y-47128139D01*
X28699000Y-46871861D01*
X28748996Y-46620513D01*
X28847068Y-46383747D01*
X28951042Y-46228139D01*
X28989447Y-46170661D01*
X29170661Y-45989447D01*
X29383745Y-45847069D01*
X29383747Y-45847068D01*
X29620513Y-45748996D01*
X29871861Y-45699000D01*
X30128139Y-45699000D01*
X30379487Y-45748996D01*
G37*
G36*
X68079487Y-44848996D02*
G01*
X68316253Y-44947068D01*
X68316255Y-44947069D01*
X68529339Y-45089447D01*
X68710553Y-45270661D01*
X68852932Y-45483747D01*
X68951004Y-45720513D01*
X69001000Y-45971861D01*
X69001000Y-46228139D01*
X68951004Y-46479487D01*
X68899983Y-46602661D01*
X68852931Y-46716255D01*
X68710553Y-46929339D01*
X68529339Y-47110553D01*
X68316255Y-47252931D01*
X68316254Y-47252932D01*
X68316253Y-47252932D01*
X68079487Y-47351004D01*
X67828139Y-47401000D01*
X67571861Y-47401000D01*
X67320513Y-47351004D01*
X67083747Y-47252932D01*
X67083746Y-47252932D01*
X67083745Y-47252931D01*
X66870661Y-47110553D01*
X66689447Y-46929339D01*
X66547069Y-46716255D01*
X66500017Y-46602661D01*
X66448996Y-46479487D01*
X66399000Y-46228139D01*
X66399000Y-45971861D01*
X66448996Y-45720513D01*
X66547068Y-45483747D01*
X66689447Y-45270661D01*
X66870661Y-45089447D01*
X67083745Y-44947069D01*
X67083747Y-44947068D01*
X67320513Y-44848996D01*
X67571861Y-44799000D01*
X67828139Y-44799000D01*
X68079487Y-44848996D01*
G37*
G36*
X86151000Y-47201000D02*
G01*
X84349000Y-47201000D01*
X84349000Y-45799000D01*
X86151000Y-45799000D01*
X86151000Y-47201000D01*
G37*
G36*
X85951000Y-45101000D02*
G01*
X84549000Y-45101000D01*
X84549000Y-44299000D01*
X85951000Y-44299000D01*
X85951000Y-45101000D01*
G37*
G36*
X121297000Y-43573000D02*
G01*
X118695000Y-43573000D01*
X118695000Y-40971000D01*
X121297000Y-40971000D01*
X121297000Y-43573000D01*
G37*
G36*
X30379487Y-40748996D02*
G01*
X30616253Y-40847068D01*
X30616255Y-40847069D01*
X30801731Y-40971000D01*
X30829339Y-40989447D01*
X31010553Y-41170661D01*
X31152932Y-41383747D01*
X31251004Y-41620513D01*
X31301000Y-41871861D01*
X31301000Y-42128139D01*
X31251004Y-42379487D01*
X31170876Y-42572932D01*
X31152931Y-42616255D01*
X31010553Y-42829339D01*
X30829339Y-43010553D01*
X30616255Y-43152931D01*
X30616254Y-43152932D01*
X30616253Y-43152932D01*
X30379487Y-43251004D01*
X30128139Y-43301000D01*
X29871861Y-43301000D01*
X29620513Y-43251004D01*
X29383747Y-43152932D01*
X29383746Y-43152932D01*
X29383745Y-43152931D01*
X29170661Y-43010553D01*
X28989447Y-42829339D01*
X28847069Y-42616255D01*
X28829124Y-42572932D01*
X28748996Y-42379487D01*
X28699000Y-42128139D01*
X28699000Y-41871861D01*
X28748996Y-41620513D01*
X28847068Y-41383747D01*
X28989447Y-41170661D01*
X29170661Y-40989447D01*
X29198269Y-40971000D01*
X29383745Y-40847069D01*
X29383747Y-40847068D01*
X29620513Y-40748996D01*
X29871861Y-40699000D01*
X30128139Y-40699000D01*
X30379487Y-40748996D01*
G37*
G36*
X85951000Y-43201000D02*
G01*
X84549000Y-43201000D01*
X84549000Y-42399000D01*
X85951000Y-42399000D01*
X85951000Y-43201000D01*
G37*
G36*
X113901000Y-42951000D02*
G01*
X112099000Y-42951000D01*
X112099000Y-41549000D01*
X113901000Y-41549000D01*
X113901000Y-42951000D01*
G37*
G36*
X59819487Y-40168996D02*
G01*
X60056253Y-40267068D01*
X60056255Y-40267069D01*
X60269339Y-40409447D01*
X60450553Y-40590661D01*
X60556350Y-40748997D01*
X60592932Y-40803747D01*
X60691004Y-41040513D01*
X60741000Y-41291861D01*
X60741000Y-41548139D01*
X60691004Y-41799487D01*
X60592932Y-42036253D01*
X60592931Y-42036255D01*
X60450553Y-42249339D01*
X60269339Y-42430553D01*
X60056255Y-42572931D01*
X60056254Y-42572932D01*
X60056253Y-42572932D01*
X59819487Y-42671004D01*
X59568139Y-42721000D01*
X59311861Y-42721000D01*
X59060513Y-42671004D01*
X58823747Y-42572932D01*
X58823746Y-42572932D01*
X58823745Y-42572931D01*
X58610661Y-42430553D01*
X58429447Y-42249339D01*
X58287069Y-42036255D01*
X58287068Y-42036253D01*
X58188996Y-41799487D01*
X58139000Y-41548139D01*
X58139000Y-41291861D01*
X58188996Y-41040513D01*
X58287068Y-40803747D01*
X58323651Y-40748997D01*
X58429447Y-40590661D01*
X58610661Y-40409447D01*
X58823745Y-40267069D01*
X58823747Y-40267068D01*
X59060513Y-40168996D01*
X59311861Y-40119000D01*
X59568139Y-40119000D01*
X59819487Y-40168996D01*
G37*
G36*
X86151000Y-41701000D02*
G01*
X84349000Y-41701000D01*
X84349000Y-40299000D01*
X86151000Y-40299000D01*
X86151000Y-41701000D01*
G37*
G36*
X93301000Y-41051000D02*
G01*
X90699000Y-41051000D01*
X90699000Y-36949000D01*
X93301000Y-36949000D01*
X93301000Y-41051000D01*
G37*
G36*
X104301000Y-41051000D02*
G01*
X101699000Y-41051000D01*
X101699000Y-36949000D01*
X104301000Y-36949000D01*
X104301000Y-41051000D01*
G37*
G36*
X110579487Y-37348996D02*
G01*
X110816253Y-37447068D01*
X110816255Y-37447069D01*
X111029339Y-37589447D01*
X111210553Y-37770661D01*
X111297643Y-37901000D01*
X111352932Y-37983747D01*
X111451004Y-38220513D01*
X111501000Y-38471861D01*
X111501000Y-38728139D01*
X111451004Y-38979487D01*
X111352932Y-39216253D01*
X111352931Y-39216255D01*
X111210553Y-39429339D01*
X111029339Y-39610553D01*
X110816255Y-39752931D01*
X110816254Y-39752932D01*
X110816253Y-39752932D01*
X110579487Y-39851004D01*
X110328139Y-39901000D01*
X110071861Y-39901000D01*
X109820513Y-39851004D01*
X109583747Y-39752932D01*
X109583746Y-39752932D01*
X109583745Y-39752931D01*
X109370661Y-39610553D01*
X109189447Y-39429339D01*
X109047069Y-39216255D01*
X109047068Y-39216253D01*
X108948996Y-38979487D01*
X108899000Y-38728139D01*
X108899000Y-38471861D01*
X108948996Y-38220513D01*
X109047068Y-37983747D01*
X109102358Y-37901000D01*
X109189447Y-37770661D01*
X109370661Y-37589447D01*
X109583745Y-37447069D01*
X109583747Y-37447068D01*
X109820513Y-37348996D01*
X110071861Y-37299000D01*
X110328139Y-37299000D01*
X110579487Y-37348996D01*
G37*
G36*
X47338254Y-35627818D02*
G01*
X47711511Y-35782426D01*
X47711513Y-35782427D01*
X47963800Y-35951000D01*
X48047436Y-36006884D01*
X48333116Y-36292564D01*
X48557574Y-36628489D01*
X48712182Y-37001746D01*
X48791000Y-37397993D01*
X48791000Y-37802007D01*
X48712182Y-38198254D01*
X48577666Y-38523004D01*
X48557573Y-38571513D01*
X48333116Y-38907436D01*
X48047436Y-39193116D01*
X47711513Y-39417573D01*
X47711512Y-39417574D01*
X47711511Y-39417574D01*
X47338254Y-39572182D01*
X46942007Y-39651000D01*
X46537993Y-39651000D01*
X46141746Y-39572182D01*
X45768489Y-39417574D01*
X45768488Y-39417574D01*
X45768487Y-39417573D01*
X45432564Y-39193116D01*
X45146884Y-38907436D01*
X44922427Y-38571513D01*
X44902334Y-38523004D01*
X44767818Y-38198254D01*
X44689000Y-37802007D01*
X44689000Y-37397993D01*
X44767818Y-37001746D01*
X44922426Y-36628489D01*
X45146884Y-36292564D01*
X45432564Y-36006884D01*
X45516200Y-35951000D01*
X45768487Y-35782427D01*
X45768489Y-35782426D01*
X46141746Y-35627818D01*
X46537993Y-35549000D01*
X46942007Y-35549000D01*
X47338254Y-35627818D01*
G37*
G36*
X113901000Y-39451000D02*
G01*
X112099000Y-39451000D01*
X112099000Y-38049000D01*
X113901000Y-38049000D01*
X113901000Y-39451000D01*
G37*
G36*
X81451000Y-39001000D02*
G01*
X80549000Y-39001000D01*
X80549000Y-37999000D01*
X81451000Y-37999000D01*
X81451000Y-39001000D01*
G37*
G36*
X120375487Y-36020996D02*
G01*
X120612253Y-36119068D01*
X120612255Y-36119069D01*
X120825339Y-36261447D01*
X121006553Y-36442661D01*
X121148932Y-36655747D01*
X121247004Y-36892513D01*
X121297000Y-37143861D01*
X121297000Y-37400139D01*
X121247004Y-37651487D01*
X121184656Y-37802007D01*
X121148931Y-37888255D01*
X121006553Y-38101339D01*
X120825339Y-38282553D01*
X120612255Y-38424931D01*
X120612254Y-38424932D01*
X120612253Y-38424932D01*
X120375487Y-38523004D01*
X120124139Y-38573000D01*
X119867861Y-38573000D01*
X119616513Y-38523004D01*
X119379747Y-38424932D01*
X119379746Y-38424932D01*
X119379745Y-38424931D01*
X119166661Y-38282553D01*
X118985447Y-38101339D01*
X118843069Y-37888255D01*
X118807344Y-37802007D01*
X118744996Y-37651487D01*
X118695000Y-37400139D01*
X118695000Y-37143861D01*
X118744996Y-36892513D01*
X118843068Y-36655747D01*
X118985447Y-36442661D01*
X119166661Y-36261447D01*
X119379745Y-36119069D01*
X119379747Y-36119068D01*
X119616513Y-36020996D01*
X119867861Y-35971000D01*
X120124139Y-35971000D01*
X120375487Y-36020996D01*
G37*
G36*
X31301000Y-38301000D02*
G01*
X28699000Y-38301000D01*
X28699000Y-35699000D01*
X31301000Y-35699000D01*
X31301000Y-38301000D01*
G37*
G36*
X86151000Y-38201000D02*
G01*
X84349000Y-38201000D01*
X84349000Y-36799000D01*
X86151000Y-36799000D01*
X86151000Y-38201000D01*
G37*
G36*
X63701000Y-37901000D02*
G01*
X62299000Y-37901000D01*
X62299000Y-36099000D01*
X63701000Y-36099000D01*
X63701000Y-37901000D01*
G37*
G36*
X60201000Y-37901000D02*
G01*
X58799000Y-37901000D01*
X58799000Y-36099000D01*
X60201000Y-36099000D01*
X60201000Y-37901000D01*
G37*
G36*
X82401000Y-37001000D02*
G01*
X81499000Y-37001000D01*
X81499000Y-35999000D01*
X82401000Y-35999000D01*
X82401000Y-37001000D01*
G37*
G36*
X80501000Y-37001000D02*
G01*
X79599000Y-37001000D01*
X79599000Y-35999000D01*
X80501000Y-35999000D01*
X80501000Y-37001000D01*
G37*
G36*
X74301000Y-35951000D02*
G01*
X71699000Y-35951000D01*
X71699000Y-34049000D01*
X74301000Y-34049000D01*
X74301000Y-35951000D01*
G37*
G36*
X78301000Y-35951000D02*
G01*
X75699000Y-35951000D01*
X75699000Y-34049000D01*
X78301000Y-34049000D01*
X78301000Y-35951000D01*
G37*
G36*
X90701000Y-35401000D02*
G01*
X89299000Y-35401000D01*
X89299000Y-34599000D01*
X90701000Y-34599000D01*
X90701000Y-35401000D01*
G37*
G36*
X82701000Y-35401000D02*
G01*
X81299000Y-35401000D01*
X81299000Y-34599000D01*
X82701000Y-34599000D01*
X82701000Y-35401000D01*
G37*
G36*
X80701000Y-35401000D02*
G01*
X79299000Y-35401000D01*
X79299000Y-34599000D01*
X80701000Y-34599000D01*
X80701000Y-35401000D01*
G37*
G36*
X84951000Y-34901000D02*
G01*
X83549000Y-34901000D01*
X83549000Y-33099000D01*
X84951000Y-33099000D01*
X84951000Y-34901000D01*
G37*
G36*
X88451000Y-34901000D02*
G01*
X87049000Y-34901000D01*
X87049000Y-33099000D01*
X88451000Y-33099000D01*
X88451000Y-34901000D01*
G37*
G36*
X109247764Y-32254402D02*
G01*
X109370445Y-32278805D01*
X109601571Y-32374541D01*
X109809578Y-32513527D01*
X109986473Y-32690422D01*
X110125459Y-32898429D01*
X110221195Y-33129555D01*
X110270000Y-33374916D01*
X110270000Y-33625084D01*
X110221195Y-33870445D01*
X110125459Y-34101571D01*
X109986473Y-34309578D01*
X109809578Y-34486473D01*
X109601571Y-34625459D01*
X109370445Y-34721195D01*
X109247764Y-34745598D01*
X109125085Y-34770000D01*
X108874915Y-34770000D01*
X108752236Y-34745598D01*
X108629555Y-34721195D01*
X108398429Y-34625459D01*
X108190422Y-34486473D01*
X108013527Y-34309578D01*
X107874541Y-34101571D01*
X107778805Y-33870445D01*
X107730000Y-33625084D01*
X107730000Y-33374916D01*
X107778805Y-33129555D01*
X107874541Y-32898429D01*
X108013527Y-32690422D01*
X108190422Y-32513527D01*
X108398429Y-32374541D01*
X108629555Y-32278805D01*
X108752235Y-32254403D01*
X108874915Y-32230000D01*
X109125085Y-32230000D01*
X109247764Y-32254402D01*
G37*
G36*
X70651000Y-34651000D02*
G01*
X69349000Y-34651000D01*
X69349000Y-33349000D01*
X70651000Y-33349000D01*
X70651000Y-34651000D01*
G37*
G36*
X113901000Y-34501000D02*
G01*
X112599000Y-34501000D01*
X112599000Y-33199000D01*
X113901000Y-33199000D01*
X113901000Y-34501000D01*
G37*
G36*
X118191000Y-34287000D02*
G01*
X116889000Y-34287000D01*
X116889000Y-32985000D01*
X118191000Y-32985000D01*
X118191000Y-34287000D01*
G37*
G36*
X115991000Y-34287000D02*
G01*
X114689000Y-34287000D01*
X114689000Y-32985000D01*
X115991000Y-32985000D01*
X115991000Y-34287000D01*
G37*
G36*
X80701000Y-33501000D02*
G01*
X79299000Y-33501000D01*
X79299000Y-32699000D01*
X80701000Y-32699000D01*
X80701000Y-33501000D01*
G37*
G36*
X82701000Y-33501000D02*
G01*
X81299000Y-33501000D01*
X81299000Y-32699000D01*
X82701000Y-32699000D01*
X82701000Y-33501000D01*
G37*
G36*
X90701000Y-33501000D02*
G01*
X89299000Y-33501000D01*
X89299000Y-32699000D01*
X90701000Y-32699000D01*
X90701000Y-33501000D01*
G37*
G36*
X30445209Y-27181703D02*
G01*
X30831606Y-27258562D01*
X31350455Y-27473476D01*
X31817407Y-27785484D01*
X32214516Y-28182593D01*
X32526524Y-28649545D01*
X32741438Y-29168394D01*
X32745820Y-29190423D01*
X32851000Y-29719200D01*
X32851000Y-30280800D01*
X32846982Y-30301000D01*
X32741438Y-30831606D01*
X32526524Y-31350455D01*
X32214516Y-31817407D01*
X31817407Y-32214516D01*
X31350455Y-32526524D01*
X30831606Y-32741438D01*
X30280800Y-32851000D01*
X29719200Y-32851000D01*
X29168394Y-32741438D01*
X28649545Y-32526524D01*
X28182593Y-32214516D01*
X27785484Y-31817407D01*
X27473476Y-31350455D01*
X27258562Y-30831606D01*
X27153018Y-30301000D01*
X27149000Y-30280800D01*
X27149000Y-29719200D01*
X27254180Y-29190423D01*
X27258562Y-29168394D01*
X27473476Y-28649545D01*
X27785484Y-28182593D01*
X28182593Y-27785484D01*
X28649545Y-27473476D01*
X29168394Y-27258562D01*
X29554791Y-27181703D01*
X29719200Y-27149000D01*
X30280800Y-27149000D01*
X30445209Y-27181703D01*
G37*
G36*
X120445209Y-27181703D02*
G01*
X120831606Y-27258562D01*
X121350455Y-27473476D01*
X121817407Y-27785484D01*
X122214516Y-28182593D01*
X122526524Y-28649545D01*
X122741438Y-29168394D01*
X122745820Y-29190423D01*
X122851000Y-29719200D01*
X122851000Y-30280800D01*
X122846982Y-30301000D01*
X122741438Y-30831606D01*
X122526524Y-31350455D01*
X122214516Y-31817407D01*
X121817407Y-32214516D01*
X121350455Y-32526524D01*
X120831606Y-32741438D01*
X120280800Y-32851000D01*
X119719200Y-32851000D01*
X119168394Y-32741438D01*
X118649545Y-32526524D01*
X118182593Y-32214516D01*
X117785484Y-31817407D01*
X117473476Y-31350455D01*
X117258562Y-30831606D01*
X117153018Y-30301000D01*
X117149000Y-30280800D01*
X117149000Y-29719200D01*
X117254180Y-29190423D01*
X117258562Y-29168394D01*
X117473476Y-28649545D01*
X117785484Y-28182593D01*
X118182593Y-27785484D01*
X118649545Y-27473476D01*
X119168394Y-27258562D01*
X119554791Y-27181703D01*
X119719200Y-27149000D01*
X120280800Y-27149000D01*
X120445209Y-27181703D01*
G37*
G36*
X78301000Y-32451000D02*
G01*
X75699000Y-32451000D01*
X75699000Y-30549000D01*
X78301000Y-30549000D01*
X78301000Y-32451000D01*
G37*
G36*
X74301000Y-32451000D02*
G01*
X71699000Y-32451000D01*
X71699000Y-30549000D01*
X74301000Y-30549000D01*
X74301000Y-32451000D01*
G37*
G36*
X70651000Y-32451000D02*
G01*
X69349000Y-32451000D01*
X69349000Y-31149000D01*
X70651000Y-31149000D01*
X70651000Y-32451000D01*
G37*
G36*
X116125000Y-32447000D02*
G01*
X114723000Y-32447000D01*
X114723000Y-31645000D01*
X116125000Y-31645000D01*
X116125000Y-32447000D01*
G37*
G36*
X113901000Y-32301000D02*
G01*
X112599000Y-32301000D01*
X112599000Y-30999000D01*
X113901000Y-30999000D01*
X113901000Y-32301000D01*
G37*
G36*
X88248228Y-29721703D02*
G01*
X88403100Y-29785853D01*
X88542481Y-29878985D01*
X88661015Y-29997519D01*
X88754147Y-30136900D01*
X88818297Y-30291772D01*
X88851000Y-30456184D01*
X88851000Y-30623816D01*
X88818297Y-30788228D01*
X88754147Y-30943100D01*
X88661015Y-31082481D01*
X88542481Y-31201015D01*
X88403100Y-31294147D01*
X88248228Y-31358297D01*
X88083816Y-31391000D01*
X87916184Y-31391000D01*
X87751772Y-31358297D01*
X87596900Y-31294147D01*
X87457519Y-31201015D01*
X87338985Y-31082481D01*
X87245853Y-30943100D01*
X87181703Y-30788228D01*
X87149000Y-30623816D01*
X87149000Y-30456184D01*
X87181703Y-30291772D01*
X87245853Y-30136900D01*
X87338985Y-29997519D01*
X87457519Y-29878985D01*
X87596900Y-29785853D01*
X87751772Y-29721703D01*
X87916184Y-29689000D01*
X88083816Y-29689000D01*
X88248228Y-29721703D01*
G37*
G36*
X80628228Y-29721703D02*
G01*
X80783100Y-29785853D01*
X80922481Y-29878985D01*
X81041015Y-29997519D01*
X81134147Y-30136900D01*
X81198297Y-30291772D01*
X81231000Y-30456184D01*
X81231000Y-30623816D01*
X81198297Y-30788228D01*
X81134147Y-30943100D01*
X81041015Y-31082481D01*
X80922481Y-31201015D01*
X80783100Y-31294147D01*
X80628228Y-31358297D01*
X80463816Y-31391000D01*
X80296184Y-31391000D01*
X80131772Y-31358297D01*
X79976900Y-31294147D01*
X79837519Y-31201015D01*
X79718985Y-31082481D01*
X79625853Y-30943100D01*
X79561703Y-30788228D01*
X79529000Y-30623816D01*
X79529000Y-30456184D01*
X79561703Y-30291772D01*
X79625853Y-30136900D01*
X79718985Y-29997519D01*
X79837519Y-29878985D01*
X79976900Y-29785853D01*
X80131772Y-29721703D01*
X80296184Y-29689000D01*
X80463816Y-29689000D01*
X80628228Y-29721703D01*
G37*
G36*
X38879487Y-28748996D02*
G01*
X39116253Y-28847068D01*
X39116255Y-28847069D01*
X39329339Y-28989447D01*
X39510553Y-29170661D01*
X39523758Y-29190423D01*
X39652932Y-29383747D01*
X39751004Y-29620513D01*
X39801000Y-29871861D01*
X39801000Y-30128139D01*
X39751004Y-30379487D01*
X39652932Y-30616253D01*
X39652931Y-30616255D01*
X39510553Y-30829339D01*
X39329339Y-31010553D01*
X39116255Y-31152931D01*
X39116254Y-31152932D01*
X39116253Y-31152932D01*
X38879487Y-31251004D01*
X38628139Y-31301000D01*
X38371861Y-31301000D01*
X38120513Y-31251004D01*
X37883747Y-31152932D01*
X37883746Y-31152932D01*
X37883745Y-31152931D01*
X37670661Y-31010553D01*
X37489447Y-30829339D01*
X37347069Y-30616255D01*
X37347068Y-30616253D01*
X37248996Y-30379487D01*
X37199000Y-30128139D01*
X37199000Y-29871861D01*
X37248996Y-29620513D01*
X37347068Y-29383747D01*
X37476243Y-29190423D01*
X37489447Y-29170661D01*
X37670661Y-28989447D01*
X37883745Y-28847069D01*
X37883747Y-28847068D01*
X38120513Y-28748996D01*
X38371861Y-28699000D01*
X38628139Y-28699000D01*
X38879487Y-28748996D01*
G37*
G36*
X67301000Y-31301000D02*
G01*
X64699000Y-31301000D01*
X64699000Y-28699000D01*
X67301000Y-28699000D01*
X67301000Y-31301000D01*
G37*
G36*
X43879487Y-28748996D02*
G01*
X44116253Y-28847068D01*
X44116255Y-28847069D01*
X44329339Y-28989447D01*
X44510553Y-29170661D01*
X44523758Y-29190423D01*
X44652932Y-29383747D01*
X44751004Y-29620513D01*
X44801000Y-29871861D01*
X44801000Y-30128139D01*
X44751004Y-30379487D01*
X44652932Y-30616253D01*
X44652931Y-30616255D01*
X44510553Y-30829339D01*
X44329339Y-31010553D01*
X44116255Y-31152931D01*
X44116254Y-31152932D01*
X44116253Y-31152932D01*
X43879487Y-31251004D01*
X43628139Y-31301000D01*
X43371861Y-31301000D01*
X43120513Y-31251004D01*
X42883747Y-31152932D01*
X42883746Y-31152932D01*
X42883745Y-31152931D01*
X42670661Y-31010553D01*
X42489447Y-30829339D01*
X42347069Y-30616255D01*
X42347068Y-30616253D01*
X42248996Y-30379487D01*
X42199000Y-30128139D01*
X42199000Y-29871861D01*
X42248996Y-29620513D01*
X42347068Y-29383747D01*
X42476243Y-29190423D01*
X42489447Y-29170661D01*
X42670661Y-28989447D01*
X42883745Y-28847069D01*
X42883747Y-28847068D01*
X43120513Y-28748996D01*
X43371861Y-28699000D01*
X43628139Y-28699000D01*
X43879487Y-28748996D01*
G37*
G36*
X104539487Y-28748996D02*
G01*
X104776253Y-28847068D01*
X104776255Y-28847069D01*
X104989339Y-28989447D01*
X105170553Y-29170661D01*
X105183758Y-29190423D01*
X105312932Y-29383747D01*
X105411004Y-29620513D01*
X105461000Y-29871861D01*
X105461000Y-30128139D01*
X105411004Y-30379487D01*
X105312932Y-30616253D01*
X105312931Y-30616255D01*
X105170553Y-30829339D01*
X104989339Y-31010553D01*
X104776255Y-31152931D01*
X104776254Y-31152932D01*
X104776253Y-31152932D01*
X104539487Y-31251004D01*
X104288139Y-31301000D01*
X104031861Y-31301000D01*
X103780513Y-31251004D01*
X103543747Y-31152932D01*
X103543746Y-31152932D01*
X103543745Y-31152931D01*
X103330661Y-31010553D01*
X103149447Y-30829339D01*
X103007069Y-30616255D01*
X103007068Y-30616253D01*
X102908996Y-30379487D01*
X102859000Y-30128139D01*
X102859000Y-29871861D01*
X102908996Y-29620513D01*
X103007068Y-29383747D01*
X103136243Y-29190423D01*
X103149447Y-29170661D01*
X103330661Y-28989447D01*
X103543745Y-28847069D01*
X103543747Y-28847068D01*
X103780513Y-28748996D01*
X104031861Y-28699000D01*
X104288139Y-28699000D01*
X104539487Y-28748996D01*
G37*
G36*
X100301000Y-31301000D02*
G01*
X97699000Y-31301000D01*
X97699000Y-28699000D01*
X100301000Y-28699000D01*
X100301000Y-31301000D01*
G37*
G36*
X61379487Y-28748996D02*
G01*
X61616253Y-28847068D01*
X61616255Y-28847069D01*
X61829339Y-28989447D01*
X62010553Y-29170661D01*
X62023758Y-29190423D01*
X62152932Y-29383747D01*
X62251004Y-29620513D01*
X62301000Y-29871861D01*
X62301000Y-30128139D01*
X62251004Y-30379487D01*
X62152932Y-30616253D01*
X62152931Y-30616255D01*
X62010553Y-30829339D01*
X61829339Y-31010553D01*
X61616255Y-31152931D01*
X61616254Y-31152932D01*
X61616253Y-31152932D01*
X61379487Y-31251004D01*
X61128139Y-31301000D01*
X60871861Y-31301000D01*
X60620513Y-31251004D01*
X60383747Y-31152932D01*
X60383746Y-31152932D01*
X60383745Y-31152931D01*
X60170661Y-31010553D01*
X59989447Y-30829339D01*
X59847069Y-30616255D01*
X59847068Y-30616253D01*
X59748996Y-30379487D01*
X59699000Y-30128139D01*
X59699000Y-29871861D01*
X59748996Y-29620513D01*
X59847068Y-29383747D01*
X59976243Y-29190423D01*
X59989447Y-29170661D01*
X60170661Y-28989447D01*
X60383745Y-28847069D01*
X60383747Y-28847068D01*
X60620513Y-28748996D01*
X60871861Y-28699000D01*
X61128139Y-28699000D01*
X61379487Y-28748996D01*
G37*
G36*
X94379487Y-28748996D02*
G01*
X94616253Y-28847068D01*
X94616255Y-28847069D01*
X94829339Y-28989447D01*
X95010553Y-29170661D01*
X95023758Y-29190423D01*
X95152932Y-29383747D01*
X95251004Y-29620513D01*
X95301000Y-29871861D01*
X95301000Y-30128139D01*
X95251004Y-30379487D01*
X95152932Y-30616253D01*
X95152931Y-30616255D01*
X95010553Y-30829339D01*
X94829339Y-31010553D01*
X94616255Y-31152931D01*
X94616254Y-31152932D01*
X94616253Y-31152932D01*
X94379487Y-31251004D01*
X94128139Y-31301000D01*
X93871861Y-31301000D01*
X93620513Y-31251004D01*
X93383747Y-31152932D01*
X93383746Y-31152932D01*
X93383745Y-31152931D01*
X93170661Y-31010553D01*
X92989447Y-30829339D01*
X92847069Y-30616255D01*
X92847068Y-30616253D01*
X92748996Y-30379487D01*
X92699000Y-30128139D01*
X92699000Y-29871861D01*
X92748996Y-29620513D01*
X92847068Y-29383747D01*
X92976243Y-29190423D01*
X92989447Y-29170661D01*
X93170661Y-28989447D01*
X93383745Y-28847069D01*
X93383747Y-28847068D01*
X93620513Y-28748996D01*
X93871861Y-28699000D01*
X94128139Y-28699000D01*
X94379487Y-28748996D01*
G37*
G36*
X110461000Y-31301000D02*
G01*
X107859000Y-31301000D01*
X107859000Y-28699000D01*
X110461000Y-28699000D01*
X110461000Y-31301000D01*
G37*
G36*
X49801000Y-31301000D02*
G01*
X47199000Y-31301000D01*
X47199000Y-28699000D01*
X49801000Y-28699000D01*
X49801000Y-31301000D01*
G37*
G36*
X54220584Y-28748996D02*
G01*
X54370445Y-28778805D01*
X54601571Y-28874541D01*
X54809578Y-29013527D01*
X54986473Y-29190422D01*
X55125459Y-29398429D01*
X55217450Y-29620513D01*
X55221195Y-29629556D01*
X55270000Y-29874915D01*
X55270000Y-30125085D01*
X55267650Y-30136900D01*
X55221195Y-30370445D01*
X55125459Y-30601571D01*
X54986473Y-30809578D01*
X54809578Y-30986473D01*
X54601571Y-31125459D01*
X54370445Y-31221195D01*
X54247765Y-31245597D01*
X54125085Y-31270000D01*
X53874915Y-31270000D01*
X53752235Y-31245597D01*
X53629555Y-31221195D01*
X53398429Y-31125459D01*
X53190422Y-30986473D01*
X53013527Y-30809578D01*
X52874541Y-30601571D01*
X52778805Y-30370445D01*
X52732350Y-30136900D01*
X52730000Y-30125085D01*
X52730000Y-29874915D01*
X52778805Y-29629556D01*
X52782551Y-29620513D01*
X52874541Y-29398429D01*
X53013527Y-29190422D01*
X53190422Y-29013527D01*
X53398429Y-28874541D01*
X53629555Y-28778805D01*
X53779416Y-28748996D01*
X53874915Y-28730000D01*
X54125085Y-28730000D01*
X54220584Y-28748996D01*
G37*
G36*
X116125000Y-30547000D02*
G01*
X114723000Y-30547000D01*
X114723000Y-29745000D01*
X116125000Y-29745000D01*
X116125000Y-30547000D01*
G37*
G36*
X70701000Y-30301000D02*
G01*
X69299000Y-30301000D01*
X69299000Y-29499000D01*
X70701000Y-29499000D01*
X70701000Y-30301000D01*
G37*
G36*
X113951000Y-30301000D02*
G01*
X112549000Y-30301000D01*
X112549000Y-29499000D01*
X113951000Y-29499000D01*
X113951000Y-30301000D01*
G37*
G36*
X74551000Y-29176000D02*
G01*
X73449000Y-29176000D01*
X73449000Y-27824000D01*
X74551000Y-27824000D01*
X74551000Y-29176000D01*
G37*
G36*
X76551000Y-29176000D02*
G01*
X75449000Y-29176000D01*
X75449000Y-27824000D01*
X76551000Y-27824000D01*
X76551000Y-29176000D01*
G37*
G36*
X88851000Y-28851000D02*
G01*
X87149000Y-28851000D01*
X87149000Y-27149000D01*
X88851000Y-27149000D01*
X88851000Y-28851000D01*
G37*
G36*
X80628228Y-27181703D02*
G01*
X80783100Y-27245853D01*
X80922481Y-27338985D01*
X81041015Y-27457519D01*
X81134147Y-27596900D01*
X81198297Y-27751772D01*
X81231000Y-27916184D01*
X81231000Y-28083816D01*
X81198297Y-28248228D01*
X81134147Y-28403100D01*
X81041015Y-28542481D01*
X80922481Y-28661015D01*
X80783100Y-28754147D01*
X80628228Y-28818297D01*
X80463816Y-28851000D01*
X80296184Y-28851000D01*
X80131772Y-28818297D01*
X79976900Y-28754147D01*
X79837519Y-28661015D01*
X79718985Y-28542481D01*
X79625853Y-28403100D01*
X79561703Y-28248228D01*
X79529000Y-28083816D01*
X79529000Y-27916184D01*
X79561703Y-27751772D01*
X79625853Y-27596900D01*
X79718985Y-27457519D01*
X79837519Y-27338985D01*
X79976900Y-27245853D01*
X80131772Y-27181703D01*
X80296184Y-27149000D01*
X80463816Y-27149000D01*
X80628228Y-27181703D01*
G37*
G36*
X113951000Y-28401000D02*
G01*
X112549000Y-28401000D01*
X112549000Y-27599000D01*
X113951000Y-27599000D01*
X113951000Y-28401000D01*
G37*
G36*
X70701000Y-28401000D02*
G01*
X69299000Y-28401000D01*
X69299000Y-27599000D01*
X70701000Y-27599000D01*
X70701000Y-28401000D01*
G37*
M02*
