G04 #@! TF.GenerationSoftware,KiCad,Pcbnew,5.1.5+dfsg1-2build2*
G04 #@! TF.CreationDate,2021-10-26T23:54:15+10:30*
G04 #@! TF.ProjectId,xover-psu,786f7665-722d-4707-9375-2e6b69636164,rev?*
G04 #@! TF.SameCoordinates,Original*
G04 #@! TF.FileFunction,Legend,Bot*
G04 #@! TF.FilePolarity,Positive*
%FSLAX46Y46*%
G04 Gerber Fmt 4.6, Leading zero omitted, Abs format (unit mm)*
G04 Created by KiCad (PCBNEW 5.1.5+dfsg1-2build2) date 2021-10-26 23:54:15*
%MOMM*%
%LPD*%
G04 APERTURE LIST*
%ADD10C,0.120000*%
%ADD11C,0.150000*%
%ADD12C,0.010000*%
%ADD13C,1.200000*%
%ADD14C,0.600000*%
%ADD15C,0.100000*%
%ADD16C,0.200000*%
%ADD17C,0.250000*%
G04 APERTURE END LIST*
D10*
X124600000Y-85400000D02*
X124600000Y-70400000D01*
X114800000Y-85400000D02*
X124600000Y-85400000D01*
X114800000Y-70400000D02*
X114800000Y-85400000D01*
X124600000Y-70400000D02*
X114800000Y-70400000D01*
X101000000Y-124600000D02*
X101000000Y-114800000D01*
X116000000Y-124600000D02*
X101000000Y-124600000D01*
X116000000Y-114800000D02*
X116000000Y-124600000D01*
X101000000Y-114800000D02*
X116000000Y-114800000D01*
X35200000Y-49600000D02*
X35200000Y-34600000D01*
X25400000Y-49600000D02*
X35200000Y-49600000D01*
X25400000Y-34600000D02*
X25400000Y-49600000D01*
X35200000Y-34600000D02*
X25400000Y-34600000D01*
X36000000Y-35200000D02*
X51000000Y-35200000D01*
X36000000Y-25400000D02*
X36000000Y-35200000D01*
X51000000Y-25400000D02*
X36000000Y-25400000D01*
X51000000Y-35200000D02*
X51000000Y-25400000D01*
X58400000Y-35200000D02*
X68400000Y-35200000D01*
X58400000Y-25400000D02*
X58400000Y-35200000D01*
X68400000Y-25400000D02*
X58400000Y-25400000D01*
X68400000Y-35200000D02*
X68400000Y-25400000D01*
X91400000Y-35200000D02*
X101400000Y-35200000D01*
X91400000Y-25400000D02*
X91400000Y-35200000D01*
X101400000Y-25400000D02*
X91400000Y-25400000D01*
X101400000Y-35200000D02*
X101400000Y-25400000D01*
X101600000Y-35200000D02*
X111600000Y-35200000D01*
X101600000Y-25400000D02*
X101600000Y-35200000D01*
X111600000Y-25400000D02*
X101600000Y-25400000D01*
X111600000Y-35200000D02*
X111600000Y-25400000D01*
X114800000Y-34800000D02*
X114800000Y-44800000D01*
X124600000Y-34800000D02*
X114800000Y-34800000D01*
X124600000Y-44800000D02*
X124600000Y-34800000D01*
X114800000Y-44800000D02*
X124600000Y-44800000D01*
X124600000Y-45000000D02*
X114800000Y-45000000D01*
X124600000Y-55000000D02*
X124600000Y-45000000D01*
X114800000Y-55000000D02*
X124600000Y-55000000D01*
X114800000Y-45000000D02*
X114800000Y-55000000D01*
D11*
X124157142Y-47709523D02*
X124204761Y-47661904D01*
X124252380Y-47519047D01*
X124252380Y-47423809D01*
X124204761Y-47280952D01*
X124109523Y-47185714D01*
X124014285Y-47138095D01*
X123823809Y-47090476D01*
X123680952Y-47090476D01*
X123490476Y-47138095D01*
X123395238Y-47185714D01*
X123300000Y-47280952D01*
X123252380Y-47423809D01*
X123252380Y-47519047D01*
X123300000Y-47661904D01*
X123347619Y-47709523D01*
X123728571Y-52185714D02*
X123728571Y-52519047D01*
X124252380Y-52661904D02*
X124252380Y-52185714D01*
X123252380Y-52185714D01*
X123252380Y-52661904D01*
X116366666Y-46523809D02*
X116366666Y-47000000D01*
X116652380Y-46428571D02*
X115652380Y-46761904D01*
X116652380Y-47095238D01*
X116557142Y-48000000D02*
X116604761Y-47952380D01*
X116652380Y-47809523D01*
X116652380Y-47714285D01*
X116604761Y-47571428D01*
X116509523Y-47476190D01*
X116414285Y-47428571D01*
X116223809Y-47380952D01*
X116080952Y-47380952D01*
X115890476Y-47428571D01*
X115795238Y-47476190D01*
X115700000Y-47571428D01*
X115652380Y-47714285D01*
X115652380Y-47809523D01*
X115700000Y-47952380D01*
X115747619Y-48000000D01*
X116652380Y-49190476D02*
X115652380Y-49190476D01*
X115652380Y-49571428D01*
X115700000Y-49666666D01*
X115747619Y-49714285D01*
X115842857Y-49761904D01*
X115985714Y-49761904D01*
X116080952Y-49714285D01*
X116128571Y-49666666D01*
X116176190Y-49571428D01*
X116176190Y-49190476D01*
X115652380Y-50190476D02*
X116461904Y-50190476D01*
X116557142Y-50238095D01*
X116604761Y-50285714D01*
X116652380Y-50380952D01*
X116652380Y-50571428D01*
X116604761Y-50666666D01*
X116557142Y-50714285D01*
X116461904Y-50761904D01*
X115652380Y-50761904D01*
X116652380Y-51714285D02*
X116652380Y-51238095D01*
X115652380Y-51238095D01*
X116604761Y-52000000D02*
X116652380Y-52142857D01*
X116652380Y-52380952D01*
X116604761Y-52476190D01*
X116557142Y-52523809D01*
X116461904Y-52571428D01*
X116366666Y-52571428D01*
X116271428Y-52523809D01*
X116223809Y-52476190D01*
X116176190Y-52380952D01*
X116128571Y-52190476D01*
X116080952Y-52095238D01*
X116033333Y-52047619D01*
X115938095Y-52000000D01*
X115842857Y-52000000D01*
X115747619Y-52047619D01*
X115700000Y-52095238D01*
X115652380Y-52190476D01*
X115652380Y-52428571D01*
X115700000Y-52571428D01*
X116128571Y-53000000D02*
X116128571Y-53333333D01*
X116652380Y-53476190D02*
X116652380Y-53000000D01*
X115652380Y-53000000D01*
X115652380Y-53476190D01*
X124052380Y-40414285D02*
X123052380Y-40414285D01*
X123052380Y-40652380D01*
X123100000Y-40795238D01*
X123195238Y-40890476D01*
X123290476Y-40938095D01*
X123480952Y-40985714D01*
X123623809Y-40985714D01*
X123814285Y-40938095D01*
X123909523Y-40890476D01*
X124004761Y-40795238D01*
X124052380Y-40652380D01*
X124052380Y-40414285D01*
X123100000Y-41938095D02*
X123052380Y-41842857D01*
X123052380Y-41700000D01*
X123100000Y-41557142D01*
X123195238Y-41461904D01*
X123290476Y-41414285D01*
X123480952Y-41366666D01*
X123623809Y-41366666D01*
X123814285Y-41414285D01*
X123909523Y-41461904D01*
X124004761Y-41557142D01*
X124052380Y-41700000D01*
X124052380Y-41795238D01*
X124004761Y-41938095D01*
X123957142Y-41985714D01*
X123623809Y-41985714D01*
X123623809Y-41795238D01*
X124052380Y-42414285D02*
X123052380Y-42414285D01*
X124052380Y-42985714D01*
X123052380Y-42985714D01*
X124052380Y-43461904D02*
X123052380Y-43461904D01*
X123052380Y-43700000D01*
X123100000Y-43842857D01*
X123195238Y-43938095D01*
X123290476Y-43985714D01*
X123480952Y-44033333D01*
X123623809Y-44033333D01*
X123814285Y-43985714D01*
X123909523Y-43938095D01*
X124004761Y-43842857D01*
X124052380Y-43700000D01*
X124052380Y-43461904D01*
X123671428Y-36819047D02*
X123671428Y-37580952D01*
X124052380Y-37200000D02*
X123290476Y-37200000D01*
X115652380Y-36861904D02*
X116461904Y-36861904D01*
X116557142Y-36909523D01*
X116604761Y-36957142D01*
X116652380Y-37052380D01*
X116652380Y-37242857D01*
X116604761Y-37338095D01*
X116557142Y-37385714D01*
X116461904Y-37433333D01*
X115652380Y-37433333D01*
X116652380Y-37909523D02*
X115652380Y-37909523D01*
X116652380Y-38480952D01*
X115652380Y-38480952D01*
X116652380Y-38957142D02*
X115652380Y-38957142D01*
X116366666Y-39290476D01*
X115652380Y-39623809D01*
X116652380Y-39623809D01*
X115652380Y-40100000D02*
X116461904Y-40100000D01*
X116557142Y-40147619D01*
X116604761Y-40195238D01*
X116652380Y-40290476D01*
X116652380Y-40480952D01*
X116604761Y-40576190D01*
X116557142Y-40623809D01*
X116461904Y-40671428D01*
X115652380Y-40671428D01*
X115652380Y-41004761D02*
X115652380Y-41576190D01*
X116652380Y-41290476D02*
X115652380Y-41290476D01*
X116128571Y-41909523D02*
X116128571Y-42242857D01*
X116652380Y-42385714D02*
X116652380Y-41909523D01*
X115652380Y-41909523D01*
X115652380Y-42385714D01*
X119876952Y-62314380D02*
X119829333Y-62219142D01*
X119781714Y-62171523D01*
X119686476Y-62123904D01*
X119638857Y-62123904D01*
X119543619Y-62171523D01*
X119496000Y-62219142D01*
X119448380Y-62314380D01*
X119448380Y-62504857D01*
X119496000Y-62600095D01*
X119543619Y-62647714D01*
X119638857Y-62695333D01*
X119686476Y-62695333D01*
X119781714Y-62647714D01*
X119829333Y-62600095D01*
X119876952Y-62504857D01*
X119876952Y-62314380D01*
X119924571Y-62219142D01*
X119972190Y-62171523D01*
X120067428Y-62123904D01*
X120257904Y-62123904D01*
X120353142Y-62171523D01*
X120400761Y-62219142D01*
X120448380Y-62314380D01*
X120448380Y-62504857D01*
X120400761Y-62600095D01*
X120353142Y-62647714D01*
X120257904Y-62695333D01*
X120067428Y-62695333D01*
X119972190Y-62647714D01*
X119924571Y-62600095D01*
X119876952Y-62504857D01*
X120448380Y-63647714D02*
X120448380Y-63076285D01*
X120448380Y-63362000D02*
X119448380Y-63362000D01*
X119591238Y-63266761D01*
X119686476Y-63171523D01*
X119734095Y-63076285D01*
X119448380Y-63981047D02*
X119448380Y-64647714D01*
X120448380Y-64219142D01*
X120353142Y-65600095D02*
X120400761Y-65552476D01*
X120448380Y-65409619D01*
X120448380Y-65314380D01*
X120400761Y-65171523D01*
X120305523Y-65076285D01*
X120210285Y-65028666D01*
X120019809Y-64981047D01*
X119876952Y-64981047D01*
X119686476Y-65028666D01*
X119591238Y-65076285D01*
X119496000Y-65171523D01*
X119448380Y-65314380D01*
X119448380Y-65409619D01*
X119496000Y-65552476D01*
X119543619Y-65600095D01*
X78083333Y-68402380D02*
X78083333Y-67402380D01*
X77702380Y-67402380D01*
X77607142Y-67450000D01*
X77559523Y-67497619D01*
X77511904Y-67592857D01*
X77511904Y-67735714D01*
X77559523Y-67830952D01*
X77607142Y-67878571D01*
X77702380Y-67926190D01*
X78083333Y-67926190D01*
X77083333Y-68402380D02*
X77083333Y-67735714D01*
X77083333Y-67926190D02*
X77035714Y-67830952D01*
X76988095Y-67783333D01*
X76892857Y-67735714D01*
X76797619Y-67735714D01*
X76083333Y-68354761D02*
X76178571Y-68402380D01*
X76369047Y-68402380D01*
X76464285Y-68354761D01*
X76511904Y-68259523D01*
X76511904Y-67878571D01*
X76464285Y-67783333D01*
X76369047Y-67735714D01*
X76178571Y-67735714D01*
X76083333Y-67783333D01*
X76035714Y-67878571D01*
X76035714Y-67973809D01*
X76511904Y-68069047D01*
X75178571Y-68402380D02*
X75178571Y-67878571D01*
X75226190Y-67783333D01*
X75321428Y-67735714D01*
X75511904Y-67735714D01*
X75607142Y-67783333D01*
X75178571Y-68354761D02*
X75273809Y-68402380D01*
X75511904Y-68402380D01*
X75607142Y-68354761D01*
X75654761Y-68259523D01*
X75654761Y-68164285D01*
X75607142Y-68069047D01*
X75511904Y-68021428D01*
X75273809Y-68021428D01*
X75178571Y-67973809D01*
X74702380Y-68402380D02*
X74702380Y-67735714D01*
X74702380Y-67830952D02*
X74654761Y-67783333D01*
X74559523Y-67735714D01*
X74416666Y-67735714D01*
X74321428Y-67783333D01*
X74273809Y-67878571D01*
X74273809Y-68402380D01*
X74273809Y-67878571D02*
X74226190Y-67783333D01*
X74130952Y-67735714D01*
X73988095Y-67735714D01*
X73892857Y-67783333D01*
X73845238Y-67878571D01*
X73845238Y-68402380D01*
X73369047Y-67735714D02*
X73369047Y-68735714D01*
X73369047Y-67783333D02*
X73273809Y-67735714D01*
X73083333Y-67735714D01*
X72988095Y-67783333D01*
X72940476Y-67830952D01*
X72892857Y-67926190D01*
X72892857Y-68211904D01*
X72940476Y-68307142D01*
X72988095Y-68354761D01*
X73083333Y-68402380D01*
X73273809Y-68402380D01*
X73369047Y-68354761D01*
X72321428Y-68402380D02*
X72416666Y-68354761D01*
X72464285Y-68259523D01*
X72464285Y-67402380D01*
X71940476Y-68402380D02*
X71940476Y-67735714D01*
X71940476Y-67402380D02*
X71988095Y-67450000D01*
X71940476Y-67497619D01*
X71892857Y-67450000D01*
X71940476Y-67402380D01*
X71940476Y-67497619D01*
X71607142Y-67735714D02*
X71226190Y-67735714D01*
X71464285Y-68402380D02*
X71464285Y-67545238D01*
X71416666Y-67450000D01*
X71321428Y-67402380D01*
X71226190Y-67402380D01*
X70892857Y-68402380D02*
X70892857Y-67735714D01*
X70892857Y-67402380D02*
X70940476Y-67450000D01*
X70892857Y-67497619D01*
X70845238Y-67450000D01*
X70892857Y-67402380D01*
X70892857Y-67497619D01*
X70035714Y-68354761D02*
X70130952Y-68402380D01*
X70321428Y-68402380D01*
X70416666Y-68354761D01*
X70464285Y-68259523D01*
X70464285Y-67878571D01*
X70416666Y-67783333D01*
X70321428Y-67735714D01*
X70130952Y-67735714D01*
X70035714Y-67783333D01*
X69988095Y-67878571D01*
X69988095Y-67973809D01*
X70464285Y-68069047D01*
X69559523Y-68402380D02*
X69559523Y-67735714D01*
X69559523Y-67926190D02*
X69511904Y-67830952D01*
X69464285Y-67783333D01*
X69369047Y-67735714D01*
X69273809Y-67735714D01*
X78583333Y-70052380D02*
X78583333Y-69052380D01*
X78202380Y-69052380D01*
X78107142Y-69100000D01*
X78059523Y-69147619D01*
X78011904Y-69242857D01*
X78011904Y-69385714D01*
X78059523Y-69480952D01*
X78107142Y-69528571D01*
X78202380Y-69576190D01*
X78583333Y-69576190D01*
X77440476Y-70052380D02*
X77535714Y-70004761D01*
X77583333Y-69957142D01*
X77630952Y-69861904D01*
X77630952Y-69576190D01*
X77583333Y-69480952D01*
X77535714Y-69433333D01*
X77440476Y-69385714D01*
X77297619Y-69385714D01*
X77202380Y-69433333D01*
X77154761Y-69480952D01*
X77107142Y-69576190D01*
X77107142Y-69861904D01*
X77154761Y-69957142D01*
X77202380Y-70004761D01*
X77297619Y-70052380D01*
X77440476Y-70052380D01*
X76773809Y-69385714D02*
X76583333Y-70052380D01*
X76392857Y-69576190D01*
X76202380Y-70052380D01*
X76011904Y-69385714D01*
X75250000Y-70004761D02*
X75345238Y-70052380D01*
X75535714Y-70052380D01*
X75630952Y-70004761D01*
X75678571Y-69909523D01*
X75678571Y-69528571D01*
X75630952Y-69433333D01*
X75535714Y-69385714D01*
X75345238Y-69385714D01*
X75250000Y-69433333D01*
X75202380Y-69528571D01*
X75202380Y-69623809D01*
X75678571Y-69719047D01*
X74773809Y-70052380D02*
X74773809Y-69385714D01*
X74773809Y-69576190D02*
X74726190Y-69480952D01*
X74678571Y-69433333D01*
X74583333Y-69385714D01*
X74488095Y-69385714D01*
X73440476Y-70004761D02*
X73297619Y-70052380D01*
X73059523Y-70052380D01*
X72964285Y-70004761D01*
X72916666Y-69957142D01*
X72869047Y-69861904D01*
X72869047Y-69766666D01*
X72916666Y-69671428D01*
X72964285Y-69623809D01*
X73059523Y-69576190D01*
X73250000Y-69528571D01*
X73345238Y-69480952D01*
X73392857Y-69433333D01*
X73440476Y-69338095D01*
X73440476Y-69242857D01*
X73392857Y-69147619D01*
X73345238Y-69100000D01*
X73250000Y-69052380D01*
X73011904Y-69052380D01*
X72869047Y-69100000D01*
X72011904Y-69385714D02*
X72011904Y-70052380D01*
X72440476Y-69385714D02*
X72440476Y-69909523D01*
X72392857Y-70004761D01*
X72297619Y-70052380D01*
X72154761Y-70052380D01*
X72059523Y-70004761D01*
X72011904Y-69957142D01*
X71535714Y-69385714D02*
X71535714Y-70385714D01*
X71535714Y-69433333D02*
X71440476Y-69385714D01*
X71250000Y-69385714D01*
X71154761Y-69433333D01*
X71107142Y-69480952D01*
X71059523Y-69576190D01*
X71059523Y-69861904D01*
X71107142Y-69957142D01*
X71154761Y-70004761D01*
X71250000Y-70052380D01*
X71440476Y-70052380D01*
X71535714Y-70004761D01*
X70630952Y-69385714D02*
X70630952Y-70385714D01*
X70630952Y-69433333D02*
X70535714Y-69385714D01*
X70345238Y-69385714D01*
X70250000Y-69433333D01*
X70202380Y-69480952D01*
X70154761Y-69576190D01*
X70154761Y-69861904D01*
X70202380Y-69957142D01*
X70250000Y-70004761D01*
X70345238Y-70052380D01*
X70535714Y-70052380D01*
X70630952Y-70004761D01*
X69583333Y-70052380D02*
X69678571Y-70004761D01*
X69726190Y-69909523D01*
X69726190Y-69052380D01*
X69297619Y-69385714D02*
X69059523Y-70052380D01*
X68821428Y-69385714D02*
X69059523Y-70052380D01*
X69154761Y-70290476D01*
X69202380Y-70338095D01*
X69297619Y-70385714D01*
X78154761Y-71702380D02*
X78488095Y-71226190D01*
X78726190Y-71702380D02*
X78726190Y-70702380D01*
X78345238Y-70702380D01*
X78250000Y-70750000D01*
X78202380Y-70797619D01*
X78154761Y-70892857D01*
X78154761Y-71035714D01*
X78202380Y-71130952D01*
X78250000Y-71178571D01*
X78345238Y-71226190D01*
X78726190Y-71226190D01*
X77345238Y-71654761D02*
X77440476Y-71702380D01*
X77630952Y-71702380D01*
X77726190Y-71654761D01*
X77773809Y-71559523D01*
X77773809Y-71178571D01*
X77726190Y-71083333D01*
X77630952Y-71035714D01*
X77440476Y-71035714D01*
X77345238Y-71083333D01*
X77297619Y-71178571D01*
X77297619Y-71273809D01*
X77773809Y-71369047D01*
X76964285Y-71035714D02*
X76726190Y-71702380D01*
X76488095Y-71035714D01*
X76107142Y-71607142D02*
X76059523Y-71654761D01*
X76107142Y-71702380D01*
X76154761Y-71654761D01*
X76107142Y-71607142D01*
X76107142Y-71702380D01*
X75678571Y-71416666D02*
X75202380Y-71416666D01*
X75773809Y-71702380D02*
X75440476Y-70702380D01*
X75107142Y-71702380D01*
X74059523Y-70797619D02*
X74011904Y-70750000D01*
X73916666Y-70702380D01*
X73678571Y-70702380D01*
X73583333Y-70750000D01*
X73535714Y-70797619D01*
X73488095Y-70892857D01*
X73488095Y-70988095D01*
X73535714Y-71130952D01*
X74107142Y-71702380D01*
X73488095Y-71702380D01*
X72869047Y-70702380D02*
X72773809Y-70702380D01*
X72678571Y-70750000D01*
X72630952Y-70797619D01*
X72583333Y-70892857D01*
X72535714Y-71083333D01*
X72535714Y-71321428D01*
X72583333Y-71511904D01*
X72630952Y-71607142D01*
X72678571Y-71654761D01*
X72773809Y-71702380D01*
X72869047Y-71702380D01*
X72964285Y-71654761D01*
X73011904Y-71607142D01*
X73059523Y-71511904D01*
X73107142Y-71321428D01*
X73107142Y-71083333D01*
X73059523Y-70892857D01*
X73011904Y-70797619D01*
X72964285Y-70750000D01*
X72869047Y-70702380D01*
X72154761Y-70797619D02*
X72107142Y-70750000D01*
X72011904Y-70702380D01*
X71773809Y-70702380D01*
X71678571Y-70750000D01*
X71630952Y-70797619D01*
X71583333Y-70892857D01*
X71583333Y-70988095D01*
X71630952Y-71130952D01*
X72202380Y-71702380D01*
X71583333Y-71702380D01*
X70630952Y-71702380D02*
X71202380Y-71702380D01*
X70916666Y-71702380D02*
X70916666Y-70702380D01*
X71011904Y-70845238D01*
X71107142Y-70940476D01*
X71202380Y-70988095D01*
X69678571Y-71702380D02*
X70250000Y-71702380D01*
X69964285Y-71702380D02*
X69964285Y-70702380D01*
X70059523Y-70845238D01*
X70154761Y-70940476D01*
X70250000Y-70988095D01*
X69059523Y-70702380D02*
X68964285Y-70702380D01*
X68869047Y-70750000D01*
X68821428Y-70797619D01*
X68773809Y-70892857D01*
X68726190Y-71083333D01*
X68726190Y-71321428D01*
X68773809Y-71511904D01*
X68821428Y-71607142D01*
X68869047Y-71654761D01*
X68964285Y-71702380D01*
X69059523Y-71702380D01*
X69154761Y-71654761D01*
X69202380Y-71607142D01*
X69250000Y-71511904D01*
X69297619Y-71321428D01*
X69297619Y-71083333D01*
X69250000Y-70892857D01*
X69202380Y-70797619D01*
X69154761Y-70750000D01*
X69059523Y-70702380D01*
X83535714Y-72685714D02*
X83345238Y-73352380D01*
X83154761Y-72876190D01*
X82964285Y-73352380D01*
X82773809Y-72685714D01*
X82392857Y-73352380D02*
X82392857Y-72685714D01*
X82392857Y-72352380D02*
X82440476Y-72400000D01*
X82392857Y-72447619D01*
X82345238Y-72400000D01*
X82392857Y-72352380D01*
X82392857Y-72447619D01*
X81773809Y-73352380D02*
X81869047Y-73304761D01*
X81916666Y-73209523D01*
X81916666Y-72352380D01*
X81250000Y-73352380D02*
X81345238Y-73304761D01*
X81392857Y-73209523D01*
X81392857Y-72352380D01*
X80869047Y-73352380D02*
X80869047Y-72685714D01*
X80869047Y-72352380D02*
X80916666Y-72400000D01*
X80869047Y-72447619D01*
X80821428Y-72400000D01*
X80869047Y-72352380D01*
X80869047Y-72447619D01*
X79964285Y-73352380D02*
X79964285Y-72828571D01*
X80011904Y-72733333D01*
X80107142Y-72685714D01*
X80297619Y-72685714D01*
X80392857Y-72733333D01*
X79964285Y-73304761D02*
X80059523Y-73352380D01*
X80297619Y-73352380D01*
X80392857Y-73304761D01*
X80440476Y-73209523D01*
X80440476Y-73114285D01*
X80392857Y-73019047D01*
X80297619Y-72971428D01*
X80059523Y-72971428D01*
X79964285Y-72923809D01*
X79488095Y-73352380D02*
X79488095Y-72685714D01*
X79488095Y-72780952D02*
X79440476Y-72733333D01*
X79345238Y-72685714D01*
X79202380Y-72685714D01*
X79107142Y-72733333D01*
X79059523Y-72828571D01*
X79059523Y-73352380D01*
X79059523Y-72828571D02*
X79011904Y-72733333D01*
X78916666Y-72685714D01*
X78773809Y-72685714D01*
X78678571Y-72733333D01*
X78630952Y-72828571D01*
X78630952Y-73352380D01*
X77535714Y-72876190D02*
X77583333Y-72828571D01*
X77678571Y-72780952D01*
X77773809Y-72780952D01*
X77869047Y-72828571D01*
X77916666Y-72876190D01*
X77964285Y-72971428D01*
X77964285Y-73066666D01*
X77916666Y-73161904D01*
X77869047Y-73209523D01*
X77773809Y-73257142D01*
X77678571Y-73257142D01*
X77583333Y-73209523D01*
X77535714Y-73161904D01*
X77535714Y-72780952D02*
X77535714Y-73161904D01*
X77488095Y-73209523D01*
X77440476Y-73209523D01*
X77345238Y-73161904D01*
X77297619Y-73066666D01*
X77297619Y-72828571D01*
X77392857Y-72685714D01*
X77535714Y-72590476D01*
X77726190Y-72542857D01*
X77916666Y-72590476D01*
X78059523Y-72685714D01*
X78154761Y-72828571D01*
X78202380Y-73019047D01*
X78154761Y-73209523D01*
X78059523Y-73352380D01*
X77916666Y-73447619D01*
X77726190Y-73495238D01*
X77535714Y-73447619D01*
X77392857Y-73352380D01*
X76869047Y-73352380D02*
X76869047Y-72352380D01*
X76869047Y-72733333D02*
X76773809Y-72685714D01*
X76583333Y-72685714D01*
X76488095Y-72733333D01*
X76440476Y-72780952D01*
X76392857Y-72876190D01*
X76392857Y-73161904D01*
X76440476Y-73257142D01*
X76488095Y-73304761D01*
X76583333Y-73352380D01*
X76773809Y-73352380D01*
X76869047Y-73304761D01*
X75964285Y-73352380D02*
X75964285Y-72685714D01*
X75964285Y-72876190D02*
X75916666Y-72780952D01*
X75869047Y-72733333D01*
X75773809Y-72685714D01*
X75678571Y-72685714D01*
X75202380Y-73352380D02*
X75297619Y-73304761D01*
X75345238Y-73257142D01*
X75392857Y-73161904D01*
X75392857Y-72876190D01*
X75345238Y-72780952D01*
X75297619Y-72733333D01*
X75202380Y-72685714D01*
X75059523Y-72685714D01*
X74964285Y-72733333D01*
X74916666Y-72780952D01*
X74869047Y-72876190D01*
X74869047Y-73161904D01*
X74916666Y-73257142D01*
X74964285Y-73304761D01*
X75059523Y-73352380D01*
X75202380Y-73352380D01*
X74011904Y-73352380D02*
X74011904Y-72352380D01*
X74011904Y-73304761D02*
X74107142Y-73352380D01*
X74297619Y-73352380D01*
X74392857Y-73304761D01*
X74440476Y-73257142D01*
X74488095Y-73161904D01*
X74488095Y-72876190D01*
X74440476Y-72780952D01*
X74392857Y-72733333D01*
X74297619Y-72685714D01*
X74107142Y-72685714D01*
X74011904Y-72733333D01*
X73535714Y-73352380D02*
X73535714Y-72685714D01*
X73535714Y-72352380D02*
X73583333Y-72400000D01*
X73535714Y-72447619D01*
X73488095Y-72400000D01*
X73535714Y-72352380D01*
X73535714Y-72447619D01*
X72678571Y-73304761D02*
X72773809Y-73352380D01*
X72964285Y-73352380D01*
X73059523Y-73304761D01*
X73107142Y-73209523D01*
X73107142Y-72828571D01*
X73059523Y-72733333D01*
X72964285Y-72685714D01*
X72773809Y-72685714D01*
X72678571Y-72733333D01*
X72630952Y-72828571D01*
X72630952Y-72923809D01*
X73107142Y-73019047D01*
X72202380Y-72971428D02*
X71440476Y-72971428D01*
X71107142Y-72685714D02*
X70726190Y-72685714D01*
X70964285Y-72352380D02*
X70964285Y-73209523D01*
X70916666Y-73304761D01*
X70821428Y-73352380D01*
X70726190Y-73352380D01*
X70488095Y-72685714D02*
X70250000Y-73352380D01*
X70011904Y-72685714D02*
X70250000Y-73352380D01*
X70345238Y-73590476D01*
X70392857Y-73638095D01*
X70488095Y-73685714D01*
X69630952Y-73352380D02*
X69630952Y-72685714D01*
X69630952Y-72876190D02*
X69583333Y-72780952D01*
X69535714Y-72733333D01*
X69440476Y-72685714D01*
X69345238Y-72685714D01*
X69011904Y-73352380D02*
X69011904Y-72685714D01*
X69011904Y-72876190D02*
X68964285Y-72780952D01*
X68916666Y-72733333D01*
X68821428Y-72685714D01*
X68726190Y-72685714D01*
X68011904Y-73304761D02*
X68107142Y-73352380D01*
X68297619Y-73352380D01*
X68392857Y-73304761D01*
X68440476Y-73209523D01*
X68440476Y-72828571D01*
X68392857Y-72733333D01*
X68297619Y-72685714D01*
X68107142Y-72685714D01*
X68011904Y-72733333D01*
X67964285Y-72828571D01*
X67964285Y-72923809D01*
X68440476Y-73019047D01*
X67392857Y-73352380D02*
X67488095Y-73304761D01*
X67535714Y-73209523D01*
X67535714Y-72352380D01*
X66869047Y-73352380D02*
X66964285Y-73304761D01*
X67011904Y-73209523D01*
X67011904Y-72352380D01*
X66488095Y-73257142D02*
X66440476Y-73304761D01*
X66488095Y-73352380D01*
X66535714Y-73304761D01*
X66488095Y-73257142D01*
X66488095Y-73352380D01*
X65869047Y-73352380D02*
X65964285Y-73304761D01*
X66011904Y-73257142D01*
X66059523Y-73161904D01*
X66059523Y-72876190D01*
X66011904Y-72780952D01*
X65964285Y-72733333D01*
X65869047Y-72685714D01*
X65726190Y-72685714D01*
X65630952Y-72733333D01*
X65583333Y-72780952D01*
X65535714Y-72876190D01*
X65535714Y-73161904D01*
X65583333Y-73257142D01*
X65630952Y-73304761D01*
X65726190Y-73352380D01*
X65869047Y-73352380D01*
X65107142Y-73352380D02*
X65107142Y-72685714D01*
X65107142Y-72876190D02*
X65059523Y-72780952D01*
X65011904Y-72733333D01*
X64916666Y-72685714D01*
X64821428Y-72685714D01*
X64059523Y-72685714D02*
X64059523Y-73495238D01*
X64107142Y-73590476D01*
X64154761Y-73638095D01*
X64250000Y-73685714D01*
X64392857Y-73685714D01*
X64488095Y-73638095D01*
X64059523Y-73304761D02*
X64154761Y-73352380D01*
X64345238Y-73352380D01*
X64440476Y-73304761D01*
X64488095Y-73257142D01*
X64535714Y-73161904D01*
X64535714Y-72876190D01*
X64488095Y-72780952D01*
X64440476Y-72733333D01*
X64345238Y-72685714D01*
X64154761Y-72685714D01*
X64059523Y-72733333D01*
X81535714Y-74335714D02*
X81535714Y-75145238D01*
X81583333Y-75240476D01*
X81630952Y-75288095D01*
X81726190Y-75335714D01*
X81869047Y-75335714D01*
X81964285Y-75288095D01*
X81535714Y-74954761D02*
X81630952Y-75002380D01*
X81821428Y-75002380D01*
X81916666Y-74954761D01*
X81964285Y-74907142D01*
X82011904Y-74811904D01*
X82011904Y-74526190D01*
X81964285Y-74430952D01*
X81916666Y-74383333D01*
X81821428Y-74335714D01*
X81630952Y-74335714D01*
X81535714Y-74383333D01*
X81059523Y-75002380D02*
X81059523Y-74335714D01*
X81059523Y-74002380D02*
X81107142Y-74050000D01*
X81059523Y-74097619D01*
X81011904Y-74050000D01*
X81059523Y-74002380D01*
X81059523Y-74097619D01*
X80726190Y-74335714D02*
X80345238Y-74335714D01*
X80583333Y-74002380D02*
X80583333Y-74859523D01*
X80535714Y-74954761D01*
X80440476Y-75002380D01*
X80345238Y-75002380D01*
X80011904Y-75002380D02*
X80011904Y-74002380D01*
X79583333Y-75002380D02*
X79583333Y-74478571D01*
X79630952Y-74383333D01*
X79726190Y-74335714D01*
X79869047Y-74335714D01*
X79964285Y-74383333D01*
X80011904Y-74430952D01*
X78678571Y-74335714D02*
X78678571Y-75002380D01*
X79107142Y-74335714D02*
X79107142Y-74859523D01*
X79059523Y-74954761D01*
X78964285Y-75002380D01*
X78821428Y-75002380D01*
X78726190Y-74954761D01*
X78678571Y-74907142D01*
X78202380Y-75002380D02*
X78202380Y-74002380D01*
X78202380Y-74383333D02*
X78107142Y-74335714D01*
X77916666Y-74335714D01*
X77821428Y-74383333D01*
X77773809Y-74430952D01*
X77726190Y-74526190D01*
X77726190Y-74811904D01*
X77773809Y-74907142D01*
X77821428Y-74954761D01*
X77916666Y-75002380D01*
X78107142Y-75002380D01*
X78202380Y-74954761D01*
X77297619Y-74907142D02*
X77250000Y-74954761D01*
X77297619Y-75002380D01*
X77345238Y-74954761D01*
X77297619Y-74907142D01*
X77297619Y-75002380D01*
X76392857Y-74954761D02*
X76488095Y-75002380D01*
X76678571Y-75002380D01*
X76773809Y-74954761D01*
X76821428Y-74907142D01*
X76869047Y-74811904D01*
X76869047Y-74526190D01*
X76821428Y-74430952D01*
X76773809Y-74383333D01*
X76678571Y-74335714D01*
X76488095Y-74335714D01*
X76392857Y-74383333D01*
X75821428Y-75002380D02*
X75916666Y-74954761D01*
X75964285Y-74907142D01*
X76011904Y-74811904D01*
X76011904Y-74526190D01*
X75964285Y-74430952D01*
X75916666Y-74383333D01*
X75821428Y-74335714D01*
X75678571Y-74335714D01*
X75583333Y-74383333D01*
X75535714Y-74430952D01*
X75488095Y-74526190D01*
X75488095Y-74811904D01*
X75535714Y-74907142D01*
X75583333Y-74954761D01*
X75678571Y-75002380D01*
X75821428Y-75002380D01*
X75059523Y-75002380D02*
X75059523Y-74335714D01*
X75059523Y-74430952D02*
X75011904Y-74383333D01*
X74916666Y-74335714D01*
X74773809Y-74335714D01*
X74678571Y-74383333D01*
X74630952Y-74478571D01*
X74630952Y-75002380D01*
X74630952Y-74478571D02*
X74583333Y-74383333D01*
X74488095Y-74335714D01*
X74345238Y-74335714D01*
X74250000Y-74383333D01*
X74202380Y-74478571D01*
X74202380Y-75002380D01*
X73011904Y-73954761D02*
X73869047Y-75240476D01*
X72678571Y-74335714D02*
X72678571Y-75335714D01*
X72678571Y-74383333D02*
X72583333Y-74335714D01*
X72392857Y-74335714D01*
X72297619Y-74383333D01*
X72250000Y-74430952D01*
X72202380Y-74526190D01*
X72202380Y-74811904D01*
X72250000Y-74907142D01*
X72297619Y-74954761D01*
X72392857Y-75002380D01*
X72583333Y-75002380D01*
X72678571Y-74954761D01*
X71773809Y-75002380D02*
X71773809Y-74002380D01*
X71345238Y-75002380D02*
X71345238Y-74478571D01*
X71392857Y-74383333D01*
X71488095Y-74335714D01*
X71630952Y-74335714D01*
X71726190Y-74383333D01*
X71773809Y-74430952D01*
X70488095Y-74954761D02*
X70583333Y-75002380D01*
X70773809Y-75002380D01*
X70869047Y-74954761D01*
X70916666Y-74859523D01*
X70916666Y-74478571D01*
X70869047Y-74383333D01*
X70773809Y-74335714D01*
X70583333Y-74335714D01*
X70488095Y-74383333D01*
X70440476Y-74478571D01*
X70440476Y-74573809D01*
X70916666Y-74669047D01*
X70011904Y-74335714D02*
X70011904Y-75002380D01*
X70011904Y-74430952D02*
X69964285Y-74383333D01*
X69869047Y-74335714D01*
X69726190Y-74335714D01*
X69630952Y-74383333D01*
X69583333Y-74478571D01*
X69583333Y-75002380D01*
X69107142Y-75002380D02*
X69107142Y-74335714D01*
X69107142Y-74002380D02*
X69154761Y-74050000D01*
X69107142Y-74097619D01*
X69059523Y-74050000D01*
X69107142Y-74002380D01*
X69107142Y-74097619D01*
X68202380Y-75002380D02*
X68202380Y-74002380D01*
X68202380Y-74954761D02*
X68297619Y-75002380D01*
X68488095Y-75002380D01*
X68583333Y-74954761D01*
X68630952Y-74907142D01*
X68678571Y-74811904D01*
X68678571Y-74526190D01*
X68630952Y-74430952D01*
X68583333Y-74383333D01*
X68488095Y-74335714D01*
X68297619Y-74335714D01*
X68202380Y-74383333D01*
X67583333Y-75002380D02*
X67678571Y-74954761D01*
X67726190Y-74907142D01*
X67773809Y-74811904D01*
X67773809Y-74526190D01*
X67726190Y-74430952D01*
X67678571Y-74383333D01*
X67583333Y-74335714D01*
X67440476Y-74335714D01*
X67345238Y-74383333D01*
X67297619Y-74430952D01*
X67250000Y-74526190D01*
X67250000Y-74811904D01*
X67297619Y-74907142D01*
X67345238Y-74954761D01*
X67440476Y-75002380D01*
X67583333Y-75002380D01*
X66821428Y-74335714D02*
X66821428Y-75002380D01*
X66821428Y-74430952D02*
X66773809Y-74383333D01*
X66678571Y-74335714D01*
X66535714Y-74335714D01*
X66440476Y-74383333D01*
X66392857Y-74478571D01*
X66392857Y-75002380D01*
X65535714Y-74954761D02*
X65630952Y-75002380D01*
X65821428Y-75002380D01*
X65916666Y-74954761D01*
X65964285Y-74859523D01*
X65964285Y-74478571D01*
X65916666Y-74383333D01*
X65821428Y-74335714D01*
X65630952Y-74335714D01*
X65535714Y-74383333D01*
X65488095Y-74478571D01*
X65488095Y-74573809D01*
X65964285Y-74669047D01*
X26821428Y-49047619D02*
X26821428Y-48714285D01*
X26297619Y-48571428D02*
X26297619Y-49047619D01*
X27297619Y-49047619D01*
X27297619Y-48571428D01*
X26583333Y-48190476D02*
X26583333Y-47714285D01*
X26297619Y-48285714D02*
X27297619Y-47952380D01*
X26297619Y-47619047D01*
X26297619Y-46714285D02*
X26773809Y-47047619D01*
X26297619Y-47285714D02*
X27297619Y-47285714D01*
X27297619Y-46904761D01*
X27250000Y-46809523D01*
X27202380Y-46761904D01*
X27107142Y-46714285D01*
X26964285Y-46714285D01*
X26869047Y-46761904D01*
X26821428Y-46809523D01*
X26773809Y-46904761D01*
X26773809Y-47285714D01*
X27297619Y-46428571D02*
X27297619Y-45857142D01*
X26297619Y-46142857D02*
X27297619Y-46142857D01*
X26297619Y-45523809D02*
X27297619Y-45523809D01*
X26821428Y-45523809D02*
X26821428Y-44952380D01*
X26297619Y-44952380D02*
X27297619Y-44952380D01*
X26297619Y-43642857D02*
X27297619Y-43642857D01*
X26297619Y-43071428D01*
X27297619Y-43071428D01*
X26821428Y-42595238D02*
X26821428Y-42261904D01*
X26297619Y-42119047D02*
X26297619Y-42595238D01*
X27297619Y-42595238D01*
X27297619Y-42119047D01*
X27297619Y-41690476D02*
X26488095Y-41690476D01*
X26392857Y-41642857D01*
X26345238Y-41595238D01*
X26297619Y-41500000D01*
X26297619Y-41309523D01*
X26345238Y-41214285D01*
X26392857Y-41166666D01*
X26488095Y-41119047D01*
X27297619Y-41119047D01*
X27297619Y-40785714D02*
X27297619Y-40214285D01*
X26297619Y-40500000D02*
X27297619Y-40500000D01*
X26583333Y-39238095D02*
X26583333Y-38761904D01*
X26297619Y-39333333D02*
X27297619Y-39000000D01*
X26297619Y-38666666D01*
X26392857Y-37761904D02*
X26345238Y-37809523D01*
X26297619Y-37952380D01*
X26297619Y-38047619D01*
X26345238Y-38190476D01*
X26440476Y-38285714D01*
X26535714Y-38333333D01*
X26726190Y-38380952D01*
X26869047Y-38380952D01*
X27059523Y-38333333D01*
X27154761Y-38285714D01*
X27250000Y-38190476D01*
X27297619Y-38047619D01*
X27297619Y-37952380D01*
X27250000Y-37809523D01*
X27202380Y-37761904D01*
X27297619Y-37476190D02*
X27297619Y-36904761D01*
X26297619Y-37190476D02*
X27297619Y-37190476D01*
X26297619Y-36571428D02*
X27297619Y-36571428D01*
X27297619Y-36238095D02*
X26297619Y-35904761D01*
X27297619Y-35571428D01*
X26821428Y-35238095D02*
X26821428Y-34904761D01*
X26297619Y-34761904D02*
X26297619Y-35238095D01*
X27297619Y-35238095D01*
X27297619Y-34761904D01*
X40547619Y-26678571D02*
X40214285Y-26678571D01*
X40071428Y-27202380D02*
X40547619Y-27202380D01*
X40547619Y-26202380D01*
X40071428Y-26202380D01*
X39690476Y-26916666D02*
X39214285Y-26916666D01*
X39785714Y-27202380D02*
X39452380Y-26202380D01*
X39119047Y-27202380D01*
X38214285Y-27202380D02*
X38547619Y-26726190D01*
X38785714Y-27202380D02*
X38785714Y-26202380D01*
X38404761Y-26202380D01*
X38309523Y-26250000D01*
X38261904Y-26297619D01*
X38214285Y-26392857D01*
X38214285Y-26535714D01*
X38261904Y-26630952D01*
X38309523Y-26678571D01*
X38404761Y-26726190D01*
X38785714Y-26726190D01*
X37928571Y-26202380D02*
X37357142Y-26202380D01*
X37642857Y-27202380D02*
X37642857Y-26202380D01*
X37023809Y-27202380D02*
X37023809Y-26202380D01*
X37023809Y-26678571D02*
X36452380Y-26678571D01*
X36452380Y-27202380D02*
X36452380Y-26202380D01*
X45142857Y-27202380D02*
X45142857Y-26202380D01*
X44571428Y-27202380D01*
X44571428Y-26202380D01*
X44095238Y-26678571D02*
X43761904Y-26678571D01*
X43619047Y-27202380D02*
X44095238Y-27202380D01*
X44095238Y-26202380D01*
X43619047Y-26202380D01*
X43190476Y-26202380D02*
X43190476Y-27011904D01*
X43142857Y-27107142D01*
X43095238Y-27154761D01*
X43000000Y-27202380D01*
X42809523Y-27202380D01*
X42714285Y-27154761D01*
X42666666Y-27107142D01*
X42619047Y-27011904D01*
X42619047Y-26202380D01*
X42285714Y-26202380D02*
X41714285Y-26202380D01*
X42000000Y-27202380D02*
X42000000Y-26202380D01*
X50738095Y-26916666D02*
X50261904Y-26916666D01*
X50833333Y-27202380D02*
X50500000Y-26202380D01*
X50166666Y-27202380D01*
X49261904Y-27107142D02*
X49309523Y-27154761D01*
X49452380Y-27202380D01*
X49547619Y-27202380D01*
X49690476Y-27154761D01*
X49785714Y-27059523D01*
X49833333Y-26964285D01*
X49880952Y-26773809D01*
X49880952Y-26630952D01*
X49833333Y-26440476D01*
X49785714Y-26345238D01*
X49690476Y-26250000D01*
X49547619Y-26202380D01*
X49452380Y-26202380D01*
X49309523Y-26250000D01*
X49261904Y-26297619D01*
X48976190Y-26202380D02*
X48404761Y-26202380D01*
X48690476Y-27202380D02*
X48690476Y-26202380D01*
X48071428Y-27202380D02*
X48071428Y-26202380D01*
X47738095Y-26202380D02*
X47404761Y-27202380D01*
X47071428Y-26202380D01*
X46738095Y-26678571D02*
X46404761Y-26678571D01*
X46261904Y-27202380D02*
X46738095Y-27202380D01*
X46738095Y-26202380D01*
X46261904Y-26202380D01*
X66595238Y-26202380D02*
X66404761Y-26202380D01*
X66309523Y-26250000D01*
X66214285Y-26345238D01*
X66166666Y-26535714D01*
X66166666Y-26869047D01*
X66214285Y-27059523D01*
X66309523Y-27154761D01*
X66404761Y-27202380D01*
X66595238Y-27202380D01*
X66690476Y-27154761D01*
X66785714Y-27059523D01*
X66833333Y-26869047D01*
X66833333Y-26535714D01*
X66785714Y-26345238D01*
X66690476Y-26250000D01*
X66595238Y-26202380D01*
X65738095Y-27202380D02*
X65738095Y-26202380D01*
X65500000Y-26202380D01*
X65357142Y-26250000D01*
X65261904Y-26345238D01*
X65214285Y-26440476D01*
X65166666Y-26630952D01*
X65166666Y-26773809D01*
X65214285Y-26964285D01*
X65261904Y-27059523D01*
X65357142Y-27154761D01*
X65500000Y-27202380D01*
X65738095Y-27202380D01*
X62333333Y-26202380D02*
X62000000Y-27202380D01*
X61666666Y-26202380D01*
X61333333Y-27202380D02*
X61333333Y-26202380D01*
X61095238Y-26202380D01*
X60952380Y-26250000D01*
X60857142Y-26345238D01*
X60809523Y-26440476D01*
X60761904Y-26630952D01*
X60761904Y-26773809D01*
X60809523Y-26964285D01*
X60857142Y-27059523D01*
X60952380Y-27154761D01*
X61095238Y-27202380D01*
X61333333Y-27202380D01*
X60333333Y-27202380D02*
X60333333Y-26202380D01*
X60095238Y-26202380D01*
X59952380Y-26250000D01*
X59857142Y-26345238D01*
X59809523Y-26440476D01*
X59761904Y-26630952D01*
X59761904Y-26773809D01*
X59809523Y-26964285D01*
X59857142Y-27059523D01*
X59952380Y-27154761D01*
X60095238Y-27202380D01*
X60333333Y-27202380D01*
X95261904Y-26952380D02*
X95261904Y-25952380D01*
X94880952Y-25952380D01*
X94785714Y-26000000D01*
X94738095Y-26047619D01*
X94690476Y-26142857D01*
X94690476Y-26285714D01*
X94738095Y-26380952D01*
X94785714Y-26428571D01*
X94880952Y-26476190D01*
X95261904Y-26476190D01*
X94071428Y-25952380D02*
X93880952Y-25952380D01*
X93785714Y-26000000D01*
X93690476Y-26095238D01*
X93642857Y-26285714D01*
X93642857Y-26619047D01*
X93690476Y-26809523D01*
X93785714Y-26904761D01*
X93880952Y-26952380D01*
X94071428Y-26952380D01*
X94166666Y-26904761D01*
X94261904Y-26809523D01*
X94309523Y-26619047D01*
X94309523Y-26285714D01*
X94261904Y-26095238D01*
X94166666Y-26000000D01*
X94071428Y-25952380D01*
X93261904Y-26904761D02*
X93119047Y-26952380D01*
X92880952Y-26952380D01*
X92785714Y-26904761D01*
X92738095Y-26857142D01*
X92690476Y-26761904D01*
X92690476Y-26666666D01*
X92738095Y-26571428D01*
X92785714Y-26523809D01*
X92880952Y-26476190D01*
X93071428Y-26428571D01*
X93166666Y-26380952D01*
X93214285Y-26333333D01*
X93261904Y-26238095D01*
X93261904Y-26142857D01*
X93214285Y-26047619D01*
X93166666Y-26000000D01*
X93071428Y-25952380D01*
X92833333Y-25952380D01*
X92690476Y-26000000D01*
X100238095Y-26952380D02*
X100238095Y-25952380D01*
X99666666Y-26952380D01*
X99666666Y-25952380D01*
X99190476Y-26428571D02*
X98857142Y-26428571D01*
X98714285Y-26952380D02*
X99190476Y-26952380D01*
X99190476Y-25952380D01*
X98714285Y-25952380D01*
X97761904Y-26000000D02*
X97857142Y-25952380D01*
X98000000Y-25952380D01*
X98142857Y-26000000D01*
X98238095Y-26095238D01*
X98285714Y-26190476D01*
X98333333Y-26380952D01*
X98333333Y-26523809D01*
X98285714Y-26714285D01*
X98238095Y-26809523D01*
X98142857Y-26904761D01*
X98000000Y-26952380D01*
X97904761Y-26952380D01*
X97761904Y-26904761D01*
X97714285Y-26857142D01*
X97714285Y-26523809D01*
X97904761Y-26523809D01*
X105583333Y-25952380D02*
X105250000Y-26952380D01*
X104916666Y-25952380D01*
X104583333Y-26952380D02*
X104583333Y-25952380D01*
X104345238Y-25952380D01*
X104202380Y-26000000D01*
X104107142Y-26095238D01*
X104059523Y-26190476D01*
X104011904Y-26380952D01*
X104011904Y-26523809D01*
X104059523Y-26714285D01*
X104107142Y-26809523D01*
X104202380Y-26904761D01*
X104345238Y-26952380D01*
X104583333Y-26952380D01*
X103583333Y-26952380D02*
X103583333Y-25952380D01*
X103345238Y-25952380D01*
X103202380Y-26000000D01*
X103107142Y-26095238D01*
X103059523Y-26190476D01*
X103011904Y-26380952D01*
X103011904Y-26523809D01*
X103059523Y-26714285D01*
X103107142Y-26809523D01*
X103202380Y-26904761D01*
X103345238Y-26952380D01*
X103583333Y-26952380D01*
X111035714Y-26952380D02*
X111035714Y-25952380D01*
X110797619Y-25952380D01*
X110654761Y-26000000D01*
X110559523Y-26095238D01*
X110511904Y-26190476D01*
X110464285Y-26380952D01*
X110464285Y-26523809D01*
X110511904Y-26714285D01*
X110559523Y-26809523D01*
X110654761Y-26904761D01*
X110797619Y-26952380D01*
X111035714Y-26952380D01*
X109511904Y-26000000D02*
X109607142Y-25952380D01*
X109750000Y-25952380D01*
X109892857Y-26000000D01*
X109988095Y-26095238D01*
X110035714Y-26190476D01*
X110083333Y-26380952D01*
X110083333Y-26523809D01*
X110035714Y-26714285D01*
X109988095Y-26809523D01*
X109892857Y-26904761D01*
X109750000Y-26952380D01*
X109654761Y-26952380D01*
X109511904Y-26904761D01*
X109464285Y-26857142D01*
X109464285Y-26523809D01*
X109654761Y-26523809D01*
X109035714Y-26952380D02*
X109035714Y-25952380D01*
X108464285Y-26952380D01*
X108464285Y-25952380D01*
X107988095Y-26952380D02*
X107988095Y-25952380D01*
X107750000Y-25952380D01*
X107607142Y-26000000D01*
X107511904Y-26095238D01*
X107464285Y-26190476D01*
X107416666Y-26380952D01*
X107416666Y-26523809D01*
X107464285Y-26714285D01*
X107511904Y-26809523D01*
X107607142Y-26904761D01*
X107750000Y-26952380D01*
X107988095Y-26952380D01*
X110261904Y-123666666D02*
X109785714Y-123666666D01*
X110357142Y-123952380D02*
X110023809Y-122952380D01*
X109690476Y-123952380D01*
X108833333Y-123000000D02*
X108928571Y-122952380D01*
X109071428Y-122952380D01*
X109214285Y-123000000D01*
X109309523Y-123095238D01*
X109357142Y-123190476D01*
X109404761Y-123380952D01*
X109404761Y-123523809D01*
X109357142Y-123714285D01*
X109309523Y-123809523D01*
X109214285Y-123904761D01*
X109071428Y-123952380D01*
X108976190Y-123952380D01*
X108833333Y-123904761D01*
X108785714Y-123857142D01*
X108785714Y-123523809D01*
X108976190Y-123523809D01*
X108357142Y-123952380D02*
X108357142Y-122952380D01*
X107785714Y-123952380D01*
X107785714Y-122952380D01*
X107309523Y-123952380D02*
X107309523Y-122952380D01*
X107071428Y-122952380D01*
X106928571Y-123000000D01*
X106833333Y-123095238D01*
X106785714Y-123190476D01*
X106738095Y-123380952D01*
X106738095Y-123523809D01*
X106785714Y-123714285D01*
X106833333Y-123809523D01*
X106928571Y-123904761D01*
X107071428Y-123952380D01*
X107309523Y-123952380D01*
X104761904Y-123952380D02*
X104761904Y-122952380D01*
X104380952Y-122952380D01*
X104285714Y-123000000D01*
X104238095Y-123047619D01*
X104190476Y-123142857D01*
X104190476Y-123285714D01*
X104238095Y-123380952D01*
X104285714Y-123428571D01*
X104380952Y-123476190D01*
X104761904Y-123476190D01*
X103571428Y-122952380D02*
X103380952Y-122952380D01*
X103285714Y-123000000D01*
X103190476Y-123095238D01*
X103142857Y-123285714D01*
X103142857Y-123619047D01*
X103190476Y-123809523D01*
X103285714Y-123904761D01*
X103380952Y-123952380D01*
X103571428Y-123952380D01*
X103666666Y-123904761D01*
X103761904Y-123809523D01*
X103809523Y-123619047D01*
X103809523Y-123285714D01*
X103761904Y-123095238D01*
X103666666Y-123000000D01*
X103571428Y-122952380D01*
X102761904Y-123904761D02*
X102619047Y-123952380D01*
X102380952Y-123952380D01*
X102285714Y-123904761D01*
X102238095Y-123857142D01*
X102190476Y-123761904D01*
X102190476Y-123666666D01*
X102238095Y-123571428D01*
X102285714Y-123523809D01*
X102380952Y-123476190D01*
X102571428Y-123428571D01*
X102666666Y-123380952D01*
X102714285Y-123333333D01*
X102761904Y-123238095D01*
X102761904Y-123142857D01*
X102714285Y-123047619D01*
X102666666Y-123000000D01*
X102571428Y-122952380D01*
X102333333Y-122952380D01*
X102190476Y-123000000D01*
X114738095Y-123952380D02*
X114738095Y-122952380D01*
X114166666Y-123952380D01*
X114166666Y-122952380D01*
X113690476Y-123428571D02*
X113357142Y-123428571D01*
X113214285Y-123952380D02*
X113690476Y-123952380D01*
X113690476Y-122952380D01*
X113214285Y-122952380D01*
X112261904Y-123000000D02*
X112357142Y-122952380D01*
X112500000Y-122952380D01*
X112642857Y-123000000D01*
X112738095Y-123095238D01*
X112785714Y-123190476D01*
X112833333Y-123380952D01*
X112833333Y-123523809D01*
X112785714Y-123714285D01*
X112738095Y-123809523D01*
X112642857Y-123904761D01*
X112500000Y-123952380D01*
X112404761Y-123952380D01*
X112261904Y-123904761D01*
X112214285Y-123857142D01*
X112214285Y-123523809D01*
X112404761Y-123523809D01*
X122952380Y-81761904D02*
X123952380Y-82095238D01*
X122952380Y-82428571D01*
X123428571Y-82761904D02*
X123428571Y-83095238D01*
X123952380Y-83238095D02*
X123952380Y-82761904D01*
X122952380Y-82761904D01*
X122952380Y-83238095D01*
X123428571Y-83666666D02*
X123428571Y-84000000D01*
X123952380Y-84142857D02*
X123952380Y-83666666D01*
X122952380Y-83666666D01*
X122952380Y-84142857D01*
X123666666Y-76238095D02*
X123666666Y-76714285D01*
X123952380Y-76142857D02*
X122952380Y-76476190D01*
X123952380Y-76809523D01*
X123000000Y-77666666D02*
X122952380Y-77571428D01*
X122952380Y-77428571D01*
X123000000Y-77285714D01*
X123095238Y-77190476D01*
X123190476Y-77142857D01*
X123380952Y-77095238D01*
X123523809Y-77095238D01*
X123714285Y-77142857D01*
X123809523Y-77190476D01*
X123904761Y-77285714D01*
X123952380Y-77428571D01*
X123952380Y-77523809D01*
X123904761Y-77666666D01*
X123857142Y-77714285D01*
X123523809Y-77714285D01*
X123523809Y-77523809D01*
X123952380Y-78142857D02*
X122952380Y-78142857D01*
X123952380Y-78714285D01*
X122952380Y-78714285D01*
X123952380Y-79190476D02*
X122952380Y-79190476D01*
X122952380Y-79428571D01*
X123000000Y-79571428D01*
X123095238Y-79666666D01*
X123190476Y-79714285D01*
X123380952Y-79761904D01*
X123523809Y-79761904D01*
X123714285Y-79714285D01*
X123809523Y-79666666D01*
X123904761Y-79571428D01*
X123952380Y-79428571D01*
X123952380Y-79190476D01*
X122952380Y-71666666D02*
X123952380Y-72000000D01*
X122952380Y-72333333D01*
X123857142Y-73238095D02*
X123904761Y-73190476D01*
X123952380Y-73047619D01*
X123952380Y-72952380D01*
X123904761Y-72809523D01*
X123809523Y-72714285D01*
X123714285Y-72666666D01*
X123523809Y-72619047D01*
X123380952Y-72619047D01*
X123190476Y-72666666D01*
X123095238Y-72714285D01*
X123000000Y-72809523D01*
X122952380Y-72952380D01*
X122952380Y-73047619D01*
X123000000Y-73190476D01*
X123047619Y-73238095D01*
X123857142Y-74238095D02*
X123904761Y-74190476D01*
X123952380Y-74047619D01*
X123952380Y-73952380D01*
X123904761Y-73809523D01*
X123809523Y-73714285D01*
X123714285Y-73666666D01*
X123523809Y-73619047D01*
X123380952Y-73619047D01*
X123190476Y-73666666D01*
X123095238Y-73714285D01*
X123000000Y-73809523D01*
X122952380Y-73952380D01*
X122952380Y-74047619D01*
X123000000Y-74190476D01*
X123047619Y-74238095D01*
X113595238Y-116702380D02*
X113595238Y-115702380D01*
X113357142Y-115702380D01*
X113214285Y-115750000D01*
X113119047Y-115845238D01*
X113071428Y-115940476D01*
X113023809Y-116130952D01*
X113023809Y-116273809D01*
X113071428Y-116464285D01*
X113119047Y-116559523D01*
X113214285Y-116654761D01*
X113357142Y-116702380D01*
X113595238Y-116702380D01*
X112023809Y-116607142D02*
X112071428Y-116654761D01*
X112214285Y-116702380D01*
X112309523Y-116702380D01*
X112452380Y-116654761D01*
X112547619Y-116559523D01*
X112595238Y-116464285D01*
X112642857Y-116273809D01*
X112642857Y-116130952D01*
X112595238Y-115940476D01*
X112547619Y-115845238D01*
X112452380Y-115750000D01*
X112309523Y-115702380D01*
X112214285Y-115702380D01*
X112071428Y-115750000D01*
X112023809Y-115797619D01*
X110833333Y-116702380D02*
X110833333Y-115702380D01*
X110357142Y-116702380D02*
X110357142Y-115702380D01*
X109785714Y-116702380D01*
X109785714Y-115702380D01*
X107833333Y-115654761D02*
X108690476Y-116940476D01*
X106166666Y-116607142D02*
X106214285Y-116654761D01*
X106357142Y-116702380D01*
X106452380Y-116702380D01*
X106595238Y-116654761D01*
X106690476Y-116559523D01*
X106738095Y-116464285D01*
X106785714Y-116273809D01*
X106785714Y-116130952D01*
X106738095Y-115940476D01*
X106690476Y-115845238D01*
X106595238Y-115750000D01*
X106452380Y-115702380D01*
X106357142Y-115702380D01*
X106214285Y-115750000D01*
X106166666Y-115797619D01*
X105785714Y-116416666D02*
X105309523Y-116416666D01*
X105880952Y-116702380D02*
X105547619Y-115702380D01*
X105214285Y-116702380D01*
X104880952Y-116702380D02*
X104880952Y-115702380D01*
X104500000Y-115702380D01*
X104404761Y-115750000D01*
X104357142Y-115797619D01*
X104309523Y-115892857D01*
X104309523Y-116035714D01*
X104357142Y-116130952D01*
X104404761Y-116178571D01*
X104500000Y-116226190D01*
X104880952Y-116226190D01*
X103928571Y-116654761D02*
X103785714Y-116702380D01*
X103547619Y-116702380D01*
X103452380Y-116654761D01*
X103404761Y-116607142D01*
X103357142Y-116511904D01*
X103357142Y-116416666D01*
X103404761Y-116321428D01*
X103452380Y-116273809D01*
X103547619Y-116226190D01*
X103738095Y-116178571D01*
X103833333Y-116130952D01*
X103880952Y-116083333D01*
X103928571Y-115988095D01*
X103928571Y-115892857D01*
X103880952Y-115797619D01*
X103833333Y-115750000D01*
X103738095Y-115702380D01*
X103500000Y-115702380D01*
X103357142Y-115750000D01*
X116702380Y-75428571D02*
X115702380Y-75428571D01*
X115702380Y-75666666D01*
X115750000Y-75809523D01*
X115845238Y-75904761D01*
X115940476Y-75952380D01*
X116130952Y-76000000D01*
X116273809Y-76000000D01*
X116464285Y-75952380D01*
X116559523Y-75904761D01*
X116654761Y-75809523D01*
X116702380Y-75666666D01*
X116702380Y-75428571D01*
X116607142Y-77000000D02*
X116654761Y-76952380D01*
X116702380Y-76809523D01*
X116702380Y-76714285D01*
X116654761Y-76571428D01*
X116559523Y-76476190D01*
X116464285Y-76428571D01*
X116273809Y-76380952D01*
X116130952Y-76380952D01*
X115940476Y-76428571D01*
X115845238Y-76476190D01*
X115750000Y-76571428D01*
X115702380Y-76714285D01*
X115702380Y-76809523D01*
X115750000Y-76952380D01*
X115797619Y-77000000D01*
X115702380Y-78380952D02*
X115702380Y-78571428D01*
X115750000Y-78666666D01*
X115845238Y-78761904D01*
X116035714Y-78809523D01*
X116369047Y-78809523D01*
X116559523Y-78761904D01*
X116654761Y-78666666D01*
X116702380Y-78571428D01*
X116702380Y-78380952D01*
X116654761Y-78285714D01*
X116559523Y-78190476D01*
X116369047Y-78142857D01*
X116035714Y-78142857D01*
X115845238Y-78190476D01*
X115750000Y-78285714D01*
X115702380Y-78380952D01*
X115702380Y-79238095D02*
X116511904Y-79238095D01*
X116607142Y-79285714D01*
X116654761Y-79333333D01*
X116702380Y-79428571D01*
X116702380Y-79619047D01*
X116654761Y-79714285D01*
X116607142Y-79761904D01*
X116511904Y-79809523D01*
X115702380Y-79809523D01*
X115702380Y-80142857D02*
X115702380Y-80714285D01*
X116702380Y-80428571D02*
X115702380Y-80428571D01*
X32047619Y-94809523D02*
X32047619Y-95285714D01*
X31571428Y-95333333D01*
X31619047Y-95285714D01*
X31666666Y-95190476D01*
X31666666Y-94952380D01*
X31619047Y-94857142D01*
X31571428Y-94809523D01*
X31476190Y-94761904D01*
X31238095Y-94761904D01*
X31142857Y-94809523D01*
X31095238Y-94857142D01*
X31047619Y-94952380D01*
X31047619Y-95190476D01*
X31095238Y-95285714D01*
X31142857Y-95333333D01*
X32047619Y-94142857D02*
X32047619Y-94047619D01*
X32000000Y-93952380D01*
X31952380Y-93904761D01*
X31857142Y-93857142D01*
X31666666Y-93809523D01*
X31428571Y-93809523D01*
X31238095Y-93857142D01*
X31142857Y-93904761D01*
X31095238Y-93952380D01*
X31047619Y-94047619D01*
X31047619Y-94142857D01*
X31095238Y-94238095D01*
X31142857Y-94285714D01*
X31238095Y-94333333D01*
X31428571Y-94380952D01*
X31666666Y-94380952D01*
X31857142Y-94333333D01*
X31952380Y-94285714D01*
X32000000Y-94238095D01*
X32047619Y-94142857D01*
X32047619Y-93190476D02*
X32047619Y-93095238D01*
X32000000Y-93000000D01*
X31952380Y-92952380D01*
X31857142Y-92904761D01*
X31666666Y-92857142D01*
X31428571Y-92857142D01*
X31238095Y-92904761D01*
X31142857Y-92952380D01*
X31095238Y-93000000D01*
X31047619Y-93095238D01*
X31047619Y-93190476D01*
X31095238Y-93285714D01*
X31142857Y-93333333D01*
X31238095Y-93380952D01*
X31428571Y-93428571D01*
X31666666Y-93428571D01*
X31857142Y-93380952D01*
X31952380Y-93333333D01*
X32000000Y-93285714D01*
X32047619Y-93190476D01*
X31047619Y-92428571D02*
X31714285Y-92428571D01*
X31619047Y-92428571D02*
X31666666Y-92380952D01*
X31714285Y-92285714D01*
X31714285Y-92142857D01*
X31666666Y-92047619D01*
X31571428Y-92000000D01*
X31047619Y-92000000D01*
X31571428Y-92000000D02*
X31666666Y-91952380D01*
X31714285Y-91857142D01*
X31714285Y-91714285D01*
X31666666Y-91619047D01*
X31571428Y-91571428D01*
X31047619Y-91571428D01*
X31333333Y-91142857D02*
X31333333Y-90666666D01*
X31047619Y-91238095D02*
X32047619Y-90904761D01*
X31047619Y-90571428D01*
X31797619Y-67809523D02*
X31797619Y-68285714D01*
X31321428Y-68333333D01*
X31369047Y-68285714D01*
X31416666Y-68190476D01*
X31416666Y-67952380D01*
X31369047Y-67857142D01*
X31321428Y-67809523D01*
X31226190Y-67761904D01*
X30988095Y-67761904D01*
X30892857Y-67809523D01*
X30845238Y-67857142D01*
X30797619Y-67952380D01*
X30797619Y-68190476D01*
X30845238Y-68285714D01*
X30892857Y-68333333D01*
X31797619Y-67142857D02*
X31797619Y-67047619D01*
X31750000Y-66952380D01*
X31702380Y-66904761D01*
X31607142Y-66857142D01*
X31416666Y-66809523D01*
X31178571Y-66809523D01*
X30988095Y-66857142D01*
X30892857Y-66904761D01*
X30845238Y-66952380D01*
X30797619Y-67047619D01*
X30797619Y-67142857D01*
X30845238Y-67238095D01*
X30892857Y-67285714D01*
X30988095Y-67333333D01*
X31178571Y-67380952D01*
X31416666Y-67380952D01*
X31607142Y-67333333D01*
X31702380Y-67285714D01*
X31750000Y-67238095D01*
X31797619Y-67142857D01*
X31797619Y-66190476D02*
X31797619Y-66095238D01*
X31750000Y-66000000D01*
X31702380Y-65952380D01*
X31607142Y-65904761D01*
X31416666Y-65857142D01*
X31178571Y-65857142D01*
X30988095Y-65904761D01*
X30892857Y-65952380D01*
X30845238Y-66000000D01*
X30797619Y-66095238D01*
X30797619Y-66190476D01*
X30845238Y-66285714D01*
X30892857Y-66333333D01*
X30988095Y-66380952D01*
X31178571Y-66428571D01*
X31416666Y-66428571D01*
X31607142Y-66380952D01*
X31702380Y-66333333D01*
X31750000Y-66285714D01*
X31797619Y-66190476D01*
X30797619Y-65428571D02*
X31464285Y-65428571D01*
X31369047Y-65428571D02*
X31416666Y-65380952D01*
X31464285Y-65285714D01*
X31464285Y-65142857D01*
X31416666Y-65047619D01*
X31321428Y-65000000D01*
X30797619Y-65000000D01*
X31321428Y-65000000D02*
X31416666Y-64952380D01*
X31464285Y-64857142D01*
X31464285Y-64714285D01*
X31416666Y-64619047D01*
X31321428Y-64571428D01*
X30797619Y-64571428D01*
X31083333Y-64142857D02*
X31083333Y-63666666D01*
X30797619Y-64238095D02*
X31797619Y-63904761D01*
X30797619Y-63571428D01*
X33345238Y-46761904D02*
X33297619Y-46619047D01*
X33297619Y-46380952D01*
X33345238Y-46285714D01*
X33392857Y-46238095D01*
X33488095Y-46190476D01*
X33583333Y-46190476D01*
X33678571Y-46238095D01*
X33726190Y-46285714D01*
X33773809Y-46380952D01*
X33821428Y-46571428D01*
X33869047Y-46666666D01*
X33916666Y-46714285D01*
X34011904Y-46761904D01*
X34107142Y-46761904D01*
X34202380Y-46714285D01*
X34250000Y-46666666D01*
X34297619Y-46571428D01*
X34297619Y-46333333D01*
X34250000Y-46190476D01*
X34297619Y-45857142D02*
X33297619Y-45619047D01*
X34011904Y-45428571D01*
X33297619Y-45238095D01*
X34297619Y-45000000D01*
X33297619Y-44619047D02*
X34297619Y-44619047D01*
X34297619Y-44285714D02*
X34297619Y-43714285D01*
X33297619Y-44000000D02*
X34297619Y-44000000D01*
X33392857Y-42809523D02*
X33345238Y-42857142D01*
X33297619Y-43000000D01*
X33297619Y-43095238D01*
X33345238Y-43238095D01*
X33440476Y-43333333D01*
X33535714Y-43380952D01*
X33726190Y-43428571D01*
X33869047Y-43428571D01*
X34059523Y-43380952D01*
X34154761Y-43333333D01*
X34250000Y-43238095D01*
X34297619Y-43095238D01*
X34297619Y-43000000D01*
X34250000Y-42857142D01*
X34202380Y-42809523D01*
X33297619Y-42380952D02*
X34297619Y-42380952D01*
X33821428Y-42380952D02*
X33821428Y-41809523D01*
X33297619Y-41809523D02*
X34297619Y-41809523D01*
X33821428Y-41333333D02*
X33821428Y-41000000D01*
X33297619Y-40857142D02*
X33297619Y-41333333D01*
X34297619Y-41333333D01*
X34297619Y-40857142D01*
X33297619Y-40428571D02*
X34297619Y-40428571D01*
X34297619Y-40190476D01*
X34250000Y-40047619D01*
X34154761Y-39952380D01*
X34059523Y-39904761D01*
X33869047Y-39857142D01*
X33726190Y-39857142D01*
X33535714Y-39904761D01*
X33440476Y-39952380D01*
X33345238Y-40047619D01*
X33297619Y-40190476D01*
X33297619Y-40428571D01*
X33583333Y-38714285D02*
X33583333Y-38238095D01*
X33297619Y-38809523D02*
X34297619Y-38476190D01*
X33297619Y-38142857D01*
X33392857Y-37238095D02*
X33345238Y-37285714D01*
X33297619Y-37428571D01*
X33297619Y-37523809D01*
X33345238Y-37666666D01*
X33440476Y-37761904D01*
X33535714Y-37809523D01*
X33726190Y-37857142D01*
X33869047Y-37857142D01*
X34059523Y-37809523D01*
X34154761Y-37761904D01*
X34250000Y-37666666D01*
X34297619Y-37523809D01*
X34297619Y-37428571D01*
X34250000Y-37285714D01*
X34202380Y-37238095D01*
X45380952Y-33916666D02*
X44904761Y-33916666D01*
X45476190Y-34202380D02*
X45142857Y-33202380D01*
X44809523Y-34202380D01*
X43904761Y-34107142D02*
X43952380Y-34154761D01*
X44095238Y-34202380D01*
X44190476Y-34202380D01*
X44333333Y-34154761D01*
X44428571Y-34059523D01*
X44476190Y-33964285D01*
X44523809Y-33773809D01*
X44523809Y-33630952D01*
X44476190Y-33440476D01*
X44428571Y-33345238D01*
X44333333Y-33250000D01*
X44190476Y-33202380D01*
X44095238Y-33202380D01*
X43952380Y-33250000D01*
X43904761Y-33297619D01*
X42714285Y-34202380D02*
X42714285Y-33202380D01*
X42238095Y-34202380D02*
X42238095Y-33202380D01*
X41666666Y-34202380D01*
X41666666Y-33202380D01*
X64904761Y-34202380D02*
X65238095Y-33726190D01*
X65476190Y-34202380D02*
X65476190Y-33202380D01*
X65095238Y-33202380D01*
X65000000Y-33250000D01*
X64952380Y-33297619D01*
X64904761Y-33392857D01*
X64904761Y-33535714D01*
X64952380Y-33630952D01*
X65000000Y-33678571D01*
X65095238Y-33726190D01*
X65476190Y-33726190D01*
X64476190Y-33678571D02*
X64142857Y-33678571D01*
X64000000Y-34202380D02*
X64476190Y-34202380D01*
X64476190Y-33202380D01*
X64000000Y-33202380D01*
X63095238Y-34202380D02*
X63571428Y-34202380D01*
X63571428Y-33202380D01*
X62809523Y-33916666D02*
X62333333Y-33916666D01*
X62904761Y-34202380D02*
X62571428Y-33202380D01*
X62238095Y-34202380D01*
X61714285Y-33726190D02*
X61714285Y-34202380D01*
X62047619Y-33202380D02*
X61714285Y-33726190D01*
X61380952Y-33202380D01*
X98571428Y-34202380D02*
X98904761Y-33726190D01*
X99142857Y-34202380D02*
X99142857Y-33202380D01*
X98761904Y-33202380D01*
X98666666Y-33250000D01*
X98619047Y-33297619D01*
X98571428Y-33392857D01*
X98571428Y-33535714D01*
X98619047Y-33630952D01*
X98666666Y-33678571D01*
X98761904Y-33726190D01*
X99142857Y-33726190D01*
X98142857Y-33678571D02*
X97809523Y-33678571D01*
X97666666Y-34202380D02*
X98142857Y-34202380D01*
X98142857Y-33202380D01*
X97666666Y-33202380D01*
X97238095Y-34202380D02*
X97238095Y-33202380D01*
X96904761Y-33916666D01*
X96571428Y-33202380D01*
X96571428Y-34202380D01*
X95904761Y-33202380D02*
X95714285Y-33202380D01*
X95619047Y-33250000D01*
X95523809Y-33345238D01*
X95476190Y-33535714D01*
X95476190Y-33869047D01*
X95523809Y-34059523D01*
X95619047Y-34154761D01*
X95714285Y-34202380D01*
X95904761Y-34202380D01*
X96000000Y-34154761D01*
X96095238Y-34059523D01*
X96142857Y-33869047D01*
X96142857Y-33535714D01*
X96095238Y-33345238D01*
X96000000Y-33250000D01*
X95904761Y-33202380D01*
X95190476Y-33202380D02*
X94619047Y-33202380D01*
X94904761Y-34202380D02*
X94904761Y-33202380D01*
X94285714Y-33678571D02*
X93952380Y-33678571D01*
X93809523Y-34202380D02*
X94285714Y-34202380D01*
X94285714Y-33202380D01*
X93809523Y-33202380D01*
X109273809Y-34202380D02*
X109273809Y-33202380D01*
X109035714Y-33202380D01*
X108892857Y-33250000D01*
X108797619Y-33345238D01*
X108750000Y-33440476D01*
X108702380Y-33630952D01*
X108702380Y-33773809D01*
X108750000Y-33964285D01*
X108797619Y-34059523D01*
X108892857Y-34154761D01*
X109035714Y-34202380D01*
X109273809Y-34202380D01*
X107702380Y-34107142D02*
X107750000Y-34154761D01*
X107892857Y-34202380D01*
X107988095Y-34202380D01*
X108130952Y-34154761D01*
X108226190Y-34059523D01*
X108273809Y-33964285D01*
X108321428Y-33773809D01*
X108321428Y-33630952D01*
X108273809Y-33440476D01*
X108226190Y-33345238D01*
X108130952Y-33250000D01*
X107988095Y-33202380D01*
X107892857Y-33202380D01*
X107750000Y-33250000D01*
X107702380Y-33297619D01*
X105988095Y-34202380D02*
X106559523Y-34202380D01*
X106273809Y-34202380D02*
X106273809Y-33202380D01*
X106369047Y-33345238D01*
X106464285Y-33440476D01*
X106559523Y-33488095D01*
X105607142Y-33297619D02*
X105559523Y-33250000D01*
X105464285Y-33202380D01*
X105226190Y-33202380D01*
X105130952Y-33250000D01*
X105083333Y-33297619D01*
X105035714Y-33392857D01*
X105035714Y-33488095D01*
X105083333Y-33630952D01*
X105654761Y-34202380D01*
X105035714Y-34202380D01*
X104750000Y-33202380D02*
X104416666Y-34202380D01*
X104083333Y-33202380D01*
X105952380Y-81559523D02*
X105952380Y-81083333D01*
X104952380Y-81083333D01*
X105952380Y-81892857D02*
X104952380Y-81892857D01*
X105666666Y-82226190D01*
X104952380Y-82559523D01*
X105952380Y-82559523D01*
X104952380Y-82940476D02*
X104952380Y-83559523D01*
X105333333Y-83226190D01*
X105333333Y-83369047D01*
X105380952Y-83464285D01*
X105428571Y-83511904D01*
X105523809Y-83559523D01*
X105761904Y-83559523D01*
X105857142Y-83511904D01*
X105904761Y-83464285D01*
X105952380Y-83369047D01*
X105952380Y-83083333D01*
X105904761Y-82988095D01*
X105857142Y-82940476D01*
X104952380Y-83892857D02*
X104952380Y-84511904D01*
X105333333Y-84178571D01*
X105333333Y-84321428D01*
X105380952Y-84416666D01*
X105428571Y-84464285D01*
X105523809Y-84511904D01*
X105761904Y-84511904D01*
X105857142Y-84464285D01*
X105904761Y-84416666D01*
X105952380Y-84321428D01*
X105952380Y-84035714D01*
X105904761Y-83940476D01*
X105857142Y-83892857D01*
X104952380Y-84845238D02*
X104952380Y-85511904D01*
X105952380Y-85083333D01*
X105952380Y-70809523D02*
X105952380Y-70333333D01*
X104952380Y-70333333D01*
X105952380Y-71142857D02*
X104952380Y-71142857D01*
X105666666Y-71476190D01*
X104952380Y-71809523D01*
X105952380Y-71809523D01*
X104952380Y-72190476D02*
X104952380Y-72809523D01*
X105333333Y-72476190D01*
X105333333Y-72619047D01*
X105380952Y-72714285D01*
X105428571Y-72761904D01*
X105523809Y-72809523D01*
X105761904Y-72809523D01*
X105857142Y-72761904D01*
X105904761Y-72714285D01*
X105952380Y-72619047D01*
X105952380Y-72333333D01*
X105904761Y-72238095D01*
X105857142Y-72190476D01*
X105952380Y-73761904D02*
X105952380Y-73190476D01*
X105952380Y-73476190D02*
X104952380Y-73476190D01*
X105095238Y-73380952D01*
X105190476Y-73285714D01*
X105238095Y-73190476D01*
X104952380Y-74095238D02*
X104952380Y-74761904D01*
X105952380Y-74333333D01*
X119480952Y-56652380D02*
X119433333Y-56557142D01*
X119385714Y-56509523D01*
X119290476Y-56461904D01*
X119242857Y-56461904D01*
X119147619Y-56509523D01*
X119100000Y-56557142D01*
X119052380Y-56652380D01*
X119052380Y-56842857D01*
X119100000Y-56938095D01*
X119147619Y-56985714D01*
X119242857Y-57033333D01*
X119290476Y-57033333D01*
X119385714Y-56985714D01*
X119433333Y-56938095D01*
X119480952Y-56842857D01*
X119480952Y-56652380D01*
X119528571Y-56557142D01*
X119576190Y-56509523D01*
X119671428Y-56461904D01*
X119861904Y-56461904D01*
X119957142Y-56509523D01*
X120004761Y-56557142D01*
X120052380Y-56652380D01*
X120052380Y-56842857D01*
X120004761Y-56938095D01*
X119957142Y-56985714D01*
X119861904Y-57033333D01*
X119671428Y-57033333D01*
X119576190Y-56985714D01*
X119528571Y-56938095D01*
X119480952Y-56842857D01*
X120052380Y-57985714D02*
X120052380Y-57414285D01*
X120052380Y-57700000D02*
X119052380Y-57700000D01*
X119195238Y-57604761D01*
X119290476Y-57509523D01*
X119338095Y-57414285D01*
X119052380Y-58319047D02*
X119052380Y-58985714D01*
X120052380Y-58557142D01*
X119957142Y-59938095D02*
X120004761Y-59890476D01*
X120052380Y-59747619D01*
X120052380Y-59652380D01*
X120004761Y-59509523D01*
X119909523Y-59414285D01*
X119814285Y-59366666D01*
X119623809Y-59319047D01*
X119480952Y-59319047D01*
X119290476Y-59366666D01*
X119195238Y-59414285D01*
X119100000Y-59509523D01*
X119052380Y-59652380D01*
X119052380Y-59747619D01*
X119100000Y-59890476D01*
X119147619Y-59938095D01*
X85840952Y-27770380D02*
X85793333Y-27675142D01*
X85745714Y-27627523D01*
X85650476Y-27579904D01*
X85602857Y-27579904D01*
X85507619Y-27627523D01*
X85460000Y-27675142D01*
X85412380Y-27770380D01*
X85412380Y-27960857D01*
X85460000Y-28056095D01*
X85507619Y-28103714D01*
X85602857Y-28151333D01*
X85650476Y-28151333D01*
X85745714Y-28103714D01*
X85793333Y-28056095D01*
X85840952Y-27960857D01*
X85840952Y-27770380D01*
X85888571Y-27675142D01*
X85936190Y-27627523D01*
X86031428Y-27579904D01*
X86221904Y-27579904D01*
X86317142Y-27627523D01*
X86364761Y-27675142D01*
X86412380Y-27770380D01*
X86412380Y-27960857D01*
X86364761Y-28056095D01*
X86317142Y-28103714D01*
X86221904Y-28151333D01*
X86031428Y-28151333D01*
X85936190Y-28103714D01*
X85888571Y-28056095D01*
X85840952Y-27960857D01*
X86412380Y-29103714D02*
X86412380Y-28532285D01*
X86412380Y-28818000D02*
X85412380Y-28818000D01*
X85555238Y-28722761D01*
X85650476Y-28627523D01*
X85698095Y-28532285D01*
X85412380Y-29437047D02*
X85412380Y-30103714D01*
X86412380Y-29675142D01*
X86317142Y-31056095D02*
X86364761Y-31008476D01*
X86412380Y-30865619D01*
X86412380Y-30770380D01*
X86364761Y-30627523D01*
X86269523Y-30532285D01*
X86174285Y-30484666D01*
X85983809Y-30437047D01*
X85840952Y-30437047D01*
X85650476Y-30484666D01*
X85555238Y-30532285D01*
X85460000Y-30627523D01*
X85412380Y-30770380D01*
X85412380Y-30865619D01*
X85460000Y-31008476D01*
X85507619Y-31056095D01*
D12*
G36*
X89805814Y-68968931D02*
G01*
X89889635Y-69413555D01*
X90198920Y-69541053D01*
X90508206Y-69668551D01*
X90879246Y-69416246D01*
X90983157Y-69345996D01*
X91077087Y-69283272D01*
X91156652Y-69230938D01*
X91217470Y-69191857D01*
X91255157Y-69168893D01*
X91265421Y-69163942D01*
X91283910Y-69176676D01*
X91323420Y-69211882D01*
X91379522Y-69265062D01*
X91447787Y-69331718D01*
X91523786Y-69407354D01*
X91603092Y-69487472D01*
X91681275Y-69567574D01*
X91753907Y-69643164D01*
X91816559Y-69709745D01*
X91864803Y-69762818D01*
X91894210Y-69797887D01*
X91901241Y-69809623D01*
X91891123Y-69831260D01*
X91862759Y-69878662D01*
X91819129Y-69947193D01*
X91763218Y-70032215D01*
X91698006Y-70129093D01*
X91660219Y-70184350D01*
X91591343Y-70285248D01*
X91530140Y-70376299D01*
X91479578Y-70452970D01*
X91442628Y-70510728D01*
X91422258Y-70545043D01*
X91419197Y-70552254D01*
X91426136Y-70572748D01*
X91445051Y-70620513D01*
X91473087Y-70688832D01*
X91507391Y-70770989D01*
X91545109Y-70860270D01*
X91583387Y-70949958D01*
X91619370Y-71033338D01*
X91650206Y-71103694D01*
X91673039Y-71154310D01*
X91685017Y-71178471D01*
X91685724Y-71179422D01*
X91704531Y-71184036D01*
X91754618Y-71194328D01*
X91830793Y-71209287D01*
X91927865Y-71227901D01*
X92040643Y-71249159D01*
X92106442Y-71261418D01*
X92226950Y-71284362D01*
X92335797Y-71306195D01*
X92427476Y-71325722D01*
X92496481Y-71341748D01*
X92537304Y-71353079D01*
X92545511Y-71356674D01*
X92553548Y-71381006D01*
X92560033Y-71435959D01*
X92564970Y-71515108D01*
X92568364Y-71612026D01*
X92570218Y-71720287D01*
X92570538Y-71833465D01*
X92569327Y-71945135D01*
X92566590Y-72048868D01*
X92562331Y-72138241D01*
X92556555Y-72206826D01*
X92549267Y-72248197D01*
X92544895Y-72256810D01*
X92518764Y-72267133D01*
X92463393Y-72281892D01*
X92386107Y-72299352D01*
X92294230Y-72317780D01*
X92262158Y-72323741D01*
X92107524Y-72352066D01*
X91985375Y-72374876D01*
X91891673Y-72393080D01*
X91822384Y-72407583D01*
X91773471Y-72419292D01*
X91740897Y-72429115D01*
X91720628Y-72437956D01*
X91708626Y-72446724D01*
X91706947Y-72448457D01*
X91690184Y-72476371D01*
X91664614Y-72530695D01*
X91632788Y-72604777D01*
X91597260Y-72691965D01*
X91560583Y-72785608D01*
X91525311Y-72879052D01*
X91493996Y-72965647D01*
X91469193Y-73038740D01*
X91453454Y-73091678D01*
X91449332Y-73117811D01*
X91449676Y-73118726D01*
X91463641Y-73140086D01*
X91495322Y-73187084D01*
X91541391Y-73254827D01*
X91598518Y-73338423D01*
X91663373Y-73432982D01*
X91681843Y-73459854D01*
X91747699Y-73557275D01*
X91805650Y-73646163D01*
X91852538Y-73721412D01*
X91885207Y-73777920D01*
X91900500Y-73810581D01*
X91901241Y-73814593D01*
X91888392Y-73835684D01*
X91852888Y-73877464D01*
X91799293Y-73935445D01*
X91732171Y-74005135D01*
X91656087Y-74082045D01*
X91575604Y-74161683D01*
X91495287Y-74239561D01*
X91419699Y-74311186D01*
X91353405Y-74372070D01*
X91300969Y-74417721D01*
X91266955Y-74443650D01*
X91257545Y-74447883D01*
X91235643Y-74437912D01*
X91190800Y-74411020D01*
X91130321Y-74371736D01*
X91083789Y-74340117D01*
X90999475Y-74282098D01*
X90899626Y-74213784D01*
X90799473Y-74145579D01*
X90745627Y-74109075D01*
X90563371Y-73985800D01*
X90410381Y-74068520D01*
X90340682Y-74104759D01*
X90281414Y-74132926D01*
X90241311Y-74148991D01*
X90231103Y-74151226D01*
X90218829Y-74134722D01*
X90194613Y-74088082D01*
X90160263Y-74015609D01*
X90117588Y-73921606D01*
X90068394Y-73810374D01*
X90014490Y-73686215D01*
X89957684Y-73553432D01*
X89899782Y-73416327D01*
X89842593Y-73279202D01*
X89787924Y-73146358D01*
X89737584Y-73022098D01*
X89693380Y-72910725D01*
X89657119Y-72816539D01*
X89630609Y-72743844D01*
X89615658Y-72696941D01*
X89613254Y-72680833D01*
X89632311Y-72660286D01*
X89674036Y-72626933D01*
X89729706Y-72587702D01*
X89734378Y-72584599D01*
X89878264Y-72469423D01*
X89994283Y-72335053D01*
X90081430Y-72185784D01*
X90138699Y-72025913D01*
X90165086Y-71859737D01*
X90159585Y-71691552D01*
X90121190Y-71525655D01*
X90048895Y-71366342D01*
X90027626Y-71331487D01*
X89916996Y-71190737D01*
X89786302Y-71077714D01*
X89640064Y-70993003D01*
X89482808Y-70937194D01*
X89319057Y-70910874D01*
X89153333Y-70914630D01*
X88990162Y-70949050D01*
X88834065Y-71014723D01*
X88689567Y-71112235D01*
X88644869Y-71151813D01*
X88531112Y-71275703D01*
X88448218Y-71406124D01*
X88391356Y-71552315D01*
X88359687Y-71697088D01*
X88351869Y-71859860D01*
X88377938Y-72023440D01*
X88435245Y-72182298D01*
X88521144Y-72330906D01*
X88632986Y-72463735D01*
X88768123Y-72575256D01*
X88785883Y-72587011D01*
X88842150Y-72625508D01*
X88884923Y-72658863D01*
X88905372Y-72680160D01*
X88905669Y-72680833D01*
X88901279Y-72703871D01*
X88883876Y-72756157D01*
X88855268Y-72833390D01*
X88817265Y-72931268D01*
X88771674Y-73045491D01*
X88720303Y-73171758D01*
X88664962Y-73305767D01*
X88607458Y-73443218D01*
X88549601Y-73579808D01*
X88493198Y-73711237D01*
X88440058Y-73833205D01*
X88391990Y-73941409D01*
X88350801Y-74031549D01*
X88318301Y-74099323D01*
X88296297Y-74140430D01*
X88287436Y-74151226D01*
X88260360Y-74142819D01*
X88209697Y-74120272D01*
X88144183Y-74087613D01*
X88108159Y-74068520D01*
X87955168Y-73985800D01*
X87772912Y-74109075D01*
X87679875Y-74172228D01*
X87578015Y-74241727D01*
X87482562Y-74307165D01*
X87434750Y-74340117D01*
X87367505Y-74385273D01*
X87310564Y-74421057D01*
X87271354Y-74442938D01*
X87258619Y-74447563D01*
X87240083Y-74435085D01*
X87199059Y-74400252D01*
X87139525Y-74346678D01*
X87065458Y-74277983D01*
X86980835Y-74197781D01*
X86927315Y-74146286D01*
X86833681Y-74054286D01*
X86752759Y-73971999D01*
X86687823Y-73902945D01*
X86642142Y-73850644D01*
X86618989Y-73818616D01*
X86616768Y-73812116D01*
X86627076Y-73787394D01*
X86655561Y-73737405D01*
X86699063Y-73667212D01*
X86754423Y-73581875D01*
X86818480Y-73486456D01*
X86836697Y-73459854D01*
X86903073Y-73363167D01*
X86962622Y-73276117D01*
X87012016Y-73203595D01*
X87047925Y-73150493D01*
X87067019Y-73121703D01*
X87068864Y-73118726D01*
X87066105Y-73095782D01*
X87051462Y-73045336D01*
X87027487Y-72974041D01*
X86996734Y-72888547D01*
X86961756Y-72795507D01*
X86925107Y-72701574D01*
X86889339Y-72613399D01*
X86857006Y-72537634D01*
X86830662Y-72480931D01*
X86812858Y-72449943D01*
X86811593Y-72448457D01*
X86800706Y-72439601D01*
X86782318Y-72430843D01*
X86752394Y-72421277D01*
X86706897Y-72409996D01*
X86641791Y-72396093D01*
X86553039Y-72378663D01*
X86436607Y-72356798D01*
X86288458Y-72329591D01*
X86256382Y-72323741D01*
X86161314Y-72305374D01*
X86078435Y-72287405D01*
X86015070Y-72271569D01*
X85978542Y-72259600D01*
X85973644Y-72256810D01*
X85965573Y-72232072D01*
X85959013Y-72176790D01*
X85953967Y-72097389D01*
X85950441Y-72000296D01*
X85948439Y-71891938D01*
X85947964Y-71778740D01*
X85949023Y-71667128D01*
X85951618Y-71563529D01*
X85955754Y-71474368D01*
X85961437Y-71406072D01*
X85968669Y-71365066D01*
X85973029Y-71356674D01*
X85997302Y-71348208D01*
X86052574Y-71334435D01*
X86133338Y-71316550D01*
X86234088Y-71295748D01*
X86349317Y-71273223D01*
X86412098Y-71261418D01*
X86531213Y-71239151D01*
X86637435Y-71218979D01*
X86725573Y-71201915D01*
X86790434Y-71188969D01*
X86826826Y-71181155D01*
X86832816Y-71179422D01*
X86842939Y-71159890D01*
X86864338Y-71112843D01*
X86894161Y-71045003D01*
X86929555Y-70963091D01*
X86967668Y-70873828D01*
X87005647Y-70783935D01*
X87040640Y-70700135D01*
X87069794Y-70629147D01*
X87090257Y-70577694D01*
X87099177Y-70552497D01*
X87099343Y-70551396D01*
X87089231Y-70531519D01*
X87060883Y-70485777D01*
X87017277Y-70418717D01*
X86961394Y-70334884D01*
X86896213Y-70238826D01*
X86858321Y-70183650D01*
X86789275Y-70082481D01*
X86727950Y-69990630D01*
X86677337Y-69912744D01*
X86640429Y-69853469D01*
X86620218Y-69817451D01*
X86617299Y-69809377D01*
X86629847Y-69790584D01*
X86664537Y-69750457D01*
X86716937Y-69693493D01*
X86782616Y-69624185D01*
X86857144Y-69547031D01*
X86936087Y-69466525D01*
X87015017Y-69387163D01*
X87089500Y-69313440D01*
X87155106Y-69249852D01*
X87207404Y-69200894D01*
X87241961Y-69171061D01*
X87253522Y-69163942D01*
X87272346Y-69173953D01*
X87317369Y-69202078D01*
X87384213Y-69245454D01*
X87468501Y-69301218D01*
X87565856Y-69366506D01*
X87639293Y-69416246D01*
X88010333Y-69668551D01*
X88628905Y-69413555D01*
X88712725Y-68968931D01*
X88796546Y-68524307D01*
X89721994Y-68524307D01*
X89805814Y-68968931D01*
G37*
X89805814Y-68968931D02*
X89889635Y-69413555D01*
X90198920Y-69541053D01*
X90508206Y-69668551D01*
X90879246Y-69416246D01*
X90983157Y-69345996D01*
X91077087Y-69283272D01*
X91156652Y-69230938D01*
X91217470Y-69191857D01*
X91255157Y-69168893D01*
X91265421Y-69163942D01*
X91283910Y-69176676D01*
X91323420Y-69211882D01*
X91379522Y-69265062D01*
X91447787Y-69331718D01*
X91523786Y-69407354D01*
X91603092Y-69487472D01*
X91681275Y-69567574D01*
X91753907Y-69643164D01*
X91816559Y-69709745D01*
X91864803Y-69762818D01*
X91894210Y-69797887D01*
X91901241Y-69809623D01*
X91891123Y-69831260D01*
X91862759Y-69878662D01*
X91819129Y-69947193D01*
X91763218Y-70032215D01*
X91698006Y-70129093D01*
X91660219Y-70184350D01*
X91591343Y-70285248D01*
X91530140Y-70376299D01*
X91479578Y-70452970D01*
X91442628Y-70510728D01*
X91422258Y-70545043D01*
X91419197Y-70552254D01*
X91426136Y-70572748D01*
X91445051Y-70620513D01*
X91473087Y-70688832D01*
X91507391Y-70770989D01*
X91545109Y-70860270D01*
X91583387Y-70949958D01*
X91619370Y-71033338D01*
X91650206Y-71103694D01*
X91673039Y-71154310D01*
X91685017Y-71178471D01*
X91685724Y-71179422D01*
X91704531Y-71184036D01*
X91754618Y-71194328D01*
X91830793Y-71209287D01*
X91927865Y-71227901D01*
X92040643Y-71249159D01*
X92106442Y-71261418D01*
X92226950Y-71284362D01*
X92335797Y-71306195D01*
X92427476Y-71325722D01*
X92496481Y-71341748D01*
X92537304Y-71353079D01*
X92545511Y-71356674D01*
X92553548Y-71381006D01*
X92560033Y-71435959D01*
X92564970Y-71515108D01*
X92568364Y-71612026D01*
X92570218Y-71720287D01*
X92570538Y-71833465D01*
X92569327Y-71945135D01*
X92566590Y-72048868D01*
X92562331Y-72138241D01*
X92556555Y-72206826D01*
X92549267Y-72248197D01*
X92544895Y-72256810D01*
X92518764Y-72267133D01*
X92463393Y-72281892D01*
X92386107Y-72299352D01*
X92294230Y-72317780D01*
X92262158Y-72323741D01*
X92107524Y-72352066D01*
X91985375Y-72374876D01*
X91891673Y-72393080D01*
X91822384Y-72407583D01*
X91773471Y-72419292D01*
X91740897Y-72429115D01*
X91720628Y-72437956D01*
X91708626Y-72446724D01*
X91706947Y-72448457D01*
X91690184Y-72476371D01*
X91664614Y-72530695D01*
X91632788Y-72604777D01*
X91597260Y-72691965D01*
X91560583Y-72785608D01*
X91525311Y-72879052D01*
X91493996Y-72965647D01*
X91469193Y-73038740D01*
X91453454Y-73091678D01*
X91449332Y-73117811D01*
X91449676Y-73118726D01*
X91463641Y-73140086D01*
X91495322Y-73187084D01*
X91541391Y-73254827D01*
X91598518Y-73338423D01*
X91663373Y-73432982D01*
X91681843Y-73459854D01*
X91747699Y-73557275D01*
X91805650Y-73646163D01*
X91852538Y-73721412D01*
X91885207Y-73777920D01*
X91900500Y-73810581D01*
X91901241Y-73814593D01*
X91888392Y-73835684D01*
X91852888Y-73877464D01*
X91799293Y-73935445D01*
X91732171Y-74005135D01*
X91656087Y-74082045D01*
X91575604Y-74161683D01*
X91495287Y-74239561D01*
X91419699Y-74311186D01*
X91353405Y-74372070D01*
X91300969Y-74417721D01*
X91266955Y-74443650D01*
X91257545Y-74447883D01*
X91235643Y-74437912D01*
X91190800Y-74411020D01*
X91130321Y-74371736D01*
X91083789Y-74340117D01*
X90999475Y-74282098D01*
X90899626Y-74213784D01*
X90799473Y-74145579D01*
X90745627Y-74109075D01*
X90563371Y-73985800D01*
X90410381Y-74068520D01*
X90340682Y-74104759D01*
X90281414Y-74132926D01*
X90241311Y-74148991D01*
X90231103Y-74151226D01*
X90218829Y-74134722D01*
X90194613Y-74088082D01*
X90160263Y-74015609D01*
X90117588Y-73921606D01*
X90068394Y-73810374D01*
X90014490Y-73686215D01*
X89957684Y-73553432D01*
X89899782Y-73416327D01*
X89842593Y-73279202D01*
X89787924Y-73146358D01*
X89737584Y-73022098D01*
X89693380Y-72910725D01*
X89657119Y-72816539D01*
X89630609Y-72743844D01*
X89615658Y-72696941D01*
X89613254Y-72680833D01*
X89632311Y-72660286D01*
X89674036Y-72626933D01*
X89729706Y-72587702D01*
X89734378Y-72584599D01*
X89878264Y-72469423D01*
X89994283Y-72335053D01*
X90081430Y-72185784D01*
X90138699Y-72025913D01*
X90165086Y-71859737D01*
X90159585Y-71691552D01*
X90121190Y-71525655D01*
X90048895Y-71366342D01*
X90027626Y-71331487D01*
X89916996Y-71190737D01*
X89786302Y-71077714D01*
X89640064Y-70993003D01*
X89482808Y-70937194D01*
X89319057Y-70910874D01*
X89153333Y-70914630D01*
X88990162Y-70949050D01*
X88834065Y-71014723D01*
X88689567Y-71112235D01*
X88644869Y-71151813D01*
X88531112Y-71275703D01*
X88448218Y-71406124D01*
X88391356Y-71552315D01*
X88359687Y-71697088D01*
X88351869Y-71859860D01*
X88377938Y-72023440D01*
X88435245Y-72182298D01*
X88521144Y-72330906D01*
X88632986Y-72463735D01*
X88768123Y-72575256D01*
X88785883Y-72587011D01*
X88842150Y-72625508D01*
X88884923Y-72658863D01*
X88905372Y-72680160D01*
X88905669Y-72680833D01*
X88901279Y-72703871D01*
X88883876Y-72756157D01*
X88855268Y-72833390D01*
X88817265Y-72931268D01*
X88771674Y-73045491D01*
X88720303Y-73171758D01*
X88664962Y-73305767D01*
X88607458Y-73443218D01*
X88549601Y-73579808D01*
X88493198Y-73711237D01*
X88440058Y-73833205D01*
X88391990Y-73941409D01*
X88350801Y-74031549D01*
X88318301Y-74099323D01*
X88296297Y-74140430D01*
X88287436Y-74151226D01*
X88260360Y-74142819D01*
X88209697Y-74120272D01*
X88144183Y-74087613D01*
X88108159Y-74068520D01*
X87955168Y-73985800D01*
X87772912Y-74109075D01*
X87679875Y-74172228D01*
X87578015Y-74241727D01*
X87482562Y-74307165D01*
X87434750Y-74340117D01*
X87367505Y-74385273D01*
X87310564Y-74421057D01*
X87271354Y-74442938D01*
X87258619Y-74447563D01*
X87240083Y-74435085D01*
X87199059Y-74400252D01*
X87139525Y-74346678D01*
X87065458Y-74277983D01*
X86980835Y-74197781D01*
X86927315Y-74146286D01*
X86833681Y-74054286D01*
X86752759Y-73971999D01*
X86687823Y-73902945D01*
X86642142Y-73850644D01*
X86618989Y-73818616D01*
X86616768Y-73812116D01*
X86627076Y-73787394D01*
X86655561Y-73737405D01*
X86699063Y-73667212D01*
X86754423Y-73581875D01*
X86818480Y-73486456D01*
X86836697Y-73459854D01*
X86903073Y-73363167D01*
X86962622Y-73276117D01*
X87012016Y-73203595D01*
X87047925Y-73150493D01*
X87067019Y-73121703D01*
X87068864Y-73118726D01*
X87066105Y-73095782D01*
X87051462Y-73045336D01*
X87027487Y-72974041D01*
X86996734Y-72888547D01*
X86961756Y-72795507D01*
X86925107Y-72701574D01*
X86889339Y-72613399D01*
X86857006Y-72537634D01*
X86830662Y-72480931D01*
X86812858Y-72449943D01*
X86811593Y-72448457D01*
X86800706Y-72439601D01*
X86782318Y-72430843D01*
X86752394Y-72421277D01*
X86706897Y-72409996D01*
X86641791Y-72396093D01*
X86553039Y-72378663D01*
X86436607Y-72356798D01*
X86288458Y-72329591D01*
X86256382Y-72323741D01*
X86161314Y-72305374D01*
X86078435Y-72287405D01*
X86015070Y-72271569D01*
X85978542Y-72259600D01*
X85973644Y-72256810D01*
X85965573Y-72232072D01*
X85959013Y-72176790D01*
X85953967Y-72097389D01*
X85950441Y-72000296D01*
X85948439Y-71891938D01*
X85947964Y-71778740D01*
X85949023Y-71667128D01*
X85951618Y-71563529D01*
X85955754Y-71474368D01*
X85961437Y-71406072D01*
X85968669Y-71365066D01*
X85973029Y-71356674D01*
X85997302Y-71348208D01*
X86052574Y-71334435D01*
X86133338Y-71316550D01*
X86234088Y-71295748D01*
X86349317Y-71273223D01*
X86412098Y-71261418D01*
X86531213Y-71239151D01*
X86637435Y-71218979D01*
X86725573Y-71201915D01*
X86790434Y-71188969D01*
X86826826Y-71181155D01*
X86832816Y-71179422D01*
X86842939Y-71159890D01*
X86864338Y-71112843D01*
X86894161Y-71045003D01*
X86929555Y-70963091D01*
X86967668Y-70873828D01*
X87005647Y-70783935D01*
X87040640Y-70700135D01*
X87069794Y-70629147D01*
X87090257Y-70577694D01*
X87099177Y-70552497D01*
X87099343Y-70551396D01*
X87089231Y-70531519D01*
X87060883Y-70485777D01*
X87017277Y-70418717D01*
X86961394Y-70334884D01*
X86896213Y-70238826D01*
X86858321Y-70183650D01*
X86789275Y-70082481D01*
X86727950Y-69990630D01*
X86677337Y-69912744D01*
X86640429Y-69853469D01*
X86620218Y-69817451D01*
X86617299Y-69809377D01*
X86629847Y-69790584D01*
X86664537Y-69750457D01*
X86716937Y-69693493D01*
X86782616Y-69624185D01*
X86857144Y-69547031D01*
X86936087Y-69466525D01*
X87015017Y-69387163D01*
X87089500Y-69313440D01*
X87155106Y-69249852D01*
X87207404Y-69200894D01*
X87241961Y-69171061D01*
X87253522Y-69163942D01*
X87272346Y-69173953D01*
X87317369Y-69202078D01*
X87384213Y-69245454D01*
X87468501Y-69301218D01*
X87565856Y-69366506D01*
X87639293Y-69416246D01*
X88010333Y-69668551D01*
X88628905Y-69413555D01*
X88712725Y-68968931D01*
X88796546Y-68524307D01*
X89721994Y-68524307D01*
X89805814Y-68968931D01*
D13*
X104267949Y-101339746D02*
X115113249Y-101339746D01*
X110607695Y-107000000D02*
G75*
G03X112339746Y-104000000I0J2000000D01*
G01*
X112339746Y-104000000D02*
X107535899Y-95679492D01*
D14*
X106669873Y-93179492D02*
X98401924Y-107500000D01*
X99267949Y-109000000D02*
X115803848Y-109000000D01*
X115803848Y-109000000D02*
G75*
G03X116669873Y-107500000I0J1000000D01*
G01*
X108401924Y-93179492D02*
G75*
G03X106669873Y-93179492I-866026J-500000D01*
G01*
X98401924Y-107500000D02*
G75*
G03X99267949Y-109000000I866025J-500000D01*
G01*
X116669873Y-107500000D02*
X114113249Y-103071797D01*
X112113249Y-99607696D02*
X108401924Y-93179492D01*
D13*
X104267949Y-101339746D02*
X107535898Y-107000000D01*
X109535898Y-107000000D02*
X110607695Y-107000000D01*
X101000000Y-107000000D02*
X107535898Y-107000000D01*
D10*
X117091000Y-55420000D02*
G75*
G03X119091000Y-55420000I1000000J0D01*
G01*
X119091000Y-55420000D02*
X120741000Y-55420000D01*
X120741000Y-55420000D02*
X120741000Y-60620000D01*
X120741000Y-60620000D02*
X115441000Y-60620000D01*
X115441000Y-60620000D02*
X115441000Y-55420000D01*
X115441000Y-55420000D02*
X117091000Y-55420000D01*
X83190000Y-26670000D02*
G75*
G03X85190000Y-26670000I1000000J0D01*
G01*
X85190000Y-26670000D02*
X86840000Y-26670000D01*
X86840000Y-26670000D02*
X86840000Y-31870000D01*
X86840000Y-31870000D02*
X81540000Y-31870000D01*
X81540000Y-31870000D02*
X81540000Y-26670000D01*
X81540000Y-26670000D02*
X83190000Y-26670000D01*
X117091000Y-61135000D02*
G75*
G03X119091000Y-61135000I1000000J0D01*
G01*
X119091000Y-61135000D02*
X120741000Y-61135000D01*
X120741000Y-61135000D02*
X120741000Y-66335000D01*
X120741000Y-66335000D02*
X115441000Y-66335000D01*
X115441000Y-66335000D02*
X115441000Y-61135000D01*
X115441000Y-61135000D02*
X117091000Y-61135000D01*
D11*
X37000000Y-78500000D02*
X91000000Y-78500000D01*
X37000000Y-123500000D02*
X37000000Y-78500000D01*
X91000000Y-123500000D02*
X37000000Y-123500000D01*
X91000000Y-78500000D02*
X91000000Y-123500000D01*
D15*
X65500000Y-63900000D02*
X112500000Y-63900000D01*
X112500000Y-63900000D02*
X112500000Y-36100000D01*
X112500000Y-36100000D02*
X65500000Y-36100000D01*
X65500000Y-36100000D02*
X65500000Y-63900000D01*
D10*
X30000000Y-96250000D02*
X30000000Y-89750000D01*
X26500000Y-96250000D02*
X33500000Y-96250000D01*
X33500000Y-105000000D02*
X33500000Y-96250000D01*
X26500000Y-105000000D02*
X26500000Y-96250000D01*
X32500000Y-82250000D02*
X32500000Y-81000000D01*
X27500000Y-82500000D02*
X27500000Y-81000000D01*
X32500000Y-94500000D02*
X32500000Y-82250000D01*
X27500000Y-94250000D02*
X27500000Y-82500000D01*
X32500000Y-105000000D02*
X32500000Y-94500000D01*
X27500000Y-105000000D02*
X27500000Y-94250000D01*
X27500000Y-105000000D02*
X32500000Y-105000000D01*
X26500000Y-106000000D02*
X26500000Y-105000000D01*
X26500000Y-106000000D02*
X33500000Y-106000000D01*
X33500000Y-106000000D02*
X33500000Y-105000000D01*
X27500000Y-81000000D02*
X32500000Y-81000000D01*
X26500000Y-89750000D02*
X26500000Y-80000000D01*
X26500000Y-80000000D02*
X33500000Y-80000000D01*
X33500000Y-89750000D02*
X33500000Y-80000000D01*
X26500000Y-89750000D02*
X33500000Y-89750000D01*
X30000000Y-69250000D02*
X30000000Y-62750000D01*
X26500000Y-69250000D02*
X33500000Y-69250000D01*
X33500000Y-78000000D02*
X33500000Y-69250000D01*
X26500000Y-78000000D02*
X26500000Y-69250000D01*
X32500000Y-55250000D02*
X32500000Y-54000000D01*
X27500000Y-55500000D02*
X27500000Y-54000000D01*
X32500000Y-67500000D02*
X32500000Y-55250000D01*
X27500000Y-67250000D02*
X27500000Y-55500000D01*
X32500000Y-78000000D02*
X32500000Y-67500000D01*
X27500000Y-78000000D02*
X27500000Y-67250000D01*
X27500000Y-78000000D02*
X32500000Y-78000000D01*
X26500000Y-79000000D02*
X26500000Y-78000000D01*
X26500000Y-79000000D02*
X33500000Y-79000000D01*
X33500000Y-79000000D02*
X33500000Y-78000000D01*
X27500000Y-54000000D02*
X32500000Y-54000000D01*
X26500000Y-62750000D02*
X26500000Y-53000000D01*
X26500000Y-53000000D02*
X33500000Y-53000000D01*
X33500000Y-62750000D02*
X33500000Y-53000000D01*
X26500000Y-62750000D02*
X33500000Y-62750000D01*
X62060000Y-77060000D02*
X62060000Y-58940000D01*
X55940000Y-77060000D02*
X55940000Y-58940000D01*
X62060000Y-77060000D02*
X55940000Y-77060000D01*
X62060000Y-58940000D02*
X55940000Y-58940000D01*
X55060000Y-58940000D02*
X48940000Y-58940000D01*
X55060000Y-77060000D02*
X48940000Y-77060000D01*
X48940000Y-77060000D02*
X48940000Y-58940000D01*
X55060000Y-77060000D02*
X55060000Y-58940000D01*
X110350000Y-69900000D02*
X111650000Y-69900000D01*
X111000000Y-69300000D02*
X111000000Y-70500000D01*
X112180000Y-76855818D02*
G75*
G03X112180000Y-71144181I-1180000J2855818D01*
G01*
X109820000Y-76855818D02*
G75*
G02X109820000Y-71144181I1180000J2855818D01*
G01*
X109820000Y-84855818D02*
G75*
G02X109820000Y-79144181I1180000J2855818D01*
G01*
X112180000Y-84855818D02*
G75*
G03X112180000Y-79144181I-1180000J2855818D01*
G01*
X111000000Y-77300000D02*
X111000000Y-78500000D01*
X110350000Y-77900000D02*
X111650000Y-77900000D01*
D15*
X63500000Y-35500000D02*
X34500000Y-35500000D01*
X34500000Y-35500000D02*
X34500000Y-57500000D01*
X34500000Y-57500000D02*
X63500000Y-57500000D01*
X63500000Y-57500000D02*
X63500000Y-35500000D01*
D11*
X43100000Y-74250000D02*
X43100000Y-62250000D01*
X47000000Y-74250000D02*
X47000000Y-62250000D01*
X47000000Y-62250000D02*
X43100000Y-62250000D01*
X47000000Y-74250000D02*
X43100000Y-74250000D01*
X40750000Y-74250000D02*
X36850000Y-74250000D01*
X40750000Y-62250000D02*
X36850000Y-62250000D01*
X40750000Y-74250000D02*
X40750000Y-62250000D01*
X36850000Y-74250000D02*
X36850000Y-62250000D01*
D10*
X104620000Y-77580000D02*
X104620000Y-67340000D01*
X99979000Y-77580000D02*
X99979000Y-67340000D01*
X104620000Y-77580000D02*
X99979000Y-77580000D01*
X104620000Y-67340000D02*
X99979000Y-67340000D01*
X103110000Y-77580000D02*
X103110000Y-67340000D01*
X104620000Y-74310000D02*
X103110000Y-74310000D01*
X104620000Y-70609000D02*
X103110000Y-70609000D01*
X104620000Y-81609000D02*
X103110000Y-81609000D01*
X104620000Y-85310000D02*
X103110000Y-85310000D01*
X103110000Y-88580000D02*
X103110000Y-78340000D01*
X104620000Y-78340000D02*
X99979000Y-78340000D01*
X104620000Y-88580000D02*
X99979000Y-88580000D01*
X99979000Y-88580000D02*
X99979000Y-78340000D01*
X104620000Y-88580000D02*
X104620000Y-78340000D01*
D16*
X116250000Y-109878571D02*
X115392857Y-109878571D01*
X115821428Y-111378571D02*
X115821428Y-109878571D01*
X115035714Y-110378571D02*
X114678571Y-111378571D01*
X114321428Y-110378571D02*
X114678571Y-111378571D01*
X114821428Y-111735714D01*
X114892857Y-111807142D01*
X115035714Y-111878571D01*
X113750000Y-111378571D02*
X113750000Y-110378571D01*
X113750000Y-110664285D02*
X113678571Y-110521428D01*
X113607142Y-110450000D01*
X113464285Y-110378571D01*
X113321428Y-110378571D01*
X112821428Y-111378571D02*
X112821428Y-110378571D01*
X112821428Y-110664285D02*
X112750000Y-110521428D01*
X112678571Y-110450000D01*
X112535714Y-110378571D01*
X112392857Y-110378571D01*
X111321428Y-111307142D02*
X111464285Y-111378571D01*
X111750000Y-111378571D01*
X111892857Y-111307142D01*
X111964285Y-111164285D01*
X111964285Y-110592857D01*
X111892857Y-110450000D01*
X111750000Y-110378571D01*
X111464285Y-110378571D01*
X111321428Y-110450000D01*
X111250000Y-110592857D01*
X111250000Y-110735714D01*
X111964285Y-110878571D01*
X110392857Y-111378571D02*
X110535714Y-111307142D01*
X110607142Y-111164285D01*
X110607142Y-109878571D01*
X109607142Y-111378571D02*
X109750000Y-111307142D01*
X109821428Y-111164285D01*
X109821428Y-109878571D01*
X108035714Y-109878571D02*
X107035714Y-109878571D01*
X108035714Y-111378571D01*
X107035714Y-111378571D01*
X105821428Y-111378571D02*
X105821428Y-110592857D01*
X105892857Y-110450000D01*
X106035714Y-110378571D01*
X106321428Y-110378571D01*
X106464285Y-110450000D01*
X105821428Y-111307142D02*
X105964285Y-111378571D01*
X106321428Y-111378571D01*
X106464285Y-111307142D01*
X106535714Y-111164285D01*
X106535714Y-111021428D01*
X106464285Y-110878571D01*
X106321428Y-110807142D01*
X105964285Y-110807142D01*
X105821428Y-110735714D01*
X105107142Y-111378571D02*
X105107142Y-110378571D01*
X105107142Y-109878571D02*
X105178571Y-109950000D01*
X105107142Y-110021428D01*
X105035714Y-109950000D01*
X105107142Y-109878571D01*
X105107142Y-110021428D01*
X104392857Y-111378571D02*
X104392857Y-109878571D01*
X104392857Y-110450000D02*
X104250000Y-110378571D01*
X103964285Y-110378571D01*
X103821428Y-110450000D01*
X103750000Y-110521428D01*
X103678571Y-110664285D01*
X103678571Y-111092857D01*
X103750000Y-111235714D01*
X103821428Y-111307142D01*
X103964285Y-111378571D01*
X104250000Y-111378571D01*
X104392857Y-111307142D01*
X102392857Y-111378571D02*
X102392857Y-110592857D01*
X102464285Y-110450000D01*
X102607142Y-110378571D01*
X102892857Y-110378571D01*
X103035714Y-110450000D01*
X102392857Y-111307142D02*
X102535714Y-111378571D01*
X102892857Y-111378571D01*
X103035714Y-111307142D01*
X103107142Y-111164285D01*
X103107142Y-111021428D01*
X103035714Y-110878571D01*
X102892857Y-110807142D01*
X102535714Y-110807142D01*
X102392857Y-110735714D01*
X101892857Y-110378571D02*
X101321428Y-110378571D01*
X101678571Y-109878571D02*
X101678571Y-111164285D01*
X101607142Y-111307142D01*
X101464285Y-111378571D01*
X101321428Y-111378571D01*
X100892857Y-111307142D02*
X100750000Y-111378571D01*
X100464285Y-111378571D01*
X100321428Y-111307142D01*
X100250000Y-111164285D01*
X100250000Y-111092857D01*
X100321428Y-110950000D01*
X100464285Y-110878571D01*
X100678571Y-110878571D01*
X100821428Y-110807142D01*
X100892857Y-110664285D01*
X100892857Y-110592857D01*
X100821428Y-110450000D01*
X100678571Y-110378571D01*
X100464285Y-110378571D01*
X100321428Y-110450000D01*
X98964285Y-110378571D02*
X98964285Y-111378571D01*
X99607142Y-110378571D02*
X99607142Y-111164285D01*
X99535714Y-111307142D01*
X99392857Y-111378571D01*
X99178571Y-111378571D01*
X99035714Y-111307142D01*
X98964285Y-111235714D01*
D11*
X65261904Y-85452380D02*
X64690476Y-85452380D01*
X64976190Y-86452380D02*
X64976190Y-85452380D01*
X63785714Y-86452380D02*
X64119047Y-85976190D01*
X64357142Y-86452380D02*
X64357142Y-85452380D01*
X63976190Y-85452380D01*
X63880952Y-85500000D01*
X63833333Y-85547619D01*
X63785714Y-85642857D01*
X63785714Y-85785714D01*
X63833333Y-85880952D01*
X63880952Y-85928571D01*
X63976190Y-85976190D01*
X64357142Y-85976190D01*
X62833333Y-86452380D02*
X63404761Y-86452380D01*
X63119047Y-86452380D02*
X63119047Y-85452380D01*
X63214285Y-85595238D01*
X63309523Y-85690476D01*
X63404761Y-85738095D01*
X90214285Y-47202380D02*
X90214285Y-46202380D01*
X89833333Y-46202380D01*
X89738095Y-46250000D01*
X89690476Y-46297619D01*
X89642857Y-46392857D01*
X89642857Y-46535714D01*
X89690476Y-46630952D01*
X89738095Y-46678571D01*
X89833333Y-46726190D01*
X90214285Y-46726190D01*
X89261904Y-47154761D02*
X89119047Y-47202380D01*
X88880952Y-47202380D01*
X88785714Y-47154761D01*
X88738095Y-47107142D01*
X88690476Y-47011904D01*
X88690476Y-46916666D01*
X88738095Y-46821428D01*
X88785714Y-46773809D01*
X88880952Y-46726190D01*
X89071428Y-46678571D01*
X89166666Y-46630952D01*
X89214285Y-46583333D01*
X89261904Y-46488095D01*
X89261904Y-46392857D01*
X89214285Y-46297619D01*
X89166666Y-46250000D01*
X89071428Y-46202380D01*
X88833333Y-46202380D01*
X88690476Y-46250000D01*
X87738095Y-47202380D02*
X88309523Y-47202380D01*
X88023809Y-47202380D02*
X88023809Y-46202380D01*
X88119047Y-46345238D01*
X88214285Y-46440476D01*
X88309523Y-46488095D01*
D17*
X97571428Y-50904761D02*
X97571428Y-48904761D01*
X97571428Y-49857142D02*
X96428571Y-49857142D01*
X96428571Y-50904761D02*
X96428571Y-48904761D01*
X94523809Y-50904761D02*
X95476190Y-50904761D01*
X95476190Y-48904761D01*
X93857142Y-50904761D02*
X93857142Y-48904761D01*
X92714285Y-50904761D02*
X93571428Y-49761904D01*
X92714285Y-48904761D02*
X93857142Y-50047619D01*
X91857142Y-50142857D02*
X90333333Y-50142857D01*
X88333333Y-50904761D02*
X89476190Y-50904761D01*
X88904761Y-50904761D02*
X88904761Y-48904761D01*
X89095238Y-49190476D01*
X89285714Y-49380952D01*
X89476190Y-49476190D01*
X87095238Y-48904761D02*
X86904761Y-48904761D01*
X86714285Y-49000000D01*
X86619047Y-49095238D01*
X86523809Y-49285714D01*
X86428571Y-49666666D01*
X86428571Y-50142857D01*
X86523809Y-50523809D01*
X86619047Y-50714285D01*
X86714285Y-50809523D01*
X86904761Y-50904761D01*
X87095238Y-50904761D01*
X87285714Y-50809523D01*
X87380952Y-50714285D01*
X87476190Y-50523809D01*
X87571428Y-50142857D01*
X87571428Y-49666666D01*
X87476190Y-49285714D01*
X87380952Y-49095238D01*
X87285714Y-49000000D01*
X87095238Y-48904761D01*
X85571428Y-50904761D02*
X85571428Y-48904761D01*
X84904761Y-50333333D01*
X84238095Y-48904761D01*
X84238095Y-50904761D01*
X82238095Y-50904761D02*
X83380952Y-50904761D01*
X82809523Y-50904761D02*
X82809523Y-48904761D01*
X83000000Y-49190476D01*
X83190476Y-49380952D01*
X83380952Y-49476190D01*
X81476190Y-49095238D02*
X81380952Y-49000000D01*
X81190476Y-48904761D01*
X80714285Y-48904761D01*
X80523809Y-49000000D01*
X80428571Y-49095238D01*
X80333333Y-49285714D01*
X80333333Y-49476190D01*
X80428571Y-49761904D01*
X81571428Y-50904761D01*
X80333333Y-50904761D01*
D11*
X68238095Y-50166666D02*
X67761904Y-50166666D01*
X68333333Y-50452380D02*
X68000000Y-49452380D01*
X67666666Y-50452380D01*
X66761904Y-50357142D02*
X66809523Y-50404761D01*
X66952380Y-50452380D01*
X67047619Y-50452380D01*
X67190476Y-50404761D01*
X67285714Y-50309523D01*
X67333333Y-50214285D01*
X67380952Y-50023809D01*
X67380952Y-49880952D01*
X67333333Y-49690476D01*
X67285714Y-49595238D01*
X67190476Y-49500000D01*
X67047619Y-49452380D01*
X66952380Y-49452380D01*
X66809523Y-49500000D01*
X66761904Y-49547619D01*
X108576190Y-60752380D02*
X108242857Y-61752380D01*
X107909523Y-60752380D01*
X107385714Y-60752380D02*
X107195238Y-60752380D01*
X107100000Y-60800000D01*
X107004761Y-60895238D01*
X106957142Y-61085714D01*
X106957142Y-61419047D01*
X107004761Y-61609523D01*
X107100000Y-61704761D01*
X107195238Y-61752380D01*
X107385714Y-61752380D01*
X107480952Y-61704761D01*
X107576190Y-61609523D01*
X107623809Y-61419047D01*
X107623809Y-61085714D01*
X107576190Y-60895238D01*
X107480952Y-60800000D01*
X107385714Y-60752380D01*
X106528571Y-61371428D02*
X105766666Y-61371428D01*
X108476190Y-38052380D02*
X108142857Y-39052380D01*
X107809523Y-38052380D01*
X107285714Y-38052380D02*
X107095238Y-38052380D01*
X107000000Y-38100000D01*
X106904761Y-38195238D01*
X106857142Y-38385714D01*
X106857142Y-38719047D01*
X106904761Y-38909523D01*
X107000000Y-39004761D01*
X107095238Y-39052380D01*
X107285714Y-39052380D01*
X107380952Y-39004761D01*
X107476190Y-38909523D01*
X107523809Y-38719047D01*
X107523809Y-38385714D01*
X107476190Y-38195238D01*
X107380952Y-38100000D01*
X107285714Y-38052380D01*
X106428571Y-38671428D02*
X105666666Y-38671428D01*
X106047619Y-39052380D02*
X106047619Y-38290476D01*
X28678571Y-92666666D02*
X28678571Y-92333333D01*
X29202380Y-92333333D02*
X28202380Y-92333333D01*
X28202380Y-92809523D01*
X29202380Y-93714285D02*
X29202380Y-93142857D01*
X29202380Y-93428571D02*
X28202380Y-93428571D01*
X28345238Y-93333333D01*
X28440476Y-93238095D01*
X28488095Y-93142857D01*
X28678571Y-65666666D02*
X28678571Y-65333333D01*
X29202380Y-65333333D02*
X28202380Y-65333333D01*
X28202380Y-65809523D01*
X28297619Y-66142857D02*
X28250000Y-66190476D01*
X28202380Y-66285714D01*
X28202380Y-66523809D01*
X28250000Y-66619047D01*
X28297619Y-66666666D01*
X28392857Y-66714285D01*
X28488095Y-66714285D01*
X28630952Y-66666666D01*
X29202380Y-66095238D01*
X29202380Y-66714285D01*
X59357142Y-66857142D02*
X59404761Y-66809523D01*
X59452380Y-66666666D01*
X59452380Y-66571428D01*
X59404761Y-66428571D01*
X59309523Y-66333333D01*
X59214285Y-66285714D01*
X59023809Y-66238095D01*
X58880952Y-66238095D01*
X58690476Y-66285714D01*
X58595238Y-66333333D01*
X58500000Y-66428571D01*
X58452380Y-66571428D01*
X58452380Y-66666666D01*
X58500000Y-66809523D01*
X58547619Y-66857142D01*
X59452380Y-67809523D02*
X59452380Y-67238095D01*
X59452380Y-67523809D02*
X58452380Y-67523809D01*
X58595238Y-67428571D01*
X58690476Y-67333333D01*
X58738095Y-67238095D01*
X58452380Y-68666666D02*
X58452380Y-68476190D01*
X58500000Y-68380952D01*
X58547619Y-68333333D01*
X58690476Y-68238095D01*
X58880952Y-68190476D01*
X59261904Y-68190476D01*
X59357142Y-68238095D01*
X59404761Y-68285714D01*
X59452380Y-68380952D01*
X59452380Y-68571428D01*
X59404761Y-68666666D01*
X59357142Y-68714285D01*
X59261904Y-68761904D01*
X59023809Y-68761904D01*
X58928571Y-68714285D01*
X58880952Y-68666666D01*
X58833333Y-68571428D01*
X58833333Y-68380952D01*
X58880952Y-68285714D01*
X58928571Y-68238095D01*
X59023809Y-68190476D01*
X52357142Y-67333333D02*
X52404761Y-67285714D01*
X52452380Y-67142857D01*
X52452380Y-67047619D01*
X52404761Y-66904761D01*
X52309523Y-66809523D01*
X52214285Y-66761904D01*
X52023809Y-66714285D01*
X51880952Y-66714285D01*
X51690476Y-66761904D01*
X51595238Y-66809523D01*
X51500000Y-66904761D01*
X51452380Y-67047619D01*
X51452380Y-67142857D01*
X51500000Y-67285714D01*
X51547619Y-67333333D01*
X52452380Y-67809523D02*
X52452380Y-68000000D01*
X52404761Y-68095238D01*
X52357142Y-68142857D01*
X52214285Y-68238095D01*
X52023809Y-68285714D01*
X51642857Y-68285714D01*
X51547619Y-68238095D01*
X51500000Y-68190476D01*
X51452380Y-68095238D01*
X51452380Y-67904761D01*
X51500000Y-67809523D01*
X51547619Y-67761904D01*
X51642857Y-67714285D01*
X51880952Y-67714285D01*
X51976190Y-67761904D01*
X52023809Y-67809523D01*
X52071428Y-67904761D01*
X52071428Y-68095238D01*
X52023809Y-68190476D01*
X51976190Y-68238095D01*
X51880952Y-68285714D01*
X111166666Y-74357142D02*
X111214285Y-74404761D01*
X111357142Y-74452380D01*
X111452380Y-74452380D01*
X111595238Y-74404761D01*
X111690476Y-74309523D01*
X111738095Y-74214285D01*
X111785714Y-74023809D01*
X111785714Y-73880952D01*
X111738095Y-73690476D01*
X111690476Y-73595238D01*
X111595238Y-73500000D01*
X111452380Y-73452380D01*
X111357142Y-73452380D01*
X111214285Y-73500000D01*
X111166666Y-73547619D01*
X110833333Y-73452380D02*
X110166666Y-73452380D01*
X110595238Y-74452380D01*
X111642857Y-82357142D02*
X111690476Y-82404761D01*
X111833333Y-82452380D01*
X111928571Y-82452380D01*
X112071428Y-82404761D01*
X112166666Y-82309523D01*
X112214285Y-82214285D01*
X112261904Y-82023809D01*
X112261904Y-81880952D01*
X112214285Y-81690476D01*
X112166666Y-81595238D01*
X112071428Y-81500000D01*
X111928571Y-81452380D01*
X111833333Y-81452380D01*
X111690476Y-81500000D01*
X111642857Y-81547619D01*
X110690476Y-82452380D02*
X111261904Y-82452380D01*
X110976190Y-82452380D02*
X110976190Y-81452380D01*
X111071428Y-81595238D01*
X111166666Y-81690476D01*
X111261904Y-81738095D01*
X109785714Y-81452380D02*
X110261904Y-81452380D01*
X110309523Y-81928571D01*
X110261904Y-81880952D01*
X110166666Y-81833333D01*
X109928571Y-81833333D01*
X109833333Y-81880952D01*
X109785714Y-81928571D01*
X109738095Y-82023809D01*
X109738095Y-82261904D01*
X109785714Y-82357142D01*
X109833333Y-82404761D01*
X109928571Y-82452380D01*
X110166666Y-82452380D01*
X110261904Y-82404761D01*
X110309523Y-82357142D01*
X57452380Y-45761904D02*
X56452380Y-45761904D01*
X57452380Y-46333333D02*
X56880952Y-45904761D01*
X56452380Y-46333333D02*
X57023809Y-45761904D01*
X57452380Y-47285714D02*
X57452380Y-46714285D01*
X57452380Y-47000000D02*
X56452380Y-47000000D01*
X56595238Y-46904761D01*
X56690476Y-46809523D01*
X56738095Y-46714285D01*
D17*
X49654761Y-43976190D02*
X49654761Y-45119047D01*
X51654761Y-44547619D02*
X49654761Y-44547619D01*
X51654761Y-45880952D02*
X51654761Y-46261904D01*
X51559523Y-46452380D01*
X51464285Y-46547619D01*
X51178571Y-46738095D01*
X50797619Y-46833333D01*
X50035714Y-46833333D01*
X49845238Y-46738095D01*
X49750000Y-46642857D01*
X49654761Y-46452380D01*
X49654761Y-46071428D01*
X49750000Y-45880952D01*
X49845238Y-45785714D01*
X50035714Y-45690476D01*
X50511904Y-45690476D01*
X50702380Y-45785714D01*
X50797619Y-45880952D01*
X50892857Y-46071428D01*
X50892857Y-46452380D01*
X50797619Y-46642857D01*
X50702380Y-46738095D01*
X50511904Y-46833333D01*
X49750000Y-48738095D02*
X49654761Y-48547619D01*
X49654761Y-48261904D01*
X49750000Y-47976190D01*
X49940476Y-47785714D01*
X50130952Y-47690476D01*
X50511904Y-47595238D01*
X50797619Y-47595238D01*
X51178571Y-47690476D01*
X51369047Y-47785714D01*
X51559523Y-47976190D01*
X51654761Y-48261904D01*
X51654761Y-48452380D01*
X51559523Y-48738095D01*
X51464285Y-48833333D01*
X50797619Y-48833333D01*
X50797619Y-48452380D01*
D11*
X45702380Y-67654761D02*
X45226190Y-67321428D01*
X45702380Y-67083333D02*
X44702380Y-67083333D01*
X44702380Y-67464285D01*
X44750000Y-67559523D01*
X44797619Y-67607142D01*
X44892857Y-67654761D01*
X45035714Y-67654761D01*
X45130952Y-67607142D01*
X45178571Y-67559523D01*
X45226190Y-67464285D01*
X45226190Y-67083333D01*
X44702380Y-67940476D02*
X45702380Y-68273809D01*
X44702380Y-68607142D01*
X44797619Y-68892857D02*
X44750000Y-68940476D01*
X44702380Y-69035714D01*
X44702380Y-69273809D01*
X44750000Y-69369047D01*
X44797619Y-69416666D01*
X44892857Y-69464285D01*
X44988095Y-69464285D01*
X45130952Y-69416666D01*
X45702380Y-68845238D01*
X45702380Y-69464285D01*
X39452380Y-67654761D02*
X38976190Y-67321428D01*
X39452380Y-67083333D02*
X38452380Y-67083333D01*
X38452380Y-67464285D01*
X38500000Y-67559523D01*
X38547619Y-67607142D01*
X38642857Y-67654761D01*
X38785714Y-67654761D01*
X38880952Y-67607142D01*
X38928571Y-67559523D01*
X38976190Y-67464285D01*
X38976190Y-67083333D01*
X38452380Y-67940476D02*
X39452380Y-68273809D01*
X38452380Y-68607142D01*
X39452380Y-69464285D02*
X39452380Y-68892857D01*
X39452380Y-69178571D02*
X38452380Y-69178571D01*
X38595238Y-69083333D01*
X38690476Y-68988095D01*
X38738095Y-68892857D01*
X103452380Y-67988095D02*
X104261904Y-67988095D01*
X104357142Y-68035714D01*
X104404761Y-68083333D01*
X104452380Y-68178571D01*
X104452380Y-68369047D01*
X104404761Y-68464285D01*
X104357142Y-68511904D01*
X104261904Y-68559523D01*
X103452380Y-68559523D01*
X103785714Y-69464285D02*
X104452380Y-69464285D01*
X103404761Y-69226190D02*
X104119047Y-68988095D01*
X104119047Y-69607142D01*
X103452380Y-86488095D02*
X104261904Y-86488095D01*
X104357142Y-86535714D01*
X104404761Y-86583333D01*
X104452380Y-86678571D01*
X104452380Y-86869047D01*
X104404761Y-86964285D01*
X104357142Y-87011904D01*
X104261904Y-87059523D01*
X103452380Y-87059523D01*
X103452380Y-88011904D02*
X103452380Y-87535714D01*
X103928571Y-87488095D01*
X103880952Y-87535714D01*
X103833333Y-87630952D01*
X103833333Y-87869047D01*
X103880952Y-87964285D01*
X103928571Y-88011904D01*
X104023809Y-88059523D01*
X104261904Y-88059523D01*
X104357142Y-88011904D01*
X104404761Y-87964285D01*
X104452380Y-87869047D01*
X104452380Y-87630952D01*
X104404761Y-87535714D01*
X104357142Y-87488095D01*
M02*
