M48
; DRILL file {KiCad 5.1.5+dfsg1-2build2} date Tue 26 Oct 2021 11:54:11 PM ACDT
; FORMAT={-:-/ absolute / metric / decimal}
; #@! TF.CreationDate,2021-10-26T23:54:11+10:30
; #@! TF.GenerationSoftware,Kicad,Pcbnew,5.1.5+dfsg1-2build2
FMAT,2
METRIC
T1C0.400
T2C0.800
T3C1.000
T4C1.100
T5C1.200
T6C1.300
T7C1.350
T8C2.100
T9C3.000
T10C3.200
%
G90
G05
T1
X26.0Y-93.0
X26.0Y-93.0
X49.5Y-101.0
X52.0Y-67.0
X54.0Y-67.0
X54.0Y-119.5
X56.0Y-67.0
X56.0Y-96.5
X57.5Y-96.5
X59.5Y-106.0
X59.5Y-107.5
X59.5Y-109.0
X59.5Y-110.5
X61.5Y-96.5
X63.0Y-96.5
X64.0Y-119.5
X70.0Y-34.0
X73.5Y-96.25
X74.0Y-26.0
X74.0Y-119.5
X75.0Y-121.5
X78.5Y-35.0
X81.75Y-121.25
X86.5Y-55.0
X90.0Y-39.0
X90.25Y-109.75
X92.5Y-55.0
X94.0Y-39.0
X94.5Y-105.5
X94.5Y-114.5
X95.5Y-73.0
X95.5Y-86.5
X96.25Y-33.0
X96.5Y-58.25
X98.75Y-109.75
X100.0Y-102.5
X100.0Y-105.0
X101.0Y-47.0
X101.5Y-53.0
X104.5Y-68.0
X105.0Y-47.0
X105.5Y-87.5
X109.0Y-57.5
X110.25Y-109.75
X111.614Y-28.0
X111.75Y-41.0
X112.0Y-67.0
X112.0Y-89.0
X114.5Y-38.75
X114.5Y-105.0
X114.5Y-114.75
X116.948Y-66.91
X118.75Y-109.75
X119.742Y-66.91
X120.75Y-88.5
X121.266Y-70.466
T2
X80.38Y-28.0
X80.38Y-30.54
X88.0Y-28.0
X88.0Y-30.54
X111.0Y-79.5
X111.0Y-84.5
X114.281Y-56.75
X114.281Y-59.29
X121.901Y-56.75
X121.901Y-59.29
X44.35Y-64.5
X45.75Y-72.0
X111.0Y-71.5
X111.0Y-76.5
X38.1Y-64.5
X39.5Y-72.0
X114.281Y-62.465
X114.281Y-65.005
X121.901Y-62.465
X121.901Y-65.005
T3
X102.0Y-69.92
X102.0Y-72.46
X102.0Y-75.0
X102.0Y-80.92
X102.0Y-83.46
X102.0Y-86.0
T4
X59.44Y-41.42
X59.44Y-51.58
X67.7Y-46.1
X67.7Y-53.9
X110.2Y-38.6
X110.2Y-61.4
T5
X52.0Y-60.5
X52.0Y-75.5
X48.999Y-85.999
X48.999Y-116.001
X54.0Y-116.001
X58.999Y-85.999
X58.999Y-116.001
X69.001Y-85.999
X69.001Y-116.001
X74.0Y-116.001
X79.001Y-85.999
X79.001Y-116.001
X59.0Y-60.5
X59.0Y-75.5
T6
X104.16Y-30.0
X109.16Y-30.0
X103.5Y-120.0
X108.5Y-120.0
X113.5Y-120.0
X94.0Y-30.0
X99.0Y-30.0
X30.0Y-37.0
X30.0Y-42.0
X30.0Y-47.0
X119.996Y-47.432
X119.996Y-52.432
X61.0Y-30.0
X66.0Y-30.0
X119.996Y-37.272
X119.996Y-42.272
X38.5Y-30.0
X43.5Y-30.0
X48.5Y-30.0
X120.0Y-73.0
X120.0Y-78.0
X120.0Y-83.0
T7
X30.0Y-82.0
X30.0Y-88.0
X30.0Y-98.0
X30.0Y-104.0
X30.0Y-55.0
X30.0Y-61.0
X30.0Y-71.0
X30.0Y-77.0
T8
X36.6Y-55.4
X44.2Y-55.4
X46.74Y-37.6
T9
X41.5Y-83.0
X41.5Y-119.0
X86.5Y-83.0
X86.5Y-119.0
T10
X120.0Y-30.0
X120.0Y-120.0
X30.0Y-120.0
X30.0Y-30.0
T0
M30
