G04 #@! TF.GenerationSoftware,KiCad,Pcbnew,5.1.5+dfsg1-2build2*
G04 #@! TF.CreationDate,2021-10-15T23:20:49+10:30*
G04 #@! TF.ProjectId,xover-psu,786f7665-722d-4707-9375-2e6b69636164,rev?*
G04 #@! TF.SameCoordinates,Original*
G04 #@! TF.FileFunction,Copper,L2,Bot*
G04 #@! TF.FilePolarity,Positive*
%FSLAX46Y46*%
G04 Gerber Fmt 4.6, Leading zero omitted, Abs format (unit mm)*
G04 Created by KiCad (PCBNEW 5.1.5+dfsg1-2build2) date 2021-10-15 23:20:49*
%MOMM*%
%LPD*%
G04 APERTURE LIST*
%ADD10C,1.500000*%
%ADD11C,6.000000*%
%ADD12C,2.999740*%
%ADD13C,5.600000*%
%ADD14C,2.350000*%
%ADD15C,2.500000*%
%ADD16R,2.500000X2.500000*%
%ADD17C,2.400000*%
%ADD18C,1.600000*%
%ADD19R,1.600000X1.600000*%
%ADD20C,4.000000*%
%ADD21O,2.400000X2.400000*%
%ADD22C,1.800000*%
%ADD23O,1.600000X1.600000*%
%ADD24R,1.800000X1.800000*%
%ADD25O,1.800000X1.800000*%
%ADD26C,0.800000*%
%ADD27C,1.000000*%
%ADD28C,2.000000*%
%ADD29C,0.250000*%
%ADD30C,2.500000*%
%ADD31C,3.000000*%
%ADD32C,0.254000*%
G04 APERTURE END LIST*
D10*
X30000000Y-124000000D02*
G75*
G02X26000000Y-120000000I0J4000000D01*
G01*
X124000000Y-120000000D02*
G75*
G02X120000000Y-124000000I-4000000J0D01*
G01*
X120000000Y-26000000D02*
G75*
G02X124000000Y-30000000I0J-4000000D01*
G01*
X26000000Y-30000000D02*
G75*
G02X30000000Y-26000000I4000000J0D01*
G01*
D11*
X41500000Y-119000000D03*
X41500000Y-83000000D03*
X86500000Y-83000000D03*
X86500000Y-119000000D03*
D12*
X79001240Y-116001240D03*
X73999980Y-116001240D03*
X69001260Y-116001240D03*
X58998740Y-116001240D03*
X54000020Y-116001240D03*
X48998760Y-116001240D03*
X48998760Y-85998760D03*
X58998740Y-85998760D03*
X69001260Y-85998760D03*
X79001240Y-85998760D03*
D13*
X120000000Y-120000000D03*
X120000000Y-30000000D03*
D14*
X30000000Y-98000000D03*
X30000000Y-104000000D03*
X30000000Y-88000000D03*
X30000000Y-82000000D03*
X30000000Y-71000000D03*
X30000000Y-77000000D03*
X30000000Y-61000000D03*
X30000000Y-55000000D03*
D13*
X30000000Y-120000000D03*
X30000000Y-30000000D03*
D15*
X30000000Y-42000000D03*
D16*
X30000000Y-37000000D03*
D15*
X30000000Y-47000000D03*
X43500000Y-30000000D03*
D16*
X48500000Y-30000000D03*
D15*
X38500000Y-30000000D03*
X94000000Y-30000000D03*
D16*
X99000000Y-30000000D03*
D17*
X56500000Y-75000000D03*
X56500000Y-60000000D03*
X49000000Y-60000000D03*
X49000000Y-75000000D03*
D18*
X111000000Y-76500000D03*
D19*
X111000000Y-71500000D03*
X111000000Y-79500000D03*
D18*
X111000000Y-84500000D03*
D16*
X66000000Y-30000000D03*
D15*
X61000000Y-30000000D03*
X113500000Y-120000000D03*
D16*
X103500000Y-120000000D03*
D15*
X108500000Y-120000000D03*
D16*
X109160000Y-30000000D03*
D15*
X104160000Y-30000000D03*
X120000000Y-39000000D03*
D16*
X120000000Y-44000000D03*
D15*
X120000000Y-78000000D03*
D16*
X120000000Y-83000000D03*
D15*
X120000000Y-73000000D03*
D20*
X36600000Y-55400000D03*
X44200000Y-55400000D03*
X46740000Y-37600000D03*
D15*
X59440000Y-51580000D03*
X59440000Y-41420000D03*
X67700000Y-46100000D03*
X67700000Y-53900000D03*
X110200000Y-61400000D03*
X110200000Y-38600000D03*
D21*
X102000000Y-101080000D03*
D17*
X102000000Y-96000000D03*
X102000000Y-110080000D03*
D21*
X102000000Y-105000000D03*
D22*
X39000000Y-72000000D03*
X37600000Y-64500000D03*
X42600000Y-64500000D03*
X44000000Y-72000000D03*
D19*
X88000000Y-28000000D03*
D23*
X80380000Y-30540000D03*
X88000000Y-30540000D03*
X80380000Y-28000000D03*
D24*
X102000000Y-75000000D03*
D25*
X102000000Y-72460000D03*
X102000000Y-69920000D03*
X102000000Y-80920000D03*
X102000000Y-83460000D03*
D24*
X102000000Y-86000000D03*
D23*
X114380000Y-55000000D03*
X122000000Y-57540000D03*
X114380000Y-57540000D03*
D19*
X122000000Y-55000000D03*
D26*
X105000000Y-47000000D03*
X101000000Y-47000000D03*
X119500000Y-53000000D03*
X78500002Y-35000000D03*
X115000000Y-28000000D03*
X85500000Y-109500000D03*
X93500000Y-109500000D03*
X110500000Y-109500000D03*
X118500000Y-109500000D03*
X104500000Y-68000000D03*
X112000000Y-67000000D03*
X121500000Y-67500000D03*
X121500000Y-88500000D03*
X112000000Y-89000000D03*
X105500000Y-86500000D03*
X95500000Y-86500000D03*
X95500000Y-73000000D03*
X89000000Y-47000000D03*
X59500000Y-106000000D03*
X61500000Y-96500000D03*
X57500000Y-96500000D03*
X63000000Y-96500000D03*
X93000000Y-53000000D03*
X87000000Y-52500000D03*
X80500000Y-52000000D03*
X102000000Y-56500000D03*
X59500000Y-109000000D03*
X84000008Y-109500000D03*
X95000000Y-109500000D03*
X109000000Y-109500000D03*
X120000000Y-109500000D03*
X56000000Y-96500000D03*
X59500000Y-110500000D03*
X59500000Y-107500000D03*
X106000000Y-54750000D03*
X54000000Y-119500000D03*
X64000000Y-119500000D03*
X91500000Y-87999996D03*
X84500000Y-114500000D03*
X96000000Y-105500000D03*
X74999998Y-121500000D03*
X75000000Y-63000000D03*
X65500000Y-63000000D03*
X89000000Y-58225000D03*
X89000000Y-56500000D03*
X105750000Y-58250000D03*
X103250000Y-58250000D03*
X81500000Y-118000000D03*
X74000012Y-119500000D03*
X26000000Y-93000000D03*
X26000000Y-93000000D03*
X74000000Y-26000000D03*
X70000000Y-34000000D03*
D27*
X30000000Y-77500000D02*
X30000000Y-71500000D01*
X78500000Y-35000000D02*
X78500000Y-35000000D01*
X102000000Y-36000000D02*
X101000000Y-35000000D01*
X101000000Y-35000000D02*
X79065687Y-35000000D01*
X79065687Y-35000000D02*
X78500002Y-35000000D01*
D28*
X60000000Y-111500000D02*
X60000000Y-111000000D01*
X68000000Y-119500000D02*
X60000000Y-111500000D01*
X70501220Y-119500000D02*
X68000000Y-119500000D01*
X73999980Y-116001240D02*
X70501220Y-119500000D01*
X55500000Y-112500000D02*
X52500000Y-112500000D01*
X52500000Y-112500000D02*
X48998760Y-116001240D01*
X57498871Y-114498871D02*
X55500000Y-112500000D01*
X57498871Y-114501371D02*
X57498871Y-114498871D01*
X58998740Y-116001240D02*
X57498871Y-114501371D01*
D27*
X54000000Y-119500000D02*
X64000000Y-119500000D01*
X80501109Y-114501371D02*
X80998629Y-114501371D01*
X79001240Y-116001240D02*
X80501109Y-114501371D01*
X81000000Y-114500000D02*
X84500000Y-114500000D01*
X80998629Y-114501371D02*
X81000000Y-114500000D01*
D28*
X75500000Y-112500000D02*
X79001240Y-116001240D01*
X72502500Y-112500000D02*
X75500000Y-112500000D01*
X69001260Y-116001240D02*
X72502500Y-112500000D01*
D27*
X96000000Y-92499996D02*
X96000000Y-105500000D01*
X91500000Y-87999996D02*
X96000000Y-92499996D01*
X71450001Y-49850001D02*
X71450001Y-59450001D01*
X67700000Y-46100000D02*
X71450001Y-49850001D01*
X71450001Y-59450001D02*
X75000000Y-63000000D01*
X67700000Y-60800000D02*
X67700000Y-53900000D01*
X65500000Y-63000000D02*
X67700000Y-60800000D01*
D29*
X89000000Y-58225000D02*
X89000000Y-56500000D01*
X105750000Y-58250000D02*
X103250000Y-58250000D01*
D27*
X58998740Y-85998760D02*
X58998760Y-85998760D01*
X80000000Y-119500000D02*
X74000012Y-119500000D01*
X81500000Y-118000000D02*
X80000000Y-119500000D01*
D30*
X43500000Y-30500000D02*
X43500000Y-31010421D01*
D31*
X33250000Y-42000000D02*
X43500000Y-31750000D01*
X43500000Y-31750000D02*
X43500000Y-30250010D01*
X30500000Y-42000000D02*
X33250000Y-42000000D01*
D27*
X30000000Y-26040203D02*
X30000000Y-26000000D01*
D10*
X30000000Y-30000000D02*
X30000000Y-26040203D01*
X38500000Y-26000000D02*
X30000000Y-26000000D01*
D27*
X26040203Y-30000000D02*
X26000000Y-30040203D01*
X26000000Y-30040203D02*
X26000000Y-30500000D01*
D10*
X30000000Y-30000000D02*
X26040203Y-30000000D01*
D27*
X26040203Y-120000000D02*
X26000000Y-120000000D01*
X30000000Y-123959797D02*
X30000000Y-124000000D01*
D10*
X30000000Y-124000000D02*
X41500000Y-124000000D01*
X41500000Y-124000000D02*
X86500000Y-124000000D01*
D27*
X120000000Y-123959797D02*
X120000000Y-124000000D01*
D10*
X86500000Y-124000000D02*
X120000000Y-124000000D01*
D27*
X123959797Y-120000000D02*
X124000000Y-120000000D01*
D10*
X26000000Y-92500000D02*
X26000000Y-93000000D01*
X26000000Y-49500000D02*
X26000000Y-92500000D01*
X26000000Y-47000000D02*
X26000000Y-49500000D01*
X26000000Y-30500000D02*
X26000000Y-47000000D01*
X72500000Y-26000000D02*
X38500000Y-26000000D01*
D28*
X83500001Y-80000001D02*
X86500000Y-83000000D01*
X44499999Y-80000001D02*
X83500001Y-80000001D01*
X41500000Y-83000000D02*
X44499999Y-80000001D01*
D10*
X92500000Y-26000000D02*
X120000000Y-26000000D01*
X124000000Y-61500000D02*
X124000000Y-120000000D01*
D27*
X26500000Y-93000000D02*
X26000000Y-92500000D01*
D28*
X31500000Y-93000000D02*
X26500000Y-93000000D01*
X41500000Y-83000000D02*
X31500000Y-93000000D01*
D30*
X30000000Y-47000000D02*
X27000000Y-47000000D01*
D10*
X120000000Y-30000000D02*
X120000000Y-26500000D01*
X120000000Y-120000000D02*
X123500000Y-120000000D01*
X120000000Y-120000000D02*
X120000000Y-123500000D01*
D28*
X86500000Y-119000000D02*
X86500000Y-123500000D01*
D10*
X41500000Y-119000000D02*
X41500000Y-123500000D01*
X30000000Y-120000000D02*
X30000000Y-123500000D01*
X30000000Y-120000000D02*
X26500000Y-120000000D01*
D30*
X38500000Y-30000000D02*
X38500000Y-27000000D01*
D10*
X123959797Y-30000000D02*
X123989990Y-29969807D01*
X120000000Y-30000000D02*
X123959797Y-30000000D01*
X123989990Y-46489990D02*
X123989990Y-61500000D01*
X123959797Y-46459797D02*
X123989990Y-46489990D01*
X123959797Y-30000000D02*
X123959797Y-46459797D01*
X72500000Y-26000000D02*
X74000000Y-26000000D01*
X78000000Y-26000000D02*
X92500000Y-26000000D01*
X26000000Y-93000000D02*
X26000000Y-93000000D01*
X26000000Y-93000000D02*
X26000000Y-120000000D01*
X74000000Y-26000000D02*
X78000000Y-26000000D01*
D27*
X30000000Y-61500000D02*
X30000000Y-55500000D01*
X46738300Y-36600000D02*
X46740000Y-36600000D01*
D31*
X48500000Y-35840000D02*
X48500000Y-30500000D01*
X46740000Y-37600000D02*
X48500000Y-35840000D01*
D27*
X46740000Y-38260000D02*
X46740000Y-37600000D01*
X30000000Y-55000000D02*
X46740000Y-38260000D01*
X30000000Y-98000000D02*
X30000000Y-104000000D01*
X30000000Y-88000000D02*
X30000000Y-82000000D01*
X39350000Y-60250000D02*
X44200000Y-55400000D01*
X35817998Y-60250000D02*
X39350000Y-60250000D01*
X34000000Y-62067998D02*
X35817998Y-60250000D01*
X30439002Y-82000000D02*
X34000000Y-78439002D01*
X34000000Y-78439002D02*
X34000000Y-62067998D01*
X30000000Y-82000000D02*
X30439002Y-82000000D01*
X65000000Y-34000000D02*
X70000000Y-34000000D01*
X61000000Y-30000000D02*
X65000000Y-34000000D01*
X79248630Y-28000000D02*
X80380000Y-28000000D01*
X74400000Y-28000000D02*
X79248630Y-28000000D01*
X70000000Y-32400000D02*
X74400000Y-28000000D01*
X70000000Y-34000000D02*
X70000000Y-32400000D01*
X101160000Y-33000000D02*
X104160000Y-30000000D01*
X87000000Y-33000000D02*
X101160000Y-33000000D01*
X82000000Y-28000000D02*
X87000000Y-33000000D01*
X80380000Y-28000000D02*
X82000000Y-28000000D01*
D32*
G36*
X98873000Y-51000000D02*
G01*
X98875440Y-51024776D01*
X98882667Y-51048601D01*
X98894403Y-51070557D01*
X98910197Y-51089803D01*
X98929443Y-51105597D01*
X98951399Y-51117333D01*
X98975224Y-51124560D01*
X99000000Y-51127000D01*
X106873000Y-51127000D01*
X106873000Y-65000000D01*
X106875440Y-65024776D01*
X106882667Y-65048601D01*
X106894403Y-65070557D01*
X106910197Y-65089803D01*
X106929443Y-65105597D01*
X106951399Y-65117333D01*
X106975224Y-65124560D01*
X107000000Y-65127000D01*
X122373000Y-65127000D01*
X122373000Y-117515177D01*
X122189685Y-117331862D01*
X121627082Y-116955943D01*
X121001952Y-116697006D01*
X120338318Y-116565000D01*
X119661682Y-116565000D01*
X118998048Y-116697006D01*
X118372918Y-116955943D01*
X117810315Y-117331862D01*
X117331862Y-117810315D01*
X116955943Y-118372918D01*
X116697006Y-118998048D01*
X116565000Y-119661682D01*
X116565000Y-120338318D01*
X116697006Y-121001952D01*
X116955943Y-121627082D01*
X117120260Y-121873000D01*
X113745984Y-121873000D01*
X114049834Y-121812561D01*
X114392882Y-121670466D01*
X114701618Y-121464175D01*
X114964175Y-121201618D01*
X115170466Y-120892882D01*
X115312561Y-120549834D01*
X115385000Y-120185656D01*
X115385000Y-119814344D01*
X115312561Y-119450166D01*
X115170466Y-119107118D01*
X114964175Y-118798382D01*
X114701618Y-118535825D01*
X114392882Y-118329534D01*
X114049834Y-118187439D01*
X113685656Y-118115000D01*
X113314344Y-118115000D01*
X112950166Y-118187439D01*
X112607118Y-118329534D01*
X112298382Y-118535825D01*
X112035825Y-118798382D01*
X111829534Y-119107118D01*
X111687439Y-119450166D01*
X111615000Y-119814344D01*
X111615000Y-120185656D01*
X111687439Y-120549834D01*
X111829534Y-120892882D01*
X112035825Y-121201618D01*
X112298382Y-121464175D01*
X112607118Y-121670466D01*
X112950166Y-121812561D01*
X113254016Y-121873000D01*
X108713658Y-121873000D01*
X108921075Y-121846725D01*
X109273262Y-121729094D01*
X109508086Y-121603577D01*
X109634000Y-121313605D01*
X108500000Y-120179605D01*
X107366000Y-121313605D01*
X107491914Y-121603577D01*
X107824126Y-121769433D01*
X108182312Y-121867290D01*
X108263348Y-121873000D01*
X104883752Y-121873000D01*
X104994180Y-121839502D01*
X105104494Y-121780537D01*
X105201185Y-121701185D01*
X105280537Y-121604494D01*
X105339502Y-121494180D01*
X105375812Y-121374482D01*
X105388072Y-121250000D01*
X105388072Y-120052706D01*
X106606611Y-120052706D01*
X106653275Y-120421075D01*
X106770906Y-120773262D01*
X106896423Y-121008086D01*
X107186395Y-121134000D01*
X108320395Y-120000000D01*
X108679605Y-120000000D01*
X109813605Y-121134000D01*
X110103577Y-121008086D01*
X110269433Y-120675874D01*
X110367290Y-120317688D01*
X110393389Y-119947294D01*
X110346725Y-119578925D01*
X110229094Y-119226738D01*
X110103577Y-118991914D01*
X109813605Y-118866000D01*
X108679605Y-120000000D01*
X108320395Y-120000000D01*
X107186395Y-118866000D01*
X106896423Y-118991914D01*
X106730567Y-119324126D01*
X106632710Y-119682312D01*
X106606611Y-120052706D01*
X105388072Y-120052706D01*
X105388072Y-118750000D01*
X105381808Y-118686395D01*
X107366000Y-118686395D01*
X108500000Y-119820395D01*
X109634000Y-118686395D01*
X109508086Y-118396423D01*
X109175874Y-118230567D01*
X108817688Y-118132710D01*
X108447294Y-118106611D01*
X108078925Y-118153275D01*
X107726738Y-118270906D01*
X107491914Y-118396423D01*
X107366000Y-118686395D01*
X105381808Y-118686395D01*
X105375812Y-118625518D01*
X105339502Y-118505820D01*
X105280537Y-118395506D01*
X105201185Y-118298815D01*
X105104494Y-118219463D01*
X104994180Y-118160498D01*
X104874482Y-118124188D01*
X104750000Y-118111928D01*
X102250000Y-118111928D01*
X102125518Y-118124188D01*
X102005820Y-118160498D01*
X101895506Y-118219463D01*
X101798815Y-118298815D01*
X101719463Y-118395506D01*
X101660498Y-118505820D01*
X101624188Y-118625518D01*
X101611928Y-118750000D01*
X101611928Y-121250000D01*
X101624188Y-121374482D01*
X101660498Y-121494180D01*
X101719463Y-121604494D01*
X101798815Y-121701185D01*
X101895506Y-121780537D01*
X102005820Y-121839502D01*
X102116248Y-121873000D01*
X90127000Y-121873000D01*
X90127000Y-119398235D01*
X90135000Y-119358016D01*
X90135000Y-118641984D01*
X90127000Y-118601765D01*
X90127000Y-112000000D01*
X90124560Y-111975224D01*
X90117333Y-111951399D01*
X90105597Y-111929443D01*
X90089803Y-111910197D01*
X90070557Y-111894403D01*
X90048601Y-111882667D01*
X90024776Y-111875440D01*
X90000000Y-111873000D01*
X77185238Y-111873000D01*
X76712925Y-111400687D01*
X76661714Y-111338286D01*
X76412752Y-111133969D01*
X76128715Y-110982148D01*
X75820516Y-110888657D01*
X75580322Y-110865000D01*
X75580319Y-110865000D01*
X75500000Y-110857089D01*
X75419681Y-110865000D01*
X72582819Y-110865000D01*
X72502499Y-110857089D01*
X72422180Y-110865000D01*
X72422178Y-110865000D01*
X72181984Y-110888657D01*
X71873785Y-110982148D01*
X71589748Y-111133969D01*
X71340786Y-111338286D01*
X71289580Y-111400681D01*
X70817261Y-111873000D01*
X57185238Y-111873000D01*
X56712925Y-111400687D01*
X56661714Y-111338286D01*
X56412752Y-111133969D01*
X56128715Y-110982148D01*
X55820516Y-110888657D01*
X55580322Y-110865000D01*
X55580319Y-110865000D01*
X55500000Y-110857089D01*
X55419681Y-110865000D01*
X52580319Y-110865000D01*
X52499999Y-110857089D01*
X52419680Y-110865000D01*
X52419678Y-110865000D01*
X52179484Y-110888657D01*
X51871285Y-110982148D01*
X51587248Y-111133969D01*
X51338286Y-111338286D01*
X51287080Y-111400681D01*
X50814761Y-111873000D01*
X44127000Y-111873000D01*
X44127000Y-109899268D01*
X100165000Y-109899268D01*
X100165000Y-110260732D01*
X100235518Y-110615250D01*
X100373844Y-110949199D01*
X100574662Y-111249744D01*
X100830256Y-111505338D01*
X101130801Y-111706156D01*
X101464750Y-111844482D01*
X101819268Y-111915000D01*
X102180732Y-111915000D01*
X102535250Y-111844482D01*
X102869199Y-111706156D01*
X103169744Y-111505338D01*
X103425338Y-111249744D01*
X103626156Y-110949199D01*
X103764482Y-110615250D01*
X103835000Y-110260732D01*
X103835000Y-109899268D01*
X103764482Y-109544750D01*
X103626156Y-109210801D01*
X103425338Y-108910256D01*
X103169744Y-108654662D01*
X102869199Y-108453844D01*
X102535250Y-108315518D01*
X102180732Y-108245000D01*
X101819268Y-108245000D01*
X101464750Y-108315518D01*
X101130801Y-108453844D01*
X100830256Y-108654662D01*
X100574662Y-108910256D01*
X100373844Y-109210801D01*
X100235518Y-109544750D01*
X100165000Y-109899268D01*
X44127000Y-109899268D01*
X44127000Y-92627000D01*
X92500000Y-92627000D01*
X92524776Y-92624560D01*
X92548601Y-92617333D01*
X92570557Y-92605597D01*
X92589803Y-92589803D01*
X92605597Y-92570557D01*
X92617333Y-92548601D01*
X92624560Y-92524776D01*
X92627000Y-92500000D01*
X92627000Y-90732127D01*
X94865000Y-92970128D01*
X94865001Y-105555752D01*
X94881424Y-105722499D01*
X94946325Y-105936447D01*
X95051717Y-106133623D01*
X95193552Y-106306449D01*
X95366378Y-106448284D01*
X95563554Y-106553676D01*
X95777502Y-106618577D01*
X96000000Y-106640491D01*
X96222499Y-106618577D01*
X96436447Y-106553676D01*
X96633623Y-106448284D01*
X96806449Y-106306449D01*
X96948284Y-106133623D01*
X97053676Y-105936447D01*
X97118577Y-105722499D01*
X97135000Y-105555752D01*
X97135000Y-104819268D01*
X100165000Y-104819268D01*
X100165000Y-105180732D01*
X100235518Y-105535250D01*
X100373844Y-105869199D01*
X100574662Y-106169744D01*
X100830256Y-106425338D01*
X101130801Y-106626156D01*
X101464750Y-106764482D01*
X101819268Y-106835000D01*
X102180732Y-106835000D01*
X102535250Y-106764482D01*
X102869199Y-106626156D01*
X103169744Y-106425338D01*
X103425338Y-106169744D01*
X103626156Y-105869199D01*
X103764482Y-105535250D01*
X103835000Y-105180732D01*
X103835000Y-104819268D01*
X103764482Y-104464750D01*
X103626156Y-104130801D01*
X103425338Y-103830256D01*
X103169744Y-103574662D01*
X102869199Y-103373844D01*
X102535250Y-103235518D01*
X102180732Y-103165000D01*
X101819268Y-103165000D01*
X101464750Y-103235518D01*
X101130801Y-103373844D01*
X100830256Y-103574662D01*
X100574662Y-103830256D01*
X100373844Y-104130801D01*
X100235518Y-104464750D01*
X100165000Y-104819268D01*
X97135000Y-104819268D01*
X97135000Y-100899268D01*
X100165000Y-100899268D01*
X100165000Y-101260732D01*
X100235518Y-101615250D01*
X100373844Y-101949199D01*
X100574662Y-102249744D01*
X100830256Y-102505338D01*
X101130801Y-102706156D01*
X101464750Y-102844482D01*
X101819268Y-102915000D01*
X102180732Y-102915000D01*
X102535250Y-102844482D01*
X102869199Y-102706156D01*
X103169744Y-102505338D01*
X103425338Y-102249744D01*
X103626156Y-101949199D01*
X103764482Y-101615250D01*
X103835000Y-101260732D01*
X103835000Y-100899268D01*
X103764482Y-100544750D01*
X103626156Y-100210801D01*
X103425338Y-99910256D01*
X103169744Y-99654662D01*
X102869199Y-99453844D01*
X102535250Y-99315518D01*
X102180732Y-99245000D01*
X101819268Y-99245000D01*
X101464750Y-99315518D01*
X101130801Y-99453844D01*
X100830256Y-99654662D01*
X100574662Y-99910256D01*
X100373844Y-100210801D01*
X100235518Y-100544750D01*
X100165000Y-100899268D01*
X97135000Y-100899268D01*
X97135000Y-95819268D01*
X100165000Y-95819268D01*
X100165000Y-96180732D01*
X100235518Y-96535250D01*
X100373844Y-96869199D01*
X100574662Y-97169744D01*
X100830256Y-97425338D01*
X101130801Y-97626156D01*
X101464750Y-97764482D01*
X101819268Y-97835000D01*
X102180732Y-97835000D01*
X102535250Y-97764482D01*
X102869199Y-97626156D01*
X103169744Y-97425338D01*
X103425338Y-97169744D01*
X103626156Y-96869199D01*
X103764482Y-96535250D01*
X103835000Y-96180732D01*
X103835000Y-95819268D01*
X103764482Y-95464750D01*
X103626156Y-95130801D01*
X103425338Y-94830256D01*
X103169744Y-94574662D01*
X102869199Y-94373844D01*
X102535250Y-94235518D01*
X102180732Y-94165000D01*
X101819268Y-94165000D01*
X101464750Y-94235518D01*
X101130801Y-94373844D01*
X100830256Y-94574662D01*
X100574662Y-94830256D01*
X100373844Y-95130801D01*
X100235518Y-95464750D01*
X100165000Y-95819268D01*
X97135000Y-95819268D01*
X97135000Y-92555747D01*
X97140491Y-92499995D01*
X97118577Y-92277497D01*
X97053676Y-92063549D01*
X96948284Y-91866373D01*
X96806449Y-91693547D01*
X96763141Y-91658005D01*
X92627000Y-87521865D01*
X92627000Y-85100000D01*
X100461928Y-85100000D01*
X100461928Y-86900000D01*
X100474188Y-87024482D01*
X100510498Y-87144180D01*
X100569463Y-87254494D01*
X100648815Y-87351185D01*
X100745506Y-87430537D01*
X100855820Y-87489502D01*
X100975518Y-87525812D01*
X101100000Y-87538072D01*
X102900000Y-87538072D01*
X103024482Y-87525812D01*
X103144180Y-87489502D01*
X103254494Y-87430537D01*
X103351185Y-87351185D01*
X103430537Y-87254494D01*
X103489502Y-87144180D01*
X103525812Y-87024482D01*
X103538072Y-86900000D01*
X103538072Y-85100000D01*
X103525812Y-84975518D01*
X103489502Y-84855820D01*
X103430537Y-84745506D01*
X103351185Y-84648815D01*
X103254494Y-84569463D01*
X103144180Y-84510498D01*
X103125873Y-84504944D01*
X103192312Y-84438505D01*
X103245659Y-84358665D01*
X109565000Y-84358665D01*
X109565000Y-84641335D01*
X109620147Y-84918574D01*
X109728320Y-85179727D01*
X109885363Y-85414759D01*
X110085241Y-85614637D01*
X110320273Y-85771680D01*
X110581426Y-85879853D01*
X110858665Y-85935000D01*
X111141335Y-85935000D01*
X111418574Y-85879853D01*
X111679727Y-85771680D01*
X111914759Y-85614637D01*
X112114637Y-85414759D01*
X112271680Y-85179727D01*
X112379853Y-84918574D01*
X112435000Y-84641335D01*
X112435000Y-84358665D01*
X112379853Y-84081426D01*
X112271680Y-83820273D01*
X112114637Y-83585241D01*
X111914759Y-83385363D01*
X111679727Y-83228320D01*
X111418574Y-83120147D01*
X111141335Y-83065000D01*
X110858665Y-83065000D01*
X110581426Y-83120147D01*
X110320273Y-83228320D01*
X110085241Y-83385363D01*
X109885363Y-83585241D01*
X109728320Y-83820273D01*
X109620147Y-84081426D01*
X109565000Y-84358665D01*
X103245659Y-84358665D01*
X103360299Y-84187095D01*
X103476011Y-83907743D01*
X103535000Y-83611184D01*
X103535000Y-83308816D01*
X103476011Y-83012257D01*
X103360299Y-82732905D01*
X103192312Y-82481495D01*
X102978505Y-82267688D01*
X102862237Y-82190000D01*
X102978505Y-82112312D01*
X103192312Y-81898505D01*
X103291539Y-81750000D01*
X118111928Y-81750000D01*
X118111928Y-84250000D01*
X118124188Y-84374482D01*
X118160498Y-84494180D01*
X118219463Y-84604494D01*
X118298815Y-84701185D01*
X118395506Y-84780537D01*
X118505820Y-84839502D01*
X118625518Y-84875812D01*
X118750000Y-84888072D01*
X121250000Y-84888072D01*
X121374482Y-84875812D01*
X121494180Y-84839502D01*
X121604494Y-84780537D01*
X121701185Y-84701185D01*
X121780537Y-84604494D01*
X121839502Y-84494180D01*
X121875812Y-84374482D01*
X121888072Y-84250000D01*
X121888072Y-81750000D01*
X121875812Y-81625518D01*
X121839502Y-81505820D01*
X121780537Y-81395506D01*
X121701185Y-81298815D01*
X121604494Y-81219463D01*
X121494180Y-81160498D01*
X121374482Y-81124188D01*
X121250000Y-81111928D01*
X118750000Y-81111928D01*
X118625518Y-81124188D01*
X118505820Y-81160498D01*
X118395506Y-81219463D01*
X118298815Y-81298815D01*
X118219463Y-81395506D01*
X118160498Y-81505820D01*
X118124188Y-81625518D01*
X118111928Y-81750000D01*
X103291539Y-81750000D01*
X103360299Y-81647095D01*
X103476011Y-81367743D01*
X103535000Y-81071184D01*
X103535000Y-80768816D01*
X103476011Y-80472257D01*
X103404660Y-80300000D01*
X109561928Y-80300000D01*
X109574188Y-80424482D01*
X109610498Y-80544180D01*
X109669463Y-80654494D01*
X109748815Y-80751185D01*
X109845506Y-80830537D01*
X109955820Y-80889502D01*
X110075518Y-80925812D01*
X110200000Y-80938072D01*
X110714250Y-80935000D01*
X110873000Y-80776250D01*
X110873000Y-79627000D01*
X111127000Y-79627000D01*
X111127000Y-80776250D01*
X111285750Y-80935000D01*
X111800000Y-80938072D01*
X111924482Y-80925812D01*
X112044180Y-80889502D01*
X112154494Y-80830537D01*
X112251185Y-80751185D01*
X112330537Y-80654494D01*
X112389502Y-80544180D01*
X112425812Y-80424482D01*
X112438072Y-80300000D01*
X112435000Y-79785750D01*
X112276250Y-79627000D01*
X111127000Y-79627000D01*
X110873000Y-79627000D01*
X109723750Y-79627000D01*
X109565000Y-79785750D01*
X109561928Y-80300000D01*
X103404660Y-80300000D01*
X103360299Y-80192905D01*
X103192312Y-79941495D01*
X102978505Y-79727688D01*
X102727095Y-79559701D01*
X102447743Y-79443989D01*
X102151184Y-79385000D01*
X101848816Y-79385000D01*
X101552257Y-79443989D01*
X101272905Y-79559701D01*
X101021495Y-79727688D01*
X100807688Y-79941495D01*
X100639701Y-80192905D01*
X100523989Y-80472257D01*
X100465000Y-80768816D01*
X100465000Y-81071184D01*
X100523989Y-81367743D01*
X100639701Y-81647095D01*
X100807688Y-81898505D01*
X101021495Y-82112312D01*
X101137763Y-82190000D01*
X101021495Y-82267688D01*
X100807688Y-82481495D01*
X100639701Y-82732905D01*
X100523989Y-83012257D01*
X100465000Y-83308816D01*
X100465000Y-83611184D01*
X100523989Y-83907743D01*
X100639701Y-84187095D01*
X100807688Y-84438505D01*
X100874127Y-84504944D01*
X100855820Y-84510498D01*
X100745506Y-84569463D01*
X100648815Y-84648815D01*
X100569463Y-84745506D01*
X100510498Y-84855820D01*
X100474188Y-84975518D01*
X100461928Y-85100000D01*
X92627000Y-85100000D01*
X92627000Y-78700000D01*
X109561928Y-78700000D01*
X109565000Y-79214250D01*
X109723750Y-79373000D01*
X110873000Y-79373000D01*
X110873000Y-78223750D01*
X111127000Y-78223750D01*
X111127000Y-79373000D01*
X112276250Y-79373000D01*
X112335645Y-79313605D01*
X118866000Y-79313605D01*
X118991914Y-79603577D01*
X119324126Y-79769433D01*
X119682312Y-79867290D01*
X120052706Y-79893389D01*
X120421075Y-79846725D01*
X120773262Y-79729094D01*
X121008086Y-79603577D01*
X121134000Y-79313605D01*
X120000000Y-78179605D01*
X118866000Y-79313605D01*
X112335645Y-79313605D01*
X112435000Y-79214250D01*
X112438072Y-78700000D01*
X112425812Y-78575518D01*
X112389502Y-78455820D01*
X112330537Y-78345506D01*
X112251185Y-78248815D01*
X112154494Y-78169463D01*
X112044180Y-78110498D01*
X111924482Y-78074188D01*
X111800000Y-78061928D01*
X111285750Y-78065000D01*
X111127000Y-78223750D01*
X110873000Y-78223750D01*
X110714250Y-78065000D01*
X110200000Y-78061928D01*
X110075518Y-78074188D01*
X109955820Y-78110498D01*
X109845506Y-78169463D01*
X109748815Y-78248815D01*
X109669463Y-78345506D01*
X109610498Y-78455820D01*
X109574188Y-78575518D01*
X109561928Y-78700000D01*
X92627000Y-78700000D01*
X92627000Y-78052706D01*
X118106611Y-78052706D01*
X118153275Y-78421075D01*
X118270906Y-78773262D01*
X118396423Y-79008086D01*
X118686395Y-79134000D01*
X119820395Y-78000000D01*
X120179605Y-78000000D01*
X121313605Y-79134000D01*
X121603577Y-79008086D01*
X121769433Y-78675874D01*
X121867290Y-78317688D01*
X121893389Y-77947294D01*
X121846725Y-77578925D01*
X121729094Y-77226738D01*
X121603577Y-76991914D01*
X121313605Y-76866000D01*
X120179605Y-78000000D01*
X119820395Y-78000000D01*
X118686395Y-76866000D01*
X118396423Y-76991914D01*
X118230567Y-77324126D01*
X118132710Y-77682312D01*
X118106611Y-78052706D01*
X92627000Y-78052706D01*
X92627000Y-77492702D01*
X110186903Y-77492702D01*
X110258486Y-77736671D01*
X110513996Y-77857571D01*
X110788184Y-77926300D01*
X111070512Y-77940217D01*
X111350130Y-77898787D01*
X111616292Y-77803603D01*
X111741514Y-77736671D01*
X111813097Y-77492702D01*
X111000000Y-76679605D01*
X110186903Y-77492702D01*
X92627000Y-77492702D01*
X92627000Y-76570512D01*
X109559783Y-76570512D01*
X109601213Y-76850130D01*
X109696397Y-77116292D01*
X109763329Y-77241514D01*
X110007298Y-77313097D01*
X110820395Y-76500000D01*
X111179605Y-76500000D01*
X111992702Y-77313097D01*
X112236671Y-77241514D01*
X112357571Y-76986004D01*
X112426300Y-76711816D01*
X112427553Y-76686395D01*
X118866000Y-76686395D01*
X120000000Y-77820395D01*
X121134000Y-76686395D01*
X121008086Y-76396423D01*
X120675874Y-76230567D01*
X120317688Y-76132710D01*
X119947294Y-76106611D01*
X119578925Y-76153275D01*
X119226738Y-76270906D01*
X118991914Y-76396423D01*
X118866000Y-76686395D01*
X112427553Y-76686395D01*
X112440217Y-76429488D01*
X112398787Y-76149870D01*
X112303603Y-75883708D01*
X112236671Y-75758486D01*
X111992702Y-75686903D01*
X111179605Y-76500000D01*
X110820395Y-76500000D01*
X110007298Y-75686903D01*
X109763329Y-75758486D01*
X109642429Y-76013996D01*
X109573700Y-76288184D01*
X109559783Y-76570512D01*
X92627000Y-76570512D01*
X92627000Y-74100000D01*
X100461928Y-74100000D01*
X100461928Y-75900000D01*
X100474188Y-76024482D01*
X100510498Y-76144180D01*
X100569463Y-76254494D01*
X100648815Y-76351185D01*
X100745506Y-76430537D01*
X100855820Y-76489502D01*
X100975518Y-76525812D01*
X101100000Y-76538072D01*
X102900000Y-76538072D01*
X103024482Y-76525812D01*
X103144180Y-76489502D01*
X103254494Y-76430537D01*
X103351185Y-76351185D01*
X103430537Y-76254494D01*
X103489502Y-76144180D01*
X103525812Y-76024482D01*
X103538072Y-75900000D01*
X103538072Y-75507298D01*
X110186903Y-75507298D01*
X111000000Y-76320395D01*
X111813097Y-75507298D01*
X111741514Y-75263329D01*
X111486004Y-75142429D01*
X111211816Y-75073700D01*
X110929488Y-75059783D01*
X110649870Y-75101213D01*
X110383708Y-75196397D01*
X110258486Y-75263329D01*
X110186903Y-75507298D01*
X103538072Y-75507298D01*
X103538072Y-74100000D01*
X103525812Y-73975518D01*
X103489502Y-73855820D01*
X103430537Y-73745506D01*
X103351185Y-73648815D01*
X103254494Y-73569463D01*
X103144180Y-73510498D01*
X103125873Y-73504944D01*
X103192312Y-73438505D01*
X103360299Y-73187095D01*
X103476011Y-72907743D01*
X103535000Y-72611184D01*
X103535000Y-72308816D01*
X103476011Y-72012257D01*
X103360299Y-71732905D01*
X103192312Y-71481495D01*
X102978505Y-71267688D01*
X102862237Y-71190000D01*
X102978505Y-71112312D01*
X103192312Y-70898505D01*
X103324948Y-70700000D01*
X109561928Y-70700000D01*
X109561928Y-72300000D01*
X109574188Y-72424482D01*
X109610498Y-72544180D01*
X109669463Y-72654494D01*
X109748815Y-72751185D01*
X109845506Y-72830537D01*
X109955820Y-72889502D01*
X110075518Y-72925812D01*
X110200000Y-72938072D01*
X111800000Y-72938072D01*
X111924482Y-72925812D01*
X112044180Y-72889502D01*
X112154494Y-72830537D01*
X112174225Y-72814344D01*
X118115000Y-72814344D01*
X118115000Y-73185656D01*
X118187439Y-73549834D01*
X118329534Y-73892882D01*
X118535825Y-74201618D01*
X118798382Y-74464175D01*
X119107118Y-74670466D01*
X119450166Y-74812561D01*
X119814344Y-74885000D01*
X120185656Y-74885000D01*
X120549834Y-74812561D01*
X120892882Y-74670466D01*
X121201618Y-74464175D01*
X121464175Y-74201618D01*
X121670466Y-73892882D01*
X121812561Y-73549834D01*
X121885000Y-73185656D01*
X121885000Y-72814344D01*
X121812561Y-72450166D01*
X121670466Y-72107118D01*
X121464175Y-71798382D01*
X121201618Y-71535825D01*
X120892882Y-71329534D01*
X120549834Y-71187439D01*
X120185656Y-71115000D01*
X119814344Y-71115000D01*
X119450166Y-71187439D01*
X119107118Y-71329534D01*
X118798382Y-71535825D01*
X118535825Y-71798382D01*
X118329534Y-72107118D01*
X118187439Y-72450166D01*
X118115000Y-72814344D01*
X112174225Y-72814344D01*
X112251185Y-72751185D01*
X112330537Y-72654494D01*
X112389502Y-72544180D01*
X112425812Y-72424482D01*
X112438072Y-72300000D01*
X112438072Y-70700000D01*
X112425812Y-70575518D01*
X112389502Y-70455820D01*
X112330537Y-70345506D01*
X112251185Y-70248815D01*
X112154494Y-70169463D01*
X112044180Y-70110498D01*
X111924482Y-70074188D01*
X111800000Y-70061928D01*
X110200000Y-70061928D01*
X110075518Y-70074188D01*
X109955820Y-70110498D01*
X109845506Y-70169463D01*
X109748815Y-70248815D01*
X109669463Y-70345506D01*
X109610498Y-70455820D01*
X109574188Y-70575518D01*
X109561928Y-70700000D01*
X103324948Y-70700000D01*
X103360299Y-70647095D01*
X103476011Y-70367743D01*
X103535000Y-70071184D01*
X103535000Y-69768816D01*
X103476011Y-69472257D01*
X103360299Y-69192905D01*
X103192312Y-68941495D01*
X102978505Y-68727688D01*
X102727095Y-68559701D01*
X102447743Y-68443989D01*
X102151184Y-68385000D01*
X101848816Y-68385000D01*
X101552257Y-68443989D01*
X101272905Y-68559701D01*
X101021495Y-68727688D01*
X100807688Y-68941495D01*
X100639701Y-69192905D01*
X100523989Y-69472257D01*
X100465000Y-69768816D01*
X100465000Y-70071184D01*
X100523989Y-70367743D01*
X100639701Y-70647095D01*
X100807688Y-70898505D01*
X101021495Y-71112312D01*
X101137763Y-71190000D01*
X101021495Y-71267688D01*
X100807688Y-71481495D01*
X100639701Y-71732905D01*
X100523989Y-72012257D01*
X100465000Y-72308816D01*
X100465000Y-72611184D01*
X100523989Y-72907743D01*
X100639701Y-73187095D01*
X100807688Y-73438505D01*
X100874127Y-73504944D01*
X100855820Y-73510498D01*
X100745506Y-73569463D01*
X100648815Y-73648815D01*
X100569463Y-73745506D01*
X100510498Y-73855820D01*
X100474188Y-73975518D01*
X100461928Y-74100000D01*
X92627000Y-74100000D01*
X92627000Y-67500000D01*
X92624560Y-67475224D01*
X92617333Y-67451399D01*
X92605597Y-67429443D01*
X92589803Y-67410197D01*
X81577667Y-56398061D01*
X87965000Y-56398061D01*
X87965000Y-56601939D01*
X88004774Y-56801898D01*
X88082795Y-56990256D01*
X88196063Y-57159774D01*
X88240001Y-57203712D01*
X88240000Y-57521289D01*
X88196063Y-57565226D01*
X88082795Y-57734744D01*
X88004774Y-57923102D01*
X87965000Y-58123061D01*
X87965000Y-58326939D01*
X88004774Y-58526898D01*
X88082795Y-58715256D01*
X88196063Y-58884774D01*
X88340226Y-59028937D01*
X88509744Y-59142205D01*
X88698102Y-59220226D01*
X88898061Y-59260000D01*
X89101939Y-59260000D01*
X89301898Y-59220226D01*
X89490256Y-59142205D01*
X89659774Y-59028937D01*
X89803937Y-58884774D01*
X89917205Y-58715256D01*
X89995226Y-58526898D01*
X90035000Y-58326939D01*
X90035000Y-58148061D01*
X102215000Y-58148061D01*
X102215000Y-58351939D01*
X102254774Y-58551898D01*
X102332795Y-58740256D01*
X102446063Y-58909774D01*
X102590226Y-59053937D01*
X102759744Y-59167205D01*
X102948102Y-59245226D01*
X103148061Y-59285000D01*
X103351939Y-59285000D01*
X103551898Y-59245226D01*
X103740256Y-59167205D01*
X103909774Y-59053937D01*
X103953711Y-59010000D01*
X105046289Y-59010000D01*
X105090226Y-59053937D01*
X105259744Y-59167205D01*
X105448102Y-59245226D01*
X105648061Y-59285000D01*
X105851939Y-59285000D01*
X106051898Y-59245226D01*
X106240256Y-59167205D01*
X106409774Y-59053937D01*
X106553937Y-58909774D01*
X106667205Y-58740256D01*
X106745226Y-58551898D01*
X106785000Y-58351939D01*
X106785000Y-58148061D01*
X106745226Y-57948102D01*
X106667205Y-57759744D01*
X106553937Y-57590226D01*
X106409774Y-57446063D01*
X106240256Y-57332795D01*
X106051898Y-57254774D01*
X105851939Y-57215000D01*
X105648061Y-57215000D01*
X105448102Y-57254774D01*
X105259744Y-57332795D01*
X105090226Y-57446063D01*
X105046289Y-57490000D01*
X103953711Y-57490000D01*
X103909774Y-57446063D01*
X103740256Y-57332795D01*
X103551898Y-57254774D01*
X103351939Y-57215000D01*
X103148061Y-57215000D01*
X102948102Y-57254774D01*
X102759744Y-57332795D01*
X102590226Y-57446063D01*
X102446063Y-57590226D01*
X102332795Y-57759744D01*
X102254774Y-57948102D01*
X102215000Y-58148061D01*
X90035000Y-58148061D01*
X90035000Y-58123061D01*
X89995226Y-57923102D01*
X89917205Y-57734744D01*
X89803937Y-57565226D01*
X89760000Y-57521289D01*
X89760000Y-57203711D01*
X89803937Y-57159774D01*
X89917205Y-56990256D01*
X89995226Y-56801898D01*
X90035000Y-56601939D01*
X90035000Y-56398061D01*
X89995226Y-56198102D01*
X89917205Y-56009744D01*
X89803937Y-55840226D01*
X89659774Y-55696063D01*
X89490256Y-55582795D01*
X89301898Y-55504774D01*
X89101939Y-55465000D01*
X88898061Y-55465000D01*
X88698102Y-55504774D01*
X88509744Y-55582795D01*
X88340226Y-55696063D01*
X88196063Y-55840226D01*
X88082795Y-56009744D01*
X88004774Y-56198102D01*
X87965000Y-56398061D01*
X81577667Y-56398061D01*
X79127000Y-53947394D01*
X79127000Y-40127000D01*
X98873000Y-40127000D01*
X98873000Y-51000000D01*
G37*
X98873000Y-51000000D02*
X98875440Y-51024776D01*
X98882667Y-51048601D01*
X98894403Y-51070557D01*
X98910197Y-51089803D01*
X98929443Y-51105597D01*
X98951399Y-51117333D01*
X98975224Y-51124560D01*
X99000000Y-51127000D01*
X106873000Y-51127000D01*
X106873000Y-65000000D01*
X106875440Y-65024776D01*
X106882667Y-65048601D01*
X106894403Y-65070557D01*
X106910197Y-65089803D01*
X106929443Y-65105597D01*
X106951399Y-65117333D01*
X106975224Y-65124560D01*
X107000000Y-65127000D01*
X122373000Y-65127000D01*
X122373000Y-117515177D01*
X122189685Y-117331862D01*
X121627082Y-116955943D01*
X121001952Y-116697006D01*
X120338318Y-116565000D01*
X119661682Y-116565000D01*
X118998048Y-116697006D01*
X118372918Y-116955943D01*
X117810315Y-117331862D01*
X117331862Y-117810315D01*
X116955943Y-118372918D01*
X116697006Y-118998048D01*
X116565000Y-119661682D01*
X116565000Y-120338318D01*
X116697006Y-121001952D01*
X116955943Y-121627082D01*
X117120260Y-121873000D01*
X113745984Y-121873000D01*
X114049834Y-121812561D01*
X114392882Y-121670466D01*
X114701618Y-121464175D01*
X114964175Y-121201618D01*
X115170466Y-120892882D01*
X115312561Y-120549834D01*
X115385000Y-120185656D01*
X115385000Y-119814344D01*
X115312561Y-119450166D01*
X115170466Y-119107118D01*
X114964175Y-118798382D01*
X114701618Y-118535825D01*
X114392882Y-118329534D01*
X114049834Y-118187439D01*
X113685656Y-118115000D01*
X113314344Y-118115000D01*
X112950166Y-118187439D01*
X112607118Y-118329534D01*
X112298382Y-118535825D01*
X112035825Y-118798382D01*
X111829534Y-119107118D01*
X111687439Y-119450166D01*
X111615000Y-119814344D01*
X111615000Y-120185656D01*
X111687439Y-120549834D01*
X111829534Y-120892882D01*
X112035825Y-121201618D01*
X112298382Y-121464175D01*
X112607118Y-121670466D01*
X112950166Y-121812561D01*
X113254016Y-121873000D01*
X108713658Y-121873000D01*
X108921075Y-121846725D01*
X109273262Y-121729094D01*
X109508086Y-121603577D01*
X109634000Y-121313605D01*
X108500000Y-120179605D01*
X107366000Y-121313605D01*
X107491914Y-121603577D01*
X107824126Y-121769433D01*
X108182312Y-121867290D01*
X108263348Y-121873000D01*
X104883752Y-121873000D01*
X104994180Y-121839502D01*
X105104494Y-121780537D01*
X105201185Y-121701185D01*
X105280537Y-121604494D01*
X105339502Y-121494180D01*
X105375812Y-121374482D01*
X105388072Y-121250000D01*
X105388072Y-120052706D01*
X106606611Y-120052706D01*
X106653275Y-120421075D01*
X106770906Y-120773262D01*
X106896423Y-121008086D01*
X107186395Y-121134000D01*
X108320395Y-120000000D01*
X108679605Y-120000000D01*
X109813605Y-121134000D01*
X110103577Y-121008086D01*
X110269433Y-120675874D01*
X110367290Y-120317688D01*
X110393389Y-119947294D01*
X110346725Y-119578925D01*
X110229094Y-119226738D01*
X110103577Y-118991914D01*
X109813605Y-118866000D01*
X108679605Y-120000000D01*
X108320395Y-120000000D01*
X107186395Y-118866000D01*
X106896423Y-118991914D01*
X106730567Y-119324126D01*
X106632710Y-119682312D01*
X106606611Y-120052706D01*
X105388072Y-120052706D01*
X105388072Y-118750000D01*
X105381808Y-118686395D01*
X107366000Y-118686395D01*
X108500000Y-119820395D01*
X109634000Y-118686395D01*
X109508086Y-118396423D01*
X109175874Y-118230567D01*
X108817688Y-118132710D01*
X108447294Y-118106611D01*
X108078925Y-118153275D01*
X107726738Y-118270906D01*
X107491914Y-118396423D01*
X107366000Y-118686395D01*
X105381808Y-118686395D01*
X105375812Y-118625518D01*
X105339502Y-118505820D01*
X105280537Y-118395506D01*
X105201185Y-118298815D01*
X105104494Y-118219463D01*
X104994180Y-118160498D01*
X104874482Y-118124188D01*
X104750000Y-118111928D01*
X102250000Y-118111928D01*
X102125518Y-118124188D01*
X102005820Y-118160498D01*
X101895506Y-118219463D01*
X101798815Y-118298815D01*
X101719463Y-118395506D01*
X101660498Y-118505820D01*
X101624188Y-118625518D01*
X101611928Y-118750000D01*
X101611928Y-121250000D01*
X101624188Y-121374482D01*
X101660498Y-121494180D01*
X101719463Y-121604494D01*
X101798815Y-121701185D01*
X101895506Y-121780537D01*
X102005820Y-121839502D01*
X102116248Y-121873000D01*
X90127000Y-121873000D01*
X90127000Y-119398235D01*
X90135000Y-119358016D01*
X90135000Y-118641984D01*
X90127000Y-118601765D01*
X90127000Y-112000000D01*
X90124560Y-111975224D01*
X90117333Y-111951399D01*
X90105597Y-111929443D01*
X90089803Y-111910197D01*
X90070557Y-111894403D01*
X90048601Y-111882667D01*
X90024776Y-111875440D01*
X90000000Y-111873000D01*
X77185238Y-111873000D01*
X76712925Y-111400687D01*
X76661714Y-111338286D01*
X76412752Y-111133969D01*
X76128715Y-110982148D01*
X75820516Y-110888657D01*
X75580322Y-110865000D01*
X75580319Y-110865000D01*
X75500000Y-110857089D01*
X75419681Y-110865000D01*
X72582819Y-110865000D01*
X72502499Y-110857089D01*
X72422180Y-110865000D01*
X72422178Y-110865000D01*
X72181984Y-110888657D01*
X71873785Y-110982148D01*
X71589748Y-111133969D01*
X71340786Y-111338286D01*
X71289580Y-111400681D01*
X70817261Y-111873000D01*
X57185238Y-111873000D01*
X56712925Y-111400687D01*
X56661714Y-111338286D01*
X56412752Y-111133969D01*
X56128715Y-110982148D01*
X55820516Y-110888657D01*
X55580322Y-110865000D01*
X55580319Y-110865000D01*
X55500000Y-110857089D01*
X55419681Y-110865000D01*
X52580319Y-110865000D01*
X52499999Y-110857089D01*
X52419680Y-110865000D01*
X52419678Y-110865000D01*
X52179484Y-110888657D01*
X51871285Y-110982148D01*
X51587248Y-111133969D01*
X51338286Y-111338286D01*
X51287080Y-111400681D01*
X50814761Y-111873000D01*
X44127000Y-111873000D01*
X44127000Y-109899268D01*
X100165000Y-109899268D01*
X100165000Y-110260732D01*
X100235518Y-110615250D01*
X100373844Y-110949199D01*
X100574662Y-111249744D01*
X100830256Y-111505338D01*
X101130801Y-111706156D01*
X101464750Y-111844482D01*
X101819268Y-111915000D01*
X102180732Y-111915000D01*
X102535250Y-111844482D01*
X102869199Y-111706156D01*
X103169744Y-111505338D01*
X103425338Y-111249744D01*
X103626156Y-110949199D01*
X103764482Y-110615250D01*
X103835000Y-110260732D01*
X103835000Y-109899268D01*
X103764482Y-109544750D01*
X103626156Y-109210801D01*
X103425338Y-108910256D01*
X103169744Y-108654662D01*
X102869199Y-108453844D01*
X102535250Y-108315518D01*
X102180732Y-108245000D01*
X101819268Y-108245000D01*
X101464750Y-108315518D01*
X101130801Y-108453844D01*
X100830256Y-108654662D01*
X100574662Y-108910256D01*
X100373844Y-109210801D01*
X100235518Y-109544750D01*
X100165000Y-109899268D01*
X44127000Y-109899268D01*
X44127000Y-92627000D01*
X92500000Y-92627000D01*
X92524776Y-92624560D01*
X92548601Y-92617333D01*
X92570557Y-92605597D01*
X92589803Y-92589803D01*
X92605597Y-92570557D01*
X92617333Y-92548601D01*
X92624560Y-92524776D01*
X92627000Y-92500000D01*
X92627000Y-90732127D01*
X94865000Y-92970128D01*
X94865001Y-105555752D01*
X94881424Y-105722499D01*
X94946325Y-105936447D01*
X95051717Y-106133623D01*
X95193552Y-106306449D01*
X95366378Y-106448284D01*
X95563554Y-106553676D01*
X95777502Y-106618577D01*
X96000000Y-106640491D01*
X96222499Y-106618577D01*
X96436447Y-106553676D01*
X96633623Y-106448284D01*
X96806449Y-106306449D01*
X96948284Y-106133623D01*
X97053676Y-105936447D01*
X97118577Y-105722499D01*
X97135000Y-105555752D01*
X97135000Y-104819268D01*
X100165000Y-104819268D01*
X100165000Y-105180732D01*
X100235518Y-105535250D01*
X100373844Y-105869199D01*
X100574662Y-106169744D01*
X100830256Y-106425338D01*
X101130801Y-106626156D01*
X101464750Y-106764482D01*
X101819268Y-106835000D01*
X102180732Y-106835000D01*
X102535250Y-106764482D01*
X102869199Y-106626156D01*
X103169744Y-106425338D01*
X103425338Y-106169744D01*
X103626156Y-105869199D01*
X103764482Y-105535250D01*
X103835000Y-105180732D01*
X103835000Y-104819268D01*
X103764482Y-104464750D01*
X103626156Y-104130801D01*
X103425338Y-103830256D01*
X103169744Y-103574662D01*
X102869199Y-103373844D01*
X102535250Y-103235518D01*
X102180732Y-103165000D01*
X101819268Y-103165000D01*
X101464750Y-103235518D01*
X101130801Y-103373844D01*
X100830256Y-103574662D01*
X100574662Y-103830256D01*
X100373844Y-104130801D01*
X100235518Y-104464750D01*
X100165000Y-104819268D01*
X97135000Y-104819268D01*
X97135000Y-100899268D01*
X100165000Y-100899268D01*
X100165000Y-101260732D01*
X100235518Y-101615250D01*
X100373844Y-101949199D01*
X100574662Y-102249744D01*
X100830256Y-102505338D01*
X101130801Y-102706156D01*
X101464750Y-102844482D01*
X101819268Y-102915000D01*
X102180732Y-102915000D01*
X102535250Y-102844482D01*
X102869199Y-102706156D01*
X103169744Y-102505338D01*
X103425338Y-102249744D01*
X103626156Y-101949199D01*
X103764482Y-101615250D01*
X103835000Y-101260732D01*
X103835000Y-100899268D01*
X103764482Y-100544750D01*
X103626156Y-100210801D01*
X103425338Y-99910256D01*
X103169744Y-99654662D01*
X102869199Y-99453844D01*
X102535250Y-99315518D01*
X102180732Y-99245000D01*
X101819268Y-99245000D01*
X101464750Y-99315518D01*
X101130801Y-99453844D01*
X100830256Y-99654662D01*
X100574662Y-99910256D01*
X100373844Y-100210801D01*
X100235518Y-100544750D01*
X100165000Y-100899268D01*
X97135000Y-100899268D01*
X97135000Y-95819268D01*
X100165000Y-95819268D01*
X100165000Y-96180732D01*
X100235518Y-96535250D01*
X100373844Y-96869199D01*
X100574662Y-97169744D01*
X100830256Y-97425338D01*
X101130801Y-97626156D01*
X101464750Y-97764482D01*
X101819268Y-97835000D01*
X102180732Y-97835000D01*
X102535250Y-97764482D01*
X102869199Y-97626156D01*
X103169744Y-97425338D01*
X103425338Y-97169744D01*
X103626156Y-96869199D01*
X103764482Y-96535250D01*
X103835000Y-96180732D01*
X103835000Y-95819268D01*
X103764482Y-95464750D01*
X103626156Y-95130801D01*
X103425338Y-94830256D01*
X103169744Y-94574662D01*
X102869199Y-94373844D01*
X102535250Y-94235518D01*
X102180732Y-94165000D01*
X101819268Y-94165000D01*
X101464750Y-94235518D01*
X101130801Y-94373844D01*
X100830256Y-94574662D01*
X100574662Y-94830256D01*
X100373844Y-95130801D01*
X100235518Y-95464750D01*
X100165000Y-95819268D01*
X97135000Y-95819268D01*
X97135000Y-92555747D01*
X97140491Y-92499995D01*
X97118577Y-92277497D01*
X97053676Y-92063549D01*
X96948284Y-91866373D01*
X96806449Y-91693547D01*
X96763141Y-91658005D01*
X92627000Y-87521865D01*
X92627000Y-85100000D01*
X100461928Y-85100000D01*
X100461928Y-86900000D01*
X100474188Y-87024482D01*
X100510498Y-87144180D01*
X100569463Y-87254494D01*
X100648815Y-87351185D01*
X100745506Y-87430537D01*
X100855820Y-87489502D01*
X100975518Y-87525812D01*
X101100000Y-87538072D01*
X102900000Y-87538072D01*
X103024482Y-87525812D01*
X103144180Y-87489502D01*
X103254494Y-87430537D01*
X103351185Y-87351185D01*
X103430537Y-87254494D01*
X103489502Y-87144180D01*
X103525812Y-87024482D01*
X103538072Y-86900000D01*
X103538072Y-85100000D01*
X103525812Y-84975518D01*
X103489502Y-84855820D01*
X103430537Y-84745506D01*
X103351185Y-84648815D01*
X103254494Y-84569463D01*
X103144180Y-84510498D01*
X103125873Y-84504944D01*
X103192312Y-84438505D01*
X103245659Y-84358665D01*
X109565000Y-84358665D01*
X109565000Y-84641335D01*
X109620147Y-84918574D01*
X109728320Y-85179727D01*
X109885363Y-85414759D01*
X110085241Y-85614637D01*
X110320273Y-85771680D01*
X110581426Y-85879853D01*
X110858665Y-85935000D01*
X111141335Y-85935000D01*
X111418574Y-85879853D01*
X111679727Y-85771680D01*
X111914759Y-85614637D01*
X112114637Y-85414759D01*
X112271680Y-85179727D01*
X112379853Y-84918574D01*
X112435000Y-84641335D01*
X112435000Y-84358665D01*
X112379853Y-84081426D01*
X112271680Y-83820273D01*
X112114637Y-83585241D01*
X111914759Y-83385363D01*
X111679727Y-83228320D01*
X111418574Y-83120147D01*
X111141335Y-83065000D01*
X110858665Y-83065000D01*
X110581426Y-83120147D01*
X110320273Y-83228320D01*
X110085241Y-83385363D01*
X109885363Y-83585241D01*
X109728320Y-83820273D01*
X109620147Y-84081426D01*
X109565000Y-84358665D01*
X103245659Y-84358665D01*
X103360299Y-84187095D01*
X103476011Y-83907743D01*
X103535000Y-83611184D01*
X103535000Y-83308816D01*
X103476011Y-83012257D01*
X103360299Y-82732905D01*
X103192312Y-82481495D01*
X102978505Y-82267688D01*
X102862237Y-82190000D01*
X102978505Y-82112312D01*
X103192312Y-81898505D01*
X103291539Y-81750000D01*
X118111928Y-81750000D01*
X118111928Y-84250000D01*
X118124188Y-84374482D01*
X118160498Y-84494180D01*
X118219463Y-84604494D01*
X118298815Y-84701185D01*
X118395506Y-84780537D01*
X118505820Y-84839502D01*
X118625518Y-84875812D01*
X118750000Y-84888072D01*
X121250000Y-84888072D01*
X121374482Y-84875812D01*
X121494180Y-84839502D01*
X121604494Y-84780537D01*
X121701185Y-84701185D01*
X121780537Y-84604494D01*
X121839502Y-84494180D01*
X121875812Y-84374482D01*
X121888072Y-84250000D01*
X121888072Y-81750000D01*
X121875812Y-81625518D01*
X121839502Y-81505820D01*
X121780537Y-81395506D01*
X121701185Y-81298815D01*
X121604494Y-81219463D01*
X121494180Y-81160498D01*
X121374482Y-81124188D01*
X121250000Y-81111928D01*
X118750000Y-81111928D01*
X118625518Y-81124188D01*
X118505820Y-81160498D01*
X118395506Y-81219463D01*
X118298815Y-81298815D01*
X118219463Y-81395506D01*
X118160498Y-81505820D01*
X118124188Y-81625518D01*
X118111928Y-81750000D01*
X103291539Y-81750000D01*
X103360299Y-81647095D01*
X103476011Y-81367743D01*
X103535000Y-81071184D01*
X103535000Y-80768816D01*
X103476011Y-80472257D01*
X103404660Y-80300000D01*
X109561928Y-80300000D01*
X109574188Y-80424482D01*
X109610498Y-80544180D01*
X109669463Y-80654494D01*
X109748815Y-80751185D01*
X109845506Y-80830537D01*
X109955820Y-80889502D01*
X110075518Y-80925812D01*
X110200000Y-80938072D01*
X110714250Y-80935000D01*
X110873000Y-80776250D01*
X110873000Y-79627000D01*
X111127000Y-79627000D01*
X111127000Y-80776250D01*
X111285750Y-80935000D01*
X111800000Y-80938072D01*
X111924482Y-80925812D01*
X112044180Y-80889502D01*
X112154494Y-80830537D01*
X112251185Y-80751185D01*
X112330537Y-80654494D01*
X112389502Y-80544180D01*
X112425812Y-80424482D01*
X112438072Y-80300000D01*
X112435000Y-79785750D01*
X112276250Y-79627000D01*
X111127000Y-79627000D01*
X110873000Y-79627000D01*
X109723750Y-79627000D01*
X109565000Y-79785750D01*
X109561928Y-80300000D01*
X103404660Y-80300000D01*
X103360299Y-80192905D01*
X103192312Y-79941495D01*
X102978505Y-79727688D01*
X102727095Y-79559701D01*
X102447743Y-79443989D01*
X102151184Y-79385000D01*
X101848816Y-79385000D01*
X101552257Y-79443989D01*
X101272905Y-79559701D01*
X101021495Y-79727688D01*
X100807688Y-79941495D01*
X100639701Y-80192905D01*
X100523989Y-80472257D01*
X100465000Y-80768816D01*
X100465000Y-81071184D01*
X100523989Y-81367743D01*
X100639701Y-81647095D01*
X100807688Y-81898505D01*
X101021495Y-82112312D01*
X101137763Y-82190000D01*
X101021495Y-82267688D01*
X100807688Y-82481495D01*
X100639701Y-82732905D01*
X100523989Y-83012257D01*
X100465000Y-83308816D01*
X100465000Y-83611184D01*
X100523989Y-83907743D01*
X100639701Y-84187095D01*
X100807688Y-84438505D01*
X100874127Y-84504944D01*
X100855820Y-84510498D01*
X100745506Y-84569463D01*
X100648815Y-84648815D01*
X100569463Y-84745506D01*
X100510498Y-84855820D01*
X100474188Y-84975518D01*
X100461928Y-85100000D01*
X92627000Y-85100000D01*
X92627000Y-78700000D01*
X109561928Y-78700000D01*
X109565000Y-79214250D01*
X109723750Y-79373000D01*
X110873000Y-79373000D01*
X110873000Y-78223750D01*
X111127000Y-78223750D01*
X111127000Y-79373000D01*
X112276250Y-79373000D01*
X112335645Y-79313605D01*
X118866000Y-79313605D01*
X118991914Y-79603577D01*
X119324126Y-79769433D01*
X119682312Y-79867290D01*
X120052706Y-79893389D01*
X120421075Y-79846725D01*
X120773262Y-79729094D01*
X121008086Y-79603577D01*
X121134000Y-79313605D01*
X120000000Y-78179605D01*
X118866000Y-79313605D01*
X112335645Y-79313605D01*
X112435000Y-79214250D01*
X112438072Y-78700000D01*
X112425812Y-78575518D01*
X112389502Y-78455820D01*
X112330537Y-78345506D01*
X112251185Y-78248815D01*
X112154494Y-78169463D01*
X112044180Y-78110498D01*
X111924482Y-78074188D01*
X111800000Y-78061928D01*
X111285750Y-78065000D01*
X111127000Y-78223750D01*
X110873000Y-78223750D01*
X110714250Y-78065000D01*
X110200000Y-78061928D01*
X110075518Y-78074188D01*
X109955820Y-78110498D01*
X109845506Y-78169463D01*
X109748815Y-78248815D01*
X109669463Y-78345506D01*
X109610498Y-78455820D01*
X109574188Y-78575518D01*
X109561928Y-78700000D01*
X92627000Y-78700000D01*
X92627000Y-78052706D01*
X118106611Y-78052706D01*
X118153275Y-78421075D01*
X118270906Y-78773262D01*
X118396423Y-79008086D01*
X118686395Y-79134000D01*
X119820395Y-78000000D01*
X120179605Y-78000000D01*
X121313605Y-79134000D01*
X121603577Y-79008086D01*
X121769433Y-78675874D01*
X121867290Y-78317688D01*
X121893389Y-77947294D01*
X121846725Y-77578925D01*
X121729094Y-77226738D01*
X121603577Y-76991914D01*
X121313605Y-76866000D01*
X120179605Y-78000000D01*
X119820395Y-78000000D01*
X118686395Y-76866000D01*
X118396423Y-76991914D01*
X118230567Y-77324126D01*
X118132710Y-77682312D01*
X118106611Y-78052706D01*
X92627000Y-78052706D01*
X92627000Y-77492702D01*
X110186903Y-77492702D01*
X110258486Y-77736671D01*
X110513996Y-77857571D01*
X110788184Y-77926300D01*
X111070512Y-77940217D01*
X111350130Y-77898787D01*
X111616292Y-77803603D01*
X111741514Y-77736671D01*
X111813097Y-77492702D01*
X111000000Y-76679605D01*
X110186903Y-77492702D01*
X92627000Y-77492702D01*
X92627000Y-76570512D01*
X109559783Y-76570512D01*
X109601213Y-76850130D01*
X109696397Y-77116292D01*
X109763329Y-77241514D01*
X110007298Y-77313097D01*
X110820395Y-76500000D01*
X111179605Y-76500000D01*
X111992702Y-77313097D01*
X112236671Y-77241514D01*
X112357571Y-76986004D01*
X112426300Y-76711816D01*
X112427553Y-76686395D01*
X118866000Y-76686395D01*
X120000000Y-77820395D01*
X121134000Y-76686395D01*
X121008086Y-76396423D01*
X120675874Y-76230567D01*
X120317688Y-76132710D01*
X119947294Y-76106611D01*
X119578925Y-76153275D01*
X119226738Y-76270906D01*
X118991914Y-76396423D01*
X118866000Y-76686395D01*
X112427553Y-76686395D01*
X112440217Y-76429488D01*
X112398787Y-76149870D01*
X112303603Y-75883708D01*
X112236671Y-75758486D01*
X111992702Y-75686903D01*
X111179605Y-76500000D01*
X110820395Y-76500000D01*
X110007298Y-75686903D01*
X109763329Y-75758486D01*
X109642429Y-76013996D01*
X109573700Y-76288184D01*
X109559783Y-76570512D01*
X92627000Y-76570512D01*
X92627000Y-74100000D01*
X100461928Y-74100000D01*
X100461928Y-75900000D01*
X100474188Y-76024482D01*
X100510498Y-76144180D01*
X100569463Y-76254494D01*
X100648815Y-76351185D01*
X100745506Y-76430537D01*
X100855820Y-76489502D01*
X100975518Y-76525812D01*
X101100000Y-76538072D01*
X102900000Y-76538072D01*
X103024482Y-76525812D01*
X103144180Y-76489502D01*
X103254494Y-76430537D01*
X103351185Y-76351185D01*
X103430537Y-76254494D01*
X103489502Y-76144180D01*
X103525812Y-76024482D01*
X103538072Y-75900000D01*
X103538072Y-75507298D01*
X110186903Y-75507298D01*
X111000000Y-76320395D01*
X111813097Y-75507298D01*
X111741514Y-75263329D01*
X111486004Y-75142429D01*
X111211816Y-75073700D01*
X110929488Y-75059783D01*
X110649870Y-75101213D01*
X110383708Y-75196397D01*
X110258486Y-75263329D01*
X110186903Y-75507298D01*
X103538072Y-75507298D01*
X103538072Y-74100000D01*
X103525812Y-73975518D01*
X103489502Y-73855820D01*
X103430537Y-73745506D01*
X103351185Y-73648815D01*
X103254494Y-73569463D01*
X103144180Y-73510498D01*
X103125873Y-73504944D01*
X103192312Y-73438505D01*
X103360299Y-73187095D01*
X103476011Y-72907743D01*
X103535000Y-72611184D01*
X103535000Y-72308816D01*
X103476011Y-72012257D01*
X103360299Y-71732905D01*
X103192312Y-71481495D01*
X102978505Y-71267688D01*
X102862237Y-71190000D01*
X102978505Y-71112312D01*
X103192312Y-70898505D01*
X103324948Y-70700000D01*
X109561928Y-70700000D01*
X109561928Y-72300000D01*
X109574188Y-72424482D01*
X109610498Y-72544180D01*
X109669463Y-72654494D01*
X109748815Y-72751185D01*
X109845506Y-72830537D01*
X109955820Y-72889502D01*
X110075518Y-72925812D01*
X110200000Y-72938072D01*
X111800000Y-72938072D01*
X111924482Y-72925812D01*
X112044180Y-72889502D01*
X112154494Y-72830537D01*
X112174225Y-72814344D01*
X118115000Y-72814344D01*
X118115000Y-73185656D01*
X118187439Y-73549834D01*
X118329534Y-73892882D01*
X118535825Y-74201618D01*
X118798382Y-74464175D01*
X119107118Y-74670466D01*
X119450166Y-74812561D01*
X119814344Y-74885000D01*
X120185656Y-74885000D01*
X120549834Y-74812561D01*
X120892882Y-74670466D01*
X121201618Y-74464175D01*
X121464175Y-74201618D01*
X121670466Y-73892882D01*
X121812561Y-73549834D01*
X121885000Y-73185656D01*
X121885000Y-72814344D01*
X121812561Y-72450166D01*
X121670466Y-72107118D01*
X121464175Y-71798382D01*
X121201618Y-71535825D01*
X120892882Y-71329534D01*
X120549834Y-71187439D01*
X120185656Y-71115000D01*
X119814344Y-71115000D01*
X119450166Y-71187439D01*
X119107118Y-71329534D01*
X118798382Y-71535825D01*
X118535825Y-71798382D01*
X118329534Y-72107118D01*
X118187439Y-72450166D01*
X118115000Y-72814344D01*
X112174225Y-72814344D01*
X112251185Y-72751185D01*
X112330537Y-72654494D01*
X112389502Y-72544180D01*
X112425812Y-72424482D01*
X112438072Y-72300000D01*
X112438072Y-70700000D01*
X112425812Y-70575518D01*
X112389502Y-70455820D01*
X112330537Y-70345506D01*
X112251185Y-70248815D01*
X112154494Y-70169463D01*
X112044180Y-70110498D01*
X111924482Y-70074188D01*
X111800000Y-70061928D01*
X110200000Y-70061928D01*
X110075518Y-70074188D01*
X109955820Y-70110498D01*
X109845506Y-70169463D01*
X109748815Y-70248815D01*
X109669463Y-70345506D01*
X109610498Y-70455820D01*
X109574188Y-70575518D01*
X109561928Y-70700000D01*
X103324948Y-70700000D01*
X103360299Y-70647095D01*
X103476011Y-70367743D01*
X103535000Y-70071184D01*
X103535000Y-69768816D01*
X103476011Y-69472257D01*
X103360299Y-69192905D01*
X103192312Y-68941495D01*
X102978505Y-68727688D01*
X102727095Y-68559701D01*
X102447743Y-68443989D01*
X102151184Y-68385000D01*
X101848816Y-68385000D01*
X101552257Y-68443989D01*
X101272905Y-68559701D01*
X101021495Y-68727688D01*
X100807688Y-68941495D01*
X100639701Y-69192905D01*
X100523989Y-69472257D01*
X100465000Y-69768816D01*
X100465000Y-70071184D01*
X100523989Y-70367743D01*
X100639701Y-70647095D01*
X100807688Y-70898505D01*
X101021495Y-71112312D01*
X101137763Y-71190000D01*
X101021495Y-71267688D01*
X100807688Y-71481495D01*
X100639701Y-71732905D01*
X100523989Y-72012257D01*
X100465000Y-72308816D01*
X100465000Y-72611184D01*
X100523989Y-72907743D01*
X100639701Y-73187095D01*
X100807688Y-73438505D01*
X100874127Y-73504944D01*
X100855820Y-73510498D01*
X100745506Y-73569463D01*
X100648815Y-73648815D01*
X100569463Y-73745506D01*
X100510498Y-73855820D01*
X100474188Y-73975518D01*
X100461928Y-74100000D01*
X92627000Y-74100000D01*
X92627000Y-67500000D01*
X92624560Y-67475224D01*
X92617333Y-67451399D01*
X92605597Y-67429443D01*
X92589803Y-67410197D01*
X81577667Y-56398061D01*
X87965000Y-56398061D01*
X87965000Y-56601939D01*
X88004774Y-56801898D01*
X88082795Y-56990256D01*
X88196063Y-57159774D01*
X88240001Y-57203712D01*
X88240000Y-57521289D01*
X88196063Y-57565226D01*
X88082795Y-57734744D01*
X88004774Y-57923102D01*
X87965000Y-58123061D01*
X87965000Y-58326939D01*
X88004774Y-58526898D01*
X88082795Y-58715256D01*
X88196063Y-58884774D01*
X88340226Y-59028937D01*
X88509744Y-59142205D01*
X88698102Y-59220226D01*
X88898061Y-59260000D01*
X89101939Y-59260000D01*
X89301898Y-59220226D01*
X89490256Y-59142205D01*
X89659774Y-59028937D01*
X89803937Y-58884774D01*
X89917205Y-58715256D01*
X89995226Y-58526898D01*
X90035000Y-58326939D01*
X90035000Y-58148061D01*
X102215000Y-58148061D01*
X102215000Y-58351939D01*
X102254774Y-58551898D01*
X102332795Y-58740256D01*
X102446063Y-58909774D01*
X102590226Y-59053937D01*
X102759744Y-59167205D01*
X102948102Y-59245226D01*
X103148061Y-59285000D01*
X103351939Y-59285000D01*
X103551898Y-59245226D01*
X103740256Y-59167205D01*
X103909774Y-59053937D01*
X103953711Y-59010000D01*
X105046289Y-59010000D01*
X105090226Y-59053937D01*
X105259744Y-59167205D01*
X105448102Y-59245226D01*
X105648061Y-59285000D01*
X105851939Y-59285000D01*
X106051898Y-59245226D01*
X106240256Y-59167205D01*
X106409774Y-59053937D01*
X106553937Y-58909774D01*
X106667205Y-58740256D01*
X106745226Y-58551898D01*
X106785000Y-58351939D01*
X106785000Y-58148061D01*
X106745226Y-57948102D01*
X106667205Y-57759744D01*
X106553937Y-57590226D01*
X106409774Y-57446063D01*
X106240256Y-57332795D01*
X106051898Y-57254774D01*
X105851939Y-57215000D01*
X105648061Y-57215000D01*
X105448102Y-57254774D01*
X105259744Y-57332795D01*
X105090226Y-57446063D01*
X105046289Y-57490000D01*
X103953711Y-57490000D01*
X103909774Y-57446063D01*
X103740256Y-57332795D01*
X103551898Y-57254774D01*
X103351939Y-57215000D01*
X103148061Y-57215000D01*
X102948102Y-57254774D01*
X102759744Y-57332795D01*
X102590226Y-57446063D01*
X102446063Y-57590226D01*
X102332795Y-57759744D01*
X102254774Y-57948102D01*
X102215000Y-58148061D01*
X90035000Y-58148061D01*
X90035000Y-58123061D01*
X89995226Y-57923102D01*
X89917205Y-57734744D01*
X89803937Y-57565226D01*
X89760000Y-57521289D01*
X89760000Y-57203711D01*
X89803937Y-57159774D01*
X89917205Y-56990256D01*
X89995226Y-56801898D01*
X90035000Y-56601939D01*
X90035000Y-56398061D01*
X89995226Y-56198102D01*
X89917205Y-56009744D01*
X89803937Y-55840226D01*
X89659774Y-55696063D01*
X89490256Y-55582795D01*
X89301898Y-55504774D01*
X89101939Y-55465000D01*
X88898061Y-55465000D01*
X88698102Y-55504774D01*
X88509744Y-55582795D01*
X88340226Y-55696063D01*
X88196063Y-55840226D01*
X88082795Y-56009744D01*
X88004774Y-56198102D01*
X87965000Y-56398061D01*
X81577667Y-56398061D01*
X79127000Y-53947394D01*
X79127000Y-40127000D01*
X98873000Y-40127000D01*
X98873000Y-51000000D01*
G36*
X117331862Y-27810315D02*
G01*
X116955943Y-28372918D01*
X116697006Y-28998048D01*
X116565000Y-29661682D01*
X116565000Y-30338318D01*
X116697006Y-31001952D01*
X116955943Y-31627082D01*
X117331862Y-32189685D01*
X117810315Y-32668138D01*
X118372918Y-33044057D01*
X118998048Y-33302994D01*
X119661682Y-33435000D01*
X120338318Y-33435000D01*
X121001952Y-33302994D01*
X121627082Y-33044057D01*
X122189685Y-32668138D01*
X122373000Y-32484823D01*
X122373000Y-53561928D01*
X121200000Y-53561928D01*
X121075518Y-53574188D01*
X120955820Y-53610498D01*
X120845506Y-53669463D01*
X120748815Y-53748815D01*
X120669463Y-53845506D01*
X120610498Y-53955820D01*
X120574188Y-54075518D01*
X120561928Y-54200000D01*
X120561928Y-55800000D01*
X120574188Y-55924482D01*
X120610498Y-56044180D01*
X120669463Y-56154494D01*
X120748815Y-56251185D01*
X120845506Y-56330537D01*
X120955820Y-56389502D01*
X121075518Y-56425812D01*
X121083961Y-56426643D01*
X120885363Y-56625241D01*
X120728320Y-56860273D01*
X120620147Y-57121426D01*
X120565000Y-57398665D01*
X120565000Y-57681335D01*
X120620147Y-57958574D01*
X120728320Y-58219727D01*
X120885363Y-58454759D01*
X121085241Y-58654637D01*
X121320273Y-58811680D01*
X121581426Y-58919853D01*
X121858665Y-58975000D01*
X122141335Y-58975000D01*
X122373000Y-58928918D01*
X122373000Y-63873000D01*
X108127000Y-63873000D01*
X108127000Y-62713605D01*
X109066000Y-62713605D01*
X109191914Y-63003577D01*
X109524126Y-63169433D01*
X109882312Y-63267290D01*
X110252706Y-63293389D01*
X110621075Y-63246725D01*
X110973262Y-63129094D01*
X111208086Y-63003577D01*
X111334000Y-62713605D01*
X110200000Y-61579605D01*
X109066000Y-62713605D01*
X108127000Y-62713605D01*
X108127000Y-61452706D01*
X108306611Y-61452706D01*
X108353275Y-61821075D01*
X108470906Y-62173262D01*
X108596423Y-62408086D01*
X108886395Y-62534000D01*
X110020395Y-61400000D01*
X110379605Y-61400000D01*
X111513605Y-62534000D01*
X111803577Y-62408086D01*
X111969433Y-62075874D01*
X112067290Y-61717688D01*
X112093389Y-61347294D01*
X112046725Y-60978925D01*
X111929094Y-60626738D01*
X111803577Y-60391914D01*
X111513605Y-60266000D01*
X110379605Y-61400000D01*
X110020395Y-61400000D01*
X108886395Y-60266000D01*
X108596423Y-60391914D01*
X108430567Y-60724126D01*
X108332710Y-61082312D01*
X108306611Y-61452706D01*
X108127000Y-61452706D01*
X108127000Y-60086395D01*
X109066000Y-60086395D01*
X110200000Y-61220395D01*
X111334000Y-60086395D01*
X111208086Y-59796423D01*
X110875874Y-59630567D01*
X110517688Y-59532710D01*
X110147294Y-59506611D01*
X109778925Y-59553275D01*
X109426738Y-59670906D01*
X109191914Y-59796423D01*
X109066000Y-60086395D01*
X108127000Y-60086395D01*
X108127000Y-54858665D01*
X112945000Y-54858665D01*
X112945000Y-55141335D01*
X113000147Y-55418574D01*
X113108320Y-55679727D01*
X113265363Y-55914759D01*
X113465241Y-56114637D01*
X113697759Y-56270000D01*
X113465241Y-56425363D01*
X113265363Y-56625241D01*
X113108320Y-56860273D01*
X113000147Y-57121426D01*
X112945000Y-57398665D01*
X112945000Y-57681335D01*
X113000147Y-57958574D01*
X113108320Y-58219727D01*
X113265363Y-58454759D01*
X113465241Y-58654637D01*
X113700273Y-58811680D01*
X113961426Y-58919853D01*
X114238665Y-58975000D01*
X114521335Y-58975000D01*
X114798574Y-58919853D01*
X115059727Y-58811680D01*
X115294759Y-58654637D01*
X115494637Y-58454759D01*
X115651680Y-58219727D01*
X115759853Y-57958574D01*
X115815000Y-57681335D01*
X115815000Y-57398665D01*
X115759853Y-57121426D01*
X115651680Y-56860273D01*
X115494637Y-56625241D01*
X115294759Y-56425363D01*
X115062241Y-56270000D01*
X115294759Y-56114637D01*
X115494637Y-55914759D01*
X115651680Y-55679727D01*
X115759853Y-55418574D01*
X115815000Y-55141335D01*
X115815000Y-54858665D01*
X115759853Y-54581426D01*
X115651680Y-54320273D01*
X115494637Y-54085241D01*
X115294759Y-53885363D01*
X115059727Y-53728320D01*
X114798574Y-53620147D01*
X114521335Y-53565000D01*
X114238665Y-53565000D01*
X113961426Y-53620147D01*
X113700273Y-53728320D01*
X113465241Y-53885363D01*
X113265363Y-54085241D01*
X113108320Y-54320273D01*
X113000147Y-54581426D01*
X112945000Y-54858665D01*
X108127000Y-54858665D01*
X108127000Y-50000000D01*
X108124560Y-49975224D01*
X108117333Y-49951399D01*
X108105597Y-49929443D01*
X108089803Y-49910197D01*
X108070557Y-49894403D01*
X108048601Y-49882667D01*
X108024776Y-49875440D01*
X108000000Y-49873000D01*
X100127000Y-49873000D01*
X100127000Y-42750000D01*
X118111928Y-42750000D01*
X118111928Y-45250000D01*
X118124188Y-45374482D01*
X118160498Y-45494180D01*
X118219463Y-45604494D01*
X118298815Y-45701185D01*
X118395506Y-45780537D01*
X118505820Y-45839502D01*
X118625518Y-45875812D01*
X118750000Y-45888072D01*
X121250000Y-45888072D01*
X121374482Y-45875812D01*
X121494180Y-45839502D01*
X121604494Y-45780537D01*
X121701185Y-45701185D01*
X121780537Y-45604494D01*
X121839502Y-45494180D01*
X121875812Y-45374482D01*
X121888072Y-45250000D01*
X121888072Y-42750000D01*
X121875812Y-42625518D01*
X121839502Y-42505820D01*
X121780537Y-42395506D01*
X121701185Y-42298815D01*
X121604494Y-42219463D01*
X121494180Y-42160498D01*
X121374482Y-42124188D01*
X121250000Y-42111928D01*
X118750000Y-42111928D01*
X118625518Y-42124188D01*
X118505820Y-42160498D01*
X118395506Y-42219463D01*
X118298815Y-42298815D01*
X118219463Y-42395506D01*
X118160498Y-42505820D01*
X118124188Y-42625518D01*
X118111928Y-42750000D01*
X100127000Y-42750000D01*
X100127000Y-38414344D01*
X108315000Y-38414344D01*
X108315000Y-38785656D01*
X108387439Y-39149834D01*
X108529534Y-39492882D01*
X108735825Y-39801618D01*
X108998382Y-40064175D01*
X109307118Y-40270466D01*
X109650166Y-40412561D01*
X110014344Y-40485000D01*
X110385656Y-40485000D01*
X110749834Y-40412561D01*
X111092882Y-40270466D01*
X111401618Y-40064175D01*
X111664175Y-39801618D01*
X111870466Y-39492882D01*
X112012561Y-39149834D01*
X112079293Y-38814344D01*
X118115000Y-38814344D01*
X118115000Y-39185656D01*
X118187439Y-39549834D01*
X118329534Y-39892882D01*
X118535825Y-40201618D01*
X118798382Y-40464175D01*
X119107118Y-40670466D01*
X119450166Y-40812561D01*
X119814344Y-40885000D01*
X120185656Y-40885000D01*
X120549834Y-40812561D01*
X120892882Y-40670466D01*
X121201618Y-40464175D01*
X121464175Y-40201618D01*
X121670466Y-39892882D01*
X121812561Y-39549834D01*
X121885000Y-39185656D01*
X121885000Y-38814344D01*
X121812561Y-38450166D01*
X121670466Y-38107118D01*
X121464175Y-37798382D01*
X121201618Y-37535825D01*
X120892882Y-37329534D01*
X120549834Y-37187439D01*
X120185656Y-37115000D01*
X119814344Y-37115000D01*
X119450166Y-37187439D01*
X119107118Y-37329534D01*
X118798382Y-37535825D01*
X118535825Y-37798382D01*
X118329534Y-38107118D01*
X118187439Y-38450166D01*
X118115000Y-38814344D01*
X112079293Y-38814344D01*
X112085000Y-38785656D01*
X112085000Y-38414344D01*
X112012561Y-38050166D01*
X111870466Y-37707118D01*
X111664175Y-37398382D01*
X111401618Y-37135825D01*
X111092882Y-36929534D01*
X110749834Y-36787439D01*
X110385656Y-36715000D01*
X110014344Y-36715000D01*
X109650166Y-36787439D01*
X109307118Y-36929534D01*
X108998382Y-37135825D01*
X108735825Y-37398382D01*
X108529534Y-37707118D01*
X108387439Y-38050166D01*
X108315000Y-38414344D01*
X100127000Y-38414344D01*
X100127000Y-37552606D01*
X106429606Y-31250000D01*
X107271928Y-31250000D01*
X107284188Y-31374482D01*
X107320498Y-31494180D01*
X107379463Y-31604494D01*
X107458815Y-31701185D01*
X107555506Y-31780537D01*
X107665820Y-31839502D01*
X107785518Y-31875812D01*
X107910000Y-31888072D01*
X108874250Y-31885000D01*
X109033000Y-31726250D01*
X109033000Y-30127000D01*
X109287000Y-30127000D01*
X109287000Y-31726250D01*
X109445750Y-31885000D01*
X110410000Y-31888072D01*
X110534482Y-31875812D01*
X110654180Y-31839502D01*
X110764494Y-31780537D01*
X110861185Y-31701185D01*
X110940537Y-31604494D01*
X110999502Y-31494180D01*
X111035812Y-31374482D01*
X111048072Y-31250000D01*
X111045000Y-30285750D01*
X110886250Y-30127000D01*
X109287000Y-30127000D01*
X109033000Y-30127000D01*
X107433750Y-30127000D01*
X107275000Y-30285750D01*
X107271928Y-31250000D01*
X106429606Y-31250000D01*
X106589803Y-31089803D01*
X106605597Y-31070557D01*
X106617333Y-31048601D01*
X106624560Y-31024776D01*
X106627000Y-31000000D01*
X106627000Y-28750000D01*
X107271928Y-28750000D01*
X107275000Y-29714250D01*
X107433750Y-29873000D01*
X109033000Y-29873000D01*
X109033000Y-28273750D01*
X109287000Y-28273750D01*
X109287000Y-29873000D01*
X110886250Y-29873000D01*
X111045000Y-29714250D01*
X111048072Y-28750000D01*
X111035812Y-28625518D01*
X110999502Y-28505820D01*
X110940537Y-28395506D01*
X110861185Y-28298815D01*
X110764494Y-28219463D01*
X110654180Y-28160498D01*
X110534482Y-28124188D01*
X110410000Y-28111928D01*
X109445750Y-28115000D01*
X109287000Y-28273750D01*
X109033000Y-28273750D01*
X108874250Y-28115000D01*
X107910000Y-28111928D01*
X107785518Y-28124188D01*
X107665820Y-28160498D01*
X107555506Y-28219463D01*
X107458815Y-28298815D01*
X107379463Y-28395506D01*
X107320498Y-28505820D01*
X107284188Y-28625518D01*
X107271928Y-28750000D01*
X106627000Y-28750000D01*
X106627000Y-27627000D01*
X117515177Y-27627000D01*
X117331862Y-27810315D01*
G37*
X117331862Y-27810315D02*
X116955943Y-28372918D01*
X116697006Y-28998048D01*
X116565000Y-29661682D01*
X116565000Y-30338318D01*
X116697006Y-31001952D01*
X116955943Y-31627082D01*
X117331862Y-32189685D01*
X117810315Y-32668138D01*
X118372918Y-33044057D01*
X118998048Y-33302994D01*
X119661682Y-33435000D01*
X120338318Y-33435000D01*
X121001952Y-33302994D01*
X121627082Y-33044057D01*
X122189685Y-32668138D01*
X122373000Y-32484823D01*
X122373000Y-53561928D01*
X121200000Y-53561928D01*
X121075518Y-53574188D01*
X120955820Y-53610498D01*
X120845506Y-53669463D01*
X120748815Y-53748815D01*
X120669463Y-53845506D01*
X120610498Y-53955820D01*
X120574188Y-54075518D01*
X120561928Y-54200000D01*
X120561928Y-55800000D01*
X120574188Y-55924482D01*
X120610498Y-56044180D01*
X120669463Y-56154494D01*
X120748815Y-56251185D01*
X120845506Y-56330537D01*
X120955820Y-56389502D01*
X121075518Y-56425812D01*
X121083961Y-56426643D01*
X120885363Y-56625241D01*
X120728320Y-56860273D01*
X120620147Y-57121426D01*
X120565000Y-57398665D01*
X120565000Y-57681335D01*
X120620147Y-57958574D01*
X120728320Y-58219727D01*
X120885363Y-58454759D01*
X121085241Y-58654637D01*
X121320273Y-58811680D01*
X121581426Y-58919853D01*
X121858665Y-58975000D01*
X122141335Y-58975000D01*
X122373000Y-58928918D01*
X122373000Y-63873000D01*
X108127000Y-63873000D01*
X108127000Y-62713605D01*
X109066000Y-62713605D01*
X109191914Y-63003577D01*
X109524126Y-63169433D01*
X109882312Y-63267290D01*
X110252706Y-63293389D01*
X110621075Y-63246725D01*
X110973262Y-63129094D01*
X111208086Y-63003577D01*
X111334000Y-62713605D01*
X110200000Y-61579605D01*
X109066000Y-62713605D01*
X108127000Y-62713605D01*
X108127000Y-61452706D01*
X108306611Y-61452706D01*
X108353275Y-61821075D01*
X108470906Y-62173262D01*
X108596423Y-62408086D01*
X108886395Y-62534000D01*
X110020395Y-61400000D01*
X110379605Y-61400000D01*
X111513605Y-62534000D01*
X111803577Y-62408086D01*
X111969433Y-62075874D01*
X112067290Y-61717688D01*
X112093389Y-61347294D01*
X112046725Y-60978925D01*
X111929094Y-60626738D01*
X111803577Y-60391914D01*
X111513605Y-60266000D01*
X110379605Y-61400000D01*
X110020395Y-61400000D01*
X108886395Y-60266000D01*
X108596423Y-60391914D01*
X108430567Y-60724126D01*
X108332710Y-61082312D01*
X108306611Y-61452706D01*
X108127000Y-61452706D01*
X108127000Y-60086395D01*
X109066000Y-60086395D01*
X110200000Y-61220395D01*
X111334000Y-60086395D01*
X111208086Y-59796423D01*
X110875874Y-59630567D01*
X110517688Y-59532710D01*
X110147294Y-59506611D01*
X109778925Y-59553275D01*
X109426738Y-59670906D01*
X109191914Y-59796423D01*
X109066000Y-60086395D01*
X108127000Y-60086395D01*
X108127000Y-54858665D01*
X112945000Y-54858665D01*
X112945000Y-55141335D01*
X113000147Y-55418574D01*
X113108320Y-55679727D01*
X113265363Y-55914759D01*
X113465241Y-56114637D01*
X113697759Y-56270000D01*
X113465241Y-56425363D01*
X113265363Y-56625241D01*
X113108320Y-56860273D01*
X113000147Y-57121426D01*
X112945000Y-57398665D01*
X112945000Y-57681335D01*
X113000147Y-57958574D01*
X113108320Y-58219727D01*
X113265363Y-58454759D01*
X113465241Y-58654637D01*
X113700273Y-58811680D01*
X113961426Y-58919853D01*
X114238665Y-58975000D01*
X114521335Y-58975000D01*
X114798574Y-58919853D01*
X115059727Y-58811680D01*
X115294759Y-58654637D01*
X115494637Y-58454759D01*
X115651680Y-58219727D01*
X115759853Y-57958574D01*
X115815000Y-57681335D01*
X115815000Y-57398665D01*
X115759853Y-57121426D01*
X115651680Y-56860273D01*
X115494637Y-56625241D01*
X115294759Y-56425363D01*
X115062241Y-56270000D01*
X115294759Y-56114637D01*
X115494637Y-55914759D01*
X115651680Y-55679727D01*
X115759853Y-55418574D01*
X115815000Y-55141335D01*
X115815000Y-54858665D01*
X115759853Y-54581426D01*
X115651680Y-54320273D01*
X115494637Y-54085241D01*
X115294759Y-53885363D01*
X115059727Y-53728320D01*
X114798574Y-53620147D01*
X114521335Y-53565000D01*
X114238665Y-53565000D01*
X113961426Y-53620147D01*
X113700273Y-53728320D01*
X113465241Y-53885363D01*
X113265363Y-54085241D01*
X113108320Y-54320273D01*
X113000147Y-54581426D01*
X112945000Y-54858665D01*
X108127000Y-54858665D01*
X108127000Y-50000000D01*
X108124560Y-49975224D01*
X108117333Y-49951399D01*
X108105597Y-49929443D01*
X108089803Y-49910197D01*
X108070557Y-49894403D01*
X108048601Y-49882667D01*
X108024776Y-49875440D01*
X108000000Y-49873000D01*
X100127000Y-49873000D01*
X100127000Y-42750000D01*
X118111928Y-42750000D01*
X118111928Y-45250000D01*
X118124188Y-45374482D01*
X118160498Y-45494180D01*
X118219463Y-45604494D01*
X118298815Y-45701185D01*
X118395506Y-45780537D01*
X118505820Y-45839502D01*
X118625518Y-45875812D01*
X118750000Y-45888072D01*
X121250000Y-45888072D01*
X121374482Y-45875812D01*
X121494180Y-45839502D01*
X121604494Y-45780537D01*
X121701185Y-45701185D01*
X121780537Y-45604494D01*
X121839502Y-45494180D01*
X121875812Y-45374482D01*
X121888072Y-45250000D01*
X121888072Y-42750000D01*
X121875812Y-42625518D01*
X121839502Y-42505820D01*
X121780537Y-42395506D01*
X121701185Y-42298815D01*
X121604494Y-42219463D01*
X121494180Y-42160498D01*
X121374482Y-42124188D01*
X121250000Y-42111928D01*
X118750000Y-42111928D01*
X118625518Y-42124188D01*
X118505820Y-42160498D01*
X118395506Y-42219463D01*
X118298815Y-42298815D01*
X118219463Y-42395506D01*
X118160498Y-42505820D01*
X118124188Y-42625518D01*
X118111928Y-42750000D01*
X100127000Y-42750000D01*
X100127000Y-38414344D01*
X108315000Y-38414344D01*
X108315000Y-38785656D01*
X108387439Y-39149834D01*
X108529534Y-39492882D01*
X108735825Y-39801618D01*
X108998382Y-40064175D01*
X109307118Y-40270466D01*
X109650166Y-40412561D01*
X110014344Y-40485000D01*
X110385656Y-40485000D01*
X110749834Y-40412561D01*
X111092882Y-40270466D01*
X111401618Y-40064175D01*
X111664175Y-39801618D01*
X111870466Y-39492882D01*
X112012561Y-39149834D01*
X112079293Y-38814344D01*
X118115000Y-38814344D01*
X118115000Y-39185656D01*
X118187439Y-39549834D01*
X118329534Y-39892882D01*
X118535825Y-40201618D01*
X118798382Y-40464175D01*
X119107118Y-40670466D01*
X119450166Y-40812561D01*
X119814344Y-40885000D01*
X120185656Y-40885000D01*
X120549834Y-40812561D01*
X120892882Y-40670466D01*
X121201618Y-40464175D01*
X121464175Y-40201618D01*
X121670466Y-39892882D01*
X121812561Y-39549834D01*
X121885000Y-39185656D01*
X121885000Y-38814344D01*
X121812561Y-38450166D01*
X121670466Y-38107118D01*
X121464175Y-37798382D01*
X121201618Y-37535825D01*
X120892882Y-37329534D01*
X120549834Y-37187439D01*
X120185656Y-37115000D01*
X119814344Y-37115000D01*
X119450166Y-37187439D01*
X119107118Y-37329534D01*
X118798382Y-37535825D01*
X118535825Y-37798382D01*
X118329534Y-38107118D01*
X118187439Y-38450166D01*
X118115000Y-38814344D01*
X112079293Y-38814344D01*
X112085000Y-38785656D01*
X112085000Y-38414344D01*
X112012561Y-38050166D01*
X111870466Y-37707118D01*
X111664175Y-37398382D01*
X111401618Y-37135825D01*
X111092882Y-36929534D01*
X110749834Y-36787439D01*
X110385656Y-36715000D01*
X110014344Y-36715000D01*
X109650166Y-36787439D01*
X109307118Y-36929534D01*
X108998382Y-37135825D01*
X108735825Y-37398382D01*
X108529534Y-37707118D01*
X108387439Y-38050166D01*
X108315000Y-38414344D01*
X100127000Y-38414344D01*
X100127000Y-37552606D01*
X106429606Y-31250000D01*
X107271928Y-31250000D01*
X107284188Y-31374482D01*
X107320498Y-31494180D01*
X107379463Y-31604494D01*
X107458815Y-31701185D01*
X107555506Y-31780537D01*
X107665820Y-31839502D01*
X107785518Y-31875812D01*
X107910000Y-31888072D01*
X108874250Y-31885000D01*
X109033000Y-31726250D01*
X109033000Y-30127000D01*
X109287000Y-30127000D01*
X109287000Y-31726250D01*
X109445750Y-31885000D01*
X110410000Y-31888072D01*
X110534482Y-31875812D01*
X110654180Y-31839502D01*
X110764494Y-31780537D01*
X110861185Y-31701185D01*
X110940537Y-31604494D01*
X110999502Y-31494180D01*
X111035812Y-31374482D01*
X111048072Y-31250000D01*
X111045000Y-30285750D01*
X110886250Y-30127000D01*
X109287000Y-30127000D01*
X109033000Y-30127000D01*
X107433750Y-30127000D01*
X107275000Y-30285750D01*
X107271928Y-31250000D01*
X106429606Y-31250000D01*
X106589803Y-31089803D01*
X106605597Y-31070557D01*
X106617333Y-31048601D01*
X106624560Y-31024776D01*
X106627000Y-31000000D01*
X106627000Y-28750000D01*
X107271928Y-28750000D01*
X107275000Y-29714250D01*
X107433750Y-29873000D01*
X109033000Y-29873000D01*
X109033000Y-28273750D01*
X109287000Y-28273750D01*
X109287000Y-29873000D01*
X110886250Y-29873000D01*
X111045000Y-29714250D01*
X111048072Y-28750000D01*
X111035812Y-28625518D01*
X110999502Y-28505820D01*
X110940537Y-28395506D01*
X110861185Y-28298815D01*
X110764494Y-28219463D01*
X110654180Y-28160498D01*
X110534482Y-28124188D01*
X110410000Y-28111928D01*
X109445750Y-28115000D01*
X109287000Y-28273750D01*
X109033000Y-28273750D01*
X108874250Y-28115000D01*
X107910000Y-28111928D01*
X107785518Y-28124188D01*
X107665820Y-28160498D01*
X107555506Y-28219463D01*
X107458815Y-28298815D01*
X107379463Y-28395506D01*
X107320498Y-28505820D01*
X107284188Y-28625518D01*
X107271928Y-28750000D01*
X106627000Y-28750000D01*
X106627000Y-27627000D01*
X117515177Y-27627000D01*
X117331862Y-27810315D01*
M02*
