G04 #@! TF.GenerationSoftware,KiCad,Pcbnew,5.1.5+dfsg1-2build2*
G04 #@! TF.CreationDate,2021-10-15T23:46:51+10:30*
G04 #@! TF.ProjectId,xover-psu,786f7665-722d-4707-9375-2e6b69636164,rev?*
G04 #@! TF.SameCoordinates,Original*
G04 #@! TF.FileFunction,Soldermask,Top*
G04 #@! TF.FilePolarity,Negative*
%FSLAX46Y46*%
G04 Gerber Fmt 4.6, Leading zero omitted, Abs format (unit mm)*
G04 Created by KiCad (PCBNEW 5.1.5+dfsg1-2build2) date 2021-10-15 23:46:51*
%MOMM*%
%LPD*%
G04 APERTURE LIST*
%ADD10C,0.100000*%
G04 APERTURE END LIST*
D10*
G36*
X36951000Y-123301000D02*
G01*
X35049000Y-123301000D01*
X35049000Y-120699000D01*
X36951000Y-120699000D01*
X36951000Y-123301000D01*
G37*
G36*
X120831606Y-117258562D02*
G01*
X121350455Y-117473476D01*
X121817407Y-117785484D01*
X122214516Y-118182593D01*
X122526524Y-118649545D01*
X122741438Y-119168394D01*
X122851000Y-119719201D01*
X122851000Y-120280799D01*
X122741438Y-120831606D01*
X122526524Y-121350455D01*
X122214516Y-121817407D01*
X121817407Y-122214516D01*
X121350455Y-122526524D01*
X120831606Y-122741438D01*
X120280800Y-122851000D01*
X119719200Y-122851000D01*
X119168394Y-122741438D01*
X118649545Y-122526524D01*
X118182593Y-122214516D01*
X117785484Y-121817407D01*
X117473476Y-121350455D01*
X117258562Y-120831606D01*
X117149000Y-120280799D01*
X117149000Y-119719201D01*
X117258562Y-119168394D01*
X117473476Y-118649545D01*
X117785484Y-118182593D01*
X118182593Y-117785484D01*
X118649545Y-117473476D01*
X119168394Y-117258562D01*
X119719200Y-117149000D01*
X120280800Y-117149000D01*
X120831606Y-117258562D01*
G37*
G36*
X30831606Y-117258562D02*
G01*
X31350455Y-117473476D01*
X31817407Y-117785484D01*
X32214516Y-118182593D01*
X32526524Y-118649545D01*
X32741438Y-119168394D01*
X32851000Y-119719201D01*
X32851000Y-120280799D01*
X32741438Y-120831606D01*
X32526524Y-121350455D01*
X32214516Y-121817407D01*
X31817407Y-122214516D01*
X31350455Y-122526524D01*
X30831606Y-122741438D01*
X30280800Y-122851000D01*
X29719200Y-122851000D01*
X29168394Y-122741438D01*
X28649545Y-122526524D01*
X28182593Y-122214516D01*
X27785484Y-121817407D01*
X27473476Y-121350455D01*
X27258562Y-120831606D01*
X27149000Y-120280799D01*
X27149000Y-119719201D01*
X27258562Y-119168394D01*
X27473476Y-118649545D01*
X27785484Y-118182593D01*
X28182593Y-117785484D01*
X28649545Y-117473476D01*
X29168394Y-117258562D01*
X29719200Y-117149000D01*
X30280800Y-117149000D01*
X30831606Y-117258562D01*
G37*
G36*
X42389943Y-116066248D02*
G01*
X42945189Y-116296238D01*
X42945190Y-116296239D01*
X43444899Y-116630134D01*
X43869866Y-117055101D01*
X43869867Y-117055103D01*
X44203762Y-117554811D01*
X44433752Y-118110057D01*
X44551000Y-118699501D01*
X44551000Y-119300499D01*
X44433752Y-119889943D01*
X44203762Y-120445189D01*
X44203761Y-120445190D01*
X43869866Y-120944899D01*
X43444899Y-121369866D01*
X43193347Y-121537948D01*
X42945189Y-121703762D01*
X42389943Y-121933752D01*
X41800499Y-122051000D01*
X41199501Y-122051000D01*
X40610057Y-121933752D01*
X40054811Y-121703762D01*
X39806653Y-121537948D01*
X39555101Y-121369866D01*
X39130134Y-120944899D01*
X38796239Y-120445190D01*
X38796238Y-120445189D01*
X38566248Y-119889943D01*
X38449000Y-119300499D01*
X38449000Y-118699501D01*
X38566248Y-118110057D01*
X38796238Y-117554811D01*
X39130133Y-117055103D01*
X39130134Y-117055101D01*
X39555101Y-116630134D01*
X40054810Y-116296239D01*
X40054811Y-116296238D01*
X40610057Y-116066248D01*
X41199501Y-115949000D01*
X41800499Y-115949000D01*
X42389943Y-116066248D01*
G37*
G36*
X87389943Y-116066248D02*
G01*
X87945189Y-116296238D01*
X87945190Y-116296239D01*
X88444899Y-116630134D01*
X88869866Y-117055101D01*
X88869867Y-117055103D01*
X89203762Y-117554811D01*
X89433752Y-118110057D01*
X89551000Y-118699501D01*
X89551000Y-119300499D01*
X89433752Y-119889943D01*
X89203762Y-120445189D01*
X89203761Y-120445190D01*
X88869866Y-120944899D01*
X88444899Y-121369866D01*
X88193347Y-121537948D01*
X87945189Y-121703762D01*
X87389943Y-121933752D01*
X86800499Y-122051000D01*
X86199501Y-122051000D01*
X85610057Y-121933752D01*
X85054811Y-121703762D01*
X84806653Y-121537948D01*
X84555101Y-121369866D01*
X84130134Y-120944899D01*
X83796239Y-120445190D01*
X83796238Y-120445189D01*
X83566248Y-119889943D01*
X83449000Y-119300499D01*
X83449000Y-118699501D01*
X83566248Y-118110057D01*
X83796238Y-117554811D01*
X84130133Y-117055103D01*
X84130134Y-117055101D01*
X84555101Y-116630134D01*
X85054810Y-116296239D01*
X85054811Y-116296238D01*
X85610057Y-116066248D01*
X86199501Y-115949000D01*
X86800499Y-115949000D01*
X87389943Y-116066248D01*
G37*
G36*
X108879487Y-118748996D02*
G01*
X109116253Y-118847068D01*
X109116255Y-118847069D01*
X109329339Y-118989447D01*
X109510553Y-119170661D01*
X109597643Y-119301000D01*
X109652932Y-119383747D01*
X109751004Y-119620513D01*
X109801000Y-119871861D01*
X109801000Y-120128139D01*
X109751004Y-120379487D01*
X109721382Y-120451000D01*
X109652931Y-120616255D01*
X109510553Y-120829339D01*
X109329339Y-121010553D01*
X109116255Y-121152931D01*
X109116254Y-121152932D01*
X109116253Y-121152932D01*
X108879487Y-121251004D01*
X108628139Y-121301000D01*
X108371861Y-121301000D01*
X108120513Y-121251004D01*
X107883747Y-121152932D01*
X107883746Y-121152932D01*
X107883745Y-121152931D01*
X107670661Y-121010553D01*
X107489447Y-120829339D01*
X107347069Y-120616255D01*
X107278618Y-120451000D01*
X107248996Y-120379487D01*
X107199000Y-120128139D01*
X107199000Y-119871861D01*
X107248996Y-119620513D01*
X107347068Y-119383747D01*
X107402358Y-119301000D01*
X107489447Y-119170661D01*
X107670661Y-118989447D01*
X107883745Y-118847069D01*
X107883747Y-118847068D01*
X108120513Y-118748996D01*
X108371861Y-118699000D01*
X108628139Y-118699000D01*
X108879487Y-118748996D01*
G37*
G36*
X104801000Y-121301000D02*
G01*
X102199000Y-121301000D01*
X102199000Y-118699000D01*
X104801000Y-118699000D01*
X104801000Y-121301000D01*
G37*
G36*
X113879487Y-118748996D02*
G01*
X114116253Y-118847068D01*
X114116255Y-118847069D01*
X114329339Y-118989447D01*
X114510553Y-119170661D01*
X114597643Y-119301000D01*
X114652932Y-119383747D01*
X114751004Y-119620513D01*
X114801000Y-119871861D01*
X114801000Y-120128139D01*
X114751004Y-120379487D01*
X114721382Y-120451000D01*
X114652931Y-120616255D01*
X114510553Y-120829339D01*
X114329339Y-121010553D01*
X114116255Y-121152931D01*
X114116254Y-121152932D01*
X114116253Y-121152932D01*
X113879487Y-121251004D01*
X113628139Y-121301000D01*
X113371861Y-121301000D01*
X113120513Y-121251004D01*
X112883747Y-121152932D01*
X112883746Y-121152932D01*
X112883745Y-121152931D01*
X112670661Y-121010553D01*
X112489447Y-120829339D01*
X112347069Y-120616255D01*
X112278618Y-120451000D01*
X112248996Y-120379487D01*
X112199000Y-120128139D01*
X112199000Y-119871861D01*
X112248996Y-119620513D01*
X112347068Y-119383747D01*
X112402358Y-119301000D01*
X112489447Y-119170661D01*
X112670661Y-118989447D01*
X112883745Y-118847069D01*
X112883747Y-118847068D01*
X113120513Y-118748996D01*
X113371861Y-118699000D01*
X113628139Y-118699000D01*
X113879487Y-118748996D01*
G37*
G36*
X72301000Y-120451000D02*
G01*
X69699000Y-120451000D01*
X69699000Y-118549000D01*
X72301000Y-118549000D01*
X72301000Y-120451000D01*
G37*
G36*
X68301000Y-120451000D02*
G01*
X65699000Y-120451000D01*
X65699000Y-118549000D01*
X68301000Y-118549000D01*
X68301000Y-120451000D01*
G37*
G36*
X58301000Y-120451000D02*
G01*
X55699000Y-120451000D01*
X55699000Y-118549000D01*
X58301000Y-118549000D01*
X58301000Y-120451000D01*
G37*
G36*
X62301000Y-120451000D02*
G01*
X59699000Y-120451000D01*
X59699000Y-118549000D01*
X62301000Y-118549000D01*
X62301000Y-120451000D01*
G37*
G36*
X48301000Y-120451000D02*
G01*
X45699000Y-120451000D01*
X45699000Y-118549000D01*
X48301000Y-118549000D01*
X48301000Y-120451000D01*
G37*
G36*
X82301000Y-120451000D02*
G01*
X79699000Y-120451000D01*
X79699000Y-118549000D01*
X82301000Y-118549000D01*
X82301000Y-120451000D01*
G37*
G36*
X52301000Y-120451000D02*
G01*
X49699000Y-120451000D01*
X49699000Y-118549000D01*
X52301000Y-118549000D01*
X52301000Y-120451000D01*
G37*
G36*
X78301000Y-120451000D02*
G01*
X75699000Y-120451000D01*
X75699000Y-118549000D01*
X78301000Y-118549000D01*
X78301000Y-120451000D01*
G37*
G36*
X36951000Y-119301000D02*
G01*
X35049000Y-119301000D01*
X35049000Y-116699000D01*
X36951000Y-116699000D01*
X36951000Y-119301000D01*
G37*
G36*
X49351257Y-114490103D02*
G01*
X49451132Y-114509969D01*
X49568039Y-114558394D01*
X49733371Y-114626876D01*
X49987381Y-114796600D01*
X50203400Y-115012619D01*
X50373124Y-115266629D01*
X50490031Y-115548869D01*
X50549630Y-115848491D01*
X50549630Y-116153989D01*
X50490031Y-116453611D01*
X50373124Y-116735851D01*
X50203400Y-116989861D01*
X49987381Y-117205880D01*
X49733371Y-117375604D01*
X49568039Y-117444086D01*
X49451132Y-117492511D01*
X49351257Y-117512377D01*
X49151509Y-117552110D01*
X48846011Y-117552110D01*
X48646263Y-117512377D01*
X48546388Y-117492511D01*
X48429481Y-117444086D01*
X48264149Y-117375604D01*
X48010139Y-117205880D01*
X47794120Y-116989861D01*
X47624396Y-116735851D01*
X47507489Y-116453611D01*
X47447890Y-116153989D01*
X47447890Y-115848491D01*
X47507489Y-115548869D01*
X47624396Y-115266629D01*
X47794120Y-115012619D01*
X48010139Y-114796600D01*
X48264149Y-114626876D01*
X48429481Y-114558394D01*
X48546388Y-114509969D01*
X48646263Y-114490103D01*
X48846011Y-114450370D01*
X49151509Y-114450370D01*
X49351257Y-114490103D01*
G37*
G36*
X79353737Y-114490103D02*
G01*
X79453612Y-114509969D01*
X79570519Y-114558394D01*
X79735851Y-114626876D01*
X79989861Y-114796600D01*
X80205880Y-115012619D01*
X80375604Y-115266629D01*
X80492511Y-115548869D01*
X80552110Y-115848491D01*
X80552110Y-116153989D01*
X80492511Y-116453611D01*
X80375604Y-116735851D01*
X80205880Y-116989861D01*
X79989861Y-117205880D01*
X79735851Y-117375604D01*
X79570519Y-117444086D01*
X79453612Y-117492511D01*
X79353737Y-117512377D01*
X79153989Y-117552110D01*
X78848491Y-117552110D01*
X78648743Y-117512377D01*
X78548868Y-117492511D01*
X78431961Y-117444086D01*
X78266629Y-117375604D01*
X78012619Y-117205880D01*
X77796600Y-116989861D01*
X77626876Y-116735851D01*
X77509969Y-116453611D01*
X77450370Y-116153989D01*
X77450370Y-115848491D01*
X77509969Y-115548869D01*
X77626876Y-115266629D01*
X77796600Y-115012619D01*
X78012619Y-114796600D01*
X78266629Y-114626876D01*
X78431961Y-114558394D01*
X78548868Y-114509969D01*
X78648743Y-114490103D01*
X78848491Y-114450370D01*
X79153989Y-114450370D01*
X79353737Y-114490103D01*
G37*
G36*
X54352517Y-114490103D02*
G01*
X54452392Y-114509969D01*
X54569299Y-114558394D01*
X54734631Y-114626876D01*
X54988641Y-114796600D01*
X55204660Y-115012619D01*
X55374384Y-115266629D01*
X55491291Y-115548869D01*
X55550890Y-115848491D01*
X55550890Y-116153989D01*
X55491291Y-116453611D01*
X55374384Y-116735851D01*
X55204660Y-116989861D01*
X54988641Y-117205880D01*
X54734631Y-117375604D01*
X54569299Y-117444086D01*
X54452392Y-117492511D01*
X54352517Y-117512377D01*
X54152769Y-117552110D01*
X53847271Y-117552110D01*
X53647523Y-117512377D01*
X53547648Y-117492511D01*
X53430741Y-117444086D01*
X53265409Y-117375604D01*
X53011399Y-117205880D01*
X52795380Y-116989861D01*
X52625656Y-116735851D01*
X52508749Y-116453611D01*
X52449150Y-116153989D01*
X52449150Y-115848491D01*
X52508749Y-115548869D01*
X52625656Y-115266629D01*
X52795380Y-115012619D01*
X53011399Y-114796600D01*
X53265409Y-114626876D01*
X53430741Y-114558394D01*
X53547648Y-114509969D01*
X53647523Y-114490103D01*
X53847271Y-114450370D01*
X54152769Y-114450370D01*
X54352517Y-114490103D01*
G37*
G36*
X74352477Y-114490103D02*
G01*
X74452352Y-114509969D01*
X74569259Y-114558394D01*
X74734591Y-114626876D01*
X74988601Y-114796600D01*
X75204620Y-115012619D01*
X75374344Y-115266629D01*
X75491251Y-115548869D01*
X75550850Y-115848491D01*
X75550850Y-116153989D01*
X75491251Y-116453611D01*
X75374344Y-116735851D01*
X75204620Y-116989861D01*
X74988601Y-117205880D01*
X74734591Y-117375604D01*
X74569259Y-117444086D01*
X74452352Y-117492511D01*
X74352477Y-117512377D01*
X74152729Y-117552110D01*
X73847231Y-117552110D01*
X73647483Y-117512377D01*
X73547608Y-117492511D01*
X73430701Y-117444086D01*
X73265369Y-117375604D01*
X73011359Y-117205880D01*
X72795340Y-116989861D01*
X72625616Y-116735851D01*
X72508709Y-116453611D01*
X72449110Y-116153989D01*
X72449110Y-115848491D01*
X72508709Y-115548869D01*
X72625616Y-115266629D01*
X72795340Y-115012619D01*
X73011359Y-114796600D01*
X73265369Y-114626876D01*
X73430701Y-114558394D01*
X73547608Y-114509969D01*
X73647483Y-114490103D01*
X73847231Y-114450370D01*
X74152729Y-114450370D01*
X74352477Y-114490103D01*
G37*
G36*
X69353757Y-114490103D02*
G01*
X69453632Y-114509969D01*
X69570539Y-114558394D01*
X69735871Y-114626876D01*
X69989881Y-114796600D01*
X70205900Y-115012619D01*
X70375624Y-115266629D01*
X70492531Y-115548869D01*
X70552130Y-115848491D01*
X70552130Y-116153989D01*
X70492531Y-116453611D01*
X70375624Y-116735851D01*
X70205900Y-116989861D01*
X69989881Y-117205880D01*
X69735871Y-117375604D01*
X69570539Y-117444086D01*
X69453632Y-117492511D01*
X69353757Y-117512377D01*
X69154009Y-117552110D01*
X68848511Y-117552110D01*
X68648763Y-117512377D01*
X68548888Y-117492511D01*
X68431981Y-117444086D01*
X68266649Y-117375604D01*
X68012639Y-117205880D01*
X67796620Y-116989861D01*
X67626896Y-116735851D01*
X67509989Y-116453611D01*
X67450390Y-116153989D01*
X67450390Y-115848491D01*
X67509989Y-115548869D01*
X67626896Y-115266629D01*
X67796620Y-115012619D01*
X68012639Y-114796600D01*
X68266649Y-114626876D01*
X68431981Y-114558394D01*
X68548888Y-114509969D01*
X68648763Y-114490103D01*
X68848511Y-114450370D01*
X69154009Y-114450370D01*
X69353757Y-114490103D01*
G37*
G36*
X59351237Y-114490103D02*
G01*
X59451112Y-114509969D01*
X59568019Y-114558394D01*
X59733351Y-114626876D01*
X59987361Y-114796600D01*
X60203380Y-115012619D01*
X60373104Y-115266629D01*
X60490011Y-115548869D01*
X60549610Y-115848491D01*
X60549610Y-116153989D01*
X60490011Y-116453611D01*
X60373104Y-116735851D01*
X60203380Y-116989861D01*
X59987361Y-117205880D01*
X59733351Y-117375604D01*
X59568019Y-117444086D01*
X59451112Y-117492511D01*
X59351237Y-117512377D01*
X59151489Y-117552110D01*
X58845991Y-117552110D01*
X58646243Y-117512377D01*
X58546368Y-117492511D01*
X58429461Y-117444086D01*
X58264129Y-117375604D01*
X58010119Y-117205880D01*
X57794100Y-116989861D01*
X57624376Y-116735851D01*
X57507469Y-116453611D01*
X57447870Y-116153989D01*
X57447870Y-115848491D01*
X57507469Y-115548869D01*
X57624376Y-115266629D01*
X57794100Y-115012619D01*
X58010119Y-114796600D01*
X58264129Y-114626876D01*
X58429461Y-114558394D01*
X58546368Y-114509969D01*
X58646243Y-114490103D01*
X58845991Y-114450370D01*
X59151489Y-114450370D01*
X59351237Y-114490103D01*
G37*
G36*
X38951000Y-115801000D02*
G01*
X37049000Y-115801000D01*
X37049000Y-113199000D01*
X38951000Y-113199000D01*
X38951000Y-115801000D01*
G37*
G36*
X52747070Y-105950877D02*
G01*
X52759493Y-105954646D01*
X52770954Y-105960772D01*
X52780991Y-105969009D01*
X52789228Y-105979046D01*
X52795354Y-105990507D01*
X52799123Y-106002930D01*
X52801000Y-106021994D01*
X52801000Y-113478006D01*
X52799123Y-113497070D01*
X52795354Y-113509493D01*
X52789228Y-113520954D01*
X52780991Y-113530991D01*
X52770954Y-113539228D01*
X52759493Y-113545354D01*
X52747070Y-113549123D01*
X52728006Y-113551000D01*
X46271994Y-113551000D01*
X46252930Y-113549123D01*
X46240507Y-113545354D01*
X46229046Y-113539228D01*
X46219009Y-113530991D01*
X46210772Y-113520954D01*
X46204646Y-113509493D01*
X46200877Y-113497070D01*
X46199000Y-113478006D01*
X46199000Y-106021994D01*
X46200877Y-106002930D01*
X46204646Y-105990507D01*
X46210772Y-105979046D01*
X46219009Y-105969009D01*
X46229046Y-105960772D01*
X46240507Y-105954646D01*
X46252930Y-105950877D01*
X46271994Y-105949000D01*
X52728006Y-105949000D01*
X52747070Y-105950877D01*
G37*
G36*
X92747070Y-105950877D02*
G01*
X92759493Y-105954646D01*
X92770954Y-105960772D01*
X92780991Y-105969009D01*
X92789228Y-105979046D01*
X92795354Y-105990507D01*
X92799123Y-106002930D01*
X92801000Y-106021994D01*
X92801000Y-113478006D01*
X92799123Y-113497070D01*
X92795354Y-113509493D01*
X92789228Y-113520954D01*
X92780991Y-113530991D01*
X92770954Y-113539228D01*
X92759493Y-113545354D01*
X92747070Y-113549123D01*
X92728006Y-113551000D01*
X86271994Y-113551000D01*
X86252930Y-113549123D01*
X86240507Y-113545354D01*
X86229046Y-113539228D01*
X86219009Y-113530991D01*
X86210772Y-113520954D01*
X86204646Y-113509493D01*
X86200877Y-113497070D01*
X86199000Y-113478006D01*
X86199000Y-106021994D01*
X86200877Y-106002930D01*
X86204646Y-105990507D01*
X86210772Y-105979046D01*
X86219009Y-105969009D01*
X86229046Y-105960772D01*
X86240507Y-105954646D01*
X86252930Y-105950877D01*
X86271994Y-105949000D01*
X92728006Y-105949000D01*
X92747070Y-105950877D01*
G37*
G36*
X117747070Y-105950877D02*
G01*
X117759493Y-105954646D01*
X117770954Y-105960772D01*
X117780991Y-105969009D01*
X117789228Y-105979046D01*
X117795354Y-105990507D01*
X117799123Y-106002930D01*
X117801000Y-106021994D01*
X117801000Y-113478006D01*
X117799123Y-113497070D01*
X117795354Y-113509493D01*
X117789228Y-113520954D01*
X117780991Y-113530991D01*
X117770954Y-113539228D01*
X117759493Y-113545354D01*
X117747070Y-113549123D01*
X117728006Y-113551000D01*
X111271994Y-113551000D01*
X111252930Y-113549123D01*
X111240507Y-113545354D01*
X111229046Y-113539228D01*
X111219009Y-113530991D01*
X111210772Y-113520954D01*
X111204646Y-113509493D01*
X111200877Y-113497070D01*
X111199000Y-113478006D01*
X111199000Y-106021994D01*
X111200877Y-106002930D01*
X111204646Y-105990507D01*
X111210772Y-105979046D01*
X111219009Y-105969009D01*
X111229046Y-105960772D01*
X111240507Y-105954646D01*
X111252930Y-105950877D01*
X111271994Y-105949000D01*
X117728006Y-105949000D01*
X117747070Y-105950877D01*
G37*
G36*
X72747070Y-105950877D02*
G01*
X72759493Y-105954646D01*
X72770954Y-105960772D01*
X72780991Y-105969009D01*
X72789228Y-105979046D01*
X72795354Y-105990507D01*
X72799123Y-106002930D01*
X72801000Y-106021994D01*
X72801000Y-113478006D01*
X72799123Y-113497070D01*
X72795354Y-113509493D01*
X72789228Y-113520954D01*
X72780991Y-113530991D01*
X72770954Y-113539228D01*
X72759493Y-113545354D01*
X72747070Y-113549123D01*
X72728006Y-113551000D01*
X66271994Y-113551000D01*
X66252930Y-113549123D01*
X66240507Y-113545354D01*
X66229046Y-113539228D01*
X66219009Y-113530991D01*
X66210772Y-113520954D01*
X66204646Y-113509493D01*
X66200877Y-113497070D01*
X66199000Y-113478006D01*
X66199000Y-106021994D01*
X66200877Y-106002930D01*
X66204646Y-105990507D01*
X66210772Y-105979046D01*
X66219009Y-105969009D01*
X66229046Y-105960772D01*
X66240507Y-105954646D01*
X66252930Y-105950877D01*
X66271994Y-105949000D01*
X72728006Y-105949000D01*
X72747070Y-105950877D01*
G37*
G36*
X38951000Y-111801000D02*
G01*
X37049000Y-111801000D01*
X37049000Y-109199000D01*
X38951000Y-109199000D01*
X38951000Y-111801000D01*
G37*
G36*
X102364903Y-108877075D02*
G01*
X102592571Y-108971378D01*
X102797466Y-109108285D01*
X102971715Y-109282534D01*
X103108622Y-109487429D01*
X103202925Y-109715097D01*
X103251000Y-109956787D01*
X103251000Y-110203213D01*
X103202925Y-110444903D01*
X103108622Y-110672571D01*
X102971715Y-110877466D01*
X102797466Y-111051715D01*
X102592571Y-111188622D01*
X102592570Y-111188623D01*
X102592569Y-111188623D01*
X102364903Y-111282925D01*
X102123214Y-111331000D01*
X101876786Y-111331000D01*
X101635097Y-111282925D01*
X101407431Y-111188623D01*
X101407430Y-111188623D01*
X101407429Y-111188622D01*
X101202534Y-111051715D01*
X101028285Y-110877466D01*
X100891378Y-110672571D01*
X100797075Y-110444903D01*
X100749000Y-110203213D01*
X100749000Y-109956787D01*
X100797075Y-109715097D01*
X100891378Y-109487429D01*
X101028285Y-109282534D01*
X101202534Y-109108285D01*
X101407429Y-108971378D01*
X101635097Y-108877075D01*
X101876786Y-108829000D01*
X102123214Y-108829000D01*
X102364903Y-108877075D01*
G37*
G36*
X38951000Y-108051000D02*
G01*
X37049000Y-108051000D01*
X37049000Y-105449000D01*
X38951000Y-105449000D01*
X38951000Y-108051000D01*
G37*
G36*
X102364903Y-103797075D02*
G01*
X102563292Y-103879250D01*
X102592571Y-103891378D01*
X102797466Y-104028285D01*
X102971715Y-104202534D01*
X103108622Y-104407429D01*
X103108623Y-104407431D01*
X103202925Y-104635097D01*
X103251000Y-104876786D01*
X103251000Y-105123214D01*
X103202925Y-105364903D01*
X103108622Y-105592571D01*
X102971715Y-105797466D01*
X102797466Y-105971715D01*
X102592571Y-106108622D01*
X102592570Y-106108623D01*
X102592569Y-106108623D01*
X102364903Y-106202925D01*
X102123214Y-106251000D01*
X101876786Y-106251000D01*
X101635097Y-106202925D01*
X101407431Y-106108623D01*
X101407430Y-106108623D01*
X101407429Y-106108622D01*
X101202534Y-105971715D01*
X101028285Y-105797466D01*
X100891378Y-105592571D01*
X100797075Y-105364903D01*
X100749000Y-105123214D01*
X100749000Y-104876786D01*
X100797075Y-104635097D01*
X100891377Y-104407431D01*
X100891378Y-104407429D01*
X101028285Y-104202534D01*
X101202534Y-104028285D01*
X101407429Y-103891378D01*
X101436709Y-103879250D01*
X101635097Y-103797075D01*
X101876786Y-103749000D01*
X102123214Y-103749000D01*
X102364903Y-103797075D01*
G37*
G36*
X30357610Y-102821114D02*
G01*
X30580727Y-102913532D01*
X30580729Y-102913533D01*
X30631269Y-102947303D01*
X30781529Y-103047703D01*
X30952297Y-103218471D01*
X31086468Y-103419273D01*
X31178886Y-103642390D01*
X31226000Y-103879248D01*
X31226000Y-104120752D01*
X31178886Y-104357610D01*
X31086468Y-104580727D01*
X30952297Y-104781529D01*
X30781529Y-104952297D01*
X30631269Y-105052697D01*
X30580729Y-105086467D01*
X30580728Y-105086468D01*
X30580727Y-105086468D01*
X30357610Y-105178886D01*
X30120752Y-105226000D01*
X29879248Y-105226000D01*
X29642390Y-105178886D01*
X29419273Y-105086468D01*
X29419272Y-105086468D01*
X29419271Y-105086467D01*
X29368731Y-105052697D01*
X29218471Y-104952297D01*
X29047703Y-104781529D01*
X28913532Y-104580727D01*
X28821114Y-104357610D01*
X28774000Y-104120752D01*
X28774000Y-103879248D01*
X28821114Y-103642390D01*
X28913532Y-103419273D01*
X29047703Y-103218471D01*
X29218471Y-103047703D01*
X29368731Y-102947303D01*
X29419271Y-102913533D01*
X29419273Y-102913532D01*
X29642390Y-102821114D01*
X29879248Y-102774000D01*
X30120752Y-102774000D01*
X30357610Y-102821114D01*
G37*
G36*
X38951000Y-104051000D02*
G01*
X37049000Y-104051000D01*
X37049000Y-101449000D01*
X38951000Y-101449000D01*
X38951000Y-104051000D01*
G37*
G36*
X102364903Y-99877075D02*
G01*
X102586454Y-99968844D01*
X102592571Y-99971378D01*
X102797466Y-100108285D01*
X102971715Y-100282534D01*
X103108622Y-100487429D01*
X103202925Y-100715097D01*
X103251000Y-100956787D01*
X103251000Y-101203213D01*
X103202925Y-101444903D01*
X103108622Y-101672571D01*
X102971715Y-101877466D01*
X102797466Y-102051715D01*
X102592571Y-102188622D01*
X102592570Y-102188623D01*
X102592569Y-102188623D01*
X102364903Y-102282925D01*
X102123214Y-102331000D01*
X101876786Y-102331000D01*
X101635097Y-102282925D01*
X101407431Y-102188623D01*
X101407430Y-102188623D01*
X101407429Y-102188622D01*
X101202534Y-102051715D01*
X101028285Y-101877466D01*
X100891378Y-101672571D01*
X100797075Y-101444903D01*
X100749000Y-101203213D01*
X100749000Y-100956787D01*
X100797075Y-100715097D01*
X100891378Y-100487429D01*
X101028285Y-100282534D01*
X101202534Y-100108285D01*
X101407429Y-99971378D01*
X101413547Y-99968844D01*
X101635097Y-99877075D01*
X101876786Y-99829000D01*
X102123214Y-99829000D01*
X102364903Y-99877075D01*
G37*
G36*
X38951000Y-100301000D02*
G01*
X37049000Y-100301000D01*
X37049000Y-97699000D01*
X38951000Y-97699000D01*
X38951000Y-100301000D01*
G37*
G36*
X117747070Y-92450877D02*
G01*
X117759493Y-92454646D01*
X117770954Y-92460772D01*
X117780991Y-92469009D01*
X117789228Y-92479046D01*
X117795354Y-92490507D01*
X117799123Y-92502930D01*
X117801000Y-92521994D01*
X117801000Y-99978006D01*
X117799123Y-99997070D01*
X117795354Y-100009493D01*
X117789228Y-100020954D01*
X117780991Y-100030991D01*
X117770954Y-100039228D01*
X117759493Y-100045354D01*
X117747070Y-100049123D01*
X117728006Y-100051000D01*
X111271994Y-100051000D01*
X111252930Y-100049123D01*
X111240507Y-100045354D01*
X111229046Y-100039228D01*
X111219009Y-100030991D01*
X111210772Y-100020954D01*
X111204646Y-100009493D01*
X111200877Y-99997070D01*
X111199000Y-99978006D01*
X111199000Y-92521994D01*
X111200877Y-92502930D01*
X111204646Y-92490507D01*
X111210772Y-92479046D01*
X111219009Y-92469009D01*
X111229046Y-92460772D01*
X111240507Y-92454646D01*
X111252930Y-92450877D01*
X111271994Y-92449000D01*
X117728006Y-92449000D01*
X117747070Y-92450877D01*
G37*
G36*
X92747070Y-92450877D02*
G01*
X92759493Y-92454646D01*
X92770954Y-92460772D01*
X92780991Y-92469009D01*
X92789228Y-92479046D01*
X92795354Y-92490507D01*
X92799123Y-92502930D01*
X92801000Y-92521994D01*
X92801000Y-99978006D01*
X92799123Y-99997070D01*
X92795354Y-100009493D01*
X92789228Y-100020954D01*
X92780991Y-100030991D01*
X92770954Y-100039228D01*
X92759493Y-100045354D01*
X92747070Y-100049123D01*
X92728006Y-100051000D01*
X86271994Y-100051000D01*
X86252930Y-100049123D01*
X86240507Y-100045354D01*
X86229046Y-100039228D01*
X86219009Y-100030991D01*
X86210772Y-100020954D01*
X86204646Y-100009493D01*
X86200877Y-99997070D01*
X86199000Y-99978006D01*
X86199000Y-92521994D01*
X86200877Y-92502930D01*
X86204646Y-92490507D01*
X86210772Y-92479046D01*
X86219009Y-92469009D01*
X86229046Y-92460772D01*
X86240507Y-92454646D01*
X86252930Y-92450877D01*
X86271994Y-92449000D01*
X92728006Y-92449000D01*
X92747070Y-92450877D01*
G37*
G36*
X72747070Y-92450877D02*
G01*
X72759493Y-92454646D01*
X72770954Y-92460772D01*
X72780991Y-92469009D01*
X72789228Y-92479046D01*
X72795354Y-92490507D01*
X72799123Y-92502930D01*
X72801000Y-92521994D01*
X72801000Y-99978006D01*
X72799123Y-99997070D01*
X72795354Y-100009493D01*
X72789228Y-100020954D01*
X72780991Y-100030991D01*
X72770954Y-100039228D01*
X72759493Y-100045354D01*
X72747070Y-100049123D01*
X72728006Y-100051000D01*
X66271994Y-100051000D01*
X66252930Y-100049123D01*
X66240507Y-100045354D01*
X66229046Y-100039228D01*
X66219009Y-100030991D01*
X66210772Y-100020954D01*
X66204646Y-100009493D01*
X66200877Y-99997070D01*
X66199000Y-99978006D01*
X66199000Y-92521994D01*
X66200877Y-92502930D01*
X66204646Y-92490507D01*
X66210772Y-92479046D01*
X66219009Y-92469009D01*
X66229046Y-92460772D01*
X66240507Y-92454646D01*
X66252930Y-92450877D01*
X66271994Y-92449000D01*
X72728006Y-92449000D01*
X72747070Y-92450877D01*
G37*
G36*
X52747070Y-92450877D02*
G01*
X52759493Y-92454646D01*
X52770954Y-92460772D01*
X52780991Y-92469009D01*
X52789228Y-92479046D01*
X52795354Y-92490507D01*
X52799123Y-92502930D01*
X52801000Y-92521994D01*
X52801000Y-99978006D01*
X52799123Y-99997070D01*
X52795354Y-100009493D01*
X52789228Y-100020954D01*
X52780991Y-100030991D01*
X52770954Y-100039228D01*
X52759493Y-100045354D01*
X52747070Y-100049123D01*
X52728006Y-100051000D01*
X46271994Y-100051000D01*
X46252930Y-100049123D01*
X46240507Y-100045354D01*
X46229046Y-100039228D01*
X46219009Y-100030991D01*
X46210772Y-100020954D01*
X46204646Y-100009493D01*
X46200877Y-99997070D01*
X46199000Y-99978006D01*
X46199000Y-92521994D01*
X46200877Y-92502930D01*
X46204646Y-92490507D01*
X46210772Y-92479046D01*
X46219009Y-92469009D01*
X46229046Y-92460772D01*
X46240507Y-92454646D01*
X46252930Y-92450877D01*
X46271994Y-92449000D01*
X52728006Y-92449000D01*
X52747070Y-92450877D01*
G37*
G36*
X30357610Y-96821114D02*
G01*
X30580727Y-96913532D01*
X30580729Y-96913533D01*
X30631269Y-96947303D01*
X30781529Y-97047703D01*
X30952297Y-97218471D01*
X31086468Y-97419273D01*
X31178886Y-97642390D01*
X31226000Y-97879248D01*
X31226000Y-98120752D01*
X31178886Y-98357610D01*
X31086468Y-98580727D01*
X30952297Y-98781529D01*
X30781529Y-98952297D01*
X30631269Y-99052697D01*
X30580729Y-99086467D01*
X30580728Y-99086468D01*
X30580727Y-99086468D01*
X30357610Y-99178886D01*
X30120752Y-99226000D01*
X29879248Y-99226000D01*
X29642390Y-99178886D01*
X29419273Y-99086468D01*
X29419272Y-99086468D01*
X29419271Y-99086467D01*
X29368731Y-99052697D01*
X29218471Y-98952297D01*
X29047703Y-98781529D01*
X28913532Y-98580727D01*
X28821114Y-98357610D01*
X28774000Y-98120752D01*
X28774000Y-97879248D01*
X28821114Y-97642390D01*
X28913532Y-97419273D01*
X29047703Y-97218471D01*
X29218471Y-97047703D01*
X29368731Y-96947303D01*
X29419271Y-96913533D01*
X29419273Y-96913532D01*
X29642390Y-96821114D01*
X29879248Y-96774000D01*
X30120752Y-96774000D01*
X30357610Y-96821114D01*
G37*
G36*
X102364903Y-94797075D02*
G01*
X102592571Y-94891378D01*
X102797466Y-95028285D01*
X102971715Y-95202534D01*
X103108622Y-95407429D01*
X103202925Y-95635097D01*
X103251000Y-95876787D01*
X103251000Y-96123213D01*
X103202925Y-96364903D01*
X103108622Y-96592571D01*
X102971715Y-96797466D01*
X102797466Y-96971715D01*
X102592571Y-97108622D01*
X102592570Y-97108623D01*
X102592569Y-97108623D01*
X102364903Y-97202925D01*
X102123214Y-97251000D01*
X101876786Y-97251000D01*
X101635097Y-97202925D01*
X101407431Y-97108623D01*
X101407430Y-97108623D01*
X101407429Y-97108622D01*
X101202534Y-96971715D01*
X101028285Y-96797466D01*
X100891378Y-96592571D01*
X100797075Y-96364903D01*
X100749000Y-96123213D01*
X100749000Y-95876787D01*
X100797075Y-95635097D01*
X100891378Y-95407429D01*
X101028285Y-95202534D01*
X101202534Y-95028285D01*
X101407429Y-94891378D01*
X101635097Y-94797075D01*
X101876786Y-94749000D01*
X102123214Y-94749000D01*
X102364903Y-94797075D01*
G37*
G36*
X38951000Y-96301000D02*
G01*
X37049000Y-96301000D01*
X37049000Y-93699000D01*
X38951000Y-93699000D01*
X38951000Y-96301000D01*
G37*
G36*
X106801000Y-91951000D02*
G01*
X104199000Y-91951000D01*
X104199000Y-90049000D01*
X106801000Y-90049000D01*
X106801000Y-91951000D01*
G37*
G36*
X102801000Y-91951000D02*
G01*
X100199000Y-91951000D01*
X100199000Y-90049000D01*
X102801000Y-90049000D01*
X102801000Y-91951000D01*
G37*
G36*
X99051000Y-90301000D02*
G01*
X97949000Y-90301000D01*
X97949000Y-87699000D01*
X99051000Y-87699000D01*
X99051000Y-90301000D01*
G37*
G36*
X96051000Y-90301000D02*
G01*
X94949000Y-90301000D01*
X94949000Y-87699000D01*
X96051000Y-87699000D01*
X96051000Y-90301000D01*
G37*
G36*
X30357610Y-86821114D02*
G01*
X30580727Y-86913532D01*
X30580729Y-86913533D01*
X30631269Y-86947303D01*
X30781529Y-87047703D01*
X30952297Y-87218471D01*
X31086468Y-87419273D01*
X31178886Y-87642390D01*
X31226000Y-87879248D01*
X31226000Y-88120752D01*
X31178886Y-88357610D01*
X31086468Y-88580727D01*
X30952297Y-88781529D01*
X30781529Y-88952297D01*
X30631269Y-89052697D01*
X30580729Y-89086467D01*
X30580728Y-89086468D01*
X30580727Y-89086468D01*
X30357610Y-89178886D01*
X30120752Y-89226000D01*
X29879248Y-89226000D01*
X29642390Y-89178886D01*
X29419273Y-89086468D01*
X29419272Y-89086468D01*
X29419271Y-89086467D01*
X29368731Y-89052697D01*
X29218471Y-88952297D01*
X29047703Y-88781529D01*
X28913532Y-88580727D01*
X28821114Y-88357610D01*
X28774000Y-88120752D01*
X28774000Y-87879248D01*
X28821114Y-87642390D01*
X28913532Y-87419273D01*
X29047703Y-87218471D01*
X29218471Y-87047703D01*
X29368731Y-86947303D01*
X29419271Y-86913533D01*
X29419273Y-86913532D01*
X29642390Y-86821114D01*
X29879248Y-86774000D01*
X30120752Y-86774000D01*
X30357610Y-86821114D01*
G37*
G36*
X109301000Y-88451000D02*
G01*
X106699000Y-88451000D01*
X106699000Y-86549000D01*
X109301000Y-86549000D01*
X109301000Y-88451000D01*
G37*
G36*
X113301000Y-88451000D02*
G01*
X110699000Y-88451000D01*
X110699000Y-86549000D01*
X113301000Y-86549000D01*
X113301000Y-88451000D01*
G37*
G36*
X122401000Y-87701000D02*
G01*
X121599000Y-87701000D01*
X121599000Y-86299000D01*
X122401000Y-86299000D01*
X122401000Y-87701000D01*
G37*
G36*
X120501000Y-87701000D02*
G01*
X119699000Y-87701000D01*
X119699000Y-86299000D01*
X120501000Y-86299000D01*
X120501000Y-87701000D01*
G37*
G36*
X116451000Y-87651000D02*
G01*
X115149000Y-87651000D01*
X115149000Y-86349000D01*
X116451000Y-86349000D01*
X116451000Y-87651000D01*
G37*
G36*
X118651000Y-87651000D02*
G01*
X117349000Y-87651000D01*
X117349000Y-86349000D01*
X118651000Y-86349000D01*
X118651000Y-87651000D01*
G37*
G36*
X59351237Y-84487623D02*
G01*
X59451112Y-84507489D01*
X59568019Y-84555914D01*
X59733351Y-84624396D01*
X59987361Y-84794120D01*
X60203380Y-85010139D01*
X60373104Y-85264149D01*
X60490011Y-85546389D01*
X60549610Y-85846011D01*
X60549610Y-86151509D01*
X60490011Y-86451131D01*
X60373104Y-86733371D01*
X60203380Y-86987381D01*
X59987361Y-87203400D01*
X59733351Y-87373124D01*
X59568019Y-87441606D01*
X59451112Y-87490031D01*
X59351237Y-87509897D01*
X59151489Y-87549630D01*
X58845991Y-87549630D01*
X58646243Y-87509897D01*
X58546368Y-87490031D01*
X58429461Y-87441606D01*
X58264129Y-87373124D01*
X58010119Y-87203400D01*
X57794100Y-86987381D01*
X57624376Y-86733371D01*
X57507469Y-86451131D01*
X57447870Y-86151509D01*
X57447870Y-85846011D01*
X57507469Y-85546389D01*
X57624376Y-85264149D01*
X57794100Y-85010139D01*
X58010119Y-84794120D01*
X58264129Y-84624396D01*
X58429461Y-84555914D01*
X58546368Y-84507489D01*
X58646243Y-84487623D01*
X58845991Y-84447890D01*
X59151489Y-84447890D01*
X59351237Y-84487623D01*
G37*
G36*
X49351257Y-84487623D02*
G01*
X49451132Y-84507489D01*
X49568039Y-84555914D01*
X49733371Y-84624396D01*
X49987381Y-84794120D01*
X50203400Y-85010139D01*
X50373124Y-85264149D01*
X50490031Y-85546389D01*
X50549630Y-85846011D01*
X50549630Y-86151509D01*
X50490031Y-86451131D01*
X50373124Y-86733371D01*
X50203400Y-86987381D01*
X49987381Y-87203400D01*
X49733371Y-87373124D01*
X49568039Y-87441606D01*
X49451132Y-87490031D01*
X49351257Y-87509897D01*
X49151509Y-87549630D01*
X48846011Y-87549630D01*
X48646263Y-87509897D01*
X48546388Y-87490031D01*
X48429481Y-87441606D01*
X48264149Y-87373124D01*
X48010139Y-87203400D01*
X47794120Y-86987381D01*
X47624396Y-86733371D01*
X47507489Y-86451131D01*
X47447890Y-86151509D01*
X47447890Y-85846011D01*
X47507489Y-85546389D01*
X47624396Y-85264149D01*
X47794120Y-85010139D01*
X48010139Y-84794120D01*
X48264149Y-84624396D01*
X48429481Y-84555914D01*
X48546388Y-84507489D01*
X48646263Y-84487623D01*
X48846011Y-84447890D01*
X49151509Y-84447890D01*
X49351257Y-84487623D01*
G37*
G36*
X69353757Y-84487623D02*
G01*
X69453632Y-84507489D01*
X69570539Y-84555914D01*
X69735871Y-84624396D01*
X69989881Y-84794120D01*
X70205900Y-85010139D01*
X70375624Y-85264149D01*
X70492531Y-85546389D01*
X70552130Y-85846011D01*
X70552130Y-86151509D01*
X70492531Y-86451131D01*
X70375624Y-86733371D01*
X70205900Y-86987381D01*
X69989881Y-87203400D01*
X69735871Y-87373124D01*
X69570539Y-87441606D01*
X69453632Y-87490031D01*
X69353757Y-87509897D01*
X69154009Y-87549630D01*
X68848511Y-87549630D01*
X68648763Y-87509897D01*
X68548888Y-87490031D01*
X68431981Y-87441606D01*
X68266649Y-87373124D01*
X68012639Y-87203400D01*
X67796620Y-86987381D01*
X67626896Y-86733371D01*
X67509989Y-86451131D01*
X67450390Y-86151509D01*
X67450390Y-85846011D01*
X67509989Y-85546389D01*
X67626896Y-85264149D01*
X67796620Y-85010139D01*
X68012639Y-84794120D01*
X68266649Y-84624396D01*
X68431981Y-84555914D01*
X68548888Y-84507489D01*
X68648763Y-84487623D01*
X68848511Y-84447890D01*
X69154009Y-84447890D01*
X69353757Y-84487623D01*
G37*
G36*
X79353737Y-84487623D02*
G01*
X79453612Y-84507489D01*
X79570519Y-84555914D01*
X79735851Y-84624396D01*
X79989861Y-84794120D01*
X80205880Y-85010139D01*
X80375604Y-85264149D01*
X80492511Y-85546389D01*
X80552110Y-85846011D01*
X80552110Y-86151509D01*
X80492511Y-86451131D01*
X80375604Y-86733371D01*
X80205880Y-86987381D01*
X79989861Y-87203400D01*
X79735851Y-87373124D01*
X79570519Y-87441606D01*
X79453612Y-87490031D01*
X79353737Y-87509897D01*
X79153989Y-87549630D01*
X78848491Y-87549630D01*
X78648743Y-87509897D01*
X78548868Y-87490031D01*
X78431961Y-87441606D01*
X78266629Y-87373124D01*
X78012619Y-87203400D01*
X77796600Y-86987381D01*
X77626876Y-86733371D01*
X77509969Y-86451131D01*
X77450370Y-86151509D01*
X77450370Y-85846011D01*
X77509969Y-85546389D01*
X77626876Y-85264149D01*
X77796600Y-85010139D01*
X78012619Y-84794120D01*
X78266629Y-84624396D01*
X78431961Y-84555914D01*
X78548868Y-84507489D01*
X78648743Y-84487623D01*
X78848491Y-84447890D01*
X79153989Y-84447890D01*
X79353737Y-84487623D01*
G37*
G36*
X98801000Y-87201000D02*
G01*
X97999000Y-87201000D01*
X97999000Y-85799000D01*
X98801000Y-85799000D01*
X98801000Y-87201000D01*
G37*
G36*
X96901000Y-87201000D02*
G01*
X96099000Y-87201000D01*
X96099000Y-85799000D01*
X96901000Y-85799000D01*
X96901000Y-87201000D01*
G37*
G36*
X102951000Y-86951000D02*
G01*
X101049000Y-86951000D01*
X101049000Y-85049000D01*
X102951000Y-85049000D01*
X102951000Y-86951000D01*
G37*
G36*
X42389943Y-80066248D02*
G01*
X42945189Y-80296238D01*
X43027146Y-80351000D01*
X43444899Y-80630134D01*
X43869866Y-81055101D01*
X43979026Y-81218471D01*
X44203762Y-81554811D01*
X44433752Y-82110057D01*
X44551000Y-82699501D01*
X44551000Y-83300499D01*
X44433752Y-83889943D01*
X44203762Y-84445189D01*
X44203761Y-84445190D01*
X43869866Y-84944899D01*
X43444899Y-85369866D01*
X43193347Y-85537948D01*
X42945189Y-85703762D01*
X42389943Y-85933752D01*
X41800499Y-86051000D01*
X41199501Y-86051000D01*
X40610057Y-85933752D01*
X40054811Y-85703762D01*
X39806653Y-85537948D01*
X39555101Y-85369866D01*
X39130134Y-84944899D01*
X38796239Y-84445190D01*
X38796238Y-84445189D01*
X38566248Y-83889943D01*
X38449000Y-83300499D01*
X38449000Y-82699501D01*
X38566248Y-82110057D01*
X38796238Y-81554811D01*
X39020974Y-81218471D01*
X39130134Y-81055101D01*
X39555101Y-80630134D01*
X39972854Y-80351000D01*
X40054811Y-80296238D01*
X40610057Y-80066248D01*
X41199501Y-79949000D01*
X41800499Y-79949000D01*
X42389943Y-80066248D01*
G37*
G36*
X87389943Y-80066248D02*
G01*
X87945189Y-80296238D01*
X88027146Y-80351000D01*
X88444899Y-80630134D01*
X88869866Y-81055101D01*
X88979026Y-81218471D01*
X89203762Y-81554811D01*
X89433752Y-82110057D01*
X89551000Y-82699501D01*
X89551000Y-83300499D01*
X89433752Y-83889943D01*
X89203762Y-84445189D01*
X89203761Y-84445190D01*
X88869866Y-84944899D01*
X88444899Y-85369866D01*
X88193347Y-85537948D01*
X87945189Y-85703762D01*
X87389943Y-85933752D01*
X86800499Y-86051000D01*
X86199501Y-86051000D01*
X85610057Y-85933752D01*
X85054811Y-85703762D01*
X84806653Y-85537948D01*
X84555101Y-85369866D01*
X84130134Y-84944899D01*
X83796239Y-84445190D01*
X83796238Y-84445189D01*
X83566248Y-83889943D01*
X83449000Y-83300499D01*
X83449000Y-82699501D01*
X83566248Y-82110057D01*
X83796238Y-81554811D01*
X84020974Y-81218471D01*
X84130134Y-81055101D01*
X84555101Y-80630134D01*
X84972854Y-80351000D01*
X85054811Y-80296238D01*
X85610057Y-80066248D01*
X86199501Y-79949000D01*
X86800499Y-79949000D01*
X87389943Y-80066248D01*
G37*
G36*
X106176000Y-86051000D02*
G01*
X104824000Y-86051000D01*
X104824000Y-84949000D01*
X106176000Y-84949000D01*
X106176000Y-86051000D01*
G37*
G36*
X111248228Y-83681703D02*
G01*
X111403100Y-83745853D01*
X111542481Y-83838985D01*
X111661015Y-83957519D01*
X111754147Y-84096900D01*
X111818297Y-84251772D01*
X111851000Y-84416184D01*
X111851000Y-84583816D01*
X111818297Y-84748228D01*
X111754147Y-84903100D01*
X111661015Y-85042481D01*
X111542481Y-85161015D01*
X111403100Y-85254147D01*
X111248228Y-85318297D01*
X111083816Y-85351000D01*
X110916184Y-85351000D01*
X110751772Y-85318297D01*
X110596900Y-85254147D01*
X110457519Y-85161015D01*
X110338985Y-85042481D01*
X110245853Y-84903100D01*
X110181703Y-84748228D01*
X110149000Y-84583816D01*
X110149000Y-84416184D01*
X110181703Y-84251772D01*
X110245853Y-84096900D01*
X110338985Y-83957519D01*
X110457519Y-83838985D01*
X110596900Y-83745853D01*
X110751772Y-83681703D01*
X110916184Y-83649000D01*
X111083816Y-83649000D01*
X111248228Y-83681703D01*
G37*
G36*
X98801000Y-85201000D02*
G01*
X97999000Y-85201000D01*
X97999000Y-83799000D01*
X98801000Y-83799000D01*
X98801000Y-85201000D01*
G37*
G36*
X96901000Y-85201000D02*
G01*
X96099000Y-85201000D01*
X96099000Y-83799000D01*
X96901000Y-83799000D01*
X96901000Y-85201000D01*
G37*
G36*
X109301000Y-85051000D02*
G01*
X106699000Y-85051000D01*
X106699000Y-82949000D01*
X109301000Y-82949000D01*
X109301000Y-85051000D01*
G37*
G36*
X102277395Y-82545546D02*
G01*
X102450466Y-82617234D01*
X102450467Y-82617235D01*
X102606227Y-82721310D01*
X102738690Y-82853773D01*
X102738691Y-82853775D01*
X102842766Y-83009534D01*
X102914454Y-83182605D01*
X102951000Y-83366333D01*
X102951000Y-83553667D01*
X102914454Y-83737395D01*
X102842766Y-83910466D01*
X102842765Y-83910467D01*
X102738690Y-84066227D01*
X102606227Y-84198690D01*
X102527818Y-84251081D01*
X102450466Y-84302766D01*
X102277395Y-84374454D01*
X102093667Y-84411000D01*
X101906333Y-84411000D01*
X101722605Y-84374454D01*
X101549534Y-84302766D01*
X101472182Y-84251081D01*
X101393773Y-84198690D01*
X101261310Y-84066227D01*
X101157235Y-83910467D01*
X101157234Y-83910466D01*
X101085546Y-83737395D01*
X101049000Y-83553667D01*
X101049000Y-83366333D01*
X101085546Y-83182605D01*
X101157234Y-83009534D01*
X101261309Y-82853775D01*
X101261310Y-82853773D01*
X101393773Y-82721310D01*
X101549533Y-82617235D01*
X101549534Y-82617234D01*
X101722605Y-82545546D01*
X101906333Y-82509000D01*
X102093667Y-82509000D01*
X102277395Y-82545546D01*
G37*
G36*
X121301000Y-84301000D02*
G01*
X118699000Y-84301000D01*
X118699000Y-81699000D01*
X121301000Y-81699000D01*
X121301000Y-84301000D01*
G37*
G36*
X106176000Y-84051000D02*
G01*
X104824000Y-84051000D01*
X104824000Y-82949000D01*
X106176000Y-82949000D01*
X106176000Y-84051000D01*
G37*
G36*
X30357610Y-80821114D02*
G01*
X30580727Y-80913532D01*
X30580729Y-80913533D01*
X30631269Y-80947303D01*
X30781529Y-81047703D01*
X30952297Y-81218471D01*
X31086468Y-81419273D01*
X31178886Y-81642390D01*
X31226000Y-81879248D01*
X31226000Y-82120752D01*
X31178886Y-82357610D01*
X31086468Y-82580727D01*
X30952297Y-82781529D01*
X30781529Y-82952297D01*
X30695867Y-83009534D01*
X30580729Y-83086467D01*
X30580728Y-83086468D01*
X30580727Y-83086468D01*
X30357610Y-83178886D01*
X30120752Y-83226000D01*
X29879248Y-83226000D01*
X29642390Y-83178886D01*
X29419273Y-83086468D01*
X29419272Y-83086468D01*
X29419271Y-83086467D01*
X29304133Y-83009534D01*
X29218471Y-82952297D01*
X29047703Y-82781529D01*
X28913532Y-82580727D01*
X28821114Y-82357610D01*
X28774000Y-82120752D01*
X28774000Y-81879248D01*
X28821114Y-81642390D01*
X28913532Y-81419273D01*
X29047703Y-81218471D01*
X29218471Y-81047703D01*
X29368731Y-80947303D01*
X29419271Y-80913533D01*
X29419273Y-80913532D01*
X29642390Y-80821114D01*
X29879248Y-80774000D01*
X30120752Y-80774000D01*
X30357610Y-80821114D01*
G37*
G36*
X96901000Y-82701000D02*
G01*
X95099000Y-82701000D01*
X95099000Y-81299000D01*
X96901000Y-81299000D01*
X96901000Y-82701000D01*
G37*
G36*
X99201000Y-82401000D02*
G01*
X97799000Y-82401000D01*
X97799000Y-81599000D01*
X99201000Y-81599000D01*
X99201000Y-82401000D01*
G37*
G36*
X102277395Y-80005546D02*
G01*
X102450466Y-80077234D01*
X102450467Y-80077235D01*
X102606227Y-80181310D01*
X102738690Y-80313773D01*
X102738691Y-80313775D01*
X102842766Y-80469534D01*
X102914454Y-80642605D01*
X102951000Y-80826333D01*
X102951000Y-81013667D01*
X102914454Y-81197395D01*
X102842766Y-81370466D01*
X102842765Y-81370467D01*
X102738690Y-81526227D01*
X102606227Y-81658690D01*
X102527818Y-81711081D01*
X102450466Y-81762766D01*
X102277395Y-81834454D01*
X102093667Y-81871000D01*
X101906333Y-81871000D01*
X101722605Y-81834454D01*
X101549534Y-81762766D01*
X101472182Y-81711081D01*
X101393773Y-81658690D01*
X101261310Y-81526227D01*
X101157235Y-81370467D01*
X101157234Y-81370466D01*
X101085546Y-81197395D01*
X101049000Y-81013667D01*
X101049000Y-80826333D01*
X101085546Y-80642605D01*
X101157234Y-80469534D01*
X101261309Y-80313775D01*
X101261310Y-80313773D01*
X101393773Y-80181310D01*
X101549533Y-80077235D01*
X101549534Y-80077234D01*
X101722605Y-80005546D01*
X101906333Y-79969000D01*
X102093667Y-79969000D01*
X102277395Y-80005546D01*
G37*
G36*
X109301000Y-81051000D02*
G01*
X106699000Y-81051000D01*
X106699000Y-78949000D01*
X109301000Y-78949000D01*
X109301000Y-81051000D01*
G37*
G36*
X99201000Y-80501000D02*
G01*
X97799000Y-80501000D01*
X97799000Y-79699000D01*
X99201000Y-79699000D01*
X99201000Y-80501000D01*
G37*
G36*
X111851000Y-80351000D02*
G01*
X110149000Y-80351000D01*
X110149000Y-78649000D01*
X111851000Y-78649000D01*
X111851000Y-80351000D01*
G37*
G36*
X79300651Y-77465784D02*
G01*
X76965784Y-79800651D01*
X74630917Y-77465784D01*
X76965784Y-75130917D01*
X79300651Y-77465784D01*
G37*
G36*
X66369083Y-77465784D02*
G01*
X64034216Y-79800651D01*
X61699349Y-77465784D01*
X64034216Y-75130917D01*
X66369083Y-77465784D01*
G37*
G36*
X120379487Y-76748996D02*
G01*
X120616253Y-76847068D01*
X120616255Y-76847069D01*
X120829339Y-76989447D01*
X121010553Y-77170661D01*
X121131052Y-77351000D01*
X121152932Y-77383747D01*
X121251004Y-77620513D01*
X121301000Y-77871861D01*
X121301000Y-78128139D01*
X121251004Y-78379487D01*
X121152932Y-78616253D01*
X121152931Y-78616255D01*
X121010553Y-78829339D01*
X120829339Y-79010553D01*
X120616255Y-79152931D01*
X120616254Y-79152932D01*
X120616253Y-79152932D01*
X120379487Y-79251004D01*
X120128139Y-79301000D01*
X119871861Y-79301000D01*
X119620513Y-79251004D01*
X119383747Y-79152932D01*
X119383746Y-79152932D01*
X119383745Y-79152931D01*
X119170661Y-79010553D01*
X118989447Y-78829339D01*
X118847069Y-78616255D01*
X118847068Y-78616253D01*
X118748996Y-78379487D01*
X118699000Y-78128139D01*
X118699000Y-77871861D01*
X118748996Y-77620513D01*
X118847068Y-77383747D01*
X118868949Y-77351000D01*
X118989447Y-77170661D01*
X119170661Y-76989447D01*
X119383745Y-76847069D01*
X119383747Y-76847068D01*
X119620513Y-76748996D01*
X119871861Y-76699000D01*
X120128139Y-76699000D01*
X120379487Y-76748996D01*
G37*
G36*
X96901000Y-79201000D02*
G01*
X95099000Y-79201000D01*
X95099000Y-77799000D01*
X96901000Y-77799000D01*
X96901000Y-79201000D01*
G37*
G36*
X30357610Y-75821114D02*
G01*
X30580727Y-75913532D01*
X30580729Y-75913533D01*
X30631269Y-75947303D01*
X30781529Y-76047703D01*
X30952297Y-76218471D01*
X31086468Y-76419273D01*
X31178886Y-76642390D01*
X31226000Y-76879248D01*
X31226000Y-77120752D01*
X31178886Y-77357610D01*
X31086468Y-77580727D01*
X30952297Y-77781529D01*
X30781529Y-77952297D01*
X30631269Y-78052697D01*
X30580729Y-78086467D01*
X30580728Y-78086468D01*
X30580727Y-78086468D01*
X30357610Y-78178886D01*
X30120752Y-78226000D01*
X29879248Y-78226000D01*
X29642390Y-78178886D01*
X29419273Y-78086468D01*
X29419272Y-78086468D01*
X29419271Y-78086467D01*
X29368731Y-78052697D01*
X29218471Y-77952297D01*
X29047703Y-77781529D01*
X28913532Y-77580727D01*
X28821114Y-77357610D01*
X28774000Y-77120752D01*
X28774000Y-76879248D01*
X28821114Y-76642390D01*
X28913532Y-76419273D01*
X29047703Y-76218471D01*
X29218471Y-76047703D01*
X29368731Y-75947303D01*
X29419271Y-75913533D01*
X29419273Y-75913532D01*
X29642390Y-75821114D01*
X29879248Y-75774000D01*
X30120752Y-75774000D01*
X30357610Y-75821114D01*
G37*
G36*
X111248228Y-75681703D02*
G01*
X111403100Y-75745853D01*
X111542481Y-75838985D01*
X111661015Y-75957519D01*
X111754147Y-76096900D01*
X111818297Y-76251772D01*
X111851000Y-76416184D01*
X111851000Y-76583816D01*
X111818297Y-76748228D01*
X111754147Y-76903100D01*
X111661015Y-77042481D01*
X111542481Y-77161015D01*
X111403100Y-77254147D01*
X111248228Y-77318297D01*
X111083816Y-77351000D01*
X110916184Y-77351000D01*
X110751772Y-77318297D01*
X110596900Y-77254147D01*
X110457519Y-77161015D01*
X110338985Y-77042481D01*
X110245853Y-76903100D01*
X110181703Y-76748228D01*
X110149000Y-76583816D01*
X110149000Y-76416184D01*
X110181703Y-76251772D01*
X110245853Y-76096900D01*
X110338985Y-75957519D01*
X110457519Y-75838985D01*
X110596900Y-75745853D01*
X110751772Y-75681703D01*
X110916184Y-75649000D01*
X111083816Y-75649000D01*
X111248228Y-75681703D01*
G37*
G36*
X109301000Y-77051000D02*
G01*
X106699000Y-77051000D01*
X106699000Y-74949000D01*
X109301000Y-74949000D01*
X109301000Y-77051000D01*
G37*
G36*
X96051000Y-76801000D02*
G01*
X94949000Y-76801000D01*
X94949000Y-74199000D01*
X96051000Y-74199000D01*
X96051000Y-76801000D01*
G37*
G36*
X99051000Y-76801000D02*
G01*
X97949000Y-76801000D01*
X97949000Y-74199000D01*
X99051000Y-74199000D01*
X99051000Y-76801000D01*
G37*
G36*
X49364903Y-73797075D02*
G01*
X49592571Y-73891378D01*
X49797466Y-74028285D01*
X49971715Y-74202534D01*
X50037508Y-74301000D01*
X50108623Y-74407431D01*
X50202925Y-74635097D01*
X50251000Y-74876786D01*
X50251000Y-75123214D01*
X50202925Y-75364903D01*
X50108622Y-75592571D01*
X49971715Y-75797466D01*
X49797466Y-75971715D01*
X49592571Y-76108622D01*
X49592570Y-76108623D01*
X49592569Y-76108623D01*
X49364903Y-76202925D01*
X49123214Y-76251000D01*
X48876786Y-76251000D01*
X48635097Y-76202925D01*
X48407431Y-76108623D01*
X48407430Y-76108623D01*
X48407429Y-76108622D01*
X48202534Y-75971715D01*
X48028285Y-75797466D01*
X47891378Y-75592571D01*
X47797075Y-75364903D01*
X47749000Y-75123214D01*
X47749000Y-74876786D01*
X47797075Y-74635097D01*
X47891377Y-74407431D01*
X47962492Y-74301000D01*
X48028285Y-74202534D01*
X48202534Y-74028285D01*
X48407429Y-73891378D01*
X48635097Y-73797075D01*
X48876786Y-73749000D01*
X49123214Y-73749000D01*
X49364903Y-73797075D01*
G37*
G36*
X56864903Y-73797075D02*
G01*
X57092571Y-73891378D01*
X57297466Y-74028285D01*
X57471715Y-74202534D01*
X57537508Y-74301000D01*
X57608623Y-74407431D01*
X57702925Y-74635097D01*
X57751000Y-74876786D01*
X57751000Y-75123214D01*
X57702925Y-75364903D01*
X57608622Y-75592571D01*
X57471715Y-75797466D01*
X57297466Y-75971715D01*
X57092571Y-76108622D01*
X57092570Y-76108623D01*
X57092569Y-76108623D01*
X56864903Y-76202925D01*
X56623214Y-76251000D01*
X56376786Y-76251000D01*
X56135097Y-76202925D01*
X55907431Y-76108623D01*
X55907430Y-76108623D01*
X55907429Y-76108622D01*
X55702534Y-75971715D01*
X55528285Y-75797466D01*
X55391378Y-75592571D01*
X55297075Y-75364903D01*
X55249000Y-75123214D01*
X55249000Y-74876786D01*
X55297075Y-74635097D01*
X55391377Y-74407431D01*
X55462492Y-74301000D01*
X55528285Y-74202534D01*
X55702534Y-74028285D01*
X55907429Y-73891378D01*
X56135097Y-73797075D01*
X56376786Y-73749000D01*
X56623214Y-73749000D01*
X56864903Y-73797075D01*
G37*
G36*
X102951000Y-75951000D02*
G01*
X101049000Y-75951000D01*
X101049000Y-74049000D01*
X102951000Y-74049000D01*
X102951000Y-75951000D01*
G37*
G36*
X120379487Y-71748996D02*
G01*
X120616253Y-71847068D01*
X120616255Y-71847069D01*
X120829339Y-71989447D01*
X121010553Y-72170661D01*
X121141297Y-72366333D01*
X121152932Y-72383747D01*
X121251004Y-72620513D01*
X121301000Y-72871861D01*
X121301000Y-73128139D01*
X121251004Y-73379487D01*
X121152932Y-73616253D01*
X121152931Y-73616255D01*
X121010553Y-73829339D01*
X120829339Y-74010553D01*
X120616255Y-74152931D01*
X120616254Y-74152932D01*
X120616253Y-74152932D01*
X120379487Y-74251004D01*
X120128139Y-74301000D01*
X119871861Y-74301000D01*
X119620513Y-74251004D01*
X119383747Y-74152932D01*
X119383746Y-74152932D01*
X119383745Y-74152931D01*
X119170661Y-74010553D01*
X118989447Y-73829339D01*
X118847069Y-73616255D01*
X118847068Y-73616253D01*
X118748996Y-73379487D01*
X118699000Y-73128139D01*
X118699000Y-72871861D01*
X118748996Y-72620513D01*
X118847068Y-72383747D01*
X118858704Y-72366333D01*
X118989447Y-72170661D01*
X119170661Y-71989447D01*
X119383745Y-71847069D01*
X119383747Y-71847068D01*
X119620513Y-71748996D01*
X119871861Y-71699000D01*
X120128139Y-71699000D01*
X120379487Y-71748996D01*
G37*
G36*
X96901000Y-73701000D02*
G01*
X96099000Y-73701000D01*
X96099000Y-72299000D01*
X96901000Y-72299000D01*
X96901000Y-73701000D01*
G37*
G36*
X98801000Y-73701000D02*
G01*
X97999000Y-73701000D01*
X97999000Y-72299000D01*
X98801000Y-72299000D01*
X98801000Y-73701000D01*
G37*
G36*
X102277395Y-71545546D02*
G01*
X102450466Y-71617234D01*
X102450467Y-71617235D01*
X102606227Y-71721310D01*
X102738690Y-71853773D01*
X102738691Y-71853775D01*
X102842766Y-72009534D01*
X102914454Y-72182605D01*
X102951000Y-72366333D01*
X102951000Y-72553667D01*
X102914454Y-72737395D01*
X102842766Y-72910466D01*
X102842765Y-72910467D01*
X102738690Y-73066227D01*
X102606227Y-73198690D01*
X102527818Y-73251081D01*
X102450466Y-73302766D01*
X102277395Y-73374454D01*
X102093667Y-73411000D01*
X101906333Y-73411000D01*
X101722605Y-73374454D01*
X101549534Y-73302766D01*
X101472182Y-73251081D01*
X101393773Y-73198690D01*
X101261310Y-73066227D01*
X101157235Y-72910467D01*
X101157234Y-72910466D01*
X101085546Y-72737395D01*
X101049000Y-72553667D01*
X101049000Y-72366333D01*
X101085546Y-72182605D01*
X101157234Y-72009534D01*
X101261309Y-71853775D01*
X101261310Y-71853773D01*
X101393773Y-71721310D01*
X101549533Y-71617235D01*
X101549534Y-71617234D01*
X101722605Y-71545546D01*
X101906333Y-71509000D01*
X102093667Y-71509000D01*
X102277395Y-71545546D01*
G37*
G36*
X109301000Y-73051000D02*
G01*
X106699000Y-73051000D01*
X106699000Y-70949000D01*
X109301000Y-70949000D01*
X109301000Y-73051000D01*
G37*
G36*
X44277395Y-71085546D02*
G01*
X44450466Y-71157234D01*
X44450467Y-71157235D01*
X44606227Y-71261310D01*
X44738690Y-71393773D01*
X44738691Y-71393775D01*
X44842766Y-71549534D01*
X44914454Y-71722605D01*
X44951000Y-71906333D01*
X44951000Y-72093667D01*
X44914454Y-72277395D01*
X44842766Y-72450466D01*
X44842765Y-72450467D01*
X44738690Y-72606227D01*
X44606227Y-72738690D01*
X44527818Y-72791081D01*
X44450466Y-72842766D01*
X44277395Y-72914454D01*
X44093667Y-72951000D01*
X43906333Y-72951000D01*
X43722605Y-72914454D01*
X43549534Y-72842766D01*
X43472182Y-72791081D01*
X43393773Y-72738690D01*
X43261310Y-72606227D01*
X43157235Y-72450467D01*
X43157234Y-72450466D01*
X43085546Y-72277395D01*
X43049000Y-72093667D01*
X43049000Y-71906333D01*
X43085546Y-71722605D01*
X43157234Y-71549534D01*
X43261309Y-71393775D01*
X43261310Y-71393773D01*
X43393773Y-71261310D01*
X43549533Y-71157235D01*
X43549534Y-71157234D01*
X43722605Y-71085546D01*
X43906333Y-71049000D01*
X44093667Y-71049000D01*
X44277395Y-71085546D01*
G37*
G36*
X39277395Y-71085546D02*
G01*
X39450466Y-71157234D01*
X39450467Y-71157235D01*
X39606227Y-71261310D01*
X39738690Y-71393773D01*
X39738691Y-71393775D01*
X39842766Y-71549534D01*
X39914454Y-71722605D01*
X39951000Y-71906333D01*
X39951000Y-72093667D01*
X39914454Y-72277395D01*
X39842766Y-72450466D01*
X39842765Y-72450467D01*
X39738690Y-72606227D01*
X39606227Y-72738690D01*
X39527818Y-72791081D01*
X39450466Y-72842766D01*
X39277395Y-72914454D01*
X39093667Y-72951000D01*
X38906333Y-72951000D01*
X38722605Y-72914454D01*
X38549534Y-72842766D01*
X38472182Y-72791081D01*
X38393773Y-72738690D01*
X38261310Y-72606227D01*
X38157235Y-72450467D01*
X38157234Y-72450466D01*
X38085546Y-72277395D01*
X38049000Y-72093667D01*
X38049000Y-71906333D01*
X38085546Y-71722605D01*
X38157234Y-71549534D01*
X38261309Y-71393775D01*
X38261310Y-71393773D01*
X38393773Y-71261310D01*
X38549533Y-71157235D01*
X38549534Y-71157234D01*
X38722605Y-71085546D01*
X38906333Y-71049000D01*
X39093667Y-71049000D01*
X39277395Y-71085546D01*
G37*
G36*
X111851000Y-72351000D02*
G01*
X110149000Y-72351000D01*
X110149000Y-70649000D01*
X111851000Y-70649000D01*
X111851000Y-72351000D01*
G37*
G36*
X30357610Y-69821114D02*
G01*
X30580727Y-69913532D01*
X30580729Y-69913533D01*
X30631269Y-69947303D01*
X30781529Y-70047703D01*
X30952297Y-70218471D01*
X31086468Y-70419273D01*
X31178886Y-70642390D01*
X31226000Y-70879248D01*
X31226000Y-71120752D01*
X31178886Y-71357610D01*
X31086468Y-71580727D01*
X30952297Y-71781529D01*
X30781529Y-71952297D01*
X30695867Y-72009534D01*
X30580729Y-72086467D01*
X30580728Y-72086468D01*
X30580727Y-72086468D01*
X30357610Y-72178886D01*
X30120752Y-72226000D01*
X29879248Y-72226000D01*
X29642390Y-72178886D01*
X29419273Y-72086468D01*
X29419272Y-72086468D01*
X29419271Y-72086467D01*
X29304133Y-72009534D01*
X29218471Y-71952297D01*
X29047703Y-71781529D01*
X28913532Y-71580727D01*
X28821114Y-71357610D01*
X28774000Y-71120752D01*
X28774000Y-70879248D01*
X28821114Y-70642390D01*
X28913532Y-70419273D01*
X29047703Y-70218471D01*
X29218471Y-70047703D01*
X29368731Y-69947303D01*
X29419271Y-69913533D01*
X29419273Y-69913532D01*
X29642390Y-69821114D01*
X29879248Y-69774000D01*
X30120752Y-69774000D01*
X30357610Y-69821114D01*
G37*
G36*
X96901000Y-71701000D02*
G01*
X96099000Y-71701000D01*
X96099000Y-70299000D01*
X96901000Y-70299000D01*
X96901000Y-71701000D01*
G37*
G36*
X98801000Y-71701000D02*
G01*
X97999000Y-71701000D01*
X97999000Y-70299000D01*
X98801000Y-70299000D01*
X98801000Y-71701000D01*
G37*
G36*
X102277395Y-69005546D02*
G01*
X102450466Y-69077234D01*
X102450467Y-69077235D01*
X102606227Y-69181310D01*
X102738690Y-69313773D01*
X102738691Y-69313775D01*
X102842766Y-69469534D01*
X102914454Y-69642605D01*
X102951000Y-69826333D01*
X102951000Y-70013667D01*
X102914454Y-70197395D01*
X102842766Y-70370466D01*
X102842765Y-70370467D01*
X102738690Y-70526227D01*
X102606227Y-70658690D01*
X102527818Y-70711081D01*
X102450466Y-70762766D01*
X102277395Y-70834454D01*
X102093667Y-70871000D01*
X101906333Y-70871000D01*
X101722605Y-70834454D01*
X101549534Y-70762766D01*
X101472182Y-70711081D01*
X101393773Y-70658690D01*
X101261310Y-70526227D01*
X101157235Y-70370467D01*
X101157234Y-70370466D01*
X101085546Y-70197395D01*
X101049000Y-70013667D01*
X101049000Y-69826333D01*
X101085546Y-69642605D01*
X101157234Y-69469534D01*
X101261309Y-69313775D01*
X101261310Y-69313773D01*
X101393773Y-69181310D01*
X101549533Y-69077235D01*
X101549534Y-69077234D01*
X101722605Y-69005546D01*
X101906333Y-68969000D01*
X102093667Y-68969000D01*
X102277395Y-69005546D01*
G37*
G36*
X106176000Y-70551000D02*
G01*
X104824000Y-70551000D01*
X104824000Y-69449000D01*
X106176000Y-69449000D01*
X106176000Y-70551000D01*
G37*
G36*
X120401000Y-69701000D02*
G01*
X119599000Y-69701000D01*
X119599000Y-68299000D01*
X120401000Y-68299000D01*
X120401000Y-69701000D01*
G37*
G36*
X122301000Y-69701000D02*
G01*
X121499000Y-69701000D01*
X121499000Y-68299000D01*
X122301000Y-68299000D01*
X122301000Y-69701000D01*
G37*
G36*
X116451000Y-69651000D02*
G01*
X115149000Y-69651000D01*
X115149000Y-68349000D01*
X116451000Y-68349000D01*
X116451000Y-69651000D01*
G37*
G36*
X118651000Y-69651000D02*
G01*
X117349000Y-69651000D01*
X117349000Y-68349000D01*
X118651000Y-68349000D01*
X118651000Y-69651000D01*
G37*
G36*
X109301000Y-69451000D02*
G01*
X106699000Y-69451000D01*
X106699000Y-67549000D01*
X109301000Y-67549000D01*
X109301000Y-69451000D01*
G37*
G36*
X113301000Y-69451000D02*
G01*
X110699000Y-69451000D01*
X110699000Y-67549000D01*
X113301000Y-67549000D01*
X113301000Y-69451000D01*
G37*
G36*
X96901000Y-69201000D02*
G01*
X95099000Y-69201000D01*
X95099000Y-67799000D01*
X96901000Y-67799000D01*
X96901000Y-69201000D01*
G37*
G36*
X99201000Y-68901000D02*
G01*
X97799000Y-68901000D01*
X97799000Y-68099000D01*
X99201000Y-68099000D01*
X99201000Y-68901000D01*
G37*
G36*
X106176000Y-68551000D02*
G01*
X104824000Y-68551000D01*
X104824000Y-67449000D01*
X106176000Y-67449000D01*
X106176000Y-68551000D01*
G37*
G36*
X99201000Y-67001000D02*
G01*
X97799000Y-67001000D01*
X97799000Y-66199000D01*
X99201000Y-66199000D01*
X99201000Y-67001000D01*
G37*
G36*
X79300651Y-64534216D02*
G01*
X76965784Y-66869083D01*
X74630917Y-64534216D01*
X76965784Y-62199349D01*
X79300651Y-64534216D01*
G37*
G36*
X66369083Y-64534216D02*
G01*
X64034216Y-66869083D01*
X61699349Y-64534216D01*
X64034216Y-62199349D01*
X66369083Y-64534216D01*
G37*
G36*
X102801000Y-65951000D02*
G01*
X100199000Y-65951000D01*
X100199000Y-64049000D01*
X102801000Y-64049000D01*
X102801000Y-65951000D01*
G37*
G36*
X106801000Y-65951000D02*
G01*
X104199000Y-65951000D01*
X104199000Y-64049000D01*
X106801000Y-64049000D01*
X106801000Y-65951000D01*
G37*
G36*
X96901000Y-65701000D02*
G01*
X95099000Y-65701000D01*
X95099000Y-64299000D01*
X96901000Y-64299000D01*
X96901000Y-65701000D01*
G37*
G36*
X37877395Y-63585546D02*
G01*
X38050466Y-63657234D01*
X38050467Y-63657235D01*
X38206227Y-63761310D01*
X38338690Y-63893773D01*
X38338691Y-63893775D01*
X38442766Y-64049534D01*
X38514454Y-64222605D01*
X38551000Y-64406333D01*
X38551000Y-64593667D01*
X38514454Y-64777395D01*
X38442766Y-64950466D01*
X38442765Y-64950467D01*
X38338690Y-65106227D01*
X38206227Y-65238690D01*
X38127818Y-65291081D01*
X38050466Y-65342766D01*
X37877395Y-65414454D01*
X37693667Y-65451000D01*
X37506333Y-65451000D01*
X37322605Y-65414454D01*
X37149534Y-65342766D01*
X37072182Y-65291081D01*
X36993773Y-65238690D01*
X36861310Y-65106227D01*
X36757235Y-64950467D01*
X36757234Y-64950466D01*
X36685546Y-64777395D01*
X36649000Y-64593667D01*
X36649000Y-64406333D01*
X36685546Y-64222605D01*
X36757234Y-64049534D01*
X36861309Y-63893775D01*
X36861310Y-63893773D01*
X36993773Y-63761310D01*
X37149533Y-63657235D01*
X37149534Y-63657234D01*
X37322605Y-63585546D01*
X37506333Y-63549000D01*
X37693667Y-63549000D01*
X37877395Y-63585546D01*
G37*
G36*
X42877395Y-63585546D02*
G01*
X43050466Y-63657234D01*
X43050467Y-63657235D01*
X43206227Y-63761310D01*
X43338690Y-63893773D01*
X43338691Y-63893775D01*
X43442766Y-64049534D01*
X43514454Y-64222605D01*
X43551000Y-64406333D01*
X43551000Y-64593667D01*
X43514454Y-64777395D01*
X43442766Y-64950466D01*
X43442765Y-64950467D01*
X43338690Y-65106227D01*
X43206227Y-65238690D01*
X43127818Y-65291081D01*
X43050466Y-65342766D01*
X42877395Y-65414454D01*
X42693667Y-65451000D01*
X42506333Y-65451000D01*
X42322605Y-65414454D01*
X42149534Y-65342766D01*
X42072182Y-65291081D01*
X41993773Y-65238690D01*
X41861310Y-65106227D01*
X41757235Y-64950467D01*
X41757234Y-64950466D01*
X41685546Y-64777395D01*
X41649000Y-64593667D01*
X41649000Y-64406333D01*
X41685546Y-64222605D01*
X41757234Y-64049534D01*
X41861309Y-63893775D01*
X41861310Y-63893773D01*
X41993773Y-63761310D01*
X42149533Y-63657235D01*
X42149534Y-63657234D01*
X42322605Y-63585546D01*
X42506333Y-63549000D01*
X42693667Y-63549000D01*
X42877395Y-63585546D01*
G37*
G36*
X110579487Y-60148996D02*
G01*
X110816253Y-60247068D01*
X110816255Y-60247069D01*
X110992606Y-60364903D01*
X111029339Y-60389447D01*
X111210553Y-60570661D01*
X111352932Y-60783747D01*
X111451004Y-61020513D01*
X111501000Y-61271861D01*
X111501000Y-61528139D01*
X111451004Y-61779487D01*
X111352932Y-62016253D01*
X111352931Y-62016255D01*
X111210553Y-62229339D01*
X111029339Y-62410553D01*
X110816255Y-62552931D01*
X110816254Y-62552932D01*
X110816253Y-62552932D01*
X110579487Y-62651004D01*
X110328139Y-62701000D01*
X110071861Y-62701000D01*
X109820513Y-62651004D01*
X109583747Y-62552932D01*
X109583746Y-62552932D01*
X109583745Y-62552931D01*
X109370661Y-62410553D01*
X109189447Y-62229339D01*
X109047069Y-62016255D01*
X109047068Y-62016253D01*
X108948996Y-61779487D01*
X108899000Y-61528139D01*
X108899000Y-61271861D01*
X108948996Y-61020513D01*
X109047068Y-60783747D01*
X109189447Y-60570661D01*
X109370661Y-60389447D01*
X109407394Y-60364903D01*
X109583745Y-60247069D01*
X109583747Y-60247068D01*
X109820513Y-60148996D01*
X110071861Y-60099000D01*
X110328139Y-60099000D01*
X110579487Y-60148996D01*
G37*
G36*
X30357610Y-59821114D02*
G01*
X30580727Y-59913532D01*
X30580729Y-59913533D01*
X30631269Y-59947303D01*
X30781529Y-60047703D01*
X30952297Y-60218471D01*
X31086468Y-60419273D01*
X31178886Y-60642390D01*
X31226000Y-60879248D01*
X31226000Y-61120752D01*
X31178886Y-61357610D01*
X31086468Y-61580727D01*
X30952297Y-61781529D01*
X30781529Y-61952297D01*
X30631269Y-62052697D01*
X30580729Y-62086467D01*
X30580728Y-62086468D01*
X30580727Y-62086468D01*
X30357610Y-62178886D01*
X30120752Y-62226000D01*
X29879248Y-62226000D01*
X29642390Y-62178886D01*
X29419273Y-62086468D01*
X29419272Y-62086468D01*
X29419271Y-62086467D01*
X29368731Y-62052697D01*
X29218471Y-61952297D01*
X29047703Y-61781529D01*
X28913532Y-61580727D01*
X28821114Y-61357610D01*
X28774000Y-61120752D01*
X28774000Y-60879248D01*
X28821114Y-60642390D01*
X28913532Y-60419273D01*
X29047703Y-60218471D01*
X29218471Y-60047703D01*
X29368731Y-59947303D01*
X29419271Y-59913533D01*
X29419273Y-59913532D01*
X29642390Y-59821114D01*
X29879248Y-59774000D01*
X30120752Y-59774000D01*
X30357610Y-59821114D01*
G37*
G36*
X49364903Y-58797075D02*
G01*
X49592571Y-58891378D01*
X49797466Y-59028285D01*
X49971715Y-59202534D01*
X49971716Y-59202536D01*
X50108623Y-59407431D01*
X50202925Y-59635097D01*
X50251000Y-59876786D01*
X50251000Y-60123214D01*
X50202925Y-60364903D01*
X50117698Y-60570661D01*
X50108622Y-60592571D01*
X49971715Y-60797466D01*
X49797466Y-60971715D01*
X49592571Y-61108622D01*
X49592570Y-61108623D01*
X49592569Y-61108623D01*
X49364903Y-61202925D01*
X49123214Y-61251000D01*
X48876786Y-61251000D01*
X48635097Y-61202925D01*
X48407431Y-61108623D01*
X48407430Y-61108623D01*
X48407429Y-61108622D01*
X48202534Y-60971715D01*
X48028285Y-60797466D01*
X47891378Y-60592571D01*
X47882303Y-60570661D01*
X47797075Y-60364903D01*
X47749000Y-60123214D01*
X47749000Y-59876786D01*
X47797075Y-59635097D01*
X47891377Y-59407431D01*
X48028284Y-59202536D01*
X48028285Y-59202534D01*
X48202534Y-59028285D01*
X48407429Y-58891378D01*
X48635097Y-58797075D01*
X48876786Y-58749000D01*
X49123214Y-58749000D01*
X49364903Y-58797075D01*
G37*
G36*
X56864903Y-58797075D02*
G01*
X57092571Y-58891378D01*
X57297466Y-59028285D01*
X57471715Y-59202534D01*
X57471716Y-59202536D01*
X57608623Y-59407431D01*
X57702925Y-59635097D01*
X57751000Y-59876786D01*
X57751000Y-60123214D01*
X57702925Y-60364903D01*
X57617698Y-60570661D01*
X57608622Y-60592571D01*
X57471715Y-60797466D01*
X57297466Y-60971715D01*
X57092571Y-61108622D01*
X57092570Y-61108623D01*
X57092569Y-61108623D01*
X56864903Y-61202925D01*
X56623214Y-61251000D01*
X56376786Y-61251000D01*
X56135097Y-61202925D01*
X55907431Y-61108623D01*
X55907430Y-61108623D01*
X55907429Y-61108622D01*
X55702534Y-60971715D01*
X55528285Y-60797466D01*
X55391378Y-60592571D01*
X55382303Y-60570661D01*
X55297075Y-60364903D01*
X55249000Y-60123214D01*
X55249000Y-59876786D01*
X55297075Y-59635097D01*
X55391377Y-59407431D01*
X55528284Y-59202536D01*
X55528285Y-59202534D01*
X55702534Y-59028285D01*
X55907429Y-58891378D01*
X56135097Y-58797075D01*
X56376786Y-58749000D01*
X56623214Y-58749000D01*
X56864903Y-58797075D01*
G37*
G36*
X114628228Y-56721703D02*
G01*
X114783100Y-56785853D01*
X114922481Y-56878985D01*
X115041015Y-56997519D01*
X115134147Y-57136900D01*
X115198297Y-57291772D01*
X115231000Y-57456184D01*
X115231000Y-57623816D01*
X115198297Y-57788228D01*
X115134147Y-57943100D01*
X115041015Y-58082481D01*
X114922481Y-58201015D01*
X114783100Y-58294147D01*
X114628228Y-58358297D01*
X114463816Y-58391000D01*
X114296184Y-58391000D01*
X114131772Y-58358297D01*
X113976900Y-58294147D01*
X113837519Y-58201015D01*
X113718985Y-58082481D01*
X113625853Y-57943100D01*
X113561703Y-57788228D01*
X113529000Y-57623816D01*
X113529000Y-57456184D01*
X113561703Y-57291772D01*
X113625853Y-57136900D01*
X113718985Y-56997519D01*
X113837519Y-56878985D01*
X113976900Y-56785853D01*
X114131772Y-56721703D01*
X114296184Y-56689000D01*
X114463816Y-56689000D01*
X114628228Y-56721703D01*
G37*
G36*
X122248228Y-56721703D02*
G01*
X122403100Y-56785853D01*
X122542481Y-56878985D01*
X122661015Y-56997519D01*
X122754147Y-57136900D01*
X122818297Y-57291772D01*
X122851000Y-57456184D01*
X122851000Y-57623816D01*
X122818297Y-57788228D01*
X122754147Y-57943100D01*
X122661015Y-58082481D01*
X122542481Y-58201015D01*
X122403100Y-58294147D01*
X122248228Y-58358297D01*
X122083816Y-58391000D01*
X121916184Y-58391000D01*
X121751772Y-58358297D01*
X121596900Y-58294147D01*
X121457519Y-58201015D01*
X121338985Y-58082481D01*
X121245853Y-57943100D01*
X121181703Y-57788228D01*
X121149000Y-57623816D01*
X121149000Y-57456184D01*
X121181703Y-57291772D01*
X121245853Y-57136900D01*
X121338985Y-56997519D01*
X121457519Y-56878985D01*
X121596900Y-56785853D01*
X121751772Y-56721703D01*
X121916184Y-56689000D01*
X122083816Y-56689000D01*
X122248228Y-56721703D01*
G37*
G36*
X37198254Y-53427818D02*
G01*
X37571511Y-53582426D01*
X37571513Y-53582427D01*
X37907436Y-53806884D01*
X38193116Y-54092564D01*
X38357770Y-54338985D01*
X38417574Y-54428489D01*
X38572182Y-54801746D01*
X38651000Y-55197993D01*
X38651000Y-55602007D01*
X38572182Y-55998254D01*
X38417574Y-56371511D01*
X38417573Y-56371513D01*
X38193116Y-56707436D01*
X37907436Y-56993116D01*
X37571513Y-57217573D01*
X37571512Y-57217574D01*
X37571511Y-57217574D01*
X37198254Y-57372182D01*
X36802007Y-57451000D01*
X36397993Y-57451000D01*
X36001746Y-57372182D01*
X35628489Y-57217574D01*
X35628488Y-57217574D01*
X35628487Y-57217573D01*
X35292564Y-56993116D01*
X35006884Y-56707436D01*
X34782427Y-56371513D01*
X34782426Y-56371511D01*
X34627818Y-55998254D01*
X34549000Y-55602007D01*
X34549000Y-55197993D01*
X34627818Y-54801746D01*
X34782426Y-54428489D01*
X34842231Y-54338985D01*
X35006884Y-54092564D01*
X35292564Y-53806884D01*
X35628487Y-53582427D01*
X35628489Y-53582426D01*
X36001746Y-53427818D01*
X36397993Y-53349000D01*
X36802007Y-53349000D01*
X37198254Y-53427818D01*
G37*
G36*
X44798254Y-53427818D02*
G01*
X45171511Y-53582426D01*
X45171513Y-53582427D01*
X45507436Y-53806884D01*
X45793116Y-54092564D01*
X45957770Y-54338985D01*
X46017574Y-54428489D01*
X46172182Y-54801746D01*
X46251000Y-55197993D01*
X46251000Y-55602007D01*
X46172182Y-55998254D01*
X46017574Y-56371511D01*
X46017573Y-56371513D01*
X45793116Y-56707436D01*
X45507436Y-56993116D01*
X45171513Y-57217573D01*
X45171512Y-57217574D01*
X45171511Y-57217574D01*
X44798254Y-57372182D01*
X44402007Y-57451000D01*
X43997993Y-57451000D01*
X43601746Y-57372182D01*
X43228489Y-57217574D01*
X43228488Y-57217574D01*
X43228487Y-57217573D01*
X42892564Y-56993116D01*
X42606884Y-56707436D01*
X42382427Y-56371513D01*
X42382426Y-56371511D01*
X42227818Y-55998254D01*
X42149000Y-55602007D01*
X42149000Y-55197993D01*
X42227818Y-54801746D01*
X42382426Y-54428489D01*
X42442231Y-54338985D01*
X42606884Y-54092564D01*
X42892564Y-53806884D01*
X43228487Y-53582427D01*
X43228489Y-53582426D01*
X43601746Y-53427818D01*
X43997993Y-53349000D01*
X44402007Y-53349000D01*
X44798254Y-53427818D01*
G37*
G36*
X108501000Y-57401000D02*
G01*
X107499000Y-57401000D01*
X107499000Y-56499000D01*
X108501000Y-56499000D01*
X108501000Y-57401000D01*
G37*
G36*
X111201000Y-57301000D02*
G01*
X109799000Y-57301000D01*
X109799000Y-56499000D01*
X111201000Y-56499000D01*
X111201000Y-57301000D01*
G37*
G36*
X94451000Y-56501000D02*
G01*
X93549000Y-56501000D01*
X93549000Y-55499000D01*
X94451000Y-55499000D01*
X94451000Y-56501000D01*
G37*
G36*
X106501000Y-56451000D02*
G01*
X105499000Y-56451000D01*
X105499000Y-55549000D01*
X106501000Y-55549000D01*
X106501000Y-56451000D01*
G37*
G36*
X30357610Y-53821114D02*
G01*
X30580727Y-53913532D01*
X30580729Y-53913533D01*
X30631269Y-53947303D01*
X30781529Y-54047703D01*
X30952297Y-54218471D01*
X31086468Y-54419273D01*
X31178886Y-54642390D01*
X31226000Y-54879248D01*
X31226000Y-55120752D01*
X31178886Y-55357610D01*
X31086468Y-55580727D01*
X30952297Y-55781529D01*
X30781529Y-55952297D01*
X30631269Y-56052697D01*
X30580729Y-56086467D01*
X30580728Y-56086468D01*
X30580727Y-56086468D01*
X30357610Y-56178886D01*
X30120752Y-56226000D01*
X29879248Y-56226000D01*
X29642390Y-56178886D01*
X29419273Y-56086468D01*
X29419272Y-56086468D01*
X29419271Y-56086467D01*
X29368731Y-56052697D01*
X29218471Y-55952297D01*
X29047703Y-55781529D01*
X28913532Y-55580727D01*
X28821114Y-55357610D01*
X28774000Y-55120752D01*
X28774000Y-54879248D01*
X28821114Y-54642390D01*
X28913532Y-54419273D01*
X29047703Y-54218471D01*
X29218471Y-54047703D01*
X29368731Y-53947303D01*
X29419271Y-53913533D01*
X29419273Y-53913532D01*
X29642390Y-53821114D01*
X29879248Y-53774000D01*
X30120752Y-53774000D01*
X30357610Y-53821114D01*
G37*
G36*
X87701000Y-55901000D02*
G01*
X86299000Y-55901000D01*
X86299000Y-55099000D01*
X87701000Y-55099000D01*
X87701000Y-55901000D01*
G37*
G36*
X89701000Y-55901000D02*
G01*
X88299000Y-55901000D01*
X88299000Y-55099000D01*
X89701000Y-55099000D01*
X89701000Y-55901000D01*
G37*
G36*
X91701000Y-55901000D02*
G01*
X90299000Y-55901000D01*
X90299000Y-55099000D01*
X91701000Y-55099000D01*
X91701000Y-55901000D01*
G37*
G36*
X122851000Y-55851000D02*
G01*
X121149000Y-55851000D01*
X121149000Y-54149000D01*
X122851000Y-54149000D01*
X122851000Y-55851000D01*
G37*
G36*
X114628228Y-54181703D02*
G01*
X114783100Y-54245853D01*
X114922481Y-54338985D01*
X115041015Y-54457519D01*
X115134147Y-54596900D01*
X115198297Y-54751772D01*
X115231000Y-54916184D01*
X115231000Y-55083816D01*
X115198297Y-55248228D01*
X115134147Y-55403100D01*
X115041015Y-55542481D01*
X114922481Y-55661015D01*
X114783100Y-55754147D01*
X114628228Y-55818297D01*
X114463816Y-55851000D01*
X114296184Y-55851000D01*
X114131772Y-55818297D01*
X113976900Y-55754147D01*
X113837519Y-55661015D01*
X113718985Y-55542481D01*
X113625853Y-55403100D01*
X113561703Y-55248228D01*
X113529000Y-55083816D01*
X113529000Y-54916184D01*
X113561703Y-54751772D01*
X113625853Y-54596900D01*
X113718985Y-54457519D01*
X113837519Y-54338985D01*
X113976900Y-54245853D01*
X114131772Y-54181703D01*
X114296184Y-54149000D01*
X114463816Y-54149000D01*
X114628228Y-54181703D01*
G37*
G36*
X102651000Y-55851000D02*
G01*
X101249000Y-55851000D01*
X101249000Y-55049000D01*
X102651000Y-55049000D01*
X102651000Y-55851000D01*
G37*
G36*
X100701000Y-55851000D02*
G01*
X99299000Y-55851000D01*
X99299000Y-55049000D01*
X100701000Y-55049000D01*
X100701000Y-55851000D01*
G37*
G36*
X98701000Y-55801000D02*
G01*
X97299000Y-55801000D01*
X97299000Y-54999000D01*
X98701000Y-54999000D01*
X98701000Y-55801000D01*
G37*
G36*
X108501000Y-55501000D02*
G01*
X107499000Y-55501000D01*
X107499000Y-54599000D01*
X108501000Y-54599000D01*
X108501000Y-55501000D01*
G37*
G36*
X111201000Y-55401000D02*
G01*
X109799000Y-55401000D01*
X109799000Y-54599000D01*
X111201000Y-54599000D01*
X111201000Y-55401000D01*
G37*
G36*
X68079487Y-52648996D02*
G01*
X68316253Y-52747068D01*
X68316255Y-52747069D01*
X68441871Y-52831003D01*
X68529339Y-52889447D01*
X68710553Y-53070661D01*
X68852932Y-53283747D01*
X68951004Y-53520513D01*
X69001000Y-53771861D01*
X69001000Y-54028139D01*
X68951004Y-54279487D01*
X68889286Y-54428487D01*
X68852931Y-54516255D01*
X68710553Y-54729339D01*
X68529339Y-54910553D01*
X68316255Y-55052931D01*
X68316254Y-55052932D01*
X68316253Y-55052932D01*
X68079487Y-55151004D01*
X67828139Y-55201000D01*
X67571861Y-55201000D01*
X67320513Y-55151004D01*
X67083747Y-55052932D01*
X67083746Y-55052932D01*
X67083745Y-55052931D01*
X66870661Y-54910553D01*
X66689447Y-54729339D01*
X66547069Y-54516255D01*
X66510714Y-54428487D01*
X66448996Y-54279487D01*
X66399000Y-54028139D01*
X66399000Y-53771861D01*
X66448996Y-53520513D01*
X66547068Y-53283747D01*
X66689447Y-53070661D01*
X66870661Y-52889447D01*
X66958129Y-52831003D01*
X67083745Y-52747069D01*
X67083747Y-52747068D01*
X67320513Y-52648996D01*
X67571861Y-52599000D01*
X67828139Y-52599000D01*
X68079487Y-52648996D01*
G37*
G36*
X95401000Y-54501000D02*
G01*
X94499000Y-54501000D01*
X94499000Y-53499000D01*
X95401000Y-53499000D01*
X95401000Y-54501000D01*
G37*
G36*
X93501000Y-54501000D02*
G01*
X92599000Y-54501000D01*
X92599000Y-53499000D01*
X93501000Y-53499000D01*
X93501000Y-54501000D01*
G37*
G36*
X89701000Y-54001000D02*
G01*
X88299000Y-54001000D01*
X88299000Y-53199000D01*
X89701000Y-53199000D01*
X89701000Y-54001000D01*
G37*
G36*
X87701000Y-54001000D02*
G01*
X86299000Y-54001000D01*
X86299000Y-53199000D01*
X87701000Y-53199000D01*
X87701000Y-54001000D01*
G37*
G36*
X91701000Y-54001000D02*
G01*
X90299000Y-54001000D01*
X90299000Y-53199000D01*
X91701000Y-53199000D01*
X91701000Y-54001000D01*
G37*
G36*
X102651000Y-53951000D02*
G01*
X101249000Y-53951000D01*
X101249000Y-53149000D01*
X102651000Y-53149000D01*
X102651000Y-53951000D01*
G37*
G36*
X100701000Y-53951000D02*
G01*
X99299000Y-53951000D01*
X99299000Y-53149000D01*
X100701000Y-53149000D01*
X100701000Y-53951000D01*
G37*
G36*
X98701000Y-53901000D02*
G01*
X97299000Y-53901000D01*
X97299000Y-53099000D01*
X98701000Y-53099000D01*
X98701000Y-53901000D01*
G37*
G36*
X111201000Y-53801000D02*
G01*
X109799000Y-53801000D01*
X109799000Y-52999000D01*
X111201000Y-52999000D01*
X111201000Y-53801000D01*
G37*
G36*
X84001000Y-53451000D02*
G01*
X82999000Y-53451000D01*
X82999000Y-52549000D01*
X84001000Y-52549000D01*
X84001000Y-53451000D01*
G37*
G36*
X59819487Y-50328996D02*
G01*
X60056253Y-50427068D01*
X60056255Y-50427069D01*
X60238738Y-50549000D01*
X60269339Y-50569447D01*
X60450553Y-50750661D01*
X60592932Y-50963747D01*
X60691004Y-51200513D01*
X60741000Y-51451861D01*
X60741000Y-51708139D01*
X60691004Y-51959487D01*
X60592932Y-52196253D01*
X60592931Y-52196255D01*
X60450553Y-52409339D01*
X60269339Y-52590553D01*
X60056255Y-52732931D01*
X60056254Y-52732932D01*
X60056253Y-52732932D01*
X59819487Y-52831004D01*
X59568139Y-52881000D01*
X59311861Y-52881000D01*
X59060513Y-52831004D01*
X58823747Y-52732932D01*
X58823746Y-52732932D01*
X58823745Y-52732931D01*
X58610661Y-52590553D01*
X58429447Y-52409339D01*
X58287069Y-52196255D01*
X58287068Y-52196253D01*
X58188996Y-51959487D01*
X58139000Y-51708139D01*
X58139000Y-51451861D01*
X58188996Y-51200513D01*
X58287068Y-50963747D01*
X58429447Y-50750661D01*
X58610661Y-50569447D01*
X58641262Y-50549000D01*
X58823745Y-50427069D01*
X58823747Y-50427068D01*
X59060513Y-50328996D01*
X59311861Y-50279000D01*
X59568139Y-50279000D01*
X59819487Y-50328996D01*
G37*
G36*
X118401000Y-52701000D02*
G01*
X117599000Y-52701000D01*
X117599000Y-51299000D01*
X118401000Y-51299000D01*
X118401000Y-52701000D01*
G37*
G36*
X116501000Y-52701000D02*
G01*
X115699000Y-52701000D01*
X115699000Y-51299000D01*
X116501000Y-51299000D01*
X116501000Y-52701000D01*
G37*
G36*
X82001000Y-52501000D02*
G01*
X80999000Y-52501000D01*
X80999000Y-51599000D01*
X82001000Y-51599000D01*
X82001000Y-52501000D01*
G37*
G36*
X120501000Y-52401000D02*
G01*
X119499000Y-52401000D01*
X119499000Y-51499000D01*
X120501000Y-51499000D01*
X120501000Y-52401000D01*
G37*
G36*
X111201000Y-51901000D02*
G01*
X109799000Y-51901000D01*
X109799000Y-51099000D01*
X111201000Y-51099000D01*
X111201000Y-51901000D01*
G37*
G36*
X94951000Y-51901000D02*
G01*
X93549000Y-51901000D01*
X93549000Y-50099000D01*
X94951000Y-50099000D01*
X94951000Y-51901000D01*
G37*
G36*
X98451000Y-51901000D02*
G01*
X97049000Y-51901000D01*
X97049000Y-50099000D01*
X98451000Y-50099000D01*
X98451000Y-51901000D01*
G37*
G36*
X84001000Y-51551000D02*
G01*
X82999000Y-51551000D01*
X82999000Y-50649000D01*
X84001000Y-50649000D01*
X84001000Y-51551000D01*
G37*
G36*
X122501000Y-51451000D02*
G01*
X121499000Y-51451000D01*
X121499000Y-50549000D01*
X122501000Y-50549000D01*
X122501000Y-51451000D01*
G37*
G36*
X118401000Y-50701000D02*
G01*
X117599000Y-50701000D01*
X117599000Y-49299000D01*
X118401000Y-49299000D01*
X118401000Y-50701000D01*
G37*
G36*
X116501000Y-50701000D02*
G01*
X115699000Y-50701000D01*
X115699000Y-49299000D01*
X116501000Y-49299000D01*
X116501000Y-50701000D01*
G37*
G36*
X120501000Y-50501000D02*
G01*
X119499000Y-50501000D01*
X119499000Y-49599000D01*
X120501000Y-49599000D01*
X120501000Y-50501000D01*
G37*
G36*
X81951000Y-49701000D02*
G01*
X81149000Y-49701000D01*
X81149000Y-48299000D01*
X81951000Y-48299000D01*
X81951000Y-49701000D01*
G37*
G36*
X83851000Y-49701000D02*
G01*
X83049000Y-49701000D01*
X83049000Y-48299000D01*
X83851000Y-48299000D01*
X83851000Y-49701000D01*
G37*
G36*
X92301000Y-49051000D02*
G01*
X89699000Y-49051000D01*
X89699000Y-44949000D01*
X92301000Y-44949000D01*
X92301000Y-49051000D01*
G37*
G36*
X104301000Y-49051000D02*
G01*
X101699000Y-49051000D01*
X101699000Y-44949000D01*
X104301000Y-44949000D01*
X104301000Y-49051000D01*
G37*
G36*
X122301000Y-48701000D02*
G01*
X121499000Y-48701000D01*
X121499000Y-47299000D01*
X122301000Y-47299000D01*
X122301000Y-48701000D01*
G37*
G36*
X120401000Y-48701000D02*
G01*
X119599000Y-48701000D01*
X119599000Y-47299000D01*
X120401000Y-47299000D01*
X120401000Y-48701000D01*
G37*
G36*
X116651000Y-48651000D02*
G01*
X115349000Y-48651000D01*
X115349000Y-47349000D01*
X116651000Y-47349000D01*
X116651000Y-48651000D01*
G37*
G36*
X118851000Y-48651000D02*
G01*
X117549000Y-48651000D01*
X117549000Y-47349000D01*
X118851000Y-47349000D01*
X118851000Y-48651000D01*
G37*
G36*
X30379487Y-45748996D02*
G01*
X30616253Y-45847068D01*
X30616255Y-45847069D01*
X30829339Y-45989447D01*
X31010553Y-46170661D01*
X31048959Y-46228139D01*
X31152932Y-46383747D01*
X31251004Y-46620513D01*
X31301000Y-46871861D01*
X31301000Y-47128139D01*
X31251004Y-47379487D01*
X31152932Y-47616253D01*
X31152931Y-47616255D01*
X31010553Y-47829339D01*
X30829339Y-48010553D01*
X30616255Y-48152931D01*
X30616254Y-48152932D01*
X30616253Y-48152932D01*
X30379487Y-48251004D01*
X30128139Y-48301000D01*
X29871861Y-48301000D01*
X29620513Y-48251004D01*
X29383747Y-48152932D01*
X29383746Y-48152932D01*
X29383745Y-48152931D01*
X29170661Y-48010553D01*
X28989447Y-47829339D01*
X28847069Y-47616255D01*
X28847068Y-47616253D01*
X28748996Y-47379487D01*
X28699000Y-47128139D01*
X28699000Y-46871861D01*
X28748996Y-46620513D01*
X28847068Y-46383747D01*
X28951042Y-46228139D01*
X28989447Y-46170661D01*
X29170661Y-45989447D01*
X29383745Y-45847069D01*
X29383747Y-45847068D01*
X29620513Y-45748996D01*
X29871861Y-45699000D01*
X30128139Y-45699000D01*
X30379487Y-45748996D01*
G37*
G36*
X81551000Y-47801000D02*
G01*
X80449000Y-47801000D01*
X80449000Y-45199000D01*
X81551000Y-45199000D01*
X81551000Y-47801000D01*
G37*
G36*
X84551000Y-47801000D02*
G01*
X83449000Y-47801000D01*
X83449000Y-45199000D01*
X84551000Y-45199000D01*
X84551000Y-47801000D01*
G37*
G36*
X68079487Y-44848996D02*
G01*
X68316253Y-44947068D01*
X68316255Y-44947069D01*
X68529339Y-45089447D01*
X68710553Y-45270661D01*
X68852932Y-45483747D01*
X68951004Y-45720513D01*
X69001000Y-45971861D01*
X69001000Y-46228139D01*
X68951004Y-46479487D01*
X68892589Y-46620512D01*
X68852931Y-46716255D01*
X68710553Y-46929339D01*
X68529339Y-47110553D01*
X68316255Y-47252931D01*
X68316254Y-47252932D01*
X68316253Y-47252932D01*
X68079487Y-47351004D01*
X67828139Y-47401000D01*
X67571861Y-47401000D01*
X67320513Y-47351004D01*
X67083747Y-47252932D01*
X67083746Y-47252932D01*
X67083745Y-47252931D01*
X66870661Y-47110553D01*
X66689447Y-46929339D01*
X66547069Y-46716255D01*
X66507411Y-46620512D01*
X66448996Y-46479487D01*
X66399000Y-46228139D01*
X66399000Y-45971861D01*
X66448996Y-45720513D01*
X66547068Y-45483747D01*
X66689447Y-45270661D01*
X66870661Y-45089447D01*
X67083745Y-44947069D01*
X67083747Y-44947068D01*
X67320513Y-44848996D01*
X67571861Y-44799000D01*
X67828139Y-44799000D01*
X68079487Y-44848996D01*
G37*
G36*
X121301000Y-45301000D02*
G01*
X118699000Y-45301000D01*
X118699000Y-42699000D01*
X121301000Y-42699000D01*
X121301000Y-45301000D01*
G37*
G36*
X114401000Y-44451000D02*
G01*
X112599000Y-44451000D01*
X112599000Y-43049000D01*
X114401000Y-43049000D01*
X114401000Y-44451000D01*
G37*
G36*
X80701000Y-44401000D02*
G01*
X79299000Y-44401000D01*
X79299000Y-42599000D01*
X80701000Y-42599000D01*
X80701000Y-44401000D01*
G37*
G36*
X77201000Y-44401000D02*
G01*
X75799000Y-44401000D01*
X75799000Y-42599000D01*
X77201000Y-42599000D01*
X77201000Y-44401000D01*
G37*
G36*
X82501000Y-44201000D02*
G01*
X81699000Y-44201000D01*
X81699000Y-42799000D01*
X82501000Y-42799000D01*
X82501000Y-44201000D01*
G37*
G36*
X84401000Y-44201000D02*
G01*
X83599000Y-44201000D01*
X83599000Y-42799000D01*
X84401000Y-42799000D01*
X84401000Y-44201000D01*
G37*
G36*
X30379487Y-40748996D02*
G01*
X30616253Y-40847068D01*
X30616255Y-40847069D01*
X30771799Y-40951000D01*
X30829339Y-40989447D01*
X31010553Y-41170661D01*
X31152932Y-41383747D01*
X31251004Y-41620513D01*
X31301000Y-41871861D01*
X31301000Y-42128139D01*
X31251004Y-42379487D01*
X31170876Y-42572932D01*
X31152931Y-42616255D01*
X31010553Y-42829339D01*
X30829339Y-43010553D01*
X30616255Y-43152931D01*
X30616254Y-43152932D01*
X30616253Y-43152932D01*
X30379487Y-43251004D01*
X30128139Y-43301000D01*
X29871861Y-43301000D01*
X29620513Y-43251004D01*
X29383747Y-43152932D01*
X29383746Y-43152932D01*
X29383745Y-43152931D01*
X29170661Y-43010553D01*
X28989447Y-42829339D01*
X28847069Y-42616255D01*
X28829124Y-42572932D01*
X28748996Y-42379487D01*
X28699000Y-42128139D01*
X28699000Y-41871861D01*
X28748996Y-41620513D01*
X28847068Y-41383747D01*
X28989447Y-41170661D01*
X29170661Y-40989447D01*
X29228201Y-40951000D01*
X29383745Y-40847069D01*
X29383747Y-40847068D01*
X29620513Y-40748996D01*
X29871861Y-40699000D01*
X30128139Y-40699000D01*
X30379487Y-40748996D01*
G37*
G36*
X59819487Y-40168996D02*
G01*
X60017471Y-40251004D01*
X60056255Y-40267069D01*
X60269339Y-40409447D01*
X60450553Y-40590661D01*
X60556350Y-40748997D01*
X60592932Y-40803747D01*
X60691004Y-41040513D01*
X60741000Y-41291861D01*
X60741000Y-41548139D01*
X60691004Y-41799487D01*
X60592932Y-42036253D01*
X60592931Y-42036255D01*
X60450553Y-42249339D01*
X60269339Y-42430553D01*
X60056255Y-42572931D01*
X60056254Y-42572932D01*
X60056253Y-42572932D01*
X59819487Y-42671004D01*
X59568139Y-42721000D01*
X59311861Y-42721000D01*
X59060513Y-42671004D01*
X58823747Y-42572932D01*
X58823746Y-42572932D01*
X58823745Y-42572931D01*
X58610661Y-42430553D01*
X58429447Y-42249339D01*
X58287069Y-42036255D01*
X58287068Y-42036253D01*
X58188996Y-41799487D01*
X58139000Y-41548139D01*
X58139000Y-41291861D01*
X58188996Y-41040513D01*
X58287068Y-40803747D01*
X58323651Y-40748997D01*
X58429447Y-40590661D01*
X58610661Y-40409447D01*
X58823745Y-40267069D01*
X58862529Y-40251004D01*
X59060513Y-40168996D01*
X59311861Y-40119000D01*
X59568139Y-40119000D01*
X59819487Y-40168996D01*
G37*
G36*
X80701000Y-41901000D02*
G01*
X79299000Y-41901000D01*
X79299000Y-40099000D01*
X80701000Y-40099000D01*
X80701000Y-41901000D01*
G37*
G36*
X77201000Y-41901000D02*
G01*
X75799000Y-41901000D01*
X75799000Y-40099000D01*
X77201000Y-40099000D01*
X77201000Y-41901000D01*
G37*
G36*
X84401000Y-41701000D02*
G01*
X83599000Y-41701000D01*
X83599000Y-40299000D01*
X84401000Y-40299000D01*
X84401000Y-41701000D01*
G37*
G36*
X82501000Y-41701000D02*
G01*
X81699000Y-41701000D01*
X81699000Y-40299000D01*
X82501000Y-40299000D01*
X82501000Y-41701000D01*
G37*
G36*
X104301000Y-41051000D02*
G01*
X101699000Y-41051000D01*
X101699000Y-36949000D01*
X104301000Y-36949000D01*
X104301000Y-41051000D01*
G37*
G36*
X92301000Y-41051000D02*
G01*
X89699000Y-41051000D01*
X89699000Y-36949000D01*
X92301000Y-36949000D01*
X92301000Y-41051000D01*
G37*
G36*
X114401000Y-40951000D02*
G01*
X112599000Y-40951000D01*
X112599000Y-39549000D01*
X114401000Y-39549000D01*
X114401000Y-40951000D01*
G37*
G36*
X120379487Y-37748996D02*
G01*
X120507466Y-37802007D01*
X120616255Y-37847069D01*
X120829339Y-37989447D01*
X121010553Y-38170661D01*
X121097643Y-38301000D01*
X121152932Y-38383747D01*
X121251004Y-38620513D01*
X121301000Y-38871861D01*
X121301000Y-39128139D01*
X121251004Y-39379487D01*
X121180789Y-39549000D01*
X121152931Y-39616255D01*
X121010553Y-39829339D01*
X120829339Y-40010553D01*
X120616255Y-40152931D01*
X120616254Y-40152932D01*
X120616253Y-40152932D01*
X120379487Y-40251004D01*
X120128139Y-40301000D01*
X119871861Y-40301000D01*
X119620513Y-40251004D01*
X119383747Y-40152932D01*
X119383746Y-40152932D01*
X119383745Y-40152931D01*
X119170661Y-40010553D01*
X118989447Y-39829339D01*
X118847069Y-39616255D01*
X118819211Y-39549000D01*
X118748996Y-39379487D01*
X118699000Y-39128139D01*
X118699000Y-38871861D01*
X118748996Y-38620513D01*
X118847068Y-38383747D01*
X118902358Y-38301000D01*
X118989447Y-38170661D01*
X119170661Y-37989447D01*
X119383745Y-37847069D01*
X119492534Y-37802007D01*
X119620513Y-37748996D01*
X119871861Y-37699000D01*
X120128139Y-37699000D01*
X120379487Y-37748996D01*
G37*
G36*
X110579487Y-37348996D02*
G01*
X110816253Y-37447068D01*
X110816255Y-37447069D01*
X111029339Y-37589447D01*
X111210553Y-37770661D01*
X111297643Y-37901000D01*
X111352932Y-37983747D01*
X111451004Y-38220513D01*
X111501000Y-38471861D01*
X111501000Y-38728139D01*
X111451004Y-38979487D01*
X111352932Y-39216253D01*
X111352931Y-39216255D01*
X111210553Y-39429339D01*
X111029339Y-39610553D01*
X110816255Y-39752931D01*
X110816254Y-39752932D01*
X110816253Y-39752932D01*
X110579487Y-39851004D01*
X110328139Y-39901000D01*
X110071861Y-39901000D01*
X109820513Y-39851004D01*
X109583747Y-39752932D01*
X109583746Y-39752932D01*
X109583745Y-39752931D01*
X109370661Y-39610553D01*
X109189447Y-39429339D01*
X109047069Y-39216255D01*
X109047068Y-39216253D01*
X108948996Y-38979487D01*
X108899000Y-38728139D01*
X108899000Y-38471861D01*
X108948996Y-38220513D01*
X109047068Y-37983747D01*
X109102358Y-37901000D01*
X109189447Y-37770661D01*
X109370661Y-37589447D01*
X109583745Y-37447069D01*
X109583747Y-37447068D01*
X109820513Y-37348996D01*
X110071861Y-37299000D01*
X110328139Y-37299000D01*
X110579487Y-37348996D01*
G37*
G36*
X47338254Y-35627818D02*
G01*
X47711511Y-35782426D01*
X47711513Y-35782427D01*
X47963800Y-35951000D01*
X48047436Y-36006884D01*
X48333116Y-36292564D01*
X48557574Y-36628489D01*
X48712182Y-37001746D01*
X48791000Y-37397993D01*
X48791000Y-37802007D01*
X48712182Y-38198254D01*
X48557574Y-38571511D01*
X48557573Y-38571513D01*
X48333116Y-38907436D01*
X48047436Y-39193116D01*
X47711513Y-39417573D01*
X47711512Y-39417574D01*
X47711511Y-39417574D01*
X47338254Y-39572182D01*
X46942007Y-39651000D01*
X46537993Y-39651000D01*
X46141746Y-39572182D01*
X45768489Y-39417574D01*
X45768488Y-39417574D01*
X45768487Y-39417573D01*
X45432564Y-39193116D01*
X45146884Y-38907436D01*
X44922427Y-38571513D01*
X44922426Y-38571511D01*
X44767818Y-38198254D01*
X44689000Y-37802007D01*
X44689000Y-37397993D01*
X44767818Y-37001746D01*
X44922426Y-36628489D01*
X45146884Y-36292564D01*
X45432564Y-36006884D01*
X45516200Y-35951000D01*
X45768487Y-35782427D01*
X45768489Y-35782426D01*
X46141746Y-35627818D01*
X46537993Y-35549000D01*
X46942007Y-35549000D01*
X47338254Y-35627818D01*
G37*
G36*
X81451000Y-39001000D02*
G01*
X80549000Y-39001000D01*
X80549000Y-37999000D01*
X81451000Y-37999000D01*
X81451000Y-39001000D01*
G37*
G36*
X31301000Y-38301000D02*
G01*
X28699000Y-38301000D01*
X28699000Y-35699000D01*
X31301000Y-35699000D01*
X31301000Y-38301000D01*
G37*
G36*
X63701000Y-37901000D02*
G01*
X62299000Y-37901000D01*
X62299000Y-36099000D01*
X63701000Y-36099000D01*
X63701000Y-37901000D01*
G37*
G36*
X60201000Y-37901000D02*
G01*
X58799000Y-37901000D01*
X58799000Y-36099000D01*
X60201000Y-36099000D01*
X60201000Y-37901000D01*
G37*
G36*
X80501000Y-37001000D02*
G01*
X79599000Y-37001000D01*
X79599000Y-35999000D01*
X80501000Y-35999000D01*
X80501000Y-37001000D01*
G37*
G36*
X82401000Y-37001000D02*
G01*
X81499000Y-37001000D01*
X81499000Y-35999000D01*
X82401000Y-35999000D01*
X82401000Y-37001000D01*
G37*
G36*
X74301000Y-35951000D02*
G01*
X71699000Y-35951000D01*
X71699000Y-34049000D01*
X74301000Y-34049000D01*
X74301000Y-35951000D01*
G37*
G36*
X78301000Y-35951000D02*
G01*
X75699000Y-35951000D01*
X75699000Y-34049000D01*
X78301000Y-34049000D01*
X78301000Y-35951000D01*
G37*
G36*
X90701000Y-35401000D02*
G01*
X89299000Y-35401000D01*
X89299000Y-34599000D01*
X90701000Y-34599000D01*
X90701000Y-35401000D01*
G37*
G36*
X82701000Y-35401000D02*
G01*
X81299000Y-35401000D01*
X81299000Y-34599000D01*
X82701000Y-34599000D01*
X82701000Y-35401000D01*
G37*
G36*
X80701000Y-35401000D02*
G01*
X79299000Y-35401000D01*
X79299000Y-34599000D01*
X80701000Y-34599000D01*
X80701000Y-35401000D01*
G37*
G36*
X84951000Y-34901000D02*
G01*
X83549000Y-34901000D01*
X83549000Y-33099000D01*
X84951000Y-33099000D01*
X84951000Y-34901000D01*
G37*
G36*
X88451000Y-34901000D02*
G01*
X87049000Y-34901000D01*
X87049000Y-33099000D01*
X88451000Y-33099000D01*
X88451000Y-34901000D01*
G37*
G36*
X70651000Y-34651000D02*
G01*
X69349000Y-34651000D01*
X69349000Y-33349000D01*
X70651000Y-33349000D01*
X70651000Y-34651000D01*
G37*
G36*
X113901000Y-34501000D02*
G01*
X112599000Y-34501000D01*
X112599000Y-33199000D01*
X113901000Y-33199000D01*
X113901000Y-34501000D01*
G37*
G36*
X80701000Y-33501000D02*
G01*
X79299000Y-33501000D01*
X79299000Y-32699000D01*
X80701000Y-32699000D01*
X80701000Y-33501000D01*
G37*
G36*
X82701000Y-33501000D02*
G01*
X81299000Y-33501000D01*
X81299000Y-32699000D01*
X82701000Y-32699000D01*
X82701000Y-33501000D01*
G37*
G36*
X90701000Y-33501000D02*
G01*
X89299000Y-33501000D01*
X89299000Y-32699000D01*
X90701000Y-32699000D01*
X90701000Y-33501000D01*
G37*
G36*
X120445209Y-27181703D02*
G01*
X120831606Y-27258562D01*
X121350455Y-27473476D01*
X121817407Y-27785484D01*
X122214516Y-28182593D01*
X122526524Y-28649545D01*
X122741438Y-29168394D01*
X122741438Y-29168395D01*
X122851000Y-29719200D01*
X122851000Y-30280800D01*
X122846982Y-30301000D01*
X122741438Y-30831606D01*
X122526524Y-31350455D01*
X122214516Y-31817407D01*
X121817407Y-32214516D01*
X121350455Y-32526524D01*
X120831606Y-32741438D01*
X120280800Y-32851000D01*
X119719200Y-32851000D01*
X119168394Y-32741438D01*
X118649545Y-32526524D01*
X118182593Y-32214516D01*
X117785484Y-31817407D01*
X117473476Y-31350455D01*
X117258562Y-30831606D01*
X117153018Y-30301000D01*
X117149000Y-30280800D01*
X117149000Y-29719200D01*
X117258562Y-29168395D01*
X117258562Y-29168394D01*
X117473476Y-28649545D01*
X117785484Y-28182593D01*
X118182593Y-27785484D01*
X118649545Y-27473476D01*
X119168394Y-27258562D01*
X119554791Y-27181703D01*
X119719200Y-27149000D01*
X120280800Y-27149000D01*
X120445209Y-27181703D01*
G37*
G36*
X30445209Y-27181703D02*
G01*
X30831606Y-27258562D01*
X31350455Y-27473476D01*
X31817407Y-27785484D01*
X32214516Y-28182593D01*
X32526524Y-28649545D01*
X32741438Y-29168394D01*
X32741438Y-29168395D01*
X32851000Y-29719200D01*
X32851000Y-30280800D01*
X32846982Y-30301000D01*
X32741438Y-30831606D01*
X32526524Y-31350455D01*
X32214516Y-31817407D01*
X31817407Y-32214516D01*
X31350455Y-32526524D01*
X30831606Y-32741438D01*
X30280800Y-32851000D01*
X29719200Y-32851000D01*
X29168394Y-32741438D01*
X28649545Y-32526524D01*
X28182593Y-32214516D01*
X27785484Y-31817407D01*
X27473476Y-31350455D01*
X27258562Y-30831606D01*
X27153018Y-30301000D01*
X27149000Y-30280800D01*
X27149000Y-29719200D01*
X27258562Y-29168395D01*
X27258562Y-29168394D01*
X27473476Y-28649545D01*
X27785484Y-28182593D01*
X28182593Y-27785484D01*
X28649545Y-27473476D01*
X29168394Y-27258562D01*
X29554791Y-27181703D01*
X29719200Y-27149000D01*
X30280800Y-27149000D01*
X30445209Y-27181703D01*
G37*
G36*
X70651000Y-32451000D02*
G01*
X69349000Y-32451000D01*
X69349000Y-31149000D01*
X70651000Y-31149000D01*
X70651000Y-32451000D01*
G37*
G36*
X78301000Y-32451000D02*
G01*
X75699000Y-32451000D01*
X75699000Y-30549000D01*
X78301000Y-30549000D01*
X78301000Y-32451000D01*
G37*
G36*
X74301000Y-32451000D02*
G01*
X71699000Y-32451000D01*
X71699000Y-30549000D01*
X74301000Y-30549000D01*
X74301000Y-32451000D01*
G37*
G36*
X113901000Y-32301000D02*
G01*
X112599000Y-32301000D01*
X112599000Y-30999000D01*
X113901000Y-30999000D01*
X113901000Y-32301000D01*
G37*
G36*
X80628228Y-29721703D02*
G01*
X80783100Y-29785853D01*
X80922481Y-29878985D01*
X81041015Y-29997519D01*
X81134147Y-30136900D01*
X81198297Y-30291772D01*
X81231000Y-30456184D01*
X81231000Y-30623816D01*
X81198297Y-30788228D01*
X81134147Y-30943100D01*
X81041015Y-31082481D01*
X80922481Y-31201015D01*
X80783100Y-31294147D01*
X80628228Y-31358297D01*
X80463816Y-31391000D01*
X80296184Y-31391000D01*
X80131772Y-31358297D01*
X79976900Y-31294147D01*
X79837519Y-31201015D01*
X79718985Y-31082481D01*
X79625853Y-30943100D01*
X79561703Y-30788228D01*
X79529000Y-30623816D01*
X79529000Y-30456184D01*
X79561703Y-30291772D01*
X79625853Y-30136900D01*
X79718985Y-29997519D01*
X79837519Y-29878985D01*
X79976900Y-29785853D01*
X80131772Y-29721703D01*
X80296184Y-29689000D01*
X80463816Y-29689000D01*
X80628228Y-29721703D01*
G37*
G36*
X88248228Y-29721703D02*
G01*
X88403100Y-29785853D01*
X88542481Y-29878985D01*
X88661015Y-29997519D01*
X88754147Y-30136900D01*
X88818297Y-30291772D01*
X88851000Y-30456184D01*
X88851000Y-30623816D01*
X88818297Y-30788228D01*
X88754147Y-30943100D01*
X88661015Y-31082481D01*
X88542481Y-31201015D01*
X88403100Y-31294147D01*
X88248228Y-31358297D01*
X88083816Y-31391000D01*
X87916184Y-31391000D01*
X87751772Y-31358297D01*
X87596900Y-31294147D01*
X87457519Y-31201015D01*
X87338985Y-31082481D01*
X87245853Y-30943100D01*
X87181703Y-30788228D01*
X87149000Y-30623816D01*
X87149000Y-30456184D01*
X87181703Y-30291772D01*
X87245853Y-30136900D01*
X87338985Y-29997519D01*
X87457519Y-29878985D01*
X87596900Y-29785853D01*
X87751772Y-29721703D01*
X87916184Y-29689000D01*
X88083816Y-29689000D01*
X88248228Y-29721703D01*
G37*
G36*
X100301000Y-31301000D02*
G01*
X97699000Y-31301000D01*
X97699000Y-28699000D01*
X100301000Y-28699000D01*
X100301000Y-31301000D01*
G37*
G36*
X104539487Y-28748996D02*
G01*
X104776253Y-28847068D01*
X104776255Y-28847069D01*
X104782138Y-28851000D01*
X104989339Y-28989447D01*
X105170553Y-29170661D01*
X105312932Y-29383747D01*
X105411004Y-29620513D01*
X105461000Y-29871861D01*
X105461000Y-30128139D01*
X105411004Y-30379487D01*
X105340789Y-30549000D01*
X105312931Y-30616255D01*
X105170553Y-30829339D01*
X104989339Y-31010553D01*
X104776255Y-31152931D01*
X104776254Y-31152932D01*
X104776253Y-31152932D01*
X104539487Y-31251004D01*
X104288139Y-31301000D01*
X104031861Y-31301000D01*
X103780513Y-31251004D01*
X103543747Y-31152932D01*
X103543746Y-31152932D01*
X103543745Y-31152931D01*
X103330661Y-31010553D01*
X103149447Y-30829339D01*
X103007069Y-30616255D01*
X102979211Y-30549000D01*
X102908996Y-30379487D01*
X102859000Y-30128139D01*
X102859000Y-29871861D01*
X102908996Y-29620513D01*
X103007068Y-29383747D01*
X103149447Y-29170661D01*
X103330661Y-28989447D01*
X103537862Y-28851000D01*
X103543745Y-28847069D01*
X103543747Y-28847068D01*
X103780513Y-28748996D01*
X104031861Y-28699000D01*
X104288139Y-28699000D01*
X104539487Y-28748996D01*
G37*
G36*
X43879487Y-28748996D02*
G01*
X44116253Y-28847068D01*
X44116255Y-28847069D01*
X44122138Y-28851000D01*
X44329339Y-28989447D01*
X44510553Y-29170661D01*
X44652932Y-29383747D01*
X44751004Y-29620513D01*
X44801000Y-29871861D01*
X44801000Y-30128139D01*
X44751004Y-30379487D01*
X44680789Y-30549000D01*
X44652931Y-30616255D01*
X44510553Y-30829339D01*
X44329339Y-31010553D01*
X44116255Y-31152931D01*
X44116254Y-31152932D01*
X44116253Y-31152932D01*
X43879487Y-31251004D01*
X43628139Y-31301000D01*
X43371861Y-31301000D01*
X43120513Y-31251004D01*
X42883747Y-31152932D01*
X42883746Y-31152932D01*
X42883745Y-31152931D01*
X42670661Y-31010553D01*
X42489447Y-30829339D01*
X42347069Y-30616255D01*
X42319211Y-30549000D01*
X42248996Y-30379487D01*
X42199000Y-30128139D01*
X42199000Y-29871861D01*
X42248996Y-29620513D01*
X42347068Y-29383747D01*
X42489447Y-29170661D01*
X42670661Y-28989447D01*
X42877862Y-28851000D01*
X42883745Y-28847069D01*
X42883747Y-28847068D01*
X43120513Y-28748996D01*
X43371861Y-28699000D01*
X43628139Y-28699000D01*
X43879487Y-28748996D01*
G37*
G36*
X38879487Y-28748996D02*
G01*
X39116253Y-28847068D01*
X39116255Y-28847069D01*
X39122138Y-28851000D01*
X39329339Y-28989447D01*
X39510553Y-29170661D01*
X39652932Y-29383747D01*
X39751004Y-29620513D01*
X39801000Y-29871861D01*
X39801000Y-30128139D01*
X39751004Y-30379487D01*
X39680789Y-30549000D01*
X39652931Y-30616255D01*
X39510553Y-30829339D01*
X39329339Y-31010553D01*
X39116255Y-31152931D01*
X39116254Y-31152932D01*
X39116253Y-31152932D01*
X38879487Y-31251004D01*
X38628139Y-31301000D01*
X38371861Y-31301000D01*
X38120513Y-31251004D01*
X37883747Y-31152932D01*
X37883746Y-31152932D01*
X37883745Y-31152931D01*
X37670661Y-31010553D01*
X37489447Y-30829339D01*
X37347069Y-30616255D01*
X37319211Y-30549000D01*
X37248996Y-30379487D01*
X37199000Y-30128139D01*
X37199000Y-29871861D01*
X37248996Y-29620513D01*
X37347068Y-29383747D01*
X37489447Y-29170661D01*
X37670661Y-28989447D01*
X37877862Y-28851000D01*
X37883745Y-28847069D01*
X37883747Y-28847068D01*
X38120513Y-28748996D01*
X38371861Y-28699000D01*
X38628139Y-28699000D01*
X38879487Y-28748996D01*
G37*
G36*
X67301000Y-31301000D02*
G01*
X64699000Y-31301000D01*
X64699000Y-28699000D01*
X67301000Y-28699000D01*
X67301000Y-31301000D01*
G37*
G36*
X61379487Y-28748996D02*
G01*
X61616253Y-28847068D01*
X61616255Y-28847069D01*
X61622138Y-28851000D01*
X61829339Y-28989447D01*
X62010553Y-29170661D01*
X62152932Y-29383747D01*
X62251004Y-29620513D01*
X62301000Y-29871861D01*
X62301000Y-30128139D01*
X62251004Y-30379487D01*
X62180789Y-30549000D01*
X62152931Y-30616255D01*
X62010553Y-30829339D01*
X61829339Y-31010553D01*
X61616255Y-31152931D01*
X61616254Y-31152932D01*
X61616253Y-31152932D01*
X61379487Y-31251004D01*
X61128139Y-31301000D01*
X60871861Y-31301000D01*
X60620513Y-31251004D01*
X60383747Y-31152932D01*
X60383746Y-31152932D01*
X60383745Y-31152931D01*
X60170661Y-31010553D01*
X59989447Y-30829339D01*
X59847069Y-30616255D01*
X59819211Y-30549000D01*
X59748996Y-30379487D01*
X59699000Y-30128139D01*
X59699000Y-29871861D01*
X59748996Y-29620513D01*
X59847068Y-29383747D01*
X59989447Y-29170661D01*
X60170661Y-28989447D01*
X60377862Y-28851000D01*
X60383745Y-28847069D01*
X60383747Y-28847068D01*
X60620513Y-28748996D01*
X60871861Y-28699000D01*
X61128139Y-28699000D01*
X61379487Y-28748996D01*
G37*
G36*
X49801000Y-31301000D02*
G01*
X47199000Y-31301000D01*
X47199000Y-28699000D01*
X49801000Y-28699000D01*
X49801000Y-31301000D01*
G37*
G36*
X94379487Y-28748996D02*
G01*
X94616253Y-28847068D01*
X94616255Y-28847069D01*
X94622138Y-28851000D01*
X94829339Y-28989447D01*
X95010553Y-29170661D01*
X95152932Y-29383747D01*
X95251004Y-29620513D01*
X95301000Y-29871861D01*
X95301000Y-30128139D01*
X95251004Y-30379487D01*
X95180789Y-30549000D01*
X95152931Y-30616255D01*
X95010553Y-30829339D01*
X94829339Y-31010553D01*
X94616255Y-31152931D01*
X94616254Y-31152932D01*
X94616253Y-31152932D01*
X94379487Y-31251004D01*
X94128139Y-31301000D01*
X93871861Y-31301000D01*
X93620513Y-31251004D01*
X93383747Y-31152932D01*
X93383746Y-31152932D01*
X93383745Y-31152931D01*
X93170661Y-31010553D01*
X92989447Y-30829339D01*
X92847069Y-30616255D01*
X92819211Y-30549000D01*
X92748996Y-30379487D01*
X92699000Y-30128139D01*
X92699000Y-29871861D01*
X92748996Y-29620513D01*
X92847068Y-29383747D01*
X92989447Y-29170661D01*
X93170661Y-28989447D01*
X93377862Y-28851000D01*
X93383745Y-28847069D01*
X93383747Y-28847068D01*
X93620513Y-28748996D01*
X93871861Y-28699000D01*
X94128139Y-28699000D01*
X94379487Y-28748996D01*
G37*
G36*
X110461000Y-31301000D02*
G01*
X107859000Y-31301000D01*
X107859000Y-28699000D01*
X110461000Y-28699000D01*
X110461000Y-31301000D01*
G37*
G36*
X70701000Y-30301000D02*
G01*
X69299000Y-30301000D01*
X69299000Y-29499000D01*
X70701000Y-29499000D01*
X70701000Y-30301000D01*
G37*
G36*
X113951000Y-30301000D02*
G01*
X112549000Y-30301000D01*
X112549000Y-29499000D01*
X113951000Y-29499000D01*
X113951000Y-30301000D01*
G37*
G36*
X74551000Y-29176000D02*
G01*
X73449000Y-29176000D01*
X73449000Y-27824000D01*
X74551000Y-27824000D01*
X74551000Y-29176000D01*
G37*
G36*
X76551000Y-29176000D02*
G01*
X75449000Y-29176000D01*
X75449000Y-27824000D01*
X76551000Y-27824000D01*
X76551000Y-29176000D01*
G37*
G36*
X80628228Y-27181703D02*
G01*
X80783100Y-27245853D01*
X80922481Y-27338985D01*
X81041015Y-27457519D01*
X81134147Y-27596900D01*
X81198297Y-27751772D01*
X81231000Y-27916184D01*
X81231000Y-28083816D01*
X81198297Y-28248228D01*
X81134147Y-28403100D01*
X81041015Y-28542481D01*
X80922481Y-28661015D01*
X80783100Y-28754147D01*
X80628228Y-28818297D01*
X80463816Y-28851000D01*
X80296184Y-28851000D01*
X80131772Y-28818297D01*
X79976900Y-28754147D01*
X79837519Y-28661015D01*
X79718985Y-28542481D01*
X79625853Y-28403100D01*
X79561703Y-28248228D01*
X79529000Y-28083816D01*
X79529000Y-27916184D01*
X79561703Y-27751772D01*
X79625853Y-27596900D01*
X79718985Y-27457519D01*
X79837519Y-27338985D01*
X79976900Y-27245853D01*
X80131772Y-27181703D01*
X80296184Y-27149000D01*
X80463816Y-27149000D01*
X80628228Y-27181703D01*
G37*
G36*
X88851000Y-28851000D02*
G01*
X87149000Y-28851000D01*
X87149000Y-27149000D01*
X88851000Y-27149000D01*
X88851000Y-28851000D01*
G37*
G36*
X113951000Y-28401000D02*
G01*
X112549000Y-28401000D01*
X112549000Y-27599000D01*
X113951000Y-27599000D01*
X113951000Y-28401000D01*
G37*
G36*
X70701000Y-28401000D02*
G01*
X69299000Y-28401000D01*
X69299000Y-27599000D01*
X70701000Y-27599000D01*
X70701000Y-28401000D01*
G37*
M02*
