M48
; DRILL file {KiCad 5.1.5+dfsg1-2build2} date Fri Oct 15 23:46:48 2021
; FORMAT={-:-/ absolute / metric / decimal}
; #@! TF.CreationDate,2021-10-15T23:46:48+10:30
; #@! TF.GenerationSoftware,Kicad,Pcbnew,5.1.5+dfsg1-2build2
FMAT,2
METRIC
T1C0.400
T2C0.800
T3C1.000
T4C1.100
T5C1.200
T6C1.300
T7C1.350
T8C2.100
T9C3.000
T10C3.200
%
G90
G05
T1
X26.0Y-93.0
X26.0Y-93.0
X54.0Y-119.5
X56.0Y-96.5
X57.5Y-96.5
X59.5Y-106.0
X59.5Y-107.5
X59.5Y-109.0
X59.5Y-110.5
X61.5Y-96.5
X63.0Y-96.5
X64.0Y-119.5
X65.5Y-63.0
X70.0Y-34.0
X74.0Y-26.0
X74.0Y-119.5
X75.0Y-121.5
X75.0Y-63.0
X78.5Y-35.0
X80.5Y-52.0
X81.0Y-100.5
X81.0Y-105.5
X81.5Y-118.0
X83.0Y-113.0
X84.0Y-109.5
X85.5Y-109.5
X87.0Y-52.5
X89.0Y-47.0
X89.0Y-56.5
X89.0Y-58.225
X93.0Y-53.0
X93.5Y-109.5
X95.0Y-109.5
X95.5Y-73.0
X95.5Y-86.5
X101.0Y-47.0
X102.0Y-56.5
X103.25Y-58.25
X104.5Y-68.0
X105.0Y-47.0
X105.5Y-86.5
X105.75Y-58.25
X106.0Y-54.75
X109.0Y-109.5
X110.5Y-109.5
X112.0Y-67.0
X112.0Y-89.0
X115.0Y-28.0
X118.5Y-109.5
X119.5Y-53.0
X120.0Y-109.5
X121.5Y-67.5
X121.5Y-88.5
T2
X42.6Y-64.5
X44.0Y-72.0
X111.0Y-79.5
X111.0Y-84.5
X80.38Y-28.0
X80.38Y-30.54
X88.0Y-28.0
X88.0Y-30.54
X114.38Y-55.0
X114.38Y-57.54
X122.0Y-55.0
X122.0Y-57.54
X37.6Y-64.5
X39.0Y-72.0
X111.0Y-71.5
X111.0Y-76.5
T3
X102.0Y-80.92
X102.0Y-83.46
X102.0Y-86.0
X102.0Y-69.92
X102.0Y-72.46
X102.0Y-75.0
T4
X59.44Y-41.42
X59.44Y-51.58
X67.7Y-46.1
X67.7Y-53.9
X110.2Y-38.6
X110.2Y-61.4
T5
X102.0Y-105.0
X102.0Y-110.08
X102.0Y-96.0
X102.0Y-101.08
X56.5Y-60.0
X56.5Y-75.0
X48.999Y-85.999
X48.999Y-116.001
X54.0Y-116.001
X58.999Y-85.999
X58.999Y-116.001
X69.001Y-85.999
X69.001Y-116.001
X74.0Y-116.001
X79.001Y-85.999
X79.001Y-116.001
X49.0Y-60.0
X49.0Y-75.0
T6
X38.5Y-30.0
X43.5Y-30.0
X48.5Y-30.0
X103.5Y-120.0
X108.5Y-120.0
X113.5Y-120.0
X94.0Y-30.0
X99.0Y-30.0
X104.16Y-30.0
X109.16Y-30.0
X30.0Y-37.0
X30.0Y-42.0
X30.0Y-47.0
X120.0Y-39.0
X120.0Y-44.0
X61.0Y-30.0
X66.0Y-30.0
X120.0Y-73.0
X120.0Y-78.0
X120.0Y-83.0
T7
X30.0Y-82.0
X30.0Y-88.0
X30.0Y-98.0
X30.0Y-104.0
X30.0Y-55.0
X30.0Y-61.0
X30.0Y-71.0
X30.0Y-77.0
T8
X36.6Y-55.4
X44.2Y-55.4
X46.74Y-37.6
T9
X41.5Y-83.0
X41.5Y-119.0
X86.5Y-83.0
X86.5Y-119.0
T10
X120.0Y-30.0
X120.0Y-120.0
X30.0Y-30.0
X30.0Y-120.0
T0
M30
