G04 #@! TF.GenerationSoftware,KiCad,Pcbnew,5.1.5+dfsg1-2build2*
G04 #@! TF.CreationDate,2021-10-26T23:54:15+10:30*
G04 #@! TF.ProjectId,xover-psu,786f7665-722d-4707-9375-2e6b69636164,rev?*
G04 #@! TF.SameCoordinates,Original*
G04 #@! TF.FileFunction,Legend,Top*
G04 #@! TF.FilePolarity,Positive*
%FSLAX46Y46*%
G04 Gerber Fmt 4.6, Leading zero omitted, Abs format (unit mm)*
G04 Created by KiCad (PCBNEW 5.1.5+dfsg1-2build2) date 2021-10-26 23:54:15*
%MOMM*%
%LPD*%
G04 APERTURE LIST*
%ADD10C,0.150000*%
%ADD11C,0.300000*%
%ADD12C,1.270000*%
%ADD13C,0.381000*%
%ADD14C,0.600000*%
%ADD15C,0.120000*%
%ADD16C,0.500000*%
%ADD17C,1.200000*%
%ADD18C,0.100000*%
G04 APERTURE END LIST*
D10*
X25738095Y-51104761D02*
X25880952Y-51152380D01*
X26119047Y-51152380D01*
X26214285Y-51104761D01*
X26261904Y-51057142D01*
X26309523Y-50961904D01*
X26309523Y-50866666D01*
X26261904Y-50771428D01*
X26214285Y-50723809D01*
X26119047Y-50676190D01*
X25928571Y-50628571D01*
X25833333Y-50580952D01*
X25785714Y-50533333D01*
X25738095Y-50438095D01*
X25738095Y-50342857D01*
X25785714Y-50247619D01*
X25833333Y-50200000D01*
X25928571Y-50152380D01*
X26166666Y-50152380D01*
X26309523Y-50200000D01*
X26642857Y-50152380D02*
X26880952Y-51152380D01*
X27071428Y-50438095D01*
X27261904Y-51152380D01*
X27500000Y-50152380D01*
X27880952Y-51152380D02*
X27880952Y-50152380D01*
X28214285Y-50152380D02*
X28785714Y-50152380D01*
X28500000Y-51152380D02*
X28500000Y-50152380D01*
X29690476Y-51057142D02*
X29642857Y-51104761D01*
X29500000Y-51152380D01*
X29404761Y-51152380D01*
X29261904Y-51104761D01*
X29166666Y-51009523D01*
X29119047Y-50914285D01*
X29071428Y-50723809D01*
X29071428Y-50580952D01*
X29119047Y-50390476D01*
X29166666Y-50295238D01*
X29261904Y-50200000D01*
X29404761Y-50152380D01*
X29500000Y-50152380D01*
X29642857Y-50200000D01*
X29690476Y-50247619D01*
X30119047Y-51152380D02*
X30119047Y-50152380D01*
X30119047Y-50628571D02*
X30690476Y-50628571D01*
X30690476Y-51152380D02*
X30690476Y-50152380D01*
X31166666Y-50628571D02*
X31500000Y-50628571D01*
X31642857Y-51152380D02*
X31166666Y-51152380D01*
X31166666Y-50152380D01*
X31642857Y-50152380D01*
X32071428Y-51152380D02*
X32071428Y-50152380D01*
X32309523Y-50152380D01*
X32452380Y-50200000D01*
X32547619Y-50295238D01*
X32595238Y-50390476D01*
X32642857Y-50580952D01*
X32642857Y-50723809D01*
X32595238Y-50914285D01*
X32547619Y-51009523D01*
X32452380Y-51104761D01*
X32309523Y-51152380D01*
X32071428Y-51152380D01*
X33785714Y-50866666D02*
X34261904Y-50866666D01*
X33690476Y-51152380D02*
X34023809Y-50152380D01*
X34357142Y-51152380D01*
X35261904Y-51057142D02*
X35214285Y-51104761D01*
X35071428Y-51152380D01*
X34976190Y-51152380D01*
X34833333Y-51104761D01*
X34738095Y-51009523D01*
X34690476Y-50914285D01*
X34642857Y-50723809D01*
X34642857Y-50580952D01*
X34690476Y-50390476D01*
X34738095Y-50295238D01*
X34833333Y-50200000D01*
X34976190Y-50152380D01*
X35071428Y-50152380D01*
X35214285Y-50200000D01*
X35261904Y-50247619D01*
X35166666Y-29280952D02*
X35166666Y-28804761D01*
X35452380Y-29376190D02*
X34452380Y-29042857D01*
X35452380Y-28709523D01*
X35357142Y-27804761D02*
X35404761Y-27852380D01*
X35452380Y-27995238D01*
X35452380Y-28090476D01*
X35404761Y-28233333D01*
X35309523Y-28328571D01*
X35214285Y-28376190D01*
X35023809Y-28423809D01*
X34880952Y-28423809D01*
X34690476Y-28376190D01*
X34595238Y-28328571D01*
X34500000Y-28233333D01*
X34452380Y-28090476D01*
X34452380Y-27995238D01*
X34500000Y-27852380D01*
X34547619Y-27804761D01*
X35452380Y-26614285D02*
X34452380Y-26614285D01*
X35452380Y-26138095D02*
X34452380Y-26138095D01*
X35452380Y-25566666D01*
X34452380Y-25566666D01*
X113766666Y-53476190D02*
X113766666Y-53000000D01*
X114052380Y-53571428D02*
X113052380Y-53238095D01*
X114052380Y-52904761D01*
X113957142Y-52000000D02*
X114004761Y-52047619D01*
X114052380Y-52190476D01*
X114052380Y-52285714D01*
X114004761Y-52428571D01*
X113909523Y-52523809D01*
X113814285Y-52571428D01*
X113623809Y-52619047D01*
X113480952Y-52619047D01*
X113290476Y-52571428D01*
X113195238Y-52523809D01*
X113100000Y-52428571D01*
X113052380Y-52285714D01*
X113052380Y-52190476D01*
X113100000Y-52047619D01*
X113147619Y-52000000D01*
X114052380Y-50809523D02*
X113052380Y-50809523D01*
X113052380Y-50428571D01*
X113100000Y-50333333D01*
X113147619Y-50285714D01*
X113242857Y-50238095D01*
X113385714Y-50238095D01*
X113480952Y-50285714D01*
X113528571Y-50333333D01*
X113576190Y-50428571D01*
X113576190Y-50809523D01*
X113052380Y-49809523D02*
X113861904Y-49809523D01*
X113957142Y-49761904D01*
X114004761Y-49714285D01*
X114052380Y-49619047D01*
X114052380Y-49428571D01*
X114004761Y-49333333D01*
X113957142Y-49285714D01*
X113861904Y-49238095D01*
X113052380Y-49238095D01*
X114052380Y-48285714D02*
X114052380Y-48761904D01*
X113052380Y-48761904D01*
X114004761Y-48000000D02*
X114052380Y-47857142D01*
X114052380Y-47619047D01*
X114004761Y-47523809D01*
X113957142Y-47476190D01*
X113861904Y-47428571D01*
X113766666Y-47428571D01*
X113671428Y-47476190D01*
X113623809Y-47523809D01*
X113576190Y-47619047D01*
X113528571Y-47809523D01*
X113480952Y-47904761D01*
X113433333Y-47952380D01*
X113338095Y-48000000D01*
X113242857Y-48000000D01*
X113147619Y-47952380D01*
X113100000Y-47904761D01*
X113052380Y-47809523D01*
X113052380Y-47571428D01*
X113100000Y-47428571D01*
X113528571Y-47000000D02*
X113528571Y-46666666D01*
X114052380Y-46523809D02*
X114052380Y-47000000D01*
X113052380Y-47000000D01*
X113052380Y-46523809D01*
D11*
X40559523Y-45254761D02*
X40559523Y-43254761D01*
X41321428Y-43254761D01*
X41511904Y-43350000D01*
X41607142Y-43445238D01*
X41702380Y-43635714D01*
X41702380Y-43921428D01*
X41607142Y-44111904D01*
X41511904Y-44207142D01*
X41321428Y-44302380D01*
X40559523Y-44302380D01*
X42559523Y-45254761D02*
X42559523Y-43921428D01*
X42559523Y-44302380D02*
X42654761Y-44111904D01*
X42750000Y-44016666D01*
X42940476Y-43921428D01*
X43130952Y-43921428D01*
X44559523Y-45159523D02*
X44369047Y-45254761D01*
X43988095Y-45254761D01*
X43797619Y-45159523D01*
X43702380Y-44969047D01*
X43702380Y-44207142D01*
X43797619Y-44016666D01*
X43988095Y-43921428D01*
X44369047Y-43921428D01*
X44559523Y-44016666D01*
X44654761Y-44207142D01*
X44654761Y-44397619D01*
X43702380Y-44588095D01*
X46369047Y-45254761D02*
X46369047Y-44207142D01*
X46273809Y-44016666D01*
X46083333Y-43921428D01*
X45702380Y-43921428D01*
X45511904Y-44016666D01*
X46369047Y-45159523D02*
X46178571Y-45254761D01*
X45702380Y-45254761D01*
X45511904Y-45159523D01*
X45416666Y-44969047D01*
X45416666Y-44778571D01*
X45511904Y-44588095D01*
X45702380Y-44492857D01*
X46178571Y-44492857D01*
X46369047Y-44397619D01*
X47321428Y-45254761D02*
X47321428Y-43921428D01*
X47321428Y-44111904D02*
X47416666Y-44016666D01*
X47607142Y-43921428D01*
X47892857Y-43921428D01*
X48083333Y-44016666D01*
X48178571Y-44207142D01*
X48178571Y-45254761D01*
X48178571Y-44207142D02*
X48273809Y-44016666D01*
X48464285Y-43921428D01*
X48750000Y-43921428D01*
X48940476Y-44016666D01*
X49035714Y-44207142D01*
X49035714Y-45254761D01*
X49988095Y-43921428D02*
X49988095Y-45921428D01*
X49988095Y-44016666D02*
X50178571Y-43921428D01*
X50559523Y-43921428D01*
X50750000Y-44016666D01*
X50845238Y-44111904D01*
X50940476Y-44302380D01*
X50940476Y-44873809D01*
X50845238Y-45064285D01*
X50750000Y-45159523D01*
X50559523Y-45254761D01*
X50178571Y-45254761D01*
X49988095Y-45159523D01*
X52083333Y-45254761D02*
X51892857Y-45159523D01*
X51797619Y-44969047D01*
X51797619Y-43254761D01*
X52845238Y-45254761D02*
X52845238Y-43921428D01*
X52845238Y-43254761D02*
X52750000Y-43350000D01*
X52845238Y-43445238D01*
X52940476Y-43350000D01*
X52845238Y-43254761D01*
X52845238Y-43445238D01*
X53511904Y-43921428D02*
X54273809Y-43921428D01*
X53797619Y-45254761D02*
X53797619Y-43540476D01*
X53892857Y-43350000D01*
X54083333Y-43254761D01*
X54273809Y-43254761D01*
X55702380Y-45159523D02*
X55511904Y-45254761D01*
X55130952Y-45254761D01*
X54940476Y-45159523D01*
X54845238Y-44969047D01*
X54845238Y-44207142D01*
X54940476Y-44016666D01*
X55130952Y-43921428D01*
X55511904Y-43921428D01*
X55702380Y-44016666D01*
X55797619Y-44207142D01*
X55797619Y-44397619D01*
X54845238Y-44588095D01*
X56654761Y-45254761D02*
X56654761Y-43921428D01*
X56654761Y-44302380D02*
X56750000Y-44111904D01*
X56845238Y-44016666D01*
X57035714Y-43921428D01*
X57226190Y-43921428D01*
X39083333Y-48554761D02*
X39083333Y-46554761D01*
X39845238Y-46554761D01*
X40035714Y-46650000D01*
X40130952Y-46745238D01*
X40226190Y-46935714D01*
X40226190Y-47221428D01*
X40130952Y-47411904D01*
X40035714Y-47507142D01*
X39845238Y-47602380D01*
X39083333Y-47602380D01*
X41369047Y-48554761D02*
X41178571Y-48459523D01*
X41083333Y-48364285D01*
X40988095Y-48173809D01*
X40988095Y-47602380D01*
X41083333Y-47411904D01*
X41178571Y-47316666D01*
X41369047Y-47221428D01*
X41654761Y-47221428D01*
X41845238Y-47316666D01*
X41940476Y-47411904D01*
X42035714Y-47602380D01*
X42035714Y-48173809D01*
X41940476Y-48364285D01*
X41845238Y-48459523D01*
X41654761Y-48554761D01*
X41369047Y-48554761D01*
X42702380Y-47221428D02*
X43083333Y-48554761D01*
X43464285Y-47602380D01*
X43845238Y-48554761D01*
X44226190Y-47221428D01*
X45750000Y-48459523D02*
X45559523Y-48554761D01*
X45178571Y-48554761D01*
X44988095Y-48459523D01*
X44892857Y-48269047D01*
X44892857Y-47507142D01*
X44988095Y-47316666D01*
X45178571Y-47221428D01*
X45559523Y-47221428D01*
X45750000Y-47316666D01*
X45845238Y-47507142D01*
X45845238Y-47697619D01*
X44892857Y-47888095D01*
X46702380Y-48554761D02*
X46702380Y-47221428D01*
X46702380Y-47602380D02*
X46797619Y-47411904D01*
X46892857Y-47316666D01*
X47083333Y-47221428D01*
X47273809Y-47221428D01*
X49369047Y-48459523D02*
X49654761Y-48554761D01*
X50130952Y-48554761D01*
X50321428Y-48459523D01*
X50416666Y-48364285D01*
X50511904Y-48173809D01*
X50511904Y-47983333D01*
X50416666Y-47792857D01*
X50321428Y-47697619D01*
X50130952Y-47602380D01*
X49750000Y-47507142D01*
X49559523Y-47411904D01*
X49464285Y-47316666D01*
X49369047Y-47126190D01*
X49369047Y-46935714D01*
X49464285Y-46745238D01*
X49559523Y-46650000D01*
X49750000Y-46554761D01*
X50226190Y-46554761D01*
X50511904Y-46650000D01*
X52226190Y-47221428D02*
X52226190Y-48554761D01*
X51369047Y-47221428D02*
X51369047Y-48269047D01*
X51464285Y-48459523D01*
X51654761Y-48554761D01*
X51940476Y-48554761D01*
X52130952Y-48459523D01*
X52226190Y-48364285D01*
X53178571Y-47221428D02*
X53178571Y-49221428D01*
X53178571Y-47316666D02*
X53369047Y-47221428D01*
X53750000Y-47221428D01*
X53940476Y-47316666D01*
X54035714Y-47411904D01*
X54130952Y-47602380D01*
X54130952Y-48173809D01*
X54035714Y-48364285D01*
X53940476Y-48459523D01*
X53750000Y-48554761D01*
X53369047Y-48554761D01*
X53178571Y-48459523D01*
X54988095Y-47221428D02*
X54988095Y-49221428D01*
X54988095Y-47316666D02*
X55178571Y-47221428D01*
X55559523Y-47221428D01*
X55750000Y-47316666D01*
X55845238Y-47411904D01*
X55940476Y-47602380D01*
X55940476Y-48173809D01*
X55845238Y-48364285D01*
X55750000Y-48459523D01*
X55559523Y-48554761D01*
X55178571Y-48554761D01*
X54988095Y-48459523D01*
X57083333Y-48554761D02*
X56892857Y-48459523D01*
X56797619Y-48269047D01*
X56797619Y-46554761D01*
X57654761Y-47221428D02*
X58130952Y-48554761D01*
X58607142Y-47221428D02*
X58130952Y-48554761D01*
X57940476Y-49030952D01*
X57845238Y-49126190D01*
X57654761Y-49221428D01*
D10*
X118761904Y-33202380D02*
X118761904Y-34011904D01*
X118809523Y-34107142D01*
X118857142Y-34154761D01*
X118952380Y-34202380D01*
X119142857Y-34202380D01*
X119238095Y-34154761D01*
X119285714Y-34107142D01*
X119333333Y-34011904D01*
X119333333Y-33202380D01*
X119809523Y-34202380D02*
X119809523Y-33202380D01*
X120380952Y-34202380D01*
X120380952Y-33202380D01*
X120857142Y-34202380D02*
X120857142Y-33202380D01*
X121190476Y-33916666D01*
X121523809Y-33202380D01*
X121523809Y-34202380D01*
X122000000Y-33202380D02*
X122000000Y-34011904D01*
X122047619Y-34107142D01*
X122095238Y-34154761D01*
X122190476Y-34202380D01*
X122380952Y-34202380D01*
X122476190Y-34154761D01*
X122523809Y-34107142D01*
X122571428Y-34011904D01*
X122571428Y-33202380D01*
X122904761Y-33202380D02*
X123476190Y-33202380D01*
X123190476Y-34202380D02*
X123190476Y-33202380D01*
X123809523Y-33678571D02*
X124142857Y-33678571D01*
X124285714Y-34202380D02*
X123809523Y-34202380D01*
X123809523Y-33202380D01*
X124285714Y-33202380D01*
X114202380Y-80571428D02*
X113202380Y-80571428D01*
X113202380Y-80333333D01*
X113250000Y-80190476D01*
X113345238Y-80095238D01*
X113440476Y-80047619D01*
X113630952Y-80000000D01*
X113773809Y-80000000D01*
X113964285Y-80047619D01*
X114059523Y-80095238D01*
X114154761Y-80190476D01*
X114202380Y-80333333D01*
X114202380Y-80571428D01*
X114107142Y-79000000D02*
X114154761Y-79047619D01*
X114202380Y-79190476D01*
X114202380Y-79285714D01*
X114154761Y-79428571D01*
X114059523Y-79523809D01*
X113964285Y-79571428D01*
X113773809Y-79619047D01*
X113630952Y-79619047D01*
X113440476Y-79571428D01*
X113345238Y-79523809D01*
X113250000Y-79428571D01*
X113202380Y-79285714D01*
X113202380Y-79190476D01*
X113250000Y-79047619D01*
X113297619Y-79000000D01*
X113202380Y-77619047D02*
X113202380Y-77428571D01*
X113250000Y-77333333D01*
X113345238Y-77238095D01*
X113535714Y-77190476D01*
X113869047Y-77190476D01*
X114059523Y-77238095D01*
X114154761Y-77333333D01*
X114202380Y-77428571D01*
X114202380Y-77619047D01*
X114154761Y-77714285D01*
X114059523Y-77809523D01*
X113869047Y-77857142D01*
X113535714Y-77857142D01*
X113345238Y-77809523D01*
X113250000Y-77714285D01*
X113202380Y-77619047D01*
X113202380Y-76761904D02*
X114011904Y-76761904D01*
X114107142Y-76714285D01*
X114154761Y-76666666D01*
X114202380Y-76571428D01*
X114202380Y-76380952D01*
X114154761Y-76285714D01*
X114107142Y-76238095D01*
X114011904Y-76190476D01*
X113202380Y-76190476D01*
X113202380Y-75857142D02*
X113202380Y-75285714D01*
X114202380Y-75571428D02*
X113202380Y-75571428D01*
X123571428Y-88833333D02*
X123571428Y-88071428D01*
X123952380Y-87071428D02*
X123952380Y-87642857D01*
X123952380Y-87357142D02*
X122952380Y-87357142D01*
X123095238Y-87452380D01*
X123190476Y-87547619D01*
X123238095Y-87642857D01*
X122952380Y-86166666D02*
X122952380Y-86642857D01*
X123428571Y-86690476D01*
X123380952Y-86642857D01*
X123333333Y-86547619D01*
X123333333Y-86309523D01*
X123380952Y-86214285D01*
X123428571Y-86166666D01*
X123523809Y-86119047D01*
X123761904Y-86119047D01*
X123857142Y-86166666D01*
X123904761Y-86214285D01*
X123952380Y-86309523D01*
X123952380Y-86547619D01*
X123904761Y-86642857D01*
X123857142Y-86690476D01*
X123571428Y-70083333D02*
X123571428Y-69321428D01*
X123952380Y-69702380D02*
X123190476Y-69702380D01*
X123952380Y-68321428D02*
X123952380Y-68892857D01*
X123952380Y-68607142D02*
X122952380Y-68607142D01*
X123095238Y-68702380D01*
X123190476Y-68797619D01*
X123238095Y-68892857D01*
X122952380Y-67416666D02*
X122952380Y-67892857D01*
X123428571Y-67940476D01*
X123380952Y-67892857D01*
X123333333Y-67797619D01*
X123333333Y-67559523D01*
X123380952Y-67464285D01*
X123428571Y-67416666D01*
X123523809Y-67369047D01*
X123761904Y-67369047D01*
X123857142Y-67416666D01*
X123904761Y-67464285D01*
X123952380Y-67559523D01*
X123952380Y-67797619D01*
X123904761Y-67892857D01*
X123857142Y-67940476D01*
X117071428Y-124583333D02*
X117071428Y-123821428D01*
X116547619Y-123392857D02*
X116500000Y-123345238D01*
X116452380Y-123250000D01*
X116452380Y-123011904D01*
X116500000Y-122916666D01*
X116547619Y-122869047D01*
X116642857Y-122821428D01*
X116738095Y-122821428D01*
X116880952Y-122869047D01*
X117452380Y-123440476D01*
X117452380Y-122821428D01*
X116452380Y-122202380D02*
X116452380Y-122107142D01*
X116500000Y-122011904D01*
X116547619Y-121964285D01*
X116642857Y-121916666D01*
X116833333Y-121869047D01*
X117071428Y-121869047D01*
X117261904Y-121916666D01*
X117357142Y-121964285D01*
X117404761Y-122011904D01*
X117452380Y-122107142D01*
X117452380Y-122202380D01*
X117404761Y-122297619D01*
X117357142Y-122345238D01*
X117261904Y-122392857D01*
X117071428Y-122440476D01*
X116833333Y-122440476D01*
X116642857Y-122392857D01*
X116547619Y-122345238D01*
X116500000Y-122297619D01*
X116452380Y-122202380D01*
X100071428Y-124583333D02*
X100071428Y-123821428D01*
X100452380Y-124202380D02*
X99690476Y-124202380D01*
X99547619Y-123392857D02*
X99500000Y-123345238D01*
X99452380Y-123250000D01*
X99452380Y-123011904D01*
X99500000Y-122916666D01*
X99547619Y-122869047D01*
X99642857Y-122821428D01*
X99738095Y-122821428D01*
X99880952Y-122869047D01*
X100452380Y-123440476D01*
X100452380Y-122821428D01*
X99452380Y-122202380D02*
X99452380Y-122107142D01*
X99500000Y-122011904D01*
X99547619Y-121964285D01*
X99642857Y-121916666D01*
X99833333Y-121869047D01*
X100071428Y-121869047D01*
X100261904Y-121916666D01*
X100357142Y-121964285D01*
X100404761Y-122011904D01*
X100452380Y-122107142D01*
X100452380Y-122202380D01*
X100404761Y-122297619D01*
X100357142Y-122345238D01*
X100261904Y-122392857D01*
X100071428Y-122440476D01*
X99833333Y-122440476D01*
X99642857Y-122392857D01*
X99547619Y-122345238D01*
X99500000Y-122297619D01*
X99452380Y-122202380D01*
X101654761Y-114357142D02*
X101607142Y-114404761D01*
X101464285Y-114452380D01*
X101369047Y-114452380D01*
X101226190Y-114404761D01*
X101130952Y-114309523D01*
X101083333Y-114214285D01*
X101035714Y-114023809D01*
X101035714Y-113880952D01*
X101083333Y-113690476D01*
X101130952Y-113595238D01*
X101226190Y-113500000D01*
X101369047Y-113452380D01*
X101464285Y-113452380D01*
X101607142Y-113500000D01*
X101654761Y-113547619D01*
X102035714Y-114166666D02*
X102511904Y-114166666D01*
X101940476Y-114452380D02*
X102273809Y-113452380D01*
X102607142Y-114452380D01*
X102940476Y-114452380D02*
X102940476Y-113452380D01*
X103321428Y-113452380D01*
X103416666Y-113500000D01*
X103464285Y-113547619D01*
X103511904Y-113642857D01*
X103511904Y-113785714D01*
X103464285Y-113880952D01*
X103416666Y-113928571D01*
X103321428Y-113976190D01*
X102940476Y-113976190D01*
X103892857Y-114404761D02*
X104035714Y-114452380D01*
X104273809Y-114452380D01*
X104369047Y-114404761D01*
X104416666Y-114357142D01*
X104464285Y-114261904D01*
X104464285Y-114166666D01*
X104416666Y-114071428D01*
X104369047Y-114023809D01*
X104273809Y-113976190D01*
X104083333Y-113928571D01*
X103988095Y-113880952D01*
X103940476Y-113833333D01*
X103892857Y-113738095D01*
X103892857Y-113642857D01*
X103940476Y-113547619D01*
X103988095Y-113500000D01*
X104083333Y-113452380D01*
X104321428Y-113452380D01*
X104464285Y-113500000D01*
X103976190Y-36452380D02*
X103976190Y-35452380D01*
X104214285Y-35452380D01*
X104357142Y-35500000D01*
X104452380Y-35595238D01*
X104500000Y-35690476D01*
X104547619Y-35880952D01*
X104547619Y-36023809D01*
X104500000Y-36214285D01*
X104452380Y-36309523D01*
X104357142Y-36404761D01*
X104214285Y-36452380D01*
X103976190Y-36452380D01*
X105547619Y-36357142D02*
X105500000Y-36404761D01*
X105357142Y-36452380D01*
X105261904Y-36452380D01*
X105119047Y-36404761D01*
X105023809Y-36309523D01*
X104976190Y-36214285D01*
X104928571Y-36023809D01*
X104928571Y-35880952D01*
X104976190Y-35690476D01*
X105023809Y-35595238D01*
X105119047Y-35500000D01*
X105261904Y-35452380D01*
X105357142Y-35452380D01*
X105500000Y-35500000D01*
X105547619Y-35547619D01*
X107261904Y-36452380D02*
X106690476Y-36452380D01*
X106976190Y-36452380D02*
X106976190Y-35452380D01*
X106880952Y-35595238D01*
X106785714Y-35690476D01*
X106690476Y-35738095D01*
X107642857Y-35547619D02*
X107690476Y-35500000D01*
X107785714Y-35452380D01*
X108023809Y-35452380D01*
X108119047Y-35500000D01*
X108166666Y-35547619D01*
X108214285Y-35642857D01*
X108214285Y-35738095D01*
X108166666Y-35880952D01*
X107595238Y-36452380D01*
X108214285Y-36452380D01*
X108500000Y-35452380D02*
X108833333Y-36452380D01*
X109166666Y-35452380D01*
X94428571Y-36452380D02*
X94095238Y-35976190D01*
X93857142Y-36452380D02*
X93857142Y-35452380D01*
X94238095Y-35452380D01*
X94333333Y-35500000D01*
X94380952Y-35547619D01*
X94428571Y-35642857D01*
X94428571Y-35785714D01*
X94380952Y-35880952D01*
X94333333Y-35928571D01*
X94238095Y-35976190D01*
X93857142Y-35976190D01*
X94857142Y-35928571D02*
X95190476Y-35928571D01*
X95333333Y-36452380D02*
X94857142Y-36452380D01*
X94857142Y-35452380D01*
X95333333Y-35452380D01*
X95761904Y-36452380D02*
X95761904Y-35452380D01*
X96095238Y-36166666D01*
X96428571Y-35452380D01*
X96428571Y-36452380D01*
X97095238Y-35452380D02*
X97285714Y-35452380D01*
X97380952Y-35500000D01*
X97476190Y-35595238D01*
X97523809Y-35785714D01*
X97523809Y-36119047D01*
X97476190Y-36309523D01*
X97380952Y-36404761D01*
X97285714Y-36452380D01*
X97095238Y-36452380D01*
X97000000Y-36404761D01*
X96904761Y-36309523D01*
X96857142Y-36119047D01*
X96857142Y-35785714D01*
X96904761Y-35595238D01*
X97000000Y-35500000D01*
X97095238Y-35452380D01*
X97809523Y-35452380D02*
X98380952Y-35452380D01*
X98095238Y-36452380D02*
X98095238Y-35452380D01*
X98714285Y-35928571D02*
X99047619Y-35928571D01*
X99190476Y-36452380D02*
X98714285Y-36452380D01*
X98714285Y-35452380D01*
X99190476Y-35452380D01*
X57952380Y-29154761D02*
X57476190Y-29488095D01*
X57952380Y-29726190D02*
X56952380Y-29726190D01*
X56952380Y-29345238D01*
X57000000Y-29250000D01*
X57047619Y-29202380D01*
X57142857Y-29154761D01*
X57285714Y-29154761D01*
X57380952Y-29202380D01*
X57428571Y-29250000D01*
X57476190Y-29345238D01*
X57476190Y-29726190D01*
X57428571Y-28726190D02*
X57428571Y-28392857D01*
X57952380Y-28250000D02*
X57952380Y-28726190D01*
X56952380Y-28726190D01*
X56952380Y-28250000D01*
X57952380Y-27345238D02*
X57952380Y-27821428D01*
X56952380Y-27821428D01*
X57666666Y-27059523D02*
X57666666Y-26583333D01*
X57952380Y-27154761D02*
X56952380Y-26821428D01*
X57952380Y-26488095D01*
X57476190Y-25964285D02*
X57952380Y-25964285D01*
X56952380Y-26297619D02*
X57476190Y-25964285D01*
X56952380Y-25630952D01*
X35928571Y-47214285D02*
X35928571Y-46880952D01*
X36452380Y-46738095D02*
X36452380Y-47214285D01*
X35452380Y-47214285D01*
X35452380Y-46738095D01*
X36452380Y-42285714D02*
X35452380Y-42285714D01*
X36452380Y-41714285D01*
X35452380Y-41714285D01*
X36166666Y-37238095D02*
X36166666Y-36761904D01*
X36452380Y-37333333D02*
X35452380Y-37000000D01*
X36452380Y-36666666D01*
X38285714Y-36178571D02*
X38619047Y-36178571D01*
X38761904Y-36702380D02*
X38285714Y-36702380D01*
X38285714Y-35702380D01*
X38761904Y-35702380D01*
X43464285Y-36702380D02*
X43464285Y-35702380D01*
X44035714Y-36702380D01*
X44035714Y-35702380D01*
X49011904Y-36416666D02*
X49488095Y-36416666D01*
X48916666Y-36702380D02*
X49250000Y-35702380D01*
X49583333Y-36702380D01*
D12*
X40750000Y-66491000D02*
X47862000Y-78810000D01*
X47862000Y-78810000D02*
X33638000Y-78810000D01*
X33638000Y-78810000D02*
X40750000Y-66491000D01*
D13*
X41131000Y-72079000D02*
X39734000Y-73984000D01*
X39734000Y-73984000D02*
X41004000Y-73984000D01*
X39480000Y-75889000D02*
X39353000Y-76905000D01*
X39353000Y-76905000D02*
X40115000Y-76270000D01*
X40115000Y-76270000D02*
X39607000Y-76524000D01*
X39607000Y-76524000D02*
X41385000Y-73730000D01*
X41385000Y-73730000D02*
X40115000Y-73730000D01*
X40115000Y-73730000D02*
X41893000Y-71698000D01*
X41893000Y-71698000D02*
X41131000Y-72206000D01*
X41131000Y-72206000D02*
X41004000Y-71698000D01*
X41004000Y-71698000D02*
X39353000Y-74111000D01*
X39353000Y-74111000D02*
X40750000Y-74111000D01*
X40750000Y-74111000D02*
X39607000Y-76397000D01*
X39607000Y-76397000D02*
X39480000Y-75889000D01*
D11*
X90650000Y-77250000D02*
X82382051Y-77250000D01*
X82382051Y-77250000D02*
G75*
G02X81949038Y-76500000I0J500000D01*
G01*
D14*
X88150000Y-73419873D02*
X86516026Y-76250000D01*
D11*
X86949038Y-69339746D02*
X91083013Y-76500000D01*
D14*
X84980127Y-76250000D02*
G75*
G02X84114102Y-74750000I0J1000000D01*
G01*
X89783975Y-76250000D02*
X86516026Y-76250000D01*
D11*
X84227350Y-72553848D02*
X86083013Y-69339746D01*
X86083014Y-69339747D02*
G75*
G02X86949038Y-69339746I433012J-249999D01*
G01*
X81949038Y-76500000D02*
X83227350Y-74285899D01*
D14*
X84114102Y-74750000D02*
X86516025Y-70589746D01*
D11*
X91083013Y-76500000D02*
G75*
G02X90650000Y-77250000I-433013J-250000D01*
G01*
D14*
X88150000Y-73419873D02*
X82727350Y-73419873D01*
X85516026Y-76250000D02*
X84980127Y-76250000D01*
D15*
X93080000Y-55240000D02*
X92150000Y-55240000D01*
X89920000Y-55240000D02*
X90850000Y-55240000D01*
X89920000Y-55240000D02*
X89920000Y-57400000D01*
X93080000Y-55240000D02*
X93080000Y-56700000D01*
X103600000Y-55630000D02*
X102400000Y-55630000D01*
X102400000Y-53870000D02*
X103600000Y-53870000D01*
X92350000Y-61130000D02*
X91150000Y-61130000D01*
X91150000Y-59370000D02*
X92350000Y-59370000D01*
X89630000Y-51600000D02*
X89630000Y-52800000D01*
X87870000Y-52800000D02*
X87870000Y-51600000D01*
X86900000Y-59370000D02*
X88100000Y-59370000D01*
X88100000Y-61130000D02*
X86900000Y-61130000D01*
X89080000Y-55240000D02*
X88150000Y-55240000D01*
X85920000Y-55240000D02*
X86850000Y-55240000D01*
X85920000Y-55240000D02*
X85920000Y-57400000D01*
X89080000Y-55240000D02*
X89080000Y-56700000D01*
D10*
X122096000Y-52432000D02*
G75*
G03X122096000Y-52432000I-2000000J0D01*
G01*
X122096000Y-47432000D02*
G75*
G03X122096000Y-47432000I-2000000J0D01*
G01*
X114796000Y-54932000D02*
X124596000Y-54932000D01*
X114796000Y-44932000D02*
X114796000Y-54932000D01*
X124596000Y-44932000D02*
X114796000Y-44932000D01*
X124596000Y-54932000D02*
X124596000Y-44932000D01*
X124096000Y-54932000D02*
X124096000Y-44932000D01*
X117696000Y-54932000D02*
X117696000Y-44932000D01*
X122596000Y-54932000D02*
X122596000Y-44932000D01*
X124096000Y-49932000D02*
X124596000Y-49932000D01*
D15*
X81350000Y-111120000D02*
X82550000Y-111120000D01*
X82550000Y-112880000D02*
X81350000Y-112880000D01*
X81350000Y-93120000D02*
X82550000Y-93120000D01*
X82550000Y-94880000D02*
X81350000Y-94880000D01*
X101080000Y-55240000D02*
X100150000Y-55240000D01*
X97920000Y-55240000D02*
X98850000Y-55240000D01*
X97920000Y-55240000D02*
X97920000Y-57400000D01*
X101080000Y-55240000D02*
X101080000Y-56700000D01*
X81350000Y-103620000D02*
X82550000Y-103620000D01*
X82550000Y-105380000D02*
X81350000Y-105380000D01*
X81350000Y-106120000D02*
X82550000Y-106120000D01*
X82550000Y-107880000D02*
X81350000Y-107880000D01*
X81350000Y-108620000D02*
X82550000Y-108620000D01*
X82550000Y-110380000D02*
X81350000Y-110380000D01*
X81400000Y-100620000D02*
X82600000Y-100620000D01*
X82600000Y-102380000D02*
X81400000Y-102380000D01*
X81350000Y-95620000D02*
X82550000Y-95620000D01*
X82550000Y-97380000D02*
X81350000Y-97380000D01*
X81350000Y-98120000D02*
X82550000Y-98120000D01*
X82550000Y-99880000D02*
X81350000Y-99880000D01*
X89870000Y-52800000D02*
X89870000Y-51600000D01*
X91630000Y-51600000D02*
X91630000Y-52800000D01*
X100880000Y-51600000D02*
X100880000Y-52800000D01*
X99120000Y-52800000D02*
X99120000Y-51600000D01*
X107100000Y-55630000D02*
X105900000Y-55630000D01*
X105900000Y-53870000D02*
X107100000Y-53870000D01*
X117828000Y-63770000D02*
X117828000Y-64970000D01*
X116068000Y-64970000D02*
X116068000Y-63770000D01*
X95630000Y-51600000D02*
X95630000Y-52800000D01*
X93870000Y-52800000D02*
X93870000Y-51600000D01*
X98880000Y-51600000D02*
X98880000Y-52800000D01*
X97120000Y-52800000D02*
X97120000Y-51600000D01*
X103380000Y-56900000D02*
X103380000Y-58100000D01*
X101620000Y-58100000D02*
X101620000Y-56900000D01*
X116304000Y-30496000D02*
X116304000Y-31696000D01*
X114544000Y-31696000D02*
X114544000Y-30496000D01*
X93630000Y-51600000D02*
X93630000Y-52800000D01*
X91870000Y-52800000D02*
X91870000Y-51600000D01*
X86130000Y-43150000D02*
X86130000Y-44350000D01*
X84370000Y-44350000D02*
X84370000Y-43150000D01*
X100100000Y-61130000D02*
X98900000Y-61130000D01*
X98900000Y-59370000D02*
X100100000Y-59370000D01*
X97080000Y-55240000D02*
X96150000Y-55240000D01*
X93920000Y-55240000D02*
X94850000Y-55240000D01*
X93920000Y-55240000D02*
X93920000Y-57400000D01*
X97080000Y-55240000D02*
X97080000Y-56700000D01*
D10*
X122096000Y-42272000D02*
G75*
G03X122096000Y-42272000I-2000000J0D01*
G01*
X122096000Y-37272000D02*
G75*
G03X122096000Y-37272000I-2000000J0D01*
G01*
X114796000Y-44772000D02*
X124596000Y-44772000D01*
X114796000Y-34772000D02*
X114796000Y-44772000D01*
X124596000Y-34772000D02*
X114796000Y-34772000D01*
X124596000Y-44772000D02*
X124596000Y-34772000D01*
X124096000Y-44772000D02*
X124096000Y-34772000D01*
X117696000Y-44772000D02*
X117696000Y-34772000D01*
X122596000Y-44772000D02*
X122596000Y-34772000D01*
X124096000Y-39772000D02*
X124596000Y-39772000D01*
D15*
X107500000Y-60000000D02*
X103200000Y-60000000D01*
X103200000Y-60000000D02*
X103200000Y-62000000D01*
X103200000Y-62000000D02*
X107500000Y-62000000D01*
X86250000Y-50000000D02*
X86250000Y-45700000D01*
X86250000Y-45700000D02*
X84250000Y-45700000D01*
X84250000Y-45700000D02*
X84250000Y-50000000D01*
X120234000Y-65104000D02*
X120234000Y-60804000D01*
X120234000Y-60804000D02*
X118234000Y-60804000D01*
X118234000Y-60804000D02*
X118234000Y-65104000D01*
X114000000Y-42250000D02*
X114000000Y-37950000D01*
X114000000Y-37950000D02*
X112000000Y-37950000D01*
X112000000Y-37950000D02*
X112000000Y-42250000D01*
X118240000Y-34336000D02*
X118240000Y-32936000D01*
X118240000Y-32936000D02*
X115440000Y-32936000D01*
X118240000Y-34336000D02*
X115440000Y-34336000D01*
X86250000Y-41000000D02*
X86250000Y-36700000D01*
X86250000Y-36700000D02*
X84250000Y-36700000D01*
X84250000Y-36700000D02*
X84250000Y-41000000D01*
X107000000Y-56020000D02*
X105000000Y-56020000D01*
X105000000Y-58980000D02*
X107000000Y-58980000D01*
X87550000Y-48210000D02*
X90440000Y-48210000D01*
X96450000Y-48210000D02*
X93560000Y-48210000D01*
X97210000Y-37790000D02*
X93560000Y-37790000D01*
X86790000Y-37790000D02*
X90440000Y-37790000D01*
X97210000Y-37790000D02*
X97210000Y-47450000D01*
X97210000Y-47450000D02*
X96450000Y-48210000D01*
X87550000Y-48210000D02*
X86790000Y-47450000D01*
X86790000Y-47450000D02*
X86790000Y-37790000D01*
X77935000Y-92025000D02*
X75685000Y-92025000D01*
X76810000Y-90900000D02*
X76810000Y-93150000D01*
X60954437Y-93390000D02*
X59890000Y-94454437D01*
X78045563Y-93390000D02*
X79110000Y-94454437D01*
X78045563Y-93390000D02*
X74560000Y-93390000D01*
X60954437Y-93390000D02*
X64440000Y-93390000D01*
X59890000Y-94454437D02*
X59890000Y-112610000D01*
X79110000Y-94454437D02*
X79110000Y-112610000D01*
X79110000Y-112610000D02*
X74560000Y-112610000D01*
X59890000Y-112610000D02*
X64440000Y-112610000D01*
X36350000Y-115900000D02*
X39650000Y-115900000D01*
X39650000Y-115900000D02*
X39650000Y-110500000D01*
X36350000Y-115900000D02*
X36350000Y-110500000D01*
X39650000Y-93600000D02*
X36350000Y-93600000D01*
X36350000Y-93600000D02*
X36350000Y-99000000D01*
X39650000Y-93600000D02*
X39650000Y-99000000D01*
X74500000Y-29350000D02*
X75500000Y-29350000D01*
X75500000Y-27650000D02*
X74500000Y-27650000D01*
D10*
X31900000Y-37000000D02*
G75*
G03X31900000Y-37000000I-2000000J0D01*
G01*
X31900000Y-42000000D02*
G75*
G03X31900000Y-42000000I-2000000J0D01*
G01*
X31900000Y-47000000D02*
G75*
G03X31900000Y-47000000I-2000000J0D01*
G01*
X35200000Y-34500000D02*
X25400000Y-34500000D01*
X35200000Y-49500000D02*
X35200000Y-34500000D01*
X25400000Y-49500000D02*
X35200000Y-49500000D01*
X25400000Y-34500000D02*
X25400000Y-49500000D01*
X25900000Y-34500000D02*
X25900000Y-49500000D01*
X32300000Y-34500000D02*
X32300000Y-49500000D01*
X27400000Y-34500000D02*
X27400000Y-49500000D01*
X25900000Y-39500000D02*
X25400000Y-39500000D01*
X25900000Y-44500000D02*
X25400000Y-44500000D01*
X50500000Y-29900000D02*
G75*
G03X50500000Y-29900000I-2000000J0D01*
G01*
X45500000Y-29900000D02*
G75*
G03X45500000Y-29900000I-2000000J0D01*
G01*
X40500000Y-29900000D02*
G75*
G03X40500000Y-29900000I-2000000J0D01*
G01*
X51000000Y-35200000D02*
X51000000Y-25400000D01*
X36000000Y-35200000D02*
X51000000Y-35200000D01*
X36000000Y-25400000D02*
X36000000Y-35200000D01*
X51000000Y-25400000D02*
X36000000Y-25400000D01*
X51000000Y-25900000D02*
X36000000Y-25900000D01*
X51000000Y-32300000D02*
X36000000Y-32300000D01*
X51000000Y-27400000D02*
X36000000Y-27400000D01*
X46000000Y-25900000D02*
X46000000Y-25400000D01*
X41000000Y-25900000D02*
X41000000Y-25400000D01*
D15*
X34350000Y-123400000D02*
X37650000Y-123400000D01*
X37650000Y-123400000D02*
X37650000Y-118000000D01*
X34350000Y-123400000D02*
X34350000Y-118000000D01*
X39650000Y-101350000D02*
X36350000Y-101350000D01*
X36350000Y-101350000D02*
X36350000Y-106750000D01*
X39650000Y-101350000D02*
X39650000Y-106750000D01*
X71600000Y-33350000D02*
X71600000Y-36650000D01*
X71600000Y-36650000D02*
X77000000Y-36650000D01*
X71600000Y-33350000D02*
X77000000Y-33350000D01*
X78400000Y-33150000D02*
X78400000Y-29850000D01*
X78400000Y-29850000D02*
X73000000Y-29850000D01*
X78400000Y-33150000D02*
X73000000Y-33150000D01*
X41065000Y-113975000D02*
X43315000Y-113975000D01*
X42190000Y-115100000D02*
X42190000Y-112850000D01*
X58045563Y-112610000D02*
X59110000Y-111545563D01*
X40954437Y-112610000D02*
X39890000Y-111545563D01*
X40954437Y-112610000D02*
X44440000Y-112610000D01*
X58045563Y-112610000D02*
X54560000Y-112610000D01*
X59110000Y-111545563D02*
X59110000Y-93390000D01*
X39890000Y-111545563D02*
X39890000Y-93390000D01*
X39890000Y-93390000D02*
X44440000Y-93390000D01*
X59110000Y-93390000D02*
X54560000Y-93390000D01*
X102935000Y-92025000D02*
X100685000Y-92025000D01*
X101810000Y-90900000D02*
X101810000Y-93150000D01*
X85954437Y-93390000D02*
X84890000Y-94454437D01*
X103045563Y-93390000D02*
X104110000Y-94454437D01*
X103045563Y-93390000D02*
X99560000Y-93390000D01*
X85954437Y-93390000D02*
X89440000Y-93390000D01*
X84890000Y-94454437D02*
X84890000Y-112610000D01*
X104110000Y-94454437D02*
X104110000Y-112610000D01*
X104110000Y-112610000D02*
X99560000Y-112610000D01*
X84890000Y-112610000D02*
X89440000Y-112610000D01*
X106065000Y-113975000D02*
X108315000Y-113975000D01*
X107190000Y-115100000D02*
X107190000Y-112850000D01*
X123045563Y-112610000D02*
X124110000Y-111545563D01*
X105954437Y-112610000D02*
X104890000Y-111545563D01*
X105954437Y-112610000D02*
X109440000Y-112610000D01*
X123045563Y-112610000D02*
X119560000Y-112610000D01*
X124110000Y-111545563D02*
X124110000Y-93390000D01*
X104890000Y-111545563D02*
X104890000Y-93390000D01*
X104890000Y-93390000D02*
X109440000Y-93390000D01*
X124110000Y-93390000D02*
X119560000Y-93390000D01*
D10*
X101000000Y-29900000D02*
G75*
G03X101000000Y-29900000I-2000000J0D01*
G01*
X96000000Y-29900000D02*
G75*
G03X96000000Y-29900000I-2000000J0D01*
G01*
X101500000Y-35200000D02*
X101500000Y-25400000D01*
X91500000Y-35200000D02*
X101500000Y-35200000D01*
X91500000Y-25400000D02*
X91500000Y-35200000D01*
X101500000Y-25400000D02*
X91500000Y-25400000D01*
X101500000Y-25900000D02*
X91500000Y-25900000D01*
X101500000Y-32300000D02*
X91500000Y-32300000D01*
X101500000Y-27400000D02*
X91500000Y-27400000D01*
X96500000Y-25900000D02*
X96500000Y-25400000D01*
D15*
X107450000Y-37790000D02*
X104560000Y-37790000D01*
X98550000Y-37790000D02*
X101440000Y-37790000D01*
X97790000Y-48210000D02*
X101440000Y-48210000D01*
X108210000Y-48210000D02*
X104560000Y-48210000D01*
X97790000Y-48210000D02*
X97790000Y-38550000D01*
X97790000Y-38550000D02*
X98550000Y-37790000D01*
X107450000Y-37790000D02*
X108210000Y-38550000D01*
X108210000Y-38550000D02*
X108210000Y-48210000D01*
X106350000Y-69500000D02*
X106350000Y-68500000D01*
X104650000Y-68500000D02*
X104650000Y-69500000D01*
X104650000Y-85000000D02*
X104650000Y-86000000D01*
X106350000Y-86000000D02*
X106350000Y-85000000D01*
X96000000Y-76980000D02*
X98000000Y-76980000D01*
X98000000Y-74020000D02*
X96000000Y-74020000D01*
X96000000Y-90480000D02*
X98000000Y-90480000D01*
X98000000Y-87520000D02*
X96000000Y-87520000D01*
X106520000Y-73000000D02*
X106520000Y-75000000D01*
X109480000Y-75000000D02*
X109480000Y-73000000D01*
X109480000Y-83000000D02*
X109480000Y-81000000D01*
X106520000Y-81000000D02*
X106520000Y-83000000D01*
X88550000Y-33000000D02*
X84250000Y-33000000D01*
X88550000Y-35000000D02*
X88550000Y-33000000D01*
X84250000Y-35000000D02*
X88550000Y-35000000D01*
X70700000Y-31100000D02*
X69300000Y-31100000D01*
X69300000Y-31100000D02*
X69300000Y-33900000D01*
X70700000Y-31100000D02*
X70700000Y-33900000D01*
X58700000Y-38000000D02*
X63000000Y-38000000D01*
X58700000Y-36000000D02*
X58700000Y-38000000D01*
X63000000Y-36000000D02*
X58700000Y-36000000D01*
X113950000Y-30950000D02*
X113950000Y-33750000D01*
X112550000Y-30950000D02*
X112550000Y-33750000D01*
X113950000Y-30950000D02*
X112550000Y-30950000D01*
X45600000Y-117850000D02*
X51000000Y-117850000D01*
X45600000Y-121150000D02*
X51000000Y-121150000D01*
X45600000Y-117850000D02*
X45600000Y-121150000D01*
X65600000Y-117850000D02*
X71000000Y-117850000D01*
X65600000Y-121150000D02*
X71000000Y-121150000D01*
X65600000Y-117850000D02*
X65600000Y-121150000D01*
X55600000Y-117850000D02*
X55600000Y-121150000D01*
X55600000Y-121150000D02*
X61000000Y-121150000D01*
X55600000Y-117850000D02*
X61000000Y-117850000D01*
X75600000Y-117850000D02*
X75600000Y-121150000D01*
X75600000Y-121150000D02*
X81000000Y-121150000D01*
X75600000Y-117850000D02*
X81000000Y-117850000D01*
X100100000Y-63350000D02*
X100100000Y-66650000D01*
X100100000Y-66650000D02*
X105500000Y-66650000D01*
X100100000Y-63350000D02*
X105500000Y-63350000D01*
X106900000Y-92650000D02*
X101500000Y-92650000D01*
X106900000Y-89350000D02*
X101500000Y-89350000D01*
X106900000Y-92650000D02*
X106900000Y-89350000D01*
X97000000Y-68500000D02*
X97000000Y-64200000D01*
X97000000Y-64200000D02*
X95000000Y-64200000D01*
X95000000Y-64200000D02*
X95000000Y-68500000D01*
X97000000Y-82800000D02*
X97000000Y-78500000D01*
X95000000Y-82800000D02*
X97000000Y-82800000D01*
X95000000Y-78500000D02*
X95000000Y-82800000D01*
X106600000Y-66850000D02*
X106600000Y-70150000D01*
X106600000Y-70150000D02*
X112000000Y-70150000D01*
X106600000Y-66850000D02*
X112000000Y-66850000D01*
X113400000Y-89150000D02*
X108000000Y-89150000D01*
X113400000Y-85850000D02*
X108000000Y-85850000D01*
X113400000Y-89150000D02*
X113400000Y-85850000D01*
X118200000Y-69700000D02*
X115400000Y-69700000D01*
X118200000Y-68300000D02*
X115400000Y-68300000D01*
X118200000Y-69700000D02*
X118200000Y-68300000D01*
X114600000Y-86300000D02*
X117400000Y-86300000D01*
X114600000Y-87700000D02*
X117400000Y-87700000D01*
X114600000Y-86300000D02*
X114600000Y-87700000D01*
D10*
X63500000Y-25900000D02*
X63500000Y-25400000D01*
X68500000Y-27400000D02*
X58500000Y-27400000D01*
X68500000Y-32300000D02*
X58500000Y-32300000D01*
X68500000Y-25900000D02*
X58500000Y-25900000D01*
X68500000Y-25400000D02*
X58500000Y-25400000D01*
X58500000Y-25400000D02*
X58500000Y-35200000D01*
X58500000Y-35200000D02*
X68500000Y-35200000D01*
X68500000Y-35200000D02*
X68500000Y-25400000D01*
X63000000Y-29900000D02*
G75*
G03X63000000Y-29900000I-2000000J0D01*
G01*
X68000000Y-29900000D02*
G75*
G03X68000000Y-29900000I-2000000J0D01*
G01*
X111000000Y-124100000D02*
X111000000Y-124600000D01*
X106000000Y-124100000D02*
X106000000Y-124600000D01*
X101000000Y-122600000D02*
X116000000Y-122600000D01*
X101000000Y-117700000D02*
X116000000Y-117700000D01*
X101000000Y-124100000D02*
X116000000Y-124100000D01*
X101000000Y-124600000D02*
X116000000Y-124600000D01*
X116000000Y-124600000D02*
X116000000Y-114800000D01*
X116000000Y-114800000D02*
X101000000Y-114800000D01*
X101000000Y-114800000D02*
X101000000Y-124600000D01*
X115500000Y-120100000D02*
G75*
G03X115500000Y-120100000I-2000000J0D01*
G01*
X110500000Y-120100000D02*
G75*
G03X110500000Y-120100000I-2000000J0D01*
G01*
X105500000Y-120100000D02*
G75*
G03X105500000Y-120100000I-2000000J0D01*
G01*
X106660000Y-25900000D02*
X106660000Y-25400000D01*
X111660000Y-27400000D02*
X101660000Y-27400000D01*
X111660000Y-32300000D02*
X101660000Y-32300000D01*
X111660000Y-25900000D02*
X101660000Y-25900000D01*
X111660000Y-25400000D02*
X101660000Y-25400000D01*
X101660000Y-25400000D02*
X101660000Y-35200000D01*
X101660000Y-35200000D02*
X111660000Y-35200000D01*
X111660000Y-35200000D02*
X111660000Y-25400000D01*
X106160000Y-29900000D02*
G75*
G03X106160000Y-29900000I-2000000J0D01*
G01*
X111160000Y-29900000D02*
G75*
G03X111160000Y-29900000I-2000000J0D01*
G01*
X122100000Y-83000000D02*
G75*
G03X122100000Y-83000000I-2000000J0D01*
G01*
X122100000Y-78000000D02*
G75*
G03X122100000Y-78000000I-2000000J0D01*
G01*
X122100000Y-73000000D02*
G75*
G03X122100000Y-73000000I-2000000J0D01*
G01*
X114800000Y-85500000D02*
X124600000Y-85500000D01*
X114800000Y-70500000D02*
X114800000Y-85500000D01*
X124600000Y-70500000D02*
X114800000Y-70500000D01*
X124600000Y-85500000D02*
X124600000Y-70500000D01*
X124100000Y-85500000D02*
X124100000Y-70500000D01*
X117700000Y-85500000D02*
X117700000Y-70500000D01*
X122600000Y-85500000D02*
X122600000Y-70500000D01*
X124100000Y-80500000D02*
X124600000Y-80500000D01*
X124100000Y-75500000D02*
X124600000Y-75500000D01*
D16*
X79390000Y-71000000D02*
G75*
G03X79390000Y-71000000I-8890000J0D01*
G01*
D17*
X73794077Y-79441441D02*
G75*
G03X73794077Y-79441441I-600000J0D01*
G01*
D15*
X79420000Y-38260000D02*
X79420000Y-36800000D01*
X82580000Y-38260000D02*
X82580000Y-36100000D01*
X82580000Y-38260000D02*
X81650000Y-38260000D01*
X79420000Y-38260000D02*
X80350000Y-38260000D01*
X89120000Y-34650000D02*
X89120000Y-33450000D01*
X90880000Y-33450000D02*
X90880000Y-34650000D01*
X69120000Y-29550000D02*
X69120000Y-28350000D01*
X70880000Y-28350000D02*
X70880000Y-29550000D01*
X82880000Y-33450000D02*
X82880000Y-34650000D01*
X81120000Y-34650000D02*
X81120000Y-33450000D01*
X80880000Y-33450000D02*
X80880000Y-34650000D01*
X79120000Y-34650000D02*
X79120000Y-33450000D01*
X114130000Y-28350000D02*
X114130000Y-29550000D01*
X112370000Y-29550000D02*
X112370000Y-28350000D01*
X98050000Y-73880000D02*
X96850000Y-73880000D01*
X96850000Y-72120000D02*
X98050000Y-72120000D01*
X96850000Y-83620000D02*
X98050000Y-83620000D01*
X98050000Y-85380000D02*
X96850000Y-85380000D01*
X98050000Y-71880000D02*
X96850000Y-71880000D01*
X96850000Y-70120000D02*
X98050000Y-70120000D01*
X98050000Y-87380000D02*
X96850000Y-87380000D01*
X96850000Y-85620000D02*
X98050000Y-85620000D01*
X99380000Y-66950000D02*
X99380000Y-68150000D01*
X97620000Y-68150000D02*
X97620000Y-66950000D01*
X97620000Y-81650000D02*
X97620000Y-80450000D01*
X99380000Y-80450000D02*
X99380000Y-81650000D01*
X119600000Y-68120000D02*
X120800000Y-68120000D01*
X120800000Y-69880000D02*
X119600000Y-69880000D01*
X120900000Y-87880000D02*
X119700000Y-87880000D01*
X119700000Y-86120000D02*
X120900000Y-86120000D01*
D18*
X82125000Y-77689285D02*
X82553571Y-77689285D01*
X82339285Y-78439285D02*
X82339285Y-77689285D01*
X82732142Y-77939285D02*
X82910714Y-78439285D01*
X83089285Y-77939285D02*
X82910714Y-78439285D01*
X82839285Y-78617857D01*
X82803571Y-78653571D01*
X82732142Y-78689285D01*
X83375000Y-78439285D02*
X83375000Y-77939285D01*
X83375000Y-78082142D02*
X83410714Y-78010714D01*
X83446428Y-77975000D01*
X83517857Y-77939285D01*
X83589285Y-77939285D01*
X83839285Y-78439285D02*
X83839285Y-77939285D01*
X83839285Y-78082142D02*
X83875000Y-78010714D01*
X83910714Y-77975000D01*
X83982142Y-77939285D01*
X84053571Y-77939285D01*
X84589285Y-78403571D02*
X84517857Y-78439285D01*
X84375000Y-78439285D01*
X84303571Y-78403571D01*
X84267857Y-78332142D01*
X84267857Y-78046428D01*
X84303571Y-77975000D01*
X84375000Y-77939285D01*
X84517857Y-77939285D01*
X84589285Y-77975000D01*
X84625000Y-78046428D01*
X84625000Y-78117857D01*
X84267857Y-78189285D01*
X85053571Y-78439285D02*
X84982142Y-78403571D01*
X84946428Y-78332142D01*
X84946428Y-77689285D01*
X85446428Y-78439285D02*
X85375000Y-78403571D01*
X85339285Y-78332142D01*
X85339285Y-77689285D01*
X86232142Y-77689285D02*
X86732142Y-77689285D01*
X86232142Y-78439285D01*
X86732142Y-78439285D01*
X87339285Y-78439285D02*
X87339285Y-78046428D01*
X87303571Y-77975000D01*
X87232142Y-77939285D01*
X87089285Y-77939285D01*
X87017857Y-77975000D01*
X87339285Y-78403571D02*
X87267857Y-78439285D01*
X87089285Y-78439285D01*
X87017857Y-78403571D01*
X86982142Y-78332142D01*
X86982142Y-78260714D01*
X87017857Y-78189285D01*
X87089285Y-78153571D01*
X87267857Y-78153571D01*
X87339285Y-78117857D01*
X87696428Y-78439285D02*
X87696428Y-77939285D01*
X87696428Y-77689285D02*
X87660714Y-77725000D01*
X87696428Y-77760714D01*
X87732142Y-77725000D01*
X87696428Y-77689285D01*
X87696428Y-77760714D01*
X88053571Y-78439285D02*
X88053571Y-77689285D01*
X88053571Y-77975000D02*
X88125000Y-77939285D01*
X88267857Y-77939285D01*
X88339285Y-77975000D01*
X88375000Y-78010714D01*
X88410714Y-78082142D01*
X88410714Y-78296428D01*
X88375000Y-78367857D01*
X88339285Y-78403571D01*
X88267857Y-78439285D01*
X88125000Y-78439285D01*
X88053571Y-78403571D01*
X89053571Y-78439285D02*
X89053571Y-78046428D01*
X89017857Y-77975000D01*
X88946428Y-77939285D01*
X88803571Y-77939285D01*
X88732142Y-77975000D01*
X89053571Y-78403571D02*
X88982142Y-78439285D01*
X88803571Y-78439285D01*
X88732142Y-78403571D01*
X88696428Y-78332142D01*
X88696428Y-78260714D01*
X88732142Y-78189285D01*
X88803571Y-78153571D01*
X88982142Y-78153571D01*
X89053571Y-78117857D01*
X89303571Y-77939285D02*
X89589285Y-77939285D01*
X89410714Y-77689285D02*
X89410714Y-78332142D01*
X89446428Y-78403571D01*
X89517857Y-78439285D01*
X89589285Y-78439285D01*
X89803571Y-78403571D02*
X89875000Y-78439285D01*
X90017857Y-78439285D01*
X90089285Y-78403571D01*
X90125000Y-78332142D01*
X90125000Y-78296428D01*
X90089285Y-78225000D01*
X90017857Y-78189285D01*
X89910714Y-78189285D01*
X89839285Y-78153571D01*
X89803571Y-78082142D01*
X89803571Y-78046428D01*
X89839285Y-77975000D01*
X89910714Y-77939285D01*
X90017857Y-77939285D01*
X90089285Y-77975000D01*
X90767857Y-77939285D02*
X90767857Y-78439285D01*
X90446428Y-77939285D02*
X90446428Y-78332142D01*
X90482142Y-78403571D01*
X90553571Y-78439285D01*
X90660714Y-78439285D01*
X90732142Y-78403571D01*
X90767857Y-78367857D01*
D10*
X90738095Y-57952380D02*
X90738095Y-58761904D01*
X90785714Y-58857142D01*
X90833333Y-58904761D01*
X90928571Y-58952380D01*
X91119047Y-58952380D01*
X91214285Y-58904761D01*
X91261904Y-58857142D01*
X91309523Y-58761904D01*
X91309523Y-57952380D01*
X91690476Y-57952380D02*
X92357142Y-57952380D01*
X91928571Y-58952380D01*
X102357142Y-53552380D02*
X102023809Y-53076190D01*
X101785714Y-53552380D02*
X101785714Y-52552380D01*
X102166666Y-52552380D01*
X102261904Y-52600000D01*
X102309523Y-52647619D01*
X102357142Y-52742857D01*
X102357142Y-52885714D01*
X102309523Y-52980952D01*
X102261904Y-53028571D01*
X102166666Y-53076190D01*
X101785714Y-53076190D01*
X102690476Y-52552380D02*
X103309523Y-52552380D01*
X102976190Y-52933333D01*
X103119047Y-52933333D01*
X103214285Y-52980952D01*
X103261904Y-53028571D01*
X103309523Y-53123809D01*
X103309523Y-53361904D01*
X103261904Y-53457142D01*
X103214285Y-53504761D01*
X103119047Y-53552380D01*
X102833333Y-53552380D01*
X102738095Y-53504761D01*
X102690476Y-53457142D01*
X104166666Y-52552380D02*
X103976190Y-52552380D01*
X103880952Y-52600000D01*
X103833333Y-52647619D01*
X103738095Y-52790476D01*
X103690476Y-52980952D01*
X103690476Y-53361904D01*
X103738095Y-53457142D01*
X103785714Y-53504761D01*
X103880952Y-53552380D01*
X104071428Y-53552380D01*
X104166666Y-53504761D01*
X104214285Y-53457142D01*
X104261904Y-53361904D01*
X104261904Y-53123809D01*
X104214285Y-53028571D01*
X104166666Y-52980952D01*
X104071428Y-52933333D01*
X103880952Y-52933333D01*
X103785714Y-52980952D01*
X103738095Y-53028571D01*
X103690476Y-53123809D01*
X91107142Y-62452380D02*
X90773809Y-61976190D01*
X90535714Y-62452380D02*
X90535714Y-61452380D01*
X90916666Y-61452380D01*
X91011904Y-61500000D01*
X91059523Y-61547619D01*
X91107142Y-61642857D01*
X91107142Y-61785714D01*
X91059523Y-61880952D01*
X91011904Y-61928571D01*
X90916666Y-61976190D01*
X90535714Y-61976190D01*
X91440476Y-61452380D02*
X92059523Y-61452380D01*
X91726190Y-61833333D01*
X91869047Y-61833333D01*
X91964285Y-61880952D01*
X92011904Y-61928571D01*
X92059523Y-62023809D01*
X92059523Y-62261904D01*
X92011904Y-62357142D01*
X91964285Y-62404761D01*
X91869047Y-62452380D01*
X91583333Y-62452380D01*
X91488095Y-62404761D01*
X91440476Y-62357142D01*
X92964285Y-61452380D02*
X92488095Y-61452380D01*
X92440476Y-61928571D01*
X92488095Y-61880952D01*
X92583333Y-61833333D01*
X92821428Y-61833333D01*
X92916666Y-61880952D01*
X92964285Y-61928571D01*
X93011904Y-62023809D01*
X93011904Y-62261904D01*
X92964285Y-62357142D01*
X92916666Y-62404761D01*
X92821428Y-62452380D01*
X92583333Y-62452380D01*
X92488095Y-62404761D01*
X92440476Y-62357142D01*
X87107142Y-50452380D02*
X86773809Y-49976190D01*
X86535714Y-50452380D02*
X86535714Y-49452380D01*
X86916666Y-49452380D01*
X87011904Y-49500000D01*
X87059523Y-49547619D01*
X87107142Y-49642857D01*
X87107142Y-49785714D01*
X87059523Y-49880952D01*
X87011904Y-49928571D01*
X86916666Y-49976190D01*
X86535714Y-49976190D01*
X87440476Y-49452380D02*
X88059523Y-49452380D01*
X87726190Y-49833333D01*
X87869047Y-49833333D01*
X87964285Y-49880952D01*
X88011904Y-49928571D01*
X88059523Y-50023809D01*
X88059523Y-50261904D01*
X88011904Y-50357142D01*
X87964285Y-50404761D01*
X87869047Y-50452380D01*
X87583333Y-50452380D01*
X87488095Y-50404761D01*
X87440476Y-50357142D01*
X88916666Y-49785714D02*
X88916666Y-50452380D01*
X88678571Y-49404761D02*
X88440476Y-50119047D01*
X89059523Y-50119047D01*
X86857142Y-62352380D02*
X86523809Y-61876190D01*
X86285714Y-62352380D02*
X86285714Y-61352380D01*
X86666666Y-61352380D01*
X86761904Y-61400000D01*
X86809523Y-61447619D01*
X86857142Y-61542857D01*
X86857142Y-61685714D01*
X86809523Y-61780952D01*
X86761904Y-61828571D01*
X86666666Y-61876190D01*
X86285714Y-61876190D01*
X87190476Y-61352380D02*
X87809523Y-61352380D01*
X87476190Y-61733333D01*
X87619047Y-61733333D01*
X87714285Y-61780952D01*
X87761904Y-61828571D01*
X87809523Y-61923809D01*
X87809523Y-62161904D01*
X87761904Y-62257142D01*
X87714285Y-62304761D01*
X87619047Y-62352380D01*
X87333333Y-62352380D01*
X87238095Y-62304761D01*
X87190476Y-62257142D01*
X88142857Y-61352380D02*
X88761904Y-61352380D01*
X88428571Y-61733333D01*
X88571428Y-61733333D01*
X88666666Y-61780952D01*
X88714285Y-61828571D01*
X88761904Y-61923809D01*
X88761904Y-62161904D01*
X88714285Y-62257142D01*
X88666666Y-62304761D01*
X88571428Y-62352380D01*
X88285714Y-62352380D01*
X88190476Y-62304761D01*
X88142857Y-62257142D01*
X87404761Y-59047619D02*
X87309523Y-59000000D01*
X87214285Y-58904761D01*
X87071428Y-58761904D01*
X86976190Y-58714285D01*
X86880952Y-58714285D01*
X86928571Y-58952380D02*
X86833333Y-58904761D01*
X86738095Y-58809523D01*
X86690476Y-58619047D01*
X86690476Y-58285714D01*
X86738095Y-58095238D01*
X86833333Y-58000000D01*
X86928571Y-57952380D01*
X87119047Y-57952380D01*
X87214285Y-58000000D01*
X87309523Y-58095238D01*
X87357142Y-58285714D01*
X87357142Y-58619047D01*
X87309523Y-58809523D01*
X87214285Y-58904761D01*
X87119047Y-58952380D01*
X86928571Y-58952380D01*
X87690476Y-57952380D02*
X88309523Y-57952380D01*
X87976190Y-58333333D01*
X88119047Y-58333333D01*
X88214285Y-58380952D01*
X88261904Y-58428571D01*
X88309523Y-58523809D01*
X88309523Y-58761904D01*
X88261904Y-58857142D01*
X88214285Y-58904761D01*
X88119047Y-58952380D01*
X87833333Y-58952380D01*
X87738095Y-58904761D01*
X87690476Y-58857142D01*
X98738095Y-57952380D02*
X98738095Y-58761904D01*
X98785714Y-58857142D01*
X98833333Y-58904761D01*
X98928571Y-58952380D01*
X99119047Y-58952380D01*
X99214285Y-58904761D01*
X99261904Y-58857142D01*
X99309523Y-58761904D01*
X99309523Y-57952380D01*
X99690476Y-57952380D02*
X100309523Y-57952380D01*
X99976190Y-58333333D01*
X100119047Y-58333333D01*
X100214285Y-58380952D01*
X100261904Y-58428571D01*
X100309523Y-58523809D01*
X100309523Y-58761904D01*
X100261904Y-58857142D01*
X100214285Y-58904761D01*
X100119047Y-58952380D01*
X99833333Y-58952380D01*
X99738095Y-58904761D01*
X99690476Y-58857142D01*
X89857142Y-50452380D02*
X89523809Y-49976190D01*
X89285714Y-50452380D02*
X89285714Y-49452380D01*
X89666666Y-49452380D01*
X89761904Y-49500000D01*
X89809523Y-49547619D01*
X89857142Y-49642857D01*
X89857142Y-49785714D01*
X89809523Y-49880952D01*
X89761904Y-49928571D01*
X89666666Y-49976190D01*
X89285714Y-49976190D01*
X90809523Y-50452380D02*
X90238095Y-50452380D01*
X90523809Y-50452380D02*
X90523809Y-49452380D01*
X90428571Y-49595238D01*
X90333333Y-49690476D01*
X90238095Y-49738095D01*
X91142857Y-49452380D02*
X91761904Y-49452380D01*
X91428571Y-49833333D01*
X91571428Y-49833333D01*
X91666666Y-49880952D01*
X91714285Y-49928571D01*
X91761904Y-50023809D01*
X91761904Y-50261904D01*
X91714285Y-50357142D01*
X91666666Y-50404761D01*
X91571428Y-50452380D01*
X91285714Y-50452380D01*
X91190476Y-50404761D01*
X91142857Y-50357142D01*
X99857142Y-50452380D02*
X99523809Y-49976190D01*
X99285714Y-50452380D02*
X99285714Y-49452380D01*
X99666666Y-49452380D01*
X99761904Y-49500000D01*
X99809523Y-49547619D01*
X99857142Y-49642857D01*
X99857142Y-49785714D01*
X99809523Y-49880952D01*
X99761904Y-49928571D01*
X99666666Y-49976190D01*
X99285714Y-49976190D01*
X100809523Y-50452380D02*
X100238095Y-50452380D01*
X100523809Y-50452380D02*
X100523809Y-49452380D01*
X100428571Y-49595238D01*
X100333333Y-49690476D01*
X100238095Y-49738095D01*
X101190476Y-49547619D02*
X101238095Y-49500000D01*
X101333333Y-49452380D01*
X101571428Y-49452380D01*
X101666666Y-49500000D01*
X101714285Y-49547619D01*
X101761904Y-49642857D01*
X101761904Y-49738095D01*
X101714285Y-49880952D01*
X101142857Y-50452380D01*
X101761904Y-50452380D01*
X105857142Y-53552380D02*
X105523809Y-53076190D01*
X105285714Y-53552380D02*
X105285714Y-52552380D01*
X105666666Y-52552380D01*
X105761904Y-52600000D01*
X105809523Y-52647619D01*
X105857142Y-52742857D01*
X105857142Y-52885714D01*
X105809523Y-52980952D01*
X105761904Y-53028571D01*
X105666666Y-53076190D01*
X105285714Y-53076190D01*
X106809523Y-53552380D02*
X106238095Y-53552380D01*
X106523809Y-53552380D02*
X106523809Y-52552380D01*
X106428571Y-52695238D01*
X106333333Y-52790476D01*
X106238095Y-52838095D01*
X107761904Y-53552380D02*
X107190476Y-53552380D01*
X107476190Y-53552380D02*
X107476190Y-52552380D01*
X107380952Y-52695238D01*
X107285714Y-52790476D01*
X107190476Y-52838095D01*
X116833333Y-62702380D02*
X116500000Y-62226190D01*
X116261904Y-62702380D02*
X116261904Y-61702380D01*
X116642857Y-61702380D01*
X116738095Y-61750000D01*
X116785714Y-61797619D01*
X116833333Y-61892857D01*
X116833333Y-62035714D01*
X116785714Y-62130952D01*
X116738095Y-62178571D01*
X116642857Y-62226190D01*
X116261904Y-62226190D01*
X117404761Y-62130952D02*
X117309523Y-62083333D01*
X117261904Y-62035714D01*
X117214285Y-61940476D01*
X117214285Y-61892857D01*
X117261904Y-61797619D01*
X117309523Y-61750000D01*
X117404761Y-61702380D01*
X117595238Y-61702380D01*
X117690476Y-61750000D01*
X117738095Y-61797619D01*
X117785714Y-61892857D01*
X117785714Y-61940476D01*
X117738095Y-62035714D01*
X117690476Y-62083333D01*
X117595238Y-62130952D01*
X117404761Y-62130952D01*
X117309523Y-62178571D01*
X117261904Y-62226190D01*
X117214285Y-62321428D01*
X117214285Y-62511904D01*
X117261904Y-62607142D01*
X117309523Y-62654761D01*
X117404761Y-62702380D01*
X117595238Y-62702380D01*
X117690476Y-62654761D01*
X117738095Y-62607142D01*
X117785714Y-62511904D01*
X117785714Y-62321428D01*
X117738095Y-62226190D01*
X117690476Y-62178571D01*
X117595238Y-62130952D01*
X94583333Y-50452380D02*
X94250000Y-49976190D01*
X94011904Y-50452380D02*
X94011904Y-49452380D01*
X94392857Y-49452380D01*
X94488095Y-49500000D01*
X94535714Y-49547619D01*
X94583333Y-49642857D01*
X94583333Y-49785714D01*
X94535714Y-49880952D01*
X94488095Y-49928571D01*
X94392857Y-49976190D01*
X94011904Y-49976190D01*
X94916666Y-49452380D02*
X95583333Y-49452380D01*
X95154761Y-50452380D01*
X97583333Y-50452380D02*
X97250000Y-49976190D01*
X97011904Y-50452380D02*
X97011904Y-49452380D01*
X97392857Y-49452380D01*
X97488095Y-49500000D01*
X97535714Y-49547619D01*
X97583333Y-49642857D01*
X97583333Y-49785714D01*
X97535714Y-49880952D01*
X97488095Y-49928571D01*
X97392857Y-49976190D01*
X97011904Y-49976190D01*
X98440476Y-49452380D02*
X98250000Y-49452380D01*
X98154761Y-49500000D01*
X98107142Y-49547619D01*
X98011904Y-49690476D01*
X97964285Y-49880952D01*
X97964285Y-50261904D01*
X98011904Y-50357142D01*
X98059523Y-50404761D01*
X98154761Y-50452380D01*
X98345238Y-50452380D01*
X98440476Y-50404761D01*
X98488095Y-50357142D01*
X98535714Y-50261904D01*
X98535714Y-50023809D01*
X98488095Y-49928571D01*
X98440476Y-49880952D01*
X98345238Y-49833333D01*
X98154761Y-49833333D01*
X98059523Y-49880952D01*
X98011904Y-49928571D01*
X97964285Y-50023809D01*
X102333333Y-60202380D02*
X102000000Y-59726190D01*
X101761904Y-60202380D02*
X101761904Y-59202380D01*
X102142857Y-59202380D01*
X102238095Y-59250000D01*
X102285714Y-59297619D01*
X102333333Y-59392857D01*
X102333333Y-59535714D01*
X102285714Y-59630952D01*
X102238095Y-59678571D01*
X102142857Y-59726190D01*
X101761904Y-59726190D01*
X103238095Y-59202380D02*
X102761904Y-59202380D01*
X102714285Y-59678571D01*
X102761904Y-59630952D01*
X102857142Y-59583333D01*
X103095238Y-59583333D01*
X103190476Y-59630952D01*
X103238095Y-59678571D01*
X103285714Y-59773809D01*
X103285714Y-60011904D01*
X103238095Y-60107142D01*
X103190476Y-60154761D01*
X103095238Y-60202380D01*
X102857142Y-60202380D01*
X102761904Y-60154761D01*
X102714285Y-60107142D01*
X115333333Y-29452380D02*
X115000000Y-28976190D01*
X114761904Y-29452380D02*
X114761904Y-28452380D01*
X115142857Y-28452380D01*
X115238095Y-28500000D01*
X115285714Y-28547619D01*
X115333333Y-28642857D01*
X115333333Y-28785714D01*
X115285714Y-28880952D01*
X115238095Y-28928571D01*
X115142857Y-28976190D01*
X114761904Y-28976190D01*
X116190476Y-28785714D02*
X116190476Y-29452380D01*
X115952380Y-28404761D02*
X115714285Y-29119047D01*
X116333333Y-29119047D01*
X92583333Y-50452380D02*
X92250000Y-49976190D01*
X92011904Y-50452380D02*
X92011904Y-49452380D01*
X92392857Y-49452380D01*
X92488095Y-49500000D01*
X92535714Y-49547619D01*
X92583333Y-49642857D01*
X92583333Y-49785714D01*
X92535714Y-49880952D01*
X92488095Y-49928571D01*
X92392857Y-49976190D01*
X92011904Y-49976190D01*
X92916666Y-49452380D02*
X93535714Y-49452380D01*
X93202380Y-49833333D01*
X93345238Y-49833333D01*
X93440476Y-49880952D01*
X93488095Y-49928571D01*
X93535714Y-50023809D01*
X93535714Y-50261904D01*
X93488095Y-50357142D01*
X93440476Y-50404761D01*
X93345238Y-50452380D01*
X93059523Y-50452380D01*
X92964285Y-50404761D01*
X92916666Y-50357142D01*
X84052380Y-43916666D02*
X83576190Y-44250000D01*
X84052380Y-44488095D02*
X83052380Y-44488095D01*
X83052380Y-44107142D01*
X83100000Y-44011904D01*
X83147619Y-43964285D01*
X83242857Y-43916666D01*
X83385714Y-43916666D01*
X83480952Y-43964285D01*
X83528571Y-44011904D01*
X83576190Y-44107142D01*
X83576190Y-44488095D01*
X83147619Y-43535714D02*
X83100000Y-43488095D01*
X83052380Y-43392857D01*
X83052380Y-43154761D01*
X83100000Y-43059523D01*
X83147619Y-43011904D01*
X83242857Y-42964285D01*
X83338095Y-42964285D01*
X83480952Y-43011904D01*
X84052380Y-43583333D01*
X84052380Y-42964285D01*
X99333333Y-62452380D02*
X99000000Y-61976190D01*
X98761904Y-62452380D02*
X98761904Y-61452380D01*
X99142857Y-61452380D01*
X99238095Y-61500000D01*
X99285714Y-61547619D01*
X99333333Y-61642857D01*
X99333333Y-61785714D01*
X99285714Y-61880952D01*
X99238095Y-61928571D01*
X99142857Y-61976190D01*
X98761904Y-61976190D01*
X100285714Y-62452380D02*
X99714285Y-62452380D01*
X100000000Y-62452380D02*
X100000000Y-61452380D01*
X99904761Y-61595238D01*
X99809523Y-61690476D01*
X99714285Y-61738095D01*
X95404761Y-59047619D02*
X95309523Y-59000000D01*
X95214285Y-58904761D01*
X95071428Y-58761904D01*
X94976190Y-58714285D01*
X94880952Y-58714285D01*
X94928571Y-58952380D02*
X94833333Y-58904761D01*
X94738095Y-58809523D01*
X94690476Y-58619047D01*
X94690476Y-58285714D01*
X94738095Y-58095238D01*
X94833333Y-58000000D01*
X94928571Y-57952380D01*
X95119047Y-57952380D01*
X95214285Y-58000000D01*
X95309523Y-58095238D01*
X95357142Y-58285714D01*
X95357142Y-58619047D01*
X95309523Y-58809523D01*
X95214285Y-58904761D01*
X95119047Y-58952380D01*
X94928571Y-58952380D01*
X95738095Y-58047619D02*
X95785714Y-58000000D01*
X95880952Y-57952380D01*
X96119047Y-57952380D01*
X96214285Y-58000000D01*
X96261904Y-58047619D01*
X96309523Y-58142857D01*
X96309523Y-58238095D01*
X96261904Y-58380952D01*
X95690476Y-58952380D01*
X96309523Y-58952380D01*
X106202380Y-61738095D02*
X105202380Y-61738095D01*
X105202380Y-61500000D01*
X105250000Y-61357142D01*
X105345238Y-61261904D01*
X105440476Y-61214285D01*
X105630952Y-61166666D01*
X105773809Y-61166666D01*
X105964285Y-61214285D01*
X106059523Y-61261904D01*
X106154761Y-61357142D01*
X106202380Y-61500000D01*
X106202380Y-61738095D01*
X105202380Y-60309523D02*
X105202380Y-60500000D01*
X105250000Y-60595238D01*
X105297619Y-60642857D01*
X105440476Y-60738095D01*
X105630952Y-60785714D01*
X106011904Y-60785714D01*
X106107142Y-60738095D01*
X106154761Y-60690476D01*
X106202380Y-60595238D01*
X106202380Y-60404761D01*
X106154761Y-60309523D01*
X106107142Y-60261904D01*
X106011904Y-60214285D01*
X105773809Y-60214285D01*
X105678571Y-60261904D01*
X105630952Y-60309523D01*
X105583333Y-60404761D01*
X105583333Y-60595238D01*
X105630952Y-60690476D01*
X105678571Y-60738095D01*
X105773809Y-60785714D01*
X84511904Y-48702380D02*
X84511904Y-47702380D01*
X84750000Y-47702380D01*
X84892857Y-47750000D01*
X84988095Y-47845238D01*
X85035714Y-47940476D01*
X85083333Y-48130952D01*
X85083333Y-48273809D01*
X85035714Y-48464285D01*
X84988095Y-48559523D01*
X84892857Y-48654761D01*
X84750000Y-48702380D01*
X84511904Y-48702380D01*
X85988095Y-47702380D02*
X85511904Y-47702380D01*
X85464285Y-48178571D01*
X85511904Y-48130952D01*
X85607142Y-48083333D01*
X85845238Y-48083333D01*
X85940476Y-48130952D01*
X85988095Y-48178571D01*
X86035714Y-48273809D01*
X86035714Y-48511904D01*
X85988095Y-48607142D01*
X85940476Y-48654761D01*
X85845238Y-48702380D01*
X85607142Y-48702380D01*
X85511904Y-48654761D01*
X85464285Y-48607142D01*
X118511904Y-63806380D02*
X118511904Y-62806380D01*
X118750000Y-62806380D01*
X118892857Y-62854000D01*
X118988095Y-62949238D01*
X119035714Y-63044476D01*
X119083333Y-63234952D01*
X119083333Y-63377809D01*
X119035714Y-63568285D01*
X118988095Y-63663523D01*
X118892857Y-63758761D01*
X118750000Y-63806380D01*
X118511904Y-63806380D01*
X119940476Y-63139714D02*
X119940476Y-63806380D01*
X119702380Y-62758761D02*
X119464285Y-63473047D01*
X120083333Y-63473047D01*
X112261904Y-40952380D02*
X112261904Y-39952380D01*
X112500000Y-39952380D01*
X112642857Y-40000000D01*
X112738095Y-40095238D01*
X112785714Y-40190476D01*
X112833333Y-40380952D01*
X112833333Y-40523809D01*
X112785714Y-40714285D01*
X112738095Y-40809523D01*
X112642857Y-40904761D01*
X112500000Y-40952380D01*
X112261904Y-40952380D01*
X113166666Y-39952380D02*
X113785714Y-39952380D01*
X113452380Y-40333333D01*
X113595238Y-40333333D01*
X113690476Y-40380952D01*
X113738095Y-40428571D01*
X113785714Y-40523809D01*
X113785714Y-40761904D01*
X113738095Y-40857142D01*
X113690476Y-40904761D01*
X113595238Y-40952380D01*
X113309523Y-40952380D01*
X113214285Y-40904761D01*
X113166666Y-40857142D01*
X116511904Y-32452380D02*
X116511904Y-31452380D01*
X116750000Y-31452380D01*
X116892857Y-31500000D01*
X116988095Y-31595238D01*
X117035714Y-31690476D01*
X117083333Y-31880952D01*
X117083333Y-32023809D01*
X117035714Y-32214285D01*
X116988095Y-32309523D01*
X116892857Y-32404761D01*
X116750000Y-32452380D01*
X116511904Y-32452380D01*
X117464285Y-31547619D02*
X117511904Y-31500000D01*
X117607142Y-31452380D01*
X117845238Y-31452380D01*
X117940476Y-31500000D01*
X117988095Y-31547619D01*
X118035714Y-31642857D01*
X118035714Y-31738095D01*
X117988095Y-31880952D01*
X117416666Y-32452380D01*
X118035714Y-32452380D01*
X84511904Y-39702380D02*
X84511904Y-38702380D01*
X84750000Y-38702380D01*
X84892857Y-38750000D01*
X84988095Y-38845238D01*
X85035714Y-38940476D01*
X85083333Y-39130952D01*
X85083333Y-39273809D01*
X85035714Y-39464285D01*
X84988095Y-39559523D01*
X84892857Y-39654761D01*
X84750000Y-39702380D01*
X84511904Y-39702380D01*
X86035714Y-39702380D02*
X85464285Y-39702380D01*
X85750000Y-39702380D02*
X85750000Y-38702380D01*
X85654761Y-38845238D01*
X85559523Y-38940476D01*
X85464285Y-38988095D01*
X106357142Y-57666666D02*
X106404761Y-57714285D01*
X106452380Y-57857142D01*
X106452380Y-57952380D01*
X106404761Y-58095238D01*
X106309523Y-58190476D01*
X106214285Y-58238095D01*
X106023809Y-58285714D01*
X105880952Y-58285714D01*
X105690476Y-58238095D01*
X105595238Y-58190476D01*
X105500000Y-58095238D01*
X105452380Y-57952380D01*
X105452380Y-57857142D01*
X105500000Y-57714285D01*
X105547619Y-57666666D01*
X105547619Y-57285714D02*
X105500000Y-57238095D01*
X105452380Y-57142857D01*
X105452380Y-56904761D01*
X105500000Y-56809523D01*
X105547619Y-56761904D01*
X105642857Y-56714285D01*
X105738095Y-56714285D01*
X105880952Y-56761904D01*
X106452380Y-57333333D01*
X106452380Y-56714285D01*
X91833333Y-43357142D02*
X91785714Y-43404761D01*
X91642857Y-43452380D01*
X91547619Y-43452380D01*
X91404761Y-43404761D01*
X91309523Y-43309523D01*
X91261904Y-43214285D01*
X91214285Y-43023809D01*
X91214285Y-42880952D01*
X91261904Y-42690476D01*
X91309523Y-42595238D01*
X91404761Y-42500000D01*
X91547619Y-42452380D01*
X91642857Y-42452380D01*
X91785714Y-42500000D01*
X91833333Y-42547619D01*
X92785714Y-43452380D02*
X92214285Y-43452380D01*
X92500000Y-43452380D02*
X92500000Y-42452380D01*
X92404761Y-42595238D01*
X92309523Y-42690476D01*
X92214285Y-42738095D01*
X97041428Y-49160952D02*
X97041428Y-48399047D01*
X97422380Y-48780000D02*
X96660476Y-48780000D01*
X68857142Y-103357142D02*
X68809523Y-103404761D01*
X68666666Y-103452380D01*
X68571428Y-103452380D01*
X68428571Y-103404761D01*
X68333333Y-103309523D01*
X68285714Y-103214285D01*
X68238095Y-103023809D01*
X68238095Y-102880952D01*
X68285714Y-102690476D01*
X68333333Y-102595238D01*
X68428571Y-102500000D01*
X68571428Y-102452380D01*
X68666666Y-102452380D01*
X68809523Y-102500000D01*
X68857142Y-102547619D01*
X69809523Y-103452380D02*
X69238095Y-103452380D01*
X69523809Y-103452380D02*
X69523809Y-102452380D01*
X69428571Y-102595238D01*
X69333333Y-102690476D01*
X69238095Y-102738095D01*
X70761904Y-103452380D02*
X70190476Y-103452380D01*
X70476190Y-103452380D02*
X70476190Y-102452380D01*
X70380952Y-102595238D01*
X70285714Y-102690476D01*
X70190476Y-102738095D01*
X36785714Y-112952380D02*
X36785714Y-111952380D01*
X37023809Y-111952380D01*
X37166666Y-112000000D01*
X37261904Y-112095238D01*
X37309523Y-112190476D01*
X37357142Y-112380952D01*
X37357142Y-112523809D01*
X37309523Y-112714285D01*
X37261904Y-112809523D01*
X37166666Y-112904761D01*
X37023809Y-112952380D01*
X36785714Y-112952380D01*
X37738095Y-112047619D02*
X37785714Y-112000000D01*
X37880952Y-111952380D01*
X38119047Y-111952380D01*
X38214285Y-112000000D01*
X38261904Y-112047619D01*
X38309523Y-112142857D01*
X38309523Y-112238095D01*
X38261904Y-112380952D01*
X37690476Y-112952380D01*
X38309523Y-112952380D01*
X38880952Y-112380952D02*
X38785714Y-112333333D01*
X38738095Y-112285714D01*
X38690476Y-112190476D01*
X38690476Y-112142857D01*
X38738095Y-112047619D01*
X38785714Y-112000000D01*
X38880952Y-111952380D01*
X39071428Y-111952380D01*
X39166666Y-112000000D01*
X39214285Y-112047619D01*
X39261904Y-112142857D01*
X39261904Y-112190476D01*
X39214285Y-112285714D01*
X39166666Y-112333333D01*
X39071428Y-112380952D01*
X38880952Y-112380952D01*
X38785714Y-112428571D01*
X38738095Y-112476190D01*
X38690476Y-112571428D01*
X38690476Y-112761904D01*
X38738095Y-112857142D01*
X38785714Y-112904761D01*
X38880952Y-112952380D01*
X39071428Y-112952380D01*
X39166666Y-112904761D01*
X39214285Y-112857142D01*
X39261904Y-112761904D01*
X39261904Y-112571428D01*
X39214285Y-112476190D01*
X39166666Y-112428571D01*
X39071428Y-112380952D01*
X36785714Y-97452380D02*
X36785714Y-96452380D01*
X37023809Y-96452380D01*
X37166666Y-96500000D01*
X37261904Y-96595238D01*
X37309523Y-96690476D01*
X37357142Y-96880952D01*
X37357142Y-97023809D01*
X37309523Y-97214285D01*
X37261904Y-97309523D01*
X37166666Y-97404761D01*
X37023809Y-97452380D01*
X36785714Y-97452380D01*
X37738095Y-96547619D02*
X37785714Y-96500000D01*
X37880952Y-96452380D01*
X38119047Y-96452380D01*
X38214285Y-96500000D01*
X38261904Y-96547619D01*
X38309523Y-96642857D01*
X38309523Y-96738095D01*
X38261904Y-96880952D01*
X37690476Y-97452380D01*
X38309523Y-97452380D01*
X39166666Y-96452380D02*
X38976190Y-96452380D01*
X38880952Y-96500000D01*
X38833333Y-96547619D01*
X38738095Y-96690476D01*
X38690476Y-96880952D01*
X38690476Y-97261904D01*
X38738095Y-97357142D01*
X38785714Y-97404761D01*
X38880952Y-97452380D01*
X39071428Y-97452380D01*
X39166666Y-97404761D01*
X39214285Y-97357142D01*
X39261904Y-97261904D01*
X39261904Y-97023809D01*
X39214285Y-96928571D01*
X39166666Y-96880952D01*
X39071428Y-96833333D01*
X38880952Y-96833333D01*
X38785714Y-96880952D01*
X38738095Y-96928571D01*
X38690476Y-97023809D01*
X119238095Y-120452380D02*
X119238095Y-119452380D01*
X119238095Y-119928571D02*
X119809523Y-119928571D01*
X119809523Y-120452380D02*
X119809523Y-119452380D01*
X120714285Y-119785714D02*
X120714285Y-120452380D01*
X120476190Y-119404761D02*
X120238095Y-120119047D01*
X120857142Y-120119047D01*
X119238095Y-30452380D02*
X119238095Y-29452380D01*
X119238095Y-29928571D02*
X119809523Y-29928571D01*
X119809523Y-30452380D02*
X119809523Y-29452380D01*
X120190476Y-29452380D02*
X120809523Y-29452380D01*
X120476190Y-29833333D01*
X120619047Y-29833333D01*
X120714285Y-29880952D01*
X120761904Y-29928571D01*
X120809523Y-30023809D01*
X120809523Y-30261904D01*
X120761904Y-30357142D01*
X120714285Y-30404761D01*
X120619047Y-30452380D01*
X120333333Y-30452380D01*
X120238095Y-30404761D01*
X120190476Y-30357142D01*
X29238095Y-120202380D02*
X29238095Y-119202380D01*
X29238095Y-119678571D02*
X29809523Y-119678571D01*
X29809523Y-120202380D02*
X29809523Y-119202380D01*
X30238095Y-119297619D02*
X30285714Y-119250000D01*
X30380952Y-119202380D01*
X30619047Y-119202380D01*
X30714285Y-119250000D01*
X30761904Y-119297619D01*
X30809523Y-119392857D01*
X30809523Y-119488095D01*
X30761904Y-119630952D01*
X30190476Y-120202380D01*
X30809523Y-120202380D01*
X29238095Y-30202380D02*
X29238095Y-29202380D01*
X29238095Y-29678571D02*
X29809523Y-29678571D01*
X29809523Y-30202380D02*
X29809523Y-29202380D01*
X30809523Y-30202380D02*
X30238095Y-30202380D01*
X30523809Y-30202380D02*
X30523809Y-29202380D01*
X30428571Y-29345238D01*
X30333333Y-29440476D01*
X30238095Y-29488095D01*
X74357142Y-27357142D02*
X74309523Y-27404761D01*
X74166666Y-27452380D01*
X74071428Y-27452380D01*
X73928571Y-27404761D01*
X73833333Y-27309523D01*
X73785714Y-27214285D01*
X73738095Y-27023809D01*
X73738095Y-26880952D01*
X73785714Y-26690476D01*
X73833333Y-26595238D01*
X73928571Y-26500000D01*
X74071428Y-26452380D01*
X74166666Y-26452380D01*
X74309523Y-26500000D01*
X74357142Y-26547619D01*
X75309523Y-27452380D02*
X74738095Y-27452380D01*
X75023809Y-27452380D02*
X75023809Y-26452380D01*
X74928571Y-26595238D01*
X74833333Y-26690476D01*
X74738095Y-26738095D01*
X75880952Y-26880952D02*
X75785714Y-26833333D01*
X75738095Y-26785714D01*
X75690476Y-26690476D01*
X75690476Y-26642857D01*
X75738095Y-26547619D01*
X75785714Y-26500000D01*
X75880952Y-26452380D01*
X76071428Y-26452380D01*
X76166666Y-26500000D01*
X76214285Y-26547619D01*
X76261904Y-26642857D01*
X76261904Y-26690476D01*
X76214285Y-26785714D01*
X76166666Y-26833333D01*
X76071428Y-26880952D01*
X75880952Y-26880952D01*
X75785714Y-26928571D01*
X75738095Y-26976190D01*
X75690476Y-27071428D01*
X75690476Y-27261904D01*
X75738095Y-27357142D01*
X75785714Y-27404761D01*
X75880952Y-27452380D01*
X76071428Y-27452380D01*
X76166666Y-27404761D01*
X76214285Y-27357142D01*
X76261904Y-27261904D01*
X76261904Y-27071428D01*
X76214285Y-26976190D01*
X76166666Y-26928571D01*
X76071428Y-26880952D01*
X34785714Y-120452380D02*
X34785714Y-119452380D01*
X35023809Y-119452380D01*
X35166666Y-119500000D01*
X35261904Y-119595238D01*
X35309523Y-119690476D01*
X35357142Y-119880952D01*
X35357142Y-120023809D01*
X35309523Y-120214285D01*
X35261904Y-120309523D01*
X35166666Y-120404761D01*
X35023809Y-120452380D01*
X34785714Y-120452380D01*
X35738095Y-119547619D02*
X35785714Y-119500000D01*
X35880952Y-119452380D01*
X36119047Y-119452380D01*
X36214285Y-119500000D01*
X36261904Y-119547619D01*
X36309523Y-119642857D01*
X36309523Y-119738095D01*
X36261904Y-119880952D01*
X35690476Y-120452380D01*
X36309523Y-120452380D01*
X36642857Y-119452380D02*
X37309523Y-119452380D01*
X36880952Y-120452380D01*
X36785714Y-105202380D02*
X36785714Y-104202380D01*
X37023809Y-104202380D01*
X37166666Y-104250000D01*
X37261904Y-104345238D01*
X37309523Y-104440476D01*
X37357142Y-104630952D01*
X37357142Y-104773809D01*
X37309523Y-104964285D01*
X37261904Y-105059523D01*
X37166666Y-105154761D01*
X37023809Y-105202380D01*
X36785714Y-105202380D01*
X37738095Y-104297619D02*
X37785714Y-104250000D01*
X37880952Y-104202380D01*
X38119047Y-104202380D01*
X38214285Y-104250000D01*
X38261904Y-104297619D01*
X38309523Y-104392857D01*
X38309523Y-104488095D01*
X38261904Y-104630952D01*
X37690476Y-105202380D01*
X38309523Y-105202380D01*
X39214285Y-104202380D02*
X38738095Y-104202380D01*
X38690476Y-104678571D01*
X38738095Y-104630952D01*
X38833333Y-104583333D01*
X39071428Y-104583333D01*
X39166666Y-104630952D01*
X39214285Y-104678571D01*
X39261904Y-104773809D01*
X39261904Y-105011904D01*
X39214285Y-105107142D01*
X39166666Y-105154761D01*
X39071428Y-105202380D01*
X38833333Y-105202380D01*
X38738095Y-105154761D01*
X38690476Y-105107142D01*
X75452380Y-32714285D02*
X74452380Y-32714285D01*
X74452380Y-32476190D01*
X74500000Y-32333333D01*
X74595238Y-32238095D01*
X74690476Y-32190476D01*
X74880952Y-32142857D01*
X75023809Y-32142857D01*
X75214285Y-32190476D01*
X75309523Y-32238095D01*
X75404761Y-32333333D01*
X75452380Y-32476190D01*
X75452380Y-32714285D01*
X74547619Y-31761904D02*
X74500000Y-31714285D01*
X74452380Y-31619047D01*
X74452380Y-31380952D01*
X74500000Y-31285714D01*
X74547619Y-31238095D01*
X74642857Y-31190476D01*
X74738095Y-31190476D01*
X74880952Y-31238095D01*
X75452380Y-31809523D01*
X75452380Y-31190476D01*
X74785714Y-30333333D02*
X75452380Y-30333333D01*
X74404761Y-30571428D02*
X75119047Y-30809523D01*
X75119047Y-30190476D01*
X75452380Y-36214285D02*
X74452380Y-36214285D01*
X74452380Y-35976190D01*
X74500000Y-35833333D01*
X74595238Y-35738095D01*
X74690476Y-35690476D01*
X74880952Y-35642857D01*
X75023809Y-35642857D01*
X75214285Y-35690476D01*
X75309523Y-35738095D01*
X75404761Y-35833333D01*
X75452380Y-35976190D01*
X75452380Y-36214285D01*
X74547619Y-35261904D02*
X74500000Y-35214285D01*
X74452380Y-35119047D01*
X74452380Y-34880952D01*
X74500000Y-34785714D01*
X74547619Y-34738095D01*
X74642857Y-34690476D01*
X74738095Y-34690476D01*
X74880952Y-34738095D01*
X75452380Y-35309523D01*
X75452380Y-34690476D01*
X74452380Y-34357142D02*
X74452380Y-33738095D01*
X74833333Y-34071428D01*
X74833333Y-33928571D01*
X74880952Y-33833333D01*
X74928571Y-33785714D01*
X75023809Y-33738095D01*
X75261904Y-33738095D01*
X75357142Y-33785714D01*
X75404761Y-33833333D01*
X75452380Y-33928571D01*
X75452380Y-34214285D01*
X75404761Y-34309523D01*
X75357142Y-34357142D01*
X49333333Y-103357142D02*
X49285714Y-103404761D01*
X49142857Y-103452380D01*
X49047619Y-103452380D01*
X48904761Y-103404761D01*
X48809523Y-103309523D01*
X48761904Y-103214285D01*
X48714285Y-103023809D01*
X48714285Y-102880952D01*
X48761904Y-102690476D01*
X48809523Y-102595238D01*
X48904761Y-102500000D01*
X49047619Y-102452380D01*
X49142857Y-102452380D01*
X49285714Y-102500000D01*
X49333333Y-102547619D01*
X49666666Y-102452380D02*
X50285714Y-102452380D01*
X49952380Y-102833333D01*
X50095238Y-102833333D01*
X50190476Y-102880952D01*
X50238095Y-102928571D01*
X50285714Y-103023809D01*
X50285714Y-103261904D01*
X50238095Y-103357142D01*
X50190476Y-103404761D01*
X50095238Y-103452380D01*
X49809523Y-103452380D01*
X49714285Y-103404761D01*
X49666666Y-103357142D01*
X94333333Y-103357142D02*
X94285714Y-103404761D01*
X94142857Y-103452380D01*
X94047619Y-103452380D01*
X93904761Y-103404761D01*
X93809523Y-103309523D01*
X93761904Y-103214285D01*
X93714285Y-103023809D01*
X93714285Y-102880952D01*
X93761904Y-102690476D01*
X93809523Y-102595238D01*
X93904761Y-102500000D01*
X94047619Y-102452380D01*
X94142857Y-102452380D01*
X94285714Y-102500000D01*
X94333333Y-102547619D01*
X95190476Y-102785714D02*
X95190476Y-103452380D01*
X94952380Y-102404761D02*
X94714285Y-103119047D01*
X95333333Y-103119047D01*
X113857142Y-103357142D02*
X113809523Y-103404761D01*
X113666666Y-103452380D01*
X113571428Y-103452380D01*
X113428571Y-103404761D01*
X113333333Y-103309523D01*
X113285714Y-103214285D01*
X113238095Y-103023809D01*
X113238095Y-102880952D01*
X113285714Y-102690476D01*
X113333333Y-102595238D01*
X113428571Y-102500000D01*
X113571428Y-102452380D01*
X113666666Y-102452380D01*
X113809523Y-102500000D01*
X113857142Y-102547619D01*
X114809523Y-103452380D02*
X114238095Y-103452380D01*
X114523809Y-103452380D02*
X114523809Y-102452380D01*
X114428571Y-102595238D01*
X114333333Y-102690476D01*
X114238095Y-102738095D01*
X115190476Y-102547619D02*
X115238095Y-102500000D01*
X115333333Y-102452380D01*
X115571428Y-102452380D01*
X115666666Y-102500000D01*
X115714285Y-102547619D01*
X115761904Y-102642857D01*
X115761904Y-102738095D01*
X115714285Y-102880952D01*
X115142857Y-103452380D01*
X115761904Y-103452380D01*
X102357142Y-43357142D02*
X102309523Y-43404761D01*
X102166666Y-43452380D01*
X102071428Y-43452380D01*
X101928571Y-43404761D01*
X101833333Y-43309523D01*
X101785714Y-43214285D01*
X101738095Y-43023809D01*
X101738095Y-42880952D01*
X101785714Y-42690476D01*
X101833333Y-42595238D01*
X101928571Y-42500000D01*
X102071428Y-42452380D01*
X102166666Y-42452380D01*
X102309523Y-42500000D01*
X102357142Y-42547619D01*
X103309523Y-43452380D02*
X102738095Y-43452380D01*
X103023809Y-43452380D02*
X103023809Y-42452380D01*
X102928571Y-42595238D01*
X102833333Y-42690476D01*
X102738095Y-42738095D01*
X103642857Y-42452380D02*
X104309523Y-42452380D01*
X103880952Y-43452380D01*
X98101428Y-37600952D02*
X98101428Y-36839047D01*
X98482380Y-37220000D02*
X97720476Y-37220000D01*
X105857142Y-72166666D02*
X105904761Y-72214285D01*
X105952380Y-72357142D01*
X105952380Y-72452380D01*
X105904761Y-72595238D01*
X105809523Y-72690476D01*
X105714285Y-72738095D01*
X105523809Y-72785714D01*
X105380952Y-72785714D01*
X105190476Y-72738095D01*
X105095238Y-72690476D01*
X105000000Y-72595238D01*
X104952380Y-72452380D01*
X104952380Y-72357142D01*
X105000000Y-72214285D01*
X105047619Y-72166666D01*
X104952380Y-71261904D02*
X104952380Y-71738095D01*
X105428571Y-71785714D01*
X105380952Y-71738095D01*
X105333333Y-71642857D01*
X105333333Y-71404761D01*
X105380952Y-71309523D01*
X105428571Y-71261904D01*
X105523809Y-71214285D01*
X105761904Y-71214285D01*
X105857142Y-71261904D01*
X105904761Y-71309523D01*
X105952380Y-71404761D01*
X105952380Y-71642857D01*
X105904761Y-71738095D01*
X105857142Y-71785714D01*
X105857142Y-82642857D02*
X105904761Y-82690476D01*
X105952380Y-82833333D01*
X105952380Y-82928571D01*
X105904761Y-83071428D01*
X105809523Y-83166666D01*
X105714285Y-83214285D01*
X105523809Y-83261904D01*
X105380952Y-83261904D01*
X105190476Y-83214285D01*
X105095238Y-83166666D01*
X105000000Y-83071428D01*
X104952380Y-82928571D01*
X104952380Y-82833333D01*
X105000000Y-82690476D01*
X105047619Y-82642857D01*
X105952380Y-81690476D02*
X105952380Y-82261904D01*
X105952380Y-81976190D02*
X104952380Y-81976190D01*
X105095238Y-82071428D01*
X105190476Y-82166666D01*
X105238095Y-82261904D01*
X104952380Y-81357142D02*
X104952380Y-80738095D01*
X105333333Y-81071428D01*
X105333333Y-80928571D01*
X105380952Y-80833333D01*
X105428571Y-80785714D01*
X105523809Y-80738095D01*
X105761904Y-80738095D01*
X105857142Y-80785714D01*
X105904761Y-80833333D01*
X105952380Y-80928571D01*
X105952380Y-81214285D01*
X105904761Y-81309523D01*
X105857142Y-81357142D01*
X97357142Y-75666666D02*
X97404761Y-75714285D01*
X97452380Y-75857142D01*
X97452380Y-75952380D01*
X97404761Y-76095238D01*
X97309523Y-76190476D01*
X97214285Y-76238095D01*
X97023809Y-76285714D01*
X96880952Y-76285714D01*
X96690476Y-76238095D01*
X96595238Y-76190476D01*
X96500000Y-76095238D01*
X96452380Y-75952380D01*
X96452380Y-75857142D01*
X96500000Y-75714285D01*
X96547619Y-75666666D01*
X96880952Y-75095238D02*
X96833333Y-75190476D01*
X96785714Y-75238095D01*
X96690476Y-75285714D01*
X96642857Y-75285714D01*
X96547619Y-75238095D01*
X96500000Y-75190476D01*
X96452380Y-75095238D01*
X96452380Y-74904761D01*
X96500000Y-74809523D01*
X96547619Y-74761904D01*
X96642857Y-74714285D01*
X96690476Y-74714285D01*
X96785714Y-74761904D01*
X96833333Y-74809523D01*
X96880952Y-74904761D01*
X96880952Y-75095238D01*
X96928571Y-75190476D01*
X96976190Y-75238095D01*
X97071428Y-75285714D01*
X97261904Y-75285714D01*
X97357142Y-75238095D01*
X97404761Y-75190476D01*
X97452380Y-75095238D01*
X97452380Y-74904761D01*
X97404761Y-74809523D01*
X97357142Y-74761904D01*
X97261904Y-74714285D01*
X97071428Y-74714285D01*
X96976190Y-74761904D01*
X96928571Y-74809523D01*
X96880952Y-74904761D01*
X97357142Y-89642857D02*
X97404761Y-89690476D01*
X97452380Y-89833333D01*
X97452380Y-89928571D01*
X97404761Y-90071428D01*
X97309523Y-90166666D01*
X97214285Y-90214285D01*
X97023809Y-90261904D01*
X96880952Y-90261904D01*
X96690476Y-90214285D01*
X96595238Y-90166666D01*
X96500000Y-90071428D01*
X96452380Y-89928571D01*
X96452380Y-89833333D01*
X96500000Y-89690476D01*
X96547619Y-89642857D01*
X97452380Y-88690476D02*
X97452380Y-89261904D01*
X97452380Y-88976190D02*
X96452380Y-88976190D01*
X96595238Y-89071428D01*
X96690476Y-89166666D01*
X96738095Y-89261904D01*
X96452380Y-88071428D02*
X96452380Y-87976190D01*
X96500000Y-87880952D01*
X96547619Y-87833333D01*
X96642857Y-87785714D01*
X96833333Y-87738095D01*
X97071428Y-87738095D01*
X97261904Y-87785714D01*
X97357142Y-87833333D01*
X97404761Y-87880952D01*
X97452380Y-87976190D01*
X97452380Y-88071428D01*
X97404761Y-88166666D01*
X97357142Y-88214285D01*
X97261904Y-88261904D01*
X97071428Y-88309523D01*
X96833333Y-88309523D01*
X96642857Y-88261904D01*
X96547619Y-88214285D01*
X96500000Y-88166666D01*
X96452380Y-88071428D01*
X107833333Y-74357142D02*
X107785714Y-74404761D01*
X107642857Y-74452380D01*
X107547619Y-74452380D01*
X107404761Y-74404761D01*
X107309523Y-74309523D01*
X107261904Y-74214285D01*
X107214285Y-74023809D01*
X107214285Y-73880952D01*
X107261904Y-73690476D01*
X107309523Y-73595238D01*
X107404761Y-73500000D01*
X107547619Y-73452380D01*
X107642857Y-73452380D01*
X107785714Y-73500000D01*
X107833333Y-73547619D01*
X108690476Y-73452380D02*
X108500000Y-73452380D01*
X108404761Y-73500000D01*
X108357142Y-73547619D01*
X108261904Y-73690476D01*
X108214285Y-73880952D01*
X108214285Y-74261904D01*
X108261904Y-74357142D01*
X108309523Y-74404761D01*
X108404761Y-74452380D01*
X108595238Y-74452380D01*
X108690476Y-74404761D01*
X108738095Y-74357142D01*
X108785714Y-74261904D01*
X108785714Y-74023809D01*
X108738095Y-73928571D01*
X108690476Y-73880952D01*
X108595238Y-73833333D01*
X108404761Y-73833333D01*
X108309523Y-73880952D01*
X108261904Y-73928571D01*
X108214285Y-74023809D01*
X107357142Y-82357142D02*
X107309523Y-82404761D01*
X107166666Y-82452380D01*
X107071428Y-82452380D01*
X106928571Y-82404761D01*
X106833333Y-82309523D01*
X106785714Y-82214285D01*
X106738095Y-82023809D01*
X106738095Y-81880952D01*
X106785714Y-81690476D01*
X106833333Y-81595238D01*
X106928571Y-81500000D01*
X107071428Y-81452380D01*
X107166666Y-81452380D01*
X107309523Y-81500000D01*
X107357142Y-81547619D01*
X108309523Y-82452380D02*
X107738095Y-82452380D01*
X108023809Y-82452380D02*
X108023809Y-81452380D01*
X107928571Y-81595238D01*
X107833333Y-81690476D01*
X107738095Y-81738095D01*
X109166666Y-81785714D02*
X109166666Y-82452380D01*
X108928571Y-81404761D02*
X108690476Y-82119047D01*
X109309523Y-82119047D01*
X86452380Y-34738095D02*
X85452380Y-34738095D01*
X85452380Y-34500000D01*
X85500000Y-34357142D01*
X85595238Y-34261904D01*
X85690476Y-34214285D01*
X85880952Y-34166666D01*
X86023809Y-34166666D01*
X86214285Y-34214285D01*
X86309523Y-34261904D01*
X86404761Y-34357142D01*
X86452380Y-34500000D01*
X86452380Y-34738095D01*
X85452380Y-33833333D02*
X85452380Y-33166666D01*
X86452380Y-33595238D01*
X70452380Y-36738095D02*
X69452380Y-36738095D01*
X69452380Y-36500000D01*
X69500000Y-36357142D01*
X69595238Y-36261904D01*
X69690476Y-36214285D01*
X69880952Y-36166666D01*
X70023809Y-36166666D01*
X70214285Y-36214285D01*
X70309523Y-36261904D01*
X70404761Y-36357142D01*
X70452380Y-36500000D01*
X70452380Y-36738095D01*
X69880952Y-35595238D02*
X69833333Y-35690476D01*
X69785714Y-35738095D01*
X69690476Y-35785714D01*
X69642857Y-35785714D01*
X69547619Y-35738095D01*
X69500000Y-35690476D01*
X69452380Y-35595238D01*
X69452380Y-35404761D01*
X69500000Y-35309523D01*
X69547619Y-35261904D01*
X69642857Y-35214285D01*
X69690476Y-35214285D01*
X69785714Y-35261904D01*
X69833333Y-35309523D01*
X69880952Y-35404761D01*
X69880952Y-35595238D01*
X69928571Y-35690476D01*
X69976190Y-35738095D01*
X70071428Y-35785714D01*
X70261904Y-35785714D01*
X70357142Y-35738095D01*
X70404761Y-35690476D01*
X70452380Y-35595238D01*
X70452380Y-35404761D01*
X70404761Y-35309523D01*
X70357142Y-35261904D01*
X70261904Y-35214285D01*
X70071428Y-35214285D01*
X69976190Y-35261904D01*
X69928571Y-35309523D01*
X69880952Y-35404761D01*
X61702380Y-37738095D02*
X60702380Y-37738095D01*
X60702380Y-37500000D01*
X60750000Y-37357142D01*
X60845238Y-37261904D01*
X60940476Y-37214285D01*
X61130952Y-37166666D01*
X61273809Y-37166666D01*
X61464285Y-37214285D01*
X61559523Y-37261904D01*
X61654761Y-37357142D01*
X61702380Y-37500000D01*
X61702380Y-37738095D01*
X61702380Y-36690476D02*
X61702380Y-36500000D01*
X61654761Y-36404761D01*
X61607142Y-36357142D01*
X61464285Y-36261904D01*
X61273809Y-36214285D01*
X60892857Y-36214285D01*
X60797619Y-36261904D01*
X60750000Y-36309523D01*
X60702380Y-36404761D01*
X60702380Y-36595238D01*
X60750000Y-36690476D01*
X60797619Y-36738095D01*
X60892857Y-36785714D01*
X61130952Y-36785714D01*
X61226190Y-36738095D01*
X61273809Y-36690476D01*
X61321428Y-36595238D01*
X61321428Y-36404761D01*
X61273809Y-36309523D01*
X61226190Y-36261904D01*
X61130952Y-36214285D01*
X113702380Y-37464285D02*
X112702380Y-37464285D01*
X112702380Y-37226190D01*
X112750000Y-37083333D01*
X112845238Y-36988095D01*
X112940476Y-36940476D01*
X113130952Y-36892857D01*
X113273809Y-36892857D01*
X113464285Y-36940476D01*
X113559523Y-36988095D01*
X113654761Y-37083333D01*
X113702380Y-37226190D01*
X113702380Y-37464285D01*
X112797619Y-36511904D02*
X112750000Y-36464285D01*
X112702380Y-36369047D01*
X112702380Y-36130952D01*
X112750000Y-36035714D01*
X112797619Y-35988095D01*
X112892857Y-35940476D01*
X112988095Y-35940476D01*
X113130952Y-35988095D01*
X113702380Y-36559523D01*
X113702380Y-35940476D01*
X112797619Y-35559523D02*
X112750000Y-35511904D01*
X112702380Y-35416666D01*
X112702380Y-35178571D01*
X112750000Y-35083333D01*
X112797619Y-35035714D01*
X112892857Y-34988095D01*
X112988095Y-34988095D01*
X113130952Y-35035714D01*
X113702380Y-35607142D01*
X113702380Y-34988095D01*
X49452380Y-120714285D02*
X48452380Y-120714285D01*
X48452380Y-120476190D01*
X48500000Y-120333333D01*
X48595238Y-120238095D01*
X48690476Y-120190476D01*
X48880952Y-120142857D01*
X49023809Y-120142857D01*
X49214285Y-120190476D01*
X49309523Y-120238095D01*
X49404761Y-120333333D01*
X49452380Y-120476190D01*
X49452380Y-120714285D01*
X49452380Y-119190476D02*
X49452380Y-119761904D01*
X49452380Y-119476190D02*
X48452380Y-119476190D01*
X48595238Y-119571428D01*
X48690476Y-119666666D01*
X48738095Y-119761904D01*
X48452380Y-118857142D02*
X48452380Y-118238095D01*
X48833333Y-118571428D01*
X48833333Y-118428571D01*
X48880952Y-118333333D01*
X48928571Y-118285714D01*
X49023809Y-118238095D01*
X49261904Y-118238095D01*
X49357142Y-118285714D01*
X49404761Y-118333333D01*
X49452380Y-118428571D01*
X49452380Y-118714285D01*
X49404761Y-118809523D01*
X49357142Y-118857142D01*
X69452380Y-120714285D02*
X68452380Y-120714285D01*
X68452380Y-120476190D01*
X68500000Y-120333333D01*
X68595238Y-120238095D01*
X68690476Y-120190476D01*
X68880952Y-120142857D01*
X69023809Y-120142857D01*
X69214285Y-120190476D01*
X69309523Y-120238095D01*
X69404761Y-120333333D01*
X69452380Y-120476190D01*
X69452380Y-120714285D01*
X69452380Y-119190476D02*
X69452380Y-119761904D01*
X69452380Y-119476190D02*
X68452380Y-119476190D01*
X68595238Y-119571428D01*
X68690476Y-119666666D01*
X68738095Y-119761904D01*
X68452380Y-118857142D02*
X68452380Y-118190476D01*
X69452380Y-118619047D01*
X59452380Y-120714285D02*
X58452380Y-120714285D01*
X58452380Y-120476190D01*
X58500000Y-120333333D01*
X58595238Y-120238095D01*
X58690476Y-120190476D01*
X58880952Y-120142857D01*
X59023809Y-120142857D01*
X59214285Y-120190476D01*
X59309523Y-120238095D01*
X59404761Y-120333333D01*
X59452380Y-120476190D01*
X59452380Y-120714285D01*
X59452380Y-119190476D02*
X59452380Y-119761904D01*
X59452380Y-119476190D02*
X58452380Y-119476190D01*
X58595238Y-119571428D01*
X58690476Y-119666666D01*
X58738095Y-119761904D01*
X58785714Y-118333333D02*
X59452380Y-118333333D01*
X58404761Y-118571428D02*
X59119047Y-118809523D01*
X59119047Y-118190476D01*
X79452380Y-120714285D02*
X78452380Y-120714285D01*
X78452380Y-120476190D01*
X78500000Y-120333333D01*
X78595238Y-120238095D01*
X78690476Y-120190476D01*
X78880952Y-120142857D01*
X79023809Y-120142857D01*
X79214285Y-120190476D01*
X79309523Y-120238095D01*
X79404761Y-120333333D01*
X79452380Y-120476190D01*
X79452380Y-120714285D01*
X79452380Y-119190476D02*
X79452380Y-119761904D01*
X79452380Y-119476190D02*
X78452380Y-119476190D01*
X78595238Y-119571428D01*
X78690476Y-119666666D01*
X78738095Y-119761904D01*
X78880952Y-118619047D02*
X78833333Y-118714285D01*
X78785714Y-118761904D01*
X78690476Y-118809523D01*
X78642857Y-118809523D01*
X78547619Y-118761904D01*
X78500000Y-118714285D01*
X78452380Y-118619047D01*
X78452380Y-118428571D01*
X78500000Y-118333333D01*
X78547619Y-118285714D01*
X78642857Y-118238095D01*
X78690476Y-118238095D01*
X78785714Y-118285714D01*
X78833333Y-118333333D01*
X78880952Y-118428571D01*
X78880952Y-118619047D01*
X78928571Y-118714285D01*
X78976190Y-118761904D01*
X79071428Y-118809523D01*
X79261904Y-118809523D01*
X79357142Y-118761904D01*
X79404761Y-118714285D01*
X79452380Y-118619047D01*
X79452380Y-118428571D01*
X79404761Y-118333333D01*
X79357142Y-118285714D01*
X79261904Y-118238095D01*
X79071428Y-118238095D01*
X78976190Y-118285714D01*
X78928571Y-118333333D01*
X78880952Y-118428571D01*
X103952380Y-66214285D02*
X102952380Y-66214285D01*
X102952380Y-65976190D01*
X103000000Y-65833333D01*
X103095238Y-65738095D01*
X103190476Y-65690476D01*
X103380952Y-65642857D01*
X103523809Y-65642857D01*
X103714285Y-65690476D01*
X103809523Y-65738095D01*
X103904761Y-65833333D01*
X103952380Y-65976190D01*
X103952380Y-66214285D01*
X103952380Y-64690476D02*
X103952380Y-65261904D01*
X103952380Y-64976190D02*
X102952380Y-64976190D01*
X103095238Y-65071428D01*
X103190476Y-65166666D01*
X103238095Y-65261904D01*
X102952380Y-64071428D02*
X102952380Y-63976190D01*
X103000000Y-63880952D01*
X103047619Y-63833333D01*
X103142857Y-63785714D01*
X103333333Y-63738095D01*
X103571428Y-63738095D01*
X103761904Y-63785714D01*
X103857142Y-63833333D01*
X103904761Y-63880952D01*
X103952380Y-63976190D01*
X103952380Y-64071428D01*
X103904761Y-64166666D01*
X103857142Y-64214285D01*
X103761904Y-64261904D01*
X103571428Y-64309523D01*
X103333333Y-64309523D01*
X103142857Y-64261904D01*
X103047619Y-64214285D01*
X103000000Y-64166666D01*
X102952380Y-64071428D01*
X103952380Y-92214285D02*
X102952380Y-92214285D01*
X102952380Y-91976190D01*
X103000000Y-91833333D01*
X103095238Y-91738095D01*
X103190476Y-91690476D01*
X103380952Y-91642857D01*
X103523809Y-91642857D01*
X103714285Y-91690476D01*
X103809523Y-91738095D01*
X103904761Y-91833333D01*
X103952380Y-91976190D01*
X103952380Y-92214285D01*
X103047619Y-91261904D02*
X103000000Y-91214285D01*
X102952380Y-91119047D01*
X102952380Y-90880952D01*
X103000000Y-90785714D01*
X103047619Y-90738095D01*
X103142857Y-90690476D01*
X103238095Y-90690476D01*
X103380952Y-90738095D01*
X103952380Y-91309523D01*
X103952380Y-90690476D01*
X103952380Y-89738095D02*
X103952380Y-90309523D01*
X103952380Y-90023809D02*
X102952380Y-90023809D01*
X103095238Y-90119047D01*
X103190476Y-90214285D01*
X103238095Y-90309523D01*
X94285714Y-67202380D02*
X94285714Y-66202380D01*
X94523809Y-66202380D01*
X94666666Y-66250000D01*
X94761904Y-66345238D01*
X94809523Y-66440476D01*
X94857142Y-66630952D01*
X94857142Y-66773809D01*
X94809523Y-66964285D01*
X94761904Y-67059523D01*
X94666666Y-67154761D01*
X94523809Y-67202380D01*
X94285714Y-67202380D01*
X95809523Y-67202380D02*
X95238095Y-67202380D01*
X95523809Y-67202380D02*
X95523809Y-66202380D01*
X95428571Y-66345238D01*
X95333333Y-66440476D01*
X95238095Y-66488095D01*
X96761904Y-67202380D02*
X96190476Y-67202380D01*
X96476190Y-67202380D02*
X96476190Y-66202380D01*
X96380952Y-66345238D01*
X96285714Y-66440476D01*
X96190476Y-66488095D01*
X94285714Y-80702380D02*
X94285714Y-79702380D01*
X94523809Y-79702380D01*
X94666666Y-79750000D01*
X94761904Y-79845238D01*
X94809523Y-79940476D01*
X94857142Y-80130952D01*
X94857142Y-80273809D01*
X94809523Y-80464285D01*
X94761904Y-80559523D01*
X94666666Y-80654761D01*
X94523809Y-80702380D01*
X94285714Y-80702380D01*
X95238095Y-79797619D02*
X95285714Y-79750000D01*
X95380952Y-79702380D01*
X95619047Y-79702380D01*
X95714285Y-79750000D01*
X95761904Y-79797619D01*
X95809523Y-79892857D01*
X95809523Y-79988095D01*
X95761904Y-80130952D01*
X95190476Y-80702380D01*
X95809523Y-80702380D01*
X96428571Y-79702380D02*
X96523809Y-79702380D01*
X96619047Y-79750000D01*
X96666666Y-79797619D01*
X96714285Y-79892857D01*
X96761904Y-80083333D01*
X96761904Y-80321428D01*
X96714285Y-80511904D01*
X96666666Y-80607142D01*
X96619047Y-80654761D01*
X96523809Y-80702380D01*
X96428571Y-80702380D01*
X96333333Y-80654761D01*
X96285714Y-80607142D01*
X96238095Y-80511904D01*
X96190476Y-80321428D01*
X96190476Y-80083333D01*
X96238095Y-79892857D01*
X96285714Y-79797619D01*
X96333333Y-79750000D01*
X96428571Y-79702380D01*
X110452380Y-69714285D02*
X109452380Y-69714285D01*
X109452380Y-69476190D01*
X109500000Y-69333333D01*
X109595238Y-69238095D01*
X109690476Y-69190476D01*
X109880952Y-69142857D01*
X110023809Y-69142857D01*
X110214285Y-69190476D01*
X110309523Y-69238095D01*
X110404761Y-69333333D01*
X110452380Y-69476190D01*
X110452380Y-69714285D01*
X110452380Y-68190476D02*
X110452380Y-68761904D01*
X110452380Y-68476190D02*
X109452380Y-68476190D01*
X109595238Y-68571428D01*
X109690476Y-68666666D01*
X109738095Y-68761904D01*
X109452380Y-67285714D02*
X109452380Y-67761904D01*
X109928571Y-67809523D01*
X109880952Y-67761904D01*
X109833333Y-67666666D01*
X109833333Y-67428571D01*
X109880952Y-67333333D01*
X109928571Y-67285714D01*
X110023809Y-67238095D01*
X110261904Y-67238095D01*
X110357142Y-67285714D01*
X110404761Y-67333333D01*
X110452380Y-67428571D01*
X110452380Y-67666666D01*
X110404761Y-67761904D01*
X110357142Y-67809523D01*
X110452380Y-88714285D02*
X109452380Y-88714285D01*
X109452380Y-88476190D01*
X109500000Y-88333333D01*
X109595238Y-88238095D01*
X109690476Y-88190476D01*
X109880952Y-88142857D01*
X110023809Y-88142857D01*
X110214285Y-88190476D01*
X110309523Y-88238095D01*
X110404761Y-88333333D01*
X110452380Y-88476190D01*
X110452380Y-88714285D01*
X110452380Y-87190476D02*
X110452380Y-87761904D01*
X110452380Y-87476190D02*
X109452380Y-87476190D01*
X109595238Y-87571428D01*
X109690476Y-87666666D01*
X109738095Y-87761904D01*
X109452380Y-86333333D02*
X109452380Y-86523809D01*
X109500000Y-86619047D01*
X109547619Y-86666666D01*
X109690476Y-86761904D01*
X109880952Y-86809523D01*
X110261904Y-86809523D01*
X110357142Y-86761904D01*
X110404761Y-86714285D01*
X110452380Y-86619047D01*
X110452380Y-86428571D01*
X110404761Y-86333333D01*
X110357142Y-86285714D01*
X110261904Y-86238095D01*
X110023809Y-86238095D01*
X109928571Y-86285714D01*
X109880952Y-86333333D01*
X109833333Y-86428571D01*
X109833333Y-86619047D01*
X109880952Y-86714285D01*
X109928571Y-86761904D01*
X110023809Y-86809523D01*
X115535714Y-67952380D02*
X115535714Y-66952380D01*
X115773809Y-66952380D01*
X115916666Y-67000000D01*
X116011904Y-67095238D01*
X116059523Y-67190476D01*
X116107142Y-67380952D01*
X116107142Y-67523809D01*
X116059523Y-67714285D01*
X116011904Y-67809523D01*
X115916666Y-67904761D01*
X115773809Y-67952380D01*
X115535714Y-67952380D01*
X117059523Y-67952380D02*
X116488095Y-67952380D01*
X116773809Y-67952380D02*
X116773809Y-66952380D01*
X116678571Y-67095238D01*
X116583333Y-67190476D01*
X116488095Y-67238095D01*
X117440476Y-67047619D02*
X117488095Y-67000000D01*
X117583333Y-66952380D01*
X117821428Y-66952380D01*
X117916666Y-67000000D01*
X117964285Y-67047619D01*
X118011904Y-67142857D01*
X118011904Y-67238095D01*
X117964285Y-67380952D01*
X117392857Y-67952380D01*
X118011904Y-67952380D01*
X114785714Y-88952380D02*
X114785714Y-87952380D01*
X115023809Y-87952380D01*
X115166666Y-88000000D01*
X115261904Y-88095238D01*
X115309523Y-88190476D01*
X115357142Y-88380952D01*
X115357142Y-88523809D01*
X115309523Y-88714285D01*
X115261904Y-88809523D01*
X115166666Y-88904761D01*
X115023809Y-88952380D01*
X114785714Y-88952380D01*
X116309523Y-88952380D02*
X115738095Y-88952380D01*
X116023809Y-88952380D02*
X116023809Y-87952380D01*
X115928571Y-88095238D01*
X115833333Y-88190476D01*
X115738095Y-88238095D01*
X116785714Y-88952380D02*
X116976190Y-88952380D01*
X117071428Y-88904761D01*
X117119047Y-88857142D01*
X117214285Y-88714285D01*
X117261904Y-88523809D01*
X117261904Y-88142857D01*
X117214285Y-88047619D01*
X117166666Y-88000000D01*
X117071428Y-87952380D01*
X116880952Y-87952380D01*
X116785714Y-88000000D01*
X116738095Y-88047619D01*
X116690476Y-88142857D01*
X116690476Y-88380952D01*
X116738095Y-88476190D01*
X116785714Y-88523809D01*
X116880952Y-88571428D01*
X117071428Y-88571428D01*
X117166666Y-88523809D01*
X117214285Y-88476190D01*
X117261904Y-88380952D01*
X71621269Y-72356971D02*
X71284551Y-72693689D01*
X70577445Y-71986582D01*
X72227361Y-71750880D02*
X71823300Y-72154941D01*
X72025330Y-71952910D02*
X71318223Y-71245803D01*
X71351895Y-71414162D01*
X71351895Y-71548849D01*
X71318223Y-71649864D01*
X67823095Y-72195347D02*
X67115989Y-71488240D01*
X67385363Y-71218866D01*
X67486378Y-71185194D01*
X67553721Y-71185194D01*
X67654737Y-71218866D01*
X67755752Y-71319881D01*
X67789424Y-71420897D01*
X67789424Y-71488240D01*
X67755752Y-71589255D01*
X67486378Y-71858629D01*
X68530202Y-71488240D02*
X67823095Y-70781133D01*
X68563874Y-71050507D01*
X68294500Y-70309729D01*
X69001607Y-71016836D01*
X68563874Y-70040355D02*
X69001607Y-69602622D01*
X69035278Y-70107698D01*
X69136294Y-70006683D01*
X69237309Y-69973011D01*
X69304652Y-69973011D01*
X69405668Y-70006683D01*
X69574027Y-70175042D01*
X69607698Y-70276057D01*
X69607698Y-70343401D01*
X69574027Y-70444416D01*
X69371996Y-70646446D01*
X69270981Y-70680118D01*
X69203637Y-70680118D01*
X69237309Y-69366920D02*
X69708714Y-68895515D01*
X70112775Y-69905668D01*
X70112775Y-68491454D02*
X70180118Y-68424111D01*
X70281133Y-68390439D01*
X70348477Y-68390439D01*
X70449492Y-68424111D01*
X70617851Y-68525126D01*
X70786210Y-68693485D01*
X70887225Y-68861843D01*
X70920897Y-68962859D01*
X70920897Y-69030202D01*
X70887225Y-69131217D01*
X70819881Y-69198561D01*
X70718866Y-69232233D01*
X70651523Y-69232233D01*
X70550507Y-69198561D01*
X70382149Y-69097546D01*
X70213790Y-68929187D01*
X70112775Y-68760828D01*
X70079103Y-68659813D01*
X70079103Y-68592469D01*
X70112775Y-68491454D01*
X70786210Y-67818019D02*
X70853553Y-67750676D01*
X70954568Y-67717004D01*
X71021912Y-67717004D01*
X71122927Y-67750676D01*
X71291286Y-67851691D01*
X71459645Y-68020050D01*
X71560660Y-68188408D01*
X71594332Y-68289424D01*
X71594332Y-68356767D01*
X71560660Y-68457782D01*
X71493316Y-68525126D01*
X71392301Y-68558798D01*
X71324958Y-68558798D01*
X71223942Y-68525126D01*
X71055584Y-68424111D01*
X70887225Y-68255752D01*
X70786210Y-68087393D01*
X70752538Y-67986378D01*
X70752538Y-67919034D01*
X70786210Y-67818019D01*
X80904761Y-40547619D02*
X80809523Y-40500000D01*
X80714285Y-40404761D01*
X80571428Y-40261904D01*
X80476190Y-40214285D01*
X80380952Y-40214285D01*
X80428571Y-40452380D02*
X80333333Y-40404761D01*
X80238095Y-40309523D01*
X80190476Y-40119047D01*
X80190476Y-39785714D01*
X80238095Y-39595238D01*
X80333333Y-39500000D01*
X80428571Y-39452380D01*
X80619047Y-39452380D01*
X80714285Y-39500000D01*
X80809523Y-39595238D01*
X80857142Y-39785714D01*
X80857142Y-40119047D01*
X80809523Y-40309523D01*
X80714285Y-40404761D01*
X80619047Y-40452380D01*
X80428571Y-40452380D01*
X81809523Y-40452380D02*
X81238095Y-40452380D01*
X81523809Y-40452380D02*
X81523809Y-39452380D01*
X81428571Y-39595238D01*
X81333333Y-39690476D01*
X81238095Y-39738095D01*
X89833333Y-34502380D02*
X89500000Y-34026190D01*
X89261904Y-34502380D02*
X89261904Y-33502380D01*
X89642857Y-33502380D01*
X89738095Y-33550000D01*
X89785714Y-33597619D01*
X89833333Y-33692857D01*
X89833333Y-33835714D01*
X89785714Y-33930952D01*
X89738095Y-33978571D01*
X89642857Y-34026190D01*
X89261904Y-34026190D01*
X90309523Y-34502380D02*
X90500000Y-34502380D01*
X90595238Y-34454761D01*
X90642857Y-34407142D01*
X90738095Y-34264285D01*
X90785714Y-34073809D01*
X90785714Y-33692857D01*
X90738095Y-33597619D01*
X90690476Y-33550000D01*
X90595238Y-33502380D01*
X90404761Y-33502380D01*
X90309523Y-33550000D01*
X90261904Y-33597619D01*
X90214285Y-33692857D01*
X90214285Y-33930952D01*
X90261904Y-34026190D01*
X90309523Y-34073809D01*
X90404761Y-34121428D01*
X90595238Y-34121428D01*
X90690476Y-34073809D01*
X90738095Y-34026190D01*
X90785714Y-33930952D01*
X69607142Y-27202380D02*
X69273809Y-26726190D01*
X69035714Y-27202380D02*
X69035714Y-26202380D01*
X69416666Y-26202380D01*
X69511904Y-26250000D01*
X69559523Y-26297619D01*
X69607142Y-26392857D01*
X69607142Y-26535714D01*
X69559523Y-26630952D01*
X69511904Y-26678571D01*
X69416666Y-26726190D01*
X69035714Y-26726190D01*
X70559523Y-27202380D02*
X69988095Y-27202380D01*
X70273809Y-27202380D02*
X70273809Y-26202380D01*
X70178571Y-26345238D01*
X70083333Y-26440476D01*
X69988095Y-26488095D01*
X71464285Y-26202380D02*
X70988095Y-26202380D01*
X70940476Y-26678571D01*
X70988095Y-26630952D01*
X71083333Y-26583333D01*
X71321428Y-26583333D01*
X71416666Y-26630952D01*
X71464285Y-26678571D01*
X71511904Y-26773809D01*
X71511904Y-27011904D01*
X71464285Y-27107142D01*
X71416666Y-27154761D01*
X71321428Y-27202380D01*
X71083333Y-27202380D01*
X70988095Y-27154761D01*
X70940476Y-27107142D01*
X82107142Y-32202380D02*
X81773809Y-31726190D01*
X81535714Y-32202380D02*
X81535714Y-31202380D01*
X81916666Y-31202380D01*
X82011904Y-31250000D01*
X82059523Y-31297619D01*
X82107142Y-31392857D01*
X82107142Y-31535714D01*
X82059523Y-31630952D01*
X82011904Y-31678571D01*
X81916666Y-31726190D01*
X81535714Y-31726190D01*
X83059523Y-32202380D02*
X82488095Y-32202380D01*
X82773809Y-32202380D02*
X82773809Y-31202380D01*
X82678571Y-31345238D01*
X82583333Y-31440476D01*
X82488095Y-31488095D01*
X83678571Y-31202380D02*
X83773809Y-31202380D01*
X83869047Y-31250000D01*
X83916666Y-31297619D01*
X83964285Y-31392857D01*
X84011904Y-31583333D01*
X84011904Y-31821428D01*
X83964285Y-32011904D01*
X83916666Y-32107142D01*
X83869047Y-32154761D01*
X83773809Y-32202380D01*
X83678571Y-32202380D01*
X83583333Y-32154761D01*
X83535714Y-32107142D01*
X83488095Y-32011904D01*
X83440476Y-31821428D01*
X83440476Y-31583333D01*
X83488095Y-31392857D01*
X83535714Y-31297619D01*
X83583333Y-31250000D01*
X83678571Y-31202380D01*
X79357142Y-32202380D02*
X79023809Y-31726190D01*
X78785714Y-32202380D02*
X78785714Y-31202380D01*
X79166666Y-31202380D01*
X79261904Y-31250000D01*
X79309523Y-31297619D01*
X79357142Y-31392857D01*
X79357142Y-31535714D01*
X79309523Y-31630952D01*
X79261904Y-31678571D01*
X79166666Y-31726190D01*
X78785714Y-31726190D01*
X80309523Y-32202380D02*
X79738095Y-32202380D01*
X80023809Y-32202380D02*
X80023809Y-31202380D01*
X79928571Y-31345238D01*
X79833333Y-31440476D01*
X79738095Y-31488095D01*
X81166666Y-31535714D02*
X81166666Y-32202380D01*
X80928571Y-31154761D02*
X80690476Y-31869047D01*
X81309523Y-31869047D01*
X112857142Y-27202380D02*
X112523809Y-26726190D01*
X112285714Y-27202380D02*
X112285714Y-26202380D01*
X112666666Y-26202380D01*
X112761904Y-26250000D01*
X112809523Y-26297619D01*
X112857142Y-26392857D01*
X112857142Y-26535714D01*
X112809523Y-26630952D01*
X112761904Y-26678571D01*
X112666666Y-26726190D01*
X112285714Y-26726190D01*
X113190476Y-26202380D02*
X113809523Y-26202380D01*
X113476190Y-26583333D01*
X113619047Y-26583333D01*
X113714285Y-26630952D01*
X113761904Y-26678571D01*
X113809523Y-26773809D01*
X113809523Y-27011904D01*
X113761904Y-27107142D01*
X113714285Y-27154761D01*
X113619047Y-27202380D01*
X113333333Y-27202380D01*
X113238095Y-27154761D01*
X113190476Y-27107142D01*
X114428571Y-26202380D02*
X114523809Y-26202380D01*
X114619047Y-26250000D01*
X114666666Y-26297619D01*
X114714285Y-26392857D01*
X114761904Y-26583333D01*
X114761904Y-26821428D01*
X114714285Y-27011904D01*
X114666666Y-27107142D01*
X114619047Y-27154761D01*
X114523809Y-27202380D01*
X114428571Y-27202380D01*
X114333333Y-27154761D01*
X114285714Y-27107142D01*
X114238095Y-27011904D01*
X114190476Y-26821428D01*
X114190476Y-26583333D01*
X114238095Y-26392857D01*
X114285714Y-26297619D01*
X114333333Y-26250000D01*
X114428571Y-26202380D01*
X93857142Y-73452380D02*
X93523809Y-72976190D01*
X93285714Y-73452380D02*
X93285714Y-72452380D01*
X93666666Y-72452380D01*
X93761904Y-72500000D01*
X93809523Y-72547619D01*
X93857142Y-72642857D01*
X93857142Y-72785714D01*
X93809523Y-72880952D01*
X93761904Y-72928571D01*
X93666666Y-72976190D01*
X93285714Y-72976190D01*
X94238095Y-72547619D02*
X94285714Y-72500000D01*
X94380952Y-72452380D01*
X94619047Y-72452380D01*
X94714285Y-72500000D01*
X94761904Y-72547619D01*
X94809523Y-72642857D01*
X94809523Y-72738095D01*
X94761904Y-72880952D01*
X94190476Y-73452380D01*
X94809523Y-73452380D01*
X95428571Y-72452380D02*
X95523809Y-72452380D01*
X95619047Y-72500000D01*
X95666666Y-72547619D01*
X95714285Y-72642857D01*
X95761904Y-72833333D01*
X95761904Y-73071428D01*
X95714285Y-73261904D01*
X95666666Y-73357142D01*
X95619047Y-73404761D01*
X95523809Y-73452380D01*
X95428571Y-73452380D01*
X95333333Y-73404761D01*
X95285714Y-73357142D01*
X95238095Y-73261904D01*
X95190476Y-73071428D01*
X95190476Y-72833333D01*
X95238095Y-72642857D01*
X95285714Y-72547619D01*
X95333333Y-72500000D01*
X95428571Y-72452380D01*
X93857142Y-84952380D02*
X93523809Y-84476190D01*
X93285714Y-84952380D02*
X93285714Y-83952380D01*
X93666666Y-83952380D01*
X93761904Y-84000000D01*
X93809523Y-84047619D01*
X93857142Y-84142857D01*
X93857142Y-84285714D01*
X93809523Y-84380952D01*
X93761904Y-84428571D01*
X93666666Y-84476190D01*
X93285714Y-84476190D01*
X94238095Y-84047619D02*
X94285714Y-84000000D01*
X94380952Y-83952380D01*
X94619047Y-83952380D01*
X94714285Y-84000000D01*
X94761904Y-84047619D01*
X94809523Y-84142857D01*
X94809523Y-84238095D01*
X94761904Y-84380952D01*
X94190476Y-84952380D01*
X94809523Y-84952380D01*
X95142857Y-83952380D02*
X95761904Y-83952380D01*
X95428571Y-84333333D01*
X95571428Y-84333333D01*
X95666666Y-84380952D01*
X95714285Y-84428571D01*
X95761904Y-84523809D01*
X95761904Y-84761904D01*
X95714285Y-84857142D01*
X95666666Y-84904761D01*
X95571428Y-84952380D01*
X95285714Y-84952380D01*
X95190476Y-84904761D01*
X95142857Y-84857142D01*
X93857142Y-71592379D02*
X93523809Y-71116189D01*
X93285714Y-71592379D02*
X93285714Y-70592379D01*
X93666666Y-70592379D01*
X93761904Y-70639999D01*
X93809523Y-70687618D01*
X93857142Y-70782856D01*
X93857142Y-70925713D01*
X93809523Y-71020951D01*
X93761904Y-71068570D01*
X93666666Y-71116189D01*
X93285714Y-71116189D01*
X94238095Y-70687618D02*
X94285714Y-70639999D01*
X94380952Y-70592379D01*
X94619047Y-70592379D01*
X94714285Y-70639999D01*
X94761904Y-70687618D01*
X94809523Y-70782856D01*
X94809523Y-70878094D01*
X94761904Y-71020951D01*
X94190476Y-71592379D01*
X94809523Y-71592379D01*
X95761904Y-71592379D02*
X95190476Y-71592379D01*
X95476190Y-71592379D02*
X95476190Y-70592379D01*
X95380952Y-70735237D01*
X95285714Y-70830475D01*
X95190476Y-70878094D01*
X93857142Y-86952380D02*
X93523809Y-86476190D01*
X93285714Y-86952380D02*
X93285714Y-85952380D01*
X93666666Y-85952380D01*
X93761904Y-86000000D01*
X93809523Y-86047619D01*
X93857142Y-86142857D01*
X93857142Y-86285714D01*
X93809523Y-86380952D01*
X93761904Y-86428571D01*
X93666666Y-86476190D01*
X93285714Y-86476190D01*
X94238095Y-86047619D02*
X94285714Y-86000000D01*
X94380952Y-85952380D01*
X94619047Y-85952380D01*
X94714285Y-86000000D01*
X94761904Y-86047619D01*
X94809523Y-86142857D01*
X94809523Y-86238095D01*
X94761904Y-86380952D01*
X94190476Y-86952380D01*
X94809523Y-86952380D01*
X95666666Y-86285714D02*
X95666666Y-86952380D01*
X95428571Y-85904761D02*
X95190476Y-86619047D01*
X95809523Y-86619047D01*
X98952380Y-65392857D02*
X98476190Y-65726190D01*
X98952380Y-65964285D02*
X97952380Y-65964285D01*
X97952380Y-65583333D01*
X98000000Y-65488095D01*
X98047619Y-65440476D01*
X98142857Y-65392857D01*
X98285714Y-65392857D01*
X98380952Y-65440476D01*
X98428571Y-65488095D01*
X98476190Y-65583333D01*
X98476190Y-65964285D01*
X98952380Y-64440476D02*
X98952380Y-65011904D01*
X98952380Y-64726190D02*
X97952380Y-64726190D01*
X98095238Y-64821428D01*
X98190476Y-64916666D01*
X98238095Y-65011904D01*
X98380952Y-63869047D02*
X98333333Y-63964285D01*
X98285714Y-64011904D01*
X98190476Y-64059523D01*
X98142857Y-64059523D01*
X98047619Y-64011904D01*
X98000000Y-63964285D01*
X97952380Y-63869047D01*
X97952380Y-63678571D01*
X98000000Y-63583333D01*
X98047619Y-63535714D01*
X98142857Y-63488095D01*
X98190476Y-63488095D01*
X98285714Y-63535714D01*
X98333333Y-63583333D01*
X98380952Y-63678571D01*
X98380952Y-63869047D01*
X98428571Y-63964285D01*
X98476190Y-64011904D01*
X98571428Y-64059523D01*
X98761904Y-64059523D01*
X98857142Y-64011904D01*
X98904761Y-63964285D01*
X98952380Y-63869047D01*
X98952380Y-63678571D01*
X98904761Y-63583333D01*
X98857142Y-63535714D01*
X98761904Y-63488095D01*
X98571428Y-63488095D01*
X98476190Y-63535714D01*
X98428571Y-63583333D01*
X98380952Y-63678571D01*
X98952380Y-79142857D02*
X98476190Y-79476190D01*
X98952380Y-79714285D02*
X97952380Y-79714285D01*
X97952380Y-79333333D01*
X98000000Y-79238095D01*
X98047619Y-79190476D01*
X98142857Y-79142857D01*
X98285714Y-79142857D01*
X98380952Y-79190476D01*
X98428571Y-79238095D01*
X98476190Y-79333333D01*
X98476190Y-79714285D01*
X98047619Y-78761904D02*
X98000000Y-78714285D01*
X97952380Y-78619047D01*
X97952380Y-78380952D01*
X98000000Y-78285714D01*
X98047619Y-78238095D01*
X98142857Y-78190476D01*
X98238095Y-78190476D01*
X98380952Y-78238095D01*
X98952380Y-78809523D01*
X98952380Y-78190476D01*
X98380952Y-77619047D02*
X98333333Y-77714285D01*
X98285714Y-77761904D01*
X98190476Y-77809523D01*
X98142857Y-77809523D01*
X98047619Y-77761904D01*
X98000000Y-77714285D01*
X97952380Y-77619047D01*
X97952380Y-77428571D01*
X98000000Y-77333333D01*
X98047619Y-77285714D01*
X98142857Y-77238095D01*
X98190476Y-77238095D01*
X98285714Y-77285714D01*
X98333333Y-77333333D01*
X98380952Y-77428571D01*
X98380952Y-77619047D01*
X98428571Y-77714285D01*
X98476190Y-77761904D01*
X98571428Y-77809523D01*
X98761904Y-77809523D01*
X98857142Y-77761904D01*
X98904761Y-77714285D01*
X98952380Y-77619047D01*
X98952380Y-77428571D01*
X98904761Y-77333333D01*
X98857142Y-77285714D01*
X98761904Y-77238095D01*
X98571428Y-77238095D01*
X98476190Y-77285714D01*
X98428571Y-77333333D01*
X98380952Y-77428571D01*
X119557142Y-67852380D02*
X119223809Y-67376190D01*
X118985714Y-67852380D02*
X118985714Y-66852380D01*
X119366666Y-66852380D01*
X119461904Y-66900000D01*
X119509523Y-66947619D01*
X119557142Y-67042857D01*
X119557142Y-67185714D01*
X119509523Y-67280952D01*
X119461904Y-67328571D01*
X119366666Y-67376190D01*
X118985714Y-67376190D01*
X119938095Y-66947619D02*
X119985714Y-66900000D01*
X120080952Y-66852380D01*
X120319047Y-66852380D01*
X120414285Y-66900000D01*
X120461904Y-66947619D01*
X120509523Y-67042857D01*
X120509523Y-67138095D01*
X120461904Y-67280952D01*
X119890476Y-67852380D01*
X120509523Y-67852380D01*
X120890476Y-66947619D02*
X120938095Y-66900000D01*
X121033333Y-66852380D01*
X121271428Y-66852380D01*
X121366666Y-66900000D01*
X121414285Y-66947619D01*
X121461904Y-67042857D01*
X121461904Y-67138095D01*
X121414285Y-67280952D01*
X120842857Y-67852380D01*
X121461904Y-67852380D01*
X119657142Y-89052380D02*
X119323809Y-88576190D01*
X119085714Y-89052380D02*
X119085714Y-88052380D01*
X119466666Y-88052380D01*
X119561904Y-88100000D01*
X119609523Y-88147619D01*
X119657142Y-88242857D01*
X119657142Y-88385714D01*
X119609523Y-88480952D01*
X119561904Y-88528571D01*
X119466666Y-88576190D01*
X119085714Y-88576190D01*
X120038095Y-88147619D02*
X120085714Y-88100000D01*
X120180952Y-88052380D01*
X120419047Y-88052380D01*
X120514285Y-88100000D01*
X120561904Y-88147619D01*
X120609523Y-88242857D01*
X120609523Y-88338095D01*
X120561904Y-88480952D01*
X119990476Y-89052380D01*
X120609523Y-89052380D01*
X121514285Y-88052380D02*
X121038095Y-88052380D01*
X120990476Y-88528571D01*
X121038095Y-88480952D01*
X121133333Y-88433333D01*
X121371428Y-88433333D01*
X121466666Y-88480952D01*
X121514285Y-88528571D01*
X121561904Y-88623809D01*
X121561904Y-88861904D01*
X121514285Y-88957142D01*
X121466666Y-89004761D01*
X121371428Y-89052380D01*
X121133333Y-89052380D01*
X121038095Y-89004761D01*
X120990476Y-88957142D01*
M02*
