G04 #@! TF.GenerationSoftware,KiCad,Pcbnew,5.1.5+dfsg1-2build2*
G04 #@! TF.CreationDate,2021-10-26T23:54:15+10:30*
G04 #@! TF.ProjectId,xover-psu,786f7665-722d-4707-9375-2e6b69636164,rev?*
G04 #@! TF.SameCoordinates,Original*
G04 #@! TF.FileFunction,Copper,L1,Top*
G04 #@! TF.FilePolarity,Positive*
%FSLAX46Y46*%
G04 Gerber Fmt 4.6, Leading zero omitted, Abs format (unit mm)*
G04 Created by KiCad (PCBNEW 5.1.5+dfsg1-2build2) date 2021-10-26 23:54:15*
%MOMM*%
%LPD*%
G04 APERTURE LIST*
%ADD10C,1.500000*%
%ADD11R,1.600000X1.600000*%
%ADD12O,1.600000X1.600000*%
%ADD13R,0.800000X0.900000*%
%ADD14R,0.700000X1.300000*%
%ADD15R,1.300000X0.700000*%
%ADD16C,2.500000*%
%ADD17R,2.500000X2.500000*%
%ADD18C,6.000000*%
%ADD19C,2.999740*%
%ADD20R,1.300000X1.700000*%
%ADD21R,1.700000X1.300000*%
%ADD22R,1.200000X1.200000*%
%ADD23R,1.000000X2.500000*%
%ADD24R,2.500000X4.000000*%
%ADD25C,0.100000*%
%ADD26R,1.800000X2.500000*%
%ADD27C,5.600000*%
%ADD28C,2.350000*%
%ADD29R,1.000000X1.250000*%
%ADD30R,2.500000X1.800000*%
%ADD31C,2.400000*%
%ADD32R,1.250000X1.000000*%
%ADD33R,2.500000X2.000000*%
%ADD34C,1.600000*%
%ADD35C,4.000000*%
%ADD36C,1.800000*%
%ADD37R,1.800000X1.800000*%
%ADD38O,1.800000X1.800000*%
%ADD39C,0.800000*%
%ADD40C,0.250000*%
%ADD41C,1.000000*%
%ADD42C,2.000000*%
%ADD43C,2.500000*%
%ADD44C,3.000000*%
%ADD45C,0.254000*%
G04 APERTURE END LIST*
D10*
X30000000Y-124000000D02*
G75*
G02X26000000Y-120000000I0J4000000D01*
G01*
X124000000Y-120000000D02*
G75*
G02X120000000Y-124000000I-4000000J0D01*
G01*
X120000000Y-26000000D02*
G75*
G02X124000000Y-30000000I0J-4000000D01*
G01*
X26000000Y-30000000D02*
G75*
G02X30000000Y-26000000I4000000J0D01*
G01*
D11*
X121901000Y-56750000D03*
D12*
X114281000Y-59290000D03*
X121901000Y-59290000D03*
X114281000Y-56750000D03*
D11*
X88000000Y-28000000D03*
D12*
X80380000Y-30540000D03*
X88000000Y-30540000D03*
X80380000Y-28000000D03*
D11*
X121901000Y-62465000D03*
D12*
X114281000Y-65005000D03*
X121901000Y-65005000D03*
X114281000Y-62465000D03*
D13*
X90550000Y-57000000D03*
X92450000Y-57000000D03*
X91500000Y-55000000D03*
D14*
X102050000Y-54750000D03*
X103950000Y-54750000D03*
X90800000Y-60250000D03*
X92700000Y-60250000D03*
D15*
X88750000Y-53150000D03*
X88750000Y-51250000D03*
D14*
X88450000Y-60250000D03*
X86550000Y-60250000D03*
D13*
X86550000Y-57000000D03*
X88450000Y-57000000D03*
X87500000Y-55000000D03*
D16*
X119996000Y-47432000D03*
D17*
X119996000Y-52432000D03*
D18*
X41500000Y-119000000D03*
X41500000Y-83000000D03*
X86500000Y-83000000D03*
X86500000Y-119000000D03*
D19*
X79001240Y-116001240D03*
X73999980Y-116001240D03*
X69001260Y-116001240D03*
X58998740Y-116001240D03*
X54000020Y-116001240D03*
X48998760Y-116001240D03*
X48998760Y-85998760D03*
X58998740Y-85998760D03*
X69001260Y-85998760D03*
X79001240Y-85998760D03*
D14*
X82900000Y-112000000D03*
X81000000Y-112000000D03*
X82900000Y-94000000D03*
X81000000Y-94000000D03*
D16*
X67700000Y-46100000D03*
X67700000Y-53900000D03*
X110200000Y-61400000D03*
X110200000Y-38600000D03*
D13*
X98550000Y-57000000D03*
X100450000Y-57000000D03*
X99500000Y-55000000D03*
D14*
X82900000Y-104500000D03*
X81000000Y-104500000D03*
X82900000Y-107000000D03*
X81000000Y-107000000D03*
X82900000Y-109500000D03*
X81000000Y-109500000D03*
X82950000Y-101500000D03*
X81050000Y-101500000D03*
X82900000Y-96500000D03*
X81000000Y-96500000D03*
X82900000Y-99000000D03*
X81000000Y-99000000D03*
D15*
X90750000Y-51250000D03*
X90750000Y-53150000D03*
X100000000Y-53150000D03*
X100000000Y-51250000D03*
D14*
X105550000Y-54750000D03*
X107450000Y-54750000D03*
D15*
X116948000Y-65320000D03*
X116948000Y-63420000D03*
X94750000Y-53150000D03*
X94750000Y-51250000D03*
X98000000Y-53150000D03*
X98000000Y-51250000D03*
X102500000Y-58450000D03*
X102500000Y-56550000D03*
X115424000Y-32046000D03*
X115424000Y-30146000D03*
X92750000Y-53150000D03*
X92750000Y-51250000D03*
X85250000Y-44700000D03*
X85250000Y-42800000D03*
D14*
X98550000Y-60250000D03*
X100450000Y-60250000D03*
D13*
X94550000Y-57000000D03*
X96450000Y-57000000D03*
X95500000Y-55000000D03*
D16*
X119996000Y-37272000D03*
D17*
X119996000Y-42272000D03*
D20*
X104000000Y-61000000D03*
X107500000Y-61000000D03*
D21*
X85250000Y-46500000D03*
X85250000Y-50000000D03*
X119234000Y-61604000D03*
X119234000Y-65104000D03*
X113000000Y-38750000D03*
X113000000Y-42250000D03*
D22*
X115340000Y-33636000D03*
X117540000Y-33636000D03*
D21*
X85250000Y-37500000D03*
X85250000Y-41000000D03*
D23*
X104500000Y-57500000D03*
X107500000Y-57500000D03*
D24*
X92000000Y-47000000D03*
X92000000Y-39000000D03*
G04 #@! TA.AperFunction,SMDPad,CuDef*
D25*
G36*
X72585839Y-106000876D02*
G01*
X72603506Y-106003497D01*
X72620832Y-106007837D01*
X72637648Y-106013854D01*
X72653794Y-106021490D01*
X72669114Y-106030673D01*
X72683460Y-106041312D01*
X72696693Y-106053307D01*
X72708688Y-106066540D01*
X72719327Y-106080886D01*
X72728510Y-106096206D01*
X72736146Y-106112352D01*
X72742163Y-106129168D01*
X72746503Y-106146494D01*
X72749124Y-106164161D01*
X72750000Y-106182000D01*
X72750000Y-113318000D01*
X72749124Y-113335839D01*
X72746503Y-113353506D01*
X72742163Y-113370832D01*
X72736146Y-113387648D01*
X72728510Y-113403794D01*
X72719327Y-113419114D01*
X72708688Y-113433460D01*
X72696693Y-113446693D01*
X72683460Y-113458688D01*
X72669114Y-113469327D01*
X72653794Y-113478510D01*
X72637648Y-113486146D01*
X72620832Y-113492163D01*
X72603506Y-113496503D01*
X72585839Y-113499124D01*
X72568000Y-113500000D01*
X66432000Y-113500000D01*
X66414161Y-113499124D01*
X66396494Y-113496503D01*
X66379168Y-113492163D01*
X66362352Y-113486146D01*
X66346206Y-113478510D01*
X66330886Y-113469327D01*
X66316540Y-113458688D01*
X66303307Y-113446693D01*
X66291312Y-113433460D01*
X66280673Y-113419114D01*
X66271490Y-113403794D01*
X66263854Y-113387648D01*
X66257837Y-113370832D01*
X66253497Y-113353506D01*
X66250876Y-113335839D01*
X66250000Y-113318000D01*
X66250000Y-106182000D01*
X66250876Y-106164161D01*
X66253497Y-106146494D01*
X66257837Y-106129168D01*
X66263854Y-106112352D01*
X66271490Y-106096206D01*
X66280673Y-106080886D01*
X66291312Y-106066540D01*
X66303307Y-106053307D01*
X66316540Y-106041312D01*
X66330886Y-106030673D01*
X66346206Y-106021490D01*
X66362352Y-106013854D01*
X66379168Y-106007837D01*
X66396494Y-106003497D01*
X66414161Y-106000876D01*
X66432000Y-106000000D01*
X72568000Y-106000000D01*
X72585839Y-106000876D01*
G37*
G04 #@! TD.AperFunction*
G04 #@! TA.AperFunction,SMDPad,CuDef*
G36*
X72585839Y-92500876D02*
G01*
X72603506Y-92503497D01*
X72620832Y-92507837D01*
X72637648Y-92513854D01*
X72653794Y-92521490D01*
X72669114Y-92530673D01*
X72683460Y-92541312D01*
X72696693Y-92553307D01*
X72708688Y-92566540D01*
X72719327Y-92580886D01*
X72728510Y-92596206D01*
X72736146Y-92612352D01*
X72742163Y-92629168D01*
X72746503Y-92646494D01*
X72749124Y-92664161D01*
X72750000Y-92682000D01*
X72750000Y-99818000D01*
X72749124Y-99835839D01*
X72746503Y-99853506D01*
X72742163Y-99870832D01*
X72736146Y-99887648D01*
X72728510Y-99903794D01*
X72719327Y-99919114D01*
X72708688Y-99933460D01*
X72696693Y-99946693D01*
X72683460Y-99958688D01*
X72669114Y-99969327D01*
X72653794Y-99978510D01*
X72637648Y-99986146D01*
X72620832Y-99992163D01*
X72603506Y-99996503D01*
X72585839Y-99999124D01*
X72568000Y-100000000D01*
X66432000Y-100000000D01*
X66414161Y-99999124D01*
X66396494Y-99996503D01*
X66379168Y-99992163D01*
X66362352Y-99986146D01*
X66346206Y-99978510D01*
X66330886Y-99969327D01*
X66316540Y-99958688D01*
X66303307Y-99946693D01*
X66291312Y-99933460D01*
X66280673Y-99919114D01*
X66271490Y-99903794D01*
X66263854Y-99887648D01*
X66257837Y-99870832D01*
X66253497Y-99853506D01*
X66250876Y-99835839D01*
X66250000Y-99818000D01*
X66250000Y-92682000D01*
X66250876Y-92664161D01*
X66253497Y-92646494D01*
X66257837Y-92629168D01*
X66263854Y-92612352D01*
X66271490Y-92596206D01*
X66280673Y-92580886D01*
X66291312Y-92566540D01*
X66303307Y-92553307D01*
X66316540Y-92541312D01*
X66330886Y-92530673D01*
X66346206Y-92521490D01*
X66362352Y-92513854D01*
X66379168Y-92507837D01*
X66396494Y-92503497D01*
X66414161Y-92500876D01*
X66432000Y-92500000D01*
X72568000Y-92500000D01*
X72585839Y-92500876D01*
G37*
G04 #@! TD.AperFunction*
D26*
X38000000Y-114500000D03*
X38000000Y-110500000D03*
X38000000Y-95000000D03*
X38000000Y-99000000D03*
D27*
X120000000Y-120000000D03*
X120000000Y-30000000D03*
D28*
X30000000Y-98000000D03*
X30000000Y-104000000D03*
X30000000Y-88000000D03*
X30000000Y-82000000D03*
X30000000Y-71000000D03*
X30000000Y-77000000D03*
X30000000Y-61000000D03*
X30000000Y-55000000D03*
D27*
X30000000Y-120000000D03*
X30000000Y-30000000D03*
D29*
X76000000Y-28500000D03*
X74000000Y-28500000D03*
D16*
X30000000Y-42000000D03*
D17*
X30000000Y-37000000D03*
D16*
X30000000Y-47000000D03*
X43500000Y-30000000D03*
D17*
X48500000Y-30000000D03*
D16*
X38500000Y-30000000D03*
D26*
X36000000Y-122000000D03*
X36000000Y-118000000D03*
X38000000Y-102750000D03*
X38000000Y-106750000D03*
D30*
X73000000Y-35000000D03*
X77000000Y-35000000D03*
X77000000Y-31500000D03*
X73000000Y-31500000D03*
G04 #@! TA.AperFunction,SMDPad,CuDef*
D25*
G36*
X52585839Y-92500876D02*
G01*
X52603506Y-92503497D01*
X52620832Y-92507837D01*
X52637648Y-92513854D01*
X52653794Y-92521490D01*
X52669114Y-92530673D01*
X52683460Y-92541312D01*
X52696693Y-92553307D01*
X52708688Y-92566540D01*
X52719327Y-92580886D01*
X52728510Y-92596206D01*
X52736146Y-92612352D01*
X52742163Y-92629168D01*
X52746503Y-92646494D01*
X52749124Y-92664161D01*
X52750000Y-92682000D01*
X52750000Y-99818000D01*
X52749124Y-99835839D01*
X52746503Y-99853506D01*
X52742163Y-99870832D01*
X52736146Y-99887648D01*
X52728510Y-99903794D01*
X52719327Y-99919114D01*
X52708688Y-99933460D01*
X52696693Y-99946693D01*
X52683460Y-99958688D01*
X52669114Y-99969327D01*
X52653794Y-99978510D01*
X52637648Y-99986146D01*
X52620832Y-99992163D01*
X52603506Y-99996503D01*
X52585839Y-99999124D01*
X52568000Y-100000000D01*
X46432000Y-100000000D01*
X46414161Y-99999124D01*
X46396494Y-99996503D01*
X46379168Y-99992163D01*
X46362352Y-99986146D01*
X46346206Y-99978510D01*
X46330886Y-99969327D01*
X46316540Y-99958688D01*
X46303307Y-99946693D01*
X46291312Y-99933460D01*
X46280673Y-99919114D01*
X46271490Y-99903794D01*
X46263854Y-99887648D01*
X46257837Y-99870832D01*
X46253497Y-99853506D01*
X46250876Y-99835839D01*
X46250000Y-99818000D01*
X46250000Y-92682000D01*
X46250876Y-92664161D01*
X46253497Y-92646494D01*
X46257837Y-92629168D01*
X46263854Y-92612352D01*
X46271490Y-92596206D01*
X46280673Y-92580886D01*
X46291312Y-92566540D01*
X46303307Y-92553307D01*
X46316540Y-92541312D01*
X46330886Y-92530673D01*
X46346206Y-92521490D01*
X46362352Y-92513854D01*
X46379168Y-92507837D01*
X46396494Y-92503497D01*
X46414161Y-92500876D01*
X46432000Y-92500000D01*
X52568000Y-92500000D01*
X52585839Y-92500876D01*
G37*
G04 #@! TD.AperFunction*
G04 #@! TA.AperFunction,SMDPad,CuDef*
G36*
X52585839Y-106000876D02*
G01*
X52603506Y-106003497D01*
X52620832Y-106007837D01*
X52637648Y-106013854D01*
X52653794Y-106021490D01*
X52669114Y-106030673D01*
X52683460Y-106041312D01*
X52696693Y-106053307D01*
X52708688Y-106066540D01*
X52719327Y-106080886D01*
X52728510Y-106096206D01*
X52736146Y-106112352D01*
X52742163Y-106129168D01*
X52746503Y-106146494D01*
X52749124Y-106164161D01*
X52750000Y-106182000D01*
X52750000Y-113318000D01*
X52749124Y-113335839D01*
X52746503Y-113353506D01*
X52742163Y-113370832D01*
X52736146Y-113387648D01*
X52728510Y-113403794D01*
X52719327Y-113419114D01*
X52708688Y-113433460D01*
X52696693Y-113446693D01*
X52683460Y-113458688D01*
X52669114Y-113469327D01*
X52653794Y-113478510D01*
X52637648Y-113486146D01*
X52620832Y-113492163D01*
X52603506Y-113496503D01*
X52585839Y-113499124D01*
X52568000Y-113500000D01*
X46432000Y-113500000D01*
X46414161Y-113499124D01*
X46396494Y-113496503D01*
X46379168Y-113492163D01*
X46362352Y-113486146D01*
X46346206Y-113478510D01*
X46330886Y-113469327D01*
X46316540Y-113458688D01*
X46303307Y-113446693D01*
X46291312Y-113433460D01*
X46280673Y-113419114D01*
X46271490Y-113403794D01*
X46263854Y-113387648D01*
X46257837Y-113370832D01*
X46253497Y-113353506D01*
X46250876Y-113335839D01*
X46250000Y-113318000D01*
X46250000Y-106182000D01*
X46250876Y-106164161D01*
X46253497Y-106146494D01*
X46257837Y-106129168D01*
X46263854Y-106112352D01*
X46271490Y-106096206D01*
X46280673Y-106080886D01*
X46291312Y-106066540D01*
X46303307Y-106053307D01*
X46316540Y-106041312D01*
X46330886Y-106030673D01*
X46346206Y-106021490D01*
X46362352Y-106013854D01*
X46379168Y-106007837D01*
X46396494Y-106003497D01*
X46414161Y-106000876D01*
X46432000Y-106000000D01*
X52568000Y-106000000D01*
X52585839Y-106000876D01*
G37*
G04 #@! TD.AperFunction*
G04 #@! TA.AperFunction,SMDPad,CuDef*
G36*
X97585839Y-106000876D02*
G01*
X97603506Y-106003497D01*
X97620832Y-106007837D01*
X97637648Y-106013854D01*
X97653794Y-106021490D01*
X97669114Y-106030673D01*
X97683460Y-106041312D01*
X97696693Y-106053307D01*
X97708688Y-106066540D01*
X97719327Y-106080886D01*
X97728510Y-106096206D01*
X97736146Y-106112352D01*
X97742163Y-106129168D01*
X97746503Y-106146494D01*
X97749124Y-106164161D01*
X97750000Y-106182000D01*
X97750000Y-113318000D01*
X97749124Y-113335839D01*
X97746503Y-113353506D01*
X97742163Y-113370832D01*
X97736146Y-113387648D01*
X97728510Y-113403794D01*
X97719327Y-113419114D01*
X97708688Y-113433460D01*
X97696693Y-113446693D01*
X97683460Y-113458688D01*
X97669114Y-113469327D01*
X97653794Y-113478510D01*
X97637648Y-113486146D01*
X97620832Y-113492163D01*
X97603506Y-113496503D01*
X97585839Y-113499124D01*
X97568000Y-113500000D01*
X91432000Y-113500000D01*
X91414161Y-113499124D01*
X91396494Y-113496503D01*
X91379168Y-113492163D01*
X91362352Y-113486146D01*
X91346206Y-113478510D01*
X91330886Y-113469327D01*
X91316540Y-113458688D01*
X91303307Y-113446693D01*
X91291312Y-113433460D01*
X91280673Y-113419114D01*
X91271490Y-113403794D01*
X91263854Y-113387648D01*
X91257837Y-113370832D01*
X91253497Y-113353506D01*
X91250876Y-113335839D01*
X91250000Y-113318000D01*
X91250000Y-106182000D01*
X91250876Y-106164161D01*
X91253497Y-106146494D01*
X91257837Y-106129168D01*
X91263854Y-106112352D01*
X91271490Y-106096206D01*
X91280673Y-106080886D01*
X91291312Y-106066540D01*
X91303307Y-106053307D01*
X91316540Y-106041312D01*
X91330886Y-106030673D01*
X91346206Y-106021490D01*
X91362352Y-106013854D01*
X91379168Y-106007837D01*
X91396494Y-106003497D01*
X91414161Y-106000876D01*
X91432000Y-106000000D01*
X97568000Y-106000000D01*
X97585839Y-106000876D01*
G37*
G04 #@! TD.AperFunction*
G04 #@! TA.AperFunction,SMDPad,CuDef*
G36*
X97585839Y-92500876D02*
G01*
X97603506Y-92503497D01*
X97620832Y-92507837D01*
X97637648Y-92513854D01*
X97653794Y-92521490D01*
X97669114Y-92530673D01*
X97683460Y-92541312D01*
X97696693Y-92553307D01*
X97708688Y-92566540D01*
X97719327Y-92580886D01*
X97728510Y-92596206D01*
X97736146Y-92612352D01*
X97742163Y-92629168D01*
X97746503Y-92646494D01*
X97749124Y-92664161D01*
X97750000Y-92682000D01*
X97750000Y-99818000D01*
X97749124Y-99835839D01*
X97746503Y-99853506D01*
X97742163Y-99870832D01*
X97736146Y-99887648D01*
X97728510Y-99903794D01*
X97719327Y-99919114D01*
X97708688Y-99933460D01*
X97696693Y-99946693D01*
X97683460Y-99958688D01*
X97669114Y-99969327D01*
X97653794Y-99978510D01*
X97637648Y-99986146D01*
X97620832Y-99992163D01*
X97603506Y-99996503D01*
X97585839Y-99999124D01*
X97568000Y-100000000D01*
X91432000Y-100000000D01*
X91414161Y-99999124D01*
X91396494Y-99996503D01*
X91379168Y-99992163D01*
X91362352Y-99986146D01*
X91346206Y-99978510D01*
X91330886Y-99969327D01*
X91316540Y-99958688D01*
X91303307Y-99946693D01*
X91291312Y-99933460D01*
X91280673Y-99919114D01*
X91271490Y-99903794D01*
X91263854Y-99887648D01*
X91257837Y-99870832D01*
X91253497Y-99853506D01*
X91250876Y-99835839D01*
X91250000Y-99818000D01*
X91250000Y-92682000D01*
X91250876Y-92664161D01*
X91253497Y-92646494D01*
X91257837Y-92629168D01*
X91263854Y-92612352D01*
X91271490Y-92596206D01*
X91280673Y-92580886D01*
X91291312Y-92566540D01*
X91303307Y-92553307D01*
X91316540Y-92541312D01*
X91330886Y-92530673D01*
X91346206Y-92521490D01*
X91362352Y-92513854D01*
X91379168Y-92507837D01*
X91396494Y-92503497D01*
X91414161Y-92500876D01*
X91432000Y-92500000D01*
X97568000Y-92500000D01*
X97585839Y-92500876D01*
G37*
G04 #@! TD.AperFunction*
G04 #@! TA.AperFunction,SMDPad,CuDef*
G36*
X117585839Y-92500876D02*
G01*
X117603506Y-92503497D01*
X117620832Y-92507837D01*
X117637648Y-92513854D01*
X117653794Y-92521490D01*
X117669114Y-92530673D01*
X117683460Y-92541312D01*
X117696693Y-92553307D01*
X117708688Y-92566540D01*
X117719327Y-92580886D01*
X117728510Y-92596206D01*
X117736146Y-92612352D01*
X117742163Y-92629168D01*
X117746503Y-92646494D01*
X117749124Y-92664161D01*
X117750000Y-92682000D01*
X117750000Y-99818000D01*
X117749124Y-99835839D01*
X117746503Y-99853506D01*
X117742163Y-99870832D01*
X117736146Y-99887648D01*
X117728510Y-99903794D01*
X117719327Y-99919114D01*
X117708688Y-99933460D01*
X117696693Y-99946693D01*
X117683460Y-99958688D01*
X117669114Y-99969327D01*
X117653794Y-99978510D01*
X117637648Y-99986146D01*
X117620832Y-99992163D01*
X117603506Y-99996503D01*
X117585839Y-99999124D01*
X117568000Y-100000000D01*
X111432000Y-100000000D01*
X111414161Y-99999124D01*
X111396494Y-99996503D01*
X111379168Y-99992163D01*
X111362352Y-99986146D01*
X111346206Y-99978510D01*
X111330886Y-99969327D01*
X111316540Y-99958688D01*
X111303307Y-99946693D01*
X111291312Y-99933460D01*
X111280673Y-99919114D01*
X111271490Y-99903794D01*
X111263854Y-99887648D01*
X111257837Y-99870832D01*
X111253497Y-99853506D01*
X111250876Y-99835839D01*
X111250000Y-99818000D01*
X111250000Y-92682000D01*
X111250876Y-92664161D01*
X111253497Y-92646494D01*
X111257837Y-92629168D01*
X111263854Y-92612352D01*
X111271490Y-92596206D01*
X111280673Y-92580886D01*
X111291312Y-92566540D01*
X111303307Y-92553307D01*
X111316540Y-92541312D01*
X111330886Y-92530673D01*
X111346206Y-92521490D01*
X111362352Y-92513854D01*
X111379168Y-92507837D01*
X111396494Y-92503497D01*
X111414161Y-92500876D01*
X111432000Y-92500000D01*
X117568000Y-92500000D01*
X117585839Y-92500876D01*
G37*
G04 #@! TD.AperFunction*
G04 #@! TA.AperFunction,SMDPad,CuDef*
G36*
X117585839Y-106000876D02*
G01*
X117603506Y-106003497D01*
X117620832Y-106007837D01*
X117637648Y-106013854D01*
X117653794Y-106021490D01*
X117669114Y-106030673D01*
X117683460Y-106041312D01*
X117696693Y-106053307D01*
X117708688Y-106066540D01*
X117719327Y-106080886D01*
X117728510Y-106096206D01*
X117736146Y-106112352D01*
X117742163Y-106129168D01*
X117746503Y-106146494D01*
X117749124Y-106164161D01*
X117750000Y-106182000D01*
X117750000Y-113318000D01*
X117749124Y-113335839D01*
X117746503Y-113353506D01*
X117742163Y-113370832D01*
X117736146Y-113387648D01*
X117728510Y-113403794D01*
X117719327Y-113419114D01*
X117708688Y-113433460D01*
X117696693Y-113446693D01*
X117683460Y-113458688D01*
X117669114Y-113469327D01*
X117653794Y-113478510D01*
X117637648Y-113486146D01*
X117620832Y-113492163D01*
X117603506Y-113496503D01*
X117585839Y-113499124D01*
X117568000Y-113500000D01*
X111432000Y-113500000D01*
X111414161Y-113499124D01*
X111396494Y-113496503D01*
X111379168Y-113492163D01*
X111362352Y-113486146D01*
X111346206Y-113478510D01*
X111330886Y-113469327D01*
X111316540Y-113458688D01*
X111303307Y-113446693D01*
X111291312Y-113433460D01*
X111280673Y-113419114D01*
X111271490Y-113403794D01*
X111263854Y-113387648D01*
X111257837Y-113370832D01*
X111253497Y-113353506D01*
X111250876Y-113335839D01*
X111250000Y-113318000D01*
X111250000Y-106182000D01*
X111250876Y-106164161D01*
X111253497Y-106146494D01*
X111257837Y-106129168D01*
X111263854Y-106112352D01*
X111271490Y-106096206D01*
X111280673Y-106080886D01*
X111291312Y-106066540D01*
X111303307Y-106053307D01*
X111316540Y-106041312D01*
X111330886Y-106030673D01*
X111346206Y-106021490D01*
X111362352Y-106013854D01*
X111379168Y-106007837D01*
X111396494Y-106003497D01*
X111414161Y-106000876D01*
X111432000Y-106000000D01*
X117568000Y-106000000D01*
X117585839Y-106000876D01*
G37*
G04 #@! TD.AperFunction*
D16*
X94000000Y-30000000D03*
D17*
X99000000Y-30000000D03*
D31*
X59000000Y-75500000D03*
X59000000Y-60500000D03*
X52000000Y-60500000D03*
X52000000Y-75500000D03*
D24*
X103000000Y-39000000D03*
X103000000Y-47000000D03*
D32*
X105500000Y-68000000D03*
X105500000Y-70000000D03*
X105500000Y-86500000D03*
X105500000Y-84500000D03*
D23*
X98500000Y-75500000D03*
X95500000Y-75500000D03*
X98500000Y-89000000D03*
X95500000Y-89000000D03*
D33*
X108000000Y-76000000D03*
X108000000Y-72000000D03*
X108000000Y-80000000D03*
X108000000Y-84000000D03*
D34*
X111000000Y-76500000D03*
D11*
X111000000Y-71500000D03*
X111000000Y-79500000D03*
D34*
X111000000Y-84500000D03*
D20*
X84250000Y-34000000D03*
X87750000Y-34000000D03*
D22*
X70000000Y-34000000D03*
X70000000Y-31800000D03*
D20*
X63000000Y-37000000D03*
X59500000Y-37000000D03*
D22*
X113250000Y-31650000D03*
X113250000Y-33850000D03*
D30*
X51000000Y-119500000D03*
X47000000Y-119500000D03*
X71000000Y-119500000D03*
X67000000Y-119500000D03*
X57000000Y-119500000D03*
X61000000Y-119500000D03*
X77000000Y-119500000D03*
X81000000Y-119500000D03*
X101500000Y-65000000D03*
X105500000Y-65000000D03*
X101500000Y-91000000D03*
X105500000Y-91000000D03*
D21*
X96000000Y-65000000D03*
X96000000Y-68500000D03*
X96000000Y-78500000D03*
X96000000Y-82000000D03*
D30*
X108000000Y-68500000D03*
X112000000Y-68500000D03*
X108000000Y-87500000D03*
X112000000Y-87500000D03*
D22*
X117500000Y-69000000D03*
X115300000Y-69000000D03*
X115300000Y-87000000D03*
X117500000Y-87000000D03*
D17*
X66000000Y-30000000D03*
D16*
X61000000Y-30000000D03*
X113500000Y-120000000D03*
D17*
X103500000Y-120000000D03*
D16*
X108500000Y-120000000D03*
D17*
X109160000Y-30000000D03*
D16*
X104160000Y-30000000D03*
X120000000Y-78000000D03*
D17*
X120000000Y-83000000D03*
D16*
X120000000Y-73000000D03*
D35*
X36600000Y-55400000D03*
X44200000Y-55400000D03*
X46740000Y-37600000D03*
D16*
X59440000Y-51580000D03*
X59440000Y-41420000D03*
G04 #@! TA.AperFunction,SMDPad,CuDef*
D25*
G36*
X76965784Y-79728526D02*
G01*
X74703042Y-77465784D01*
X76965784Y-75203042D01*
X79228526Y-77465784D01*
X76965784Y-79728526D01*
G37*
G04 #@! TD.AperFunction*
G04 #@! TA.AperFunction,SMDPad,CuDef*
G36*
X76965784Y-66796958D02*
G01*
X74703042Y-64534216D01*
X76965784Y-62271474D01*
X79228526Y-64534216D01*
X76965784Y-66796958D01*
G37*
G04 #@! TD.AperFunction*
G04 #@! TA.AperFunction,SMDPad,CuDef*
G36*
X64034216Y-79728526D02*
G01*
X61771474Y-77465784D01*
X64034216Y-75203042D01*
X66296958Y-77465784D01*
X64034216Y-79728526D01*
G37*
G04 #@! TD.AperFunction*
G04 #@! TA.AperFunction,SMDPad,CuDef*
G36*
X64034216Y-66796958D02*
G01*
X61771474Y-64534216D01*
X64034216Y-62271474D01*
X66296958Y-64534216D01*
X64034216Y-66796958D01*
G37*
G04 #@! TD.AperFunction*
D13*
X81000000Y-38500000D03*
X80050000Y-36500000D03*
X81950000Y-36500000D03*
D15*
X90000000Y-33100000D03*
X90000000Y-35000000D03*
X70000000Y-28000000D03*
X70000000Y-29900000D03*
X82000000Y-35000000D03*
X82000000Y-33100000D03*
X80000000Y-35000000D03*
X80000000Y-33100000D03*
X113250000Y-29900000D03*
X113250000Y-28000000D03*
D14*
X96500000Y-73000000D03*
X98400000Y-73000000D03*
X98400000Y-84500000D03*
X96500000Y-84500000D03*
X96500000Y-71000000D03*
X98400000Y-71000000D03*
X96500000Y-86500000D03*
X98400000Y-86500000D03*
D15*
X98500000Y-68500000D03*
X98500000Y-66600000D03*
X98500000Y-80100000D03*
X98500000Y-82000000D03*
D14*
X121150000Y-69000000D03*
X119250000Y-69000000D03*
X119350000Y-87000000D03*
X121250000Y-87000000D03*
D36*
X45750000Y-72000000D03*
X44350000Y-64500000D03*
X38100000Y-64500000D03*
X39500000Y-72000000D03*
D37*
X102000000Y-75000000D03*
D38*
X102000000Y-72460000D03*
X102000000Y-69920000D03*
X102000000Y-80920000D03*
X102000000Y-83460000D03*
D37*
X102000000Y-86000000D03*
D39*
X105000000Y-47000000D03*
X101000000Y-47000000D03*
X78500002Y-35000000D03*
X111614000Y-28000000D03*
X90000000Y-39000000D03*
X94000004Y-39000000D03*
X104500000Y-68000000D03*
X112000000Y-67000000D03*
X120750000Y-88500000D03*
X112000000Y-89000000D03*
X105500000Y-87500000D03*
X95500000Y-86500000D03*
X95500000Y-73000000D03*
X59500000Y-106000000D03*
X61500000Y-96500000D03*
X57500000Y-96500000D03*
X63000000Y-96500000D03*
X59500000Y-109000000D03*
X56000000Y-96500000D03*
X59500000Y-110500000D03*
X59500000Y-107500000D03*
X49500000Y-101000000D03*
X73500000Y-96250000D03*
X90250000Y-109750000D03*
X114500000Y-105000000D03*
X114500000Y-114750000D03*
X98750000Y-109750000D03*
X94500000Y-114500000D03*
X94500000Y-105500000D03*
X110249994Y-109750000D03*
X118749996Y-109750000D03*
X121266000Y-70466000D03*
X116948000Y-66910000D03*
X111750000Y-41000000D03*
X109000000Y-57500000D03*
X101500000Y-53000000D03*
X96500000Y-58250000D03*
X92500000Y-55000000D03*
X54000000Y-119500000D03*
X64000000Y-119500000D03*
X74999998Y-121500000D03*
X119742000Y-66910000D03*
X74000012Y-119500000D03*
X81750000Y-121250000D03*
X56000000Y-67000000D03*
X53999986Y-67000000D03*
X52000000Y-67000000D03*
X26000000Y-93000000D03*
X26000000Y-93000000D03*
X74000000Y-26000000D03*
X100000000Y-102500000D03*
X100000000Y-105000000D03*
X70000000Y-34000000D03*
X96250000Y-33000000D03*
X86500000Y-55000000D03*
X114500000Y-38750000D03*
D40*
X85250000Y-41000000D02*
X85250000Y-42800000D01*
X91000000Y-47000000D02*
X92000000Y-47000000D01*
X86800000Y-42800000D02*
X91000000Y-47000000D01*
X92750000Y-52550000D02*
X93050000Y-52250000D01*
X92750000Y-53150000D02*
X92750000Y-52550000D01*
X94750000Y-51850000D02*
X94750000Y-51250000D01*
X94350000Y-52250000D02*
X94750000Y-51850000D01*
X93050000Y-52250000D02*
X94350000Y-52250000D01*
X93500000Y-47000000D02*
X92000000Y-47000000D01*
X94750000Y-48250000D02*
X93500000Y-47000000D01*
X94750000Y-51250000D02*
X94750000Y-48250000D01*
X86800000Y-42800000D02*
X85250000Y-42800000D01*
D41*
X80000000Y-36450000D02*
X80050000Y-36500000D01*
X80000000Y-35000000D02*
X80000000Y-36450000D01*
X103000000Y-47000000D02*
X105000000Y-47000000D01*
X103000000Y-47000000D02*
X101000000Y-47000000D01*
X78500002Y-35000000D02*
X77000000Y-35000000D01*
X77000000Y-29500000D02*
X76000000Y-28500000D01*
X77000000Y-35000000D02*
X77000000Y-29500000D01*
X78500002Y-35000000D02*
X80000000Y-35000000D01*
X112179685Y-28000000D02*
X111614000Y-28000000D01*
X113250000Y-28000000D02*
X112179685Y-28000000D01*
X92000000Y-39000000D02*
X90000000Y-39000000D01*
X92000000Y-39000000D02*
X94000004Y-39000000D01*
X110500000Y-80000000D02*
X111000000Y-79500000D01*
X108000000Y-80000000D02*
X110500000Y-80000000D01*
X108000000Y-76000000D02*
X108500000Y-76000000D01*
X109000000Y-76500000D02*
X111000000Y-76500000D01*
X108500000Y-76000000D02*
X109000000Y-76500000D01*
X96500000Y-84500000D02*
X96500000Y-86500000D01*
X105500000Y-68000000D02*
X104500000Y-68000000D01*
X112000000Y-68500000D02*
X112000000Y-67000000D01*
X121250000Y-88000000D02*
X120750000Y-88500000D01*
X121250000Y-87000000D02*
X121250000Y-88000000D01*
X112000000Y-87500000D02*
X112000000Y-89000000D01*
X105500000Y-86500000D02*
X105500000Y-87500000D01*
X96500000Y-73000000D02*
X96500000Y-70860001D01*
X96500000Y-86500000D02*
X95500000Y-86500000D01*
X72998760Y-116001240D02*
X73999980Y-116001240D01*
X73999980Y-116001240D02*
X74001240Y-116001240D01*
D42*
X60000000Y-96500000D02*
X60000000Y-96500000D01*
D41*
X43000000Y-96250000D02*
X49500000Y-96250000D01*
D42*
X69500000Y-96250000D02*
X65750000Y-96250000D01*
X65750000Y-96250000D02*
X65500000Y-96500000D01*
X60000000Y-96500000D02*
X65500000Y-96500000D01*
X49500000Y-96250000D02*
X53250000Y-96250000D01*
X53250000Y-96250000D02*
X53500000Y-96500000D01*
X53500000Y-96500000D02*
X60000000Y-96500000D01*
X54000020Y-115999980D02*
X59500000Y-110500000D01*
D41*
X54000020Y-116001240D02*
X54000020Y-115999980D01*
D42*
X59500000Y-110500000D02*
X59500000Y-106000000D01*
D41*
X41150000Y-96250000D02*
X43000000Y-96250000D01*
X39900000Y-95000000D02*
X41150000Y-96250000D01*
X38000000Y-95000000D02*
X39900000Y-95000000D01*
X39900000Y-110500000D02*
X41250000Y-109150000D01*
X38000000Y-110500000D02*
X39900000Y-110500000D01*
X41250000Y-96350000D02*
X41150000Y-96250000D01*
X41250000Y-109150000D02*
X41250000Y-96350000D01*
X96500000Y-73000000D02*
X95500000Y-73000000D01*
X95500000Y-75500000D02*
X95500000Y-73000000D01*
X95500000Y-89000000D02*
X95500000Y-86500000D01*
D42*
X49500000Y-96250000D02*
X49500000Y-101000000D01*
X69500000Y-96250000D02*
X73500000Y-96250000D01*
X94500000Y-109750000D02*
X90250000Y-109750000D01*
X114500000Y-109750000D02*
X114500000Y-105000000D01*
X114500000Y-109750000D02*
X114500000Y-114750000D01*
X94500000Y-109750000D02*
X98750000Y-109750000D01*
X94500000Y-109750000D02*
X94500000Y-114500000D01*
X94500000Y-109750000D02*
X94500000Y-105500000D01*
X114500000Y-109750000D02*
X110249994Y-109750000D01*
X114500000Y-109750000D02*
X118749996Y-109750000D01*
D41*
X121266000Y-69116000D02*
X121266000Y-69900315D01*
X121266000Y-69900315D02*
X121266000Y-70466000D01*
X121150000Y-69000000D02*
X121266000Y-69116000D01*
X116948000Y-65320000D02*
X116948000Y-66910000D01*
X46000000Y-113250000D02*
X49500000Y-109750000D01*
X46000000Y-117050000D02*
X46000000Y-113250000D01*
X47000000Y-118050000D02*
X46000000Y-117050000D01*
X47000000Y-119500000D02*
X47000000Y-118050000D01*
X48000000Y-120500000D02*
X47000000Y-119500000D01*
X49000000Y-121500000D02*
X48000000Y-120500000D01*
X55000000Y-121500000D02*
X49000000Y-121500000D01*
X57000000Y-119500000D02*
X55000000Y-121500000D01*
X81000000Y-97500000D02*
X81000000Y-99500000D01*
X81000000Y-101450000D02*
X81050000Y-101500000D01*
X81000000Y-99500000D02*
X81000000Y-101450000D01*
X81000000Y-97500000D02*
X81000000Y-95500000D01*
X49500000Y-106000000D02*
X49500000Y-109750000D01*
X54000000Y-101500000D02*
X49500000Y-106000000D01*
X79250000Y-101500000D02*
X54000000Y-101500000D01*
D40*
X101500000Y-75500000D02*
X102000000Y-75000000D01*
X98500000Y-75500000D02*
X101500000Y-75500000D01*
X98900000Y-75100000D02*
X98500000Y-75500000D01*
X98500000Y-68500000D02*
X96000000Y-68500000D01*
X98500000Y-73100000D02*
X98400000Y-73000000D01*
X98500000Y-75500000D02*
X98500000Y-73100000D01*
X98400000Y-73000000D02*
X98400000Y-70860001D01*
X98400000Y-68600000D02*
X98500000Y-68500000D01*
X98400000Y-70860001D02*
X98400000Y-68600000D01*
X101500000Y-86500000D02*
X102000000Y-86000000D01*
X98400000Y-86500000D02*
X101500000Y-86500000D01*
X96000000Y-82000000D02*
X98500000Y-82000000D01*
X98400000Y-86500000D02*
X98400000Y-84500000D01*
X98400000Y-82100000D02*
X98500000Y-82000000D01*
X98400000Y-84500000D02*
X98400000Y-82100000D01*
X98500000Y-86600000D02*
X98400000Y-86500000D01*
X98500000Y-89000000D02*
X98500000Y-86600000D01*
D41*
X110500000Y-72000000D02*
X111000000Y-71500000D01*
X108000000Y-72000000D02*
X110500000Y-72000000D01*
X118500000Y-71500000D02*
X120000000Y-73000000D01*
X115300000Y-71300000D02*
X115300000Y-69000000D01*
X111000000Y-71500000D02*
X116000000Y-71500000D01*
X116000000Y-71500000D02*
X118500000Y-71500000D01*
X108000000Y-72000000D02*
X108000000Y-68500000D01*
X108000000Y-67500000D02*
X105500000Y-65000000D01*
X108000000Y-68500000D02*
X108000000Y-67500000D01*
X96900000Y-65000000D02*
X98500000Y-66600000D01*
X96000000Y-65000000D02*
X96900000Y-65000000D01*
X98800000Y-66600000D02*
X100000000Y-67800000D01*
X98500000Y-66600000D02*
X98800000Y-66600000D01*
X100000000Y-70460000D02*
X102000000Y-72460000D01*
X100000000Y-67800000D02*
X100000000Y-70460000D01*
X107540000Y-72460000D02*
X108000000Y-72000000D01*
X102000000Y-72460000D02*
X107540000Y-72460000D01*
X105500000Y-90000000D02*
X108000000Y-87500000D01*
X105500000Y-91000000D02*
X105500000Y-90000000D01*
X118500000Y-84500000D02*
X120000000Y-83000000D01*
X115300000Y-87000000D02*
X115300000Y-84800000D01*
X115500000Y-84500000D02*
X118500000Y-84500000D01*
X111000000Y-84500000D02*
X115500000Y-84500000D01*
X108500000Y-84500000D02*
X108000000Y-84000000D01*
X111000000Y-84500000D02*
X108500000Y-84500000D01*
X108000000Y-84000000D02*
X108000000Y-87500000D01*
X101180000Y-80100000D02*
X102000000Y-80920000D01*
X98500000Y-80100000D02*
X101180000Y-80100000D01*
X97600000Y-80100000D02*
X96000000Y-78500000D01*
X98500000Y-80100000D02*
X97600000Y-80100000D01*
X104920000Y-80920000D02*
X102000000Y-80920000D01*
X105305002Y-80920000D02*
X104920000Y-80920000D01*
X108000000Y-83614998D02*
X105305002Y-80920000D01*
X108000000Y-84000000D02*
X108000000Y-83614998D01*
D40*
X116324000Y-32046000D02*
X115424000Y-32046000D01*
X116800000Y-32046000D02*
X116324000Y-32046000D01*
X117540000Y-32786000D02*
X116800000Y-32046000D01*
X117540000Y-33636000D02*
X117540000Y-32786000D01*
D41*
X113646000Y-42244000D02*
X113674000Y-42272000D01*
X117746000Y-42272000D02*
X119996000Y-42272000D01*
X113674000Y-42272000D02*
X117746000Y-42272000D01*
X115424000Y-28796000D02*
X115424000Y-30146000D01*
X114900000Y-28000000D02*
X115424000Y-28524000D01*
X115424000Y-28524000D02*
X115424000Y-28796000D01*
X113250000Y-28000000D02*
X114900000Y-28000000D01*
X113000000Y-42250000D02*
X111750000Y-41000000D01*
X107500000Y-57500000D02*
X109000000Y-57500000D01*
X107500000Y-57500000D02*
X107500000Y-55100000D01*
D40*
X100000000Y-54500000D02*
X99500000Y-55000000D01*
X100000000Y-53150000D02*
X100000000Y-54500000D01*
X101350000Y-53150000D02*
X101500000Y-53000000D01*
X100000000Y-53150000D02*
X101350000Y-53150000D01*
X96450000Y-58200000D02*
X96500000Y-58250000D01*
X96450000Y-57000000D02*
X96450000Y-58200000D01*
X91500000Y-55000000D02*
X92500000Y-55000000D01*
X90750000Y-53750000D02*
X90750000Y-53150000D01*
X90750000Y-54900000D02*
X90750000Y-53750000D01*
X90850000Y-55000000D02*
X90750000Y-54900000D01*
X91500000Y-55000000D02*
X90850000Y-55000000D01*
X118164000Y-61604000D02*
X119234000Y-61604000D01*
X116948000Y-62820000D02*
X118164000Y-61604000D01*
X116948000Y-63420000D02*
X116948000Y-62820000D01*
X85250000Y-44700000D02*
X85250000Y-46500000D01*
X86868630Y-30540000D02*
X88000000Y-30540000D01*
X86610000Y-30540000D02*
X86868630Y-30540000D01*
X84250000Y-32900000D02*
X86610000Y-30540000D01*
X84250000Y-34000000D02*
X84250000Y-32900000D01*
X88650000Y-33100000D02*
X87750000Y-34000000D01*
X90000000Y-33100000D02*
X88650000Y-33100000D01*
X70000000Y-31800000D02*
X70000000Y-29900000D01*
D41*
X63000000Y-33000000D02*
X66000000Y-30000000D01*
X63000000Y-37000000D02*
X63000000Y-33000000D01*
X68000000Y-28000000D02*
X70000000Y-28000000D01*
X66000000Y-30000000D02*
X68000000Y-28000000D01*
X66000000Y-30000000D02*
X66000000Y-33500000D01*
X71000000Y-38500000D02*
X81000000Y-38500000D01*
X66000000Y-33500000D02*
X71000000Y-38500000D01*
X61799990Y-38200010D02*
X63000000Y-37000000D01*
X61799990Y-48950010D02*
X61799990Y-38200010D01*
X59440000Y-51310000D02*
X61799990Y-48950010D01*
X59440000Y-51580000D02*
X59440000Y-51310000D01*
D40*
X113250000Y-29900000D02*
X113250000Y-31650000D01*
D41*
X48998760Y-117498760D02*
X51000000Y-119500000D01*
X48998760Y-116001240D02*
X48998760Y-117498760D01*
X51000000Y-119500000D02*
X54000000Y-119500000D01*
X67000000Y-119500000D02*
X64000000Y-119500000D01*
D40*
X102500000Y-60400000D02*
X102500000Y-58450000D01*
X103100000Y-61000000D02*
X102500000Y-60400000D01*
X104000000Y-61000000D02*
X103100000Y-61000000D01*
D41*
X61000000Y-120500000D02*
X61500000Y-120000000D01*
X61000000Y-120500000D02*
X61000000Y-119500000D01*
X62000000Y-121500000D02*
X74434313Y-121500000D01*
X74434313Y-121500000D02*
X74999998Y-121500000D01*
X61000000Y-120500000D02*
X62000000Y-121500000D01*
X75000000Y-121500000D02*
X74999998Y-121500000D01*
X79001240Y-117498760D02*
X75000000Y-121500000D01*
X79001240Y-116001240D02*
X79001240Y-117498760D01*
D40*
X74999998Y-121500000D02*
X76249998Y-122750000D01*
X76249998Y-122750000D02*
X115000000Y-122750000D01*
X115000000Y-122750000D02*
X116250000Y-121500000D01*
X122750000Y-67886000D02*
X121774000Y-66910000D01*
X116250000Y-121500000D02*
X116250000Y-118250000D01*
X118500000Y-116000000D02*
X121500000Y-116000000D01*
X116250000Y-118250000D02*
X118500000Y-116000000D01*
X121500000Y-116000000D02*
X122750000Y-114750000D01*
X122750000Y-114750000D02*
X122750000Y-67886000D01*
X121774000Y-66910000D02*
X121266000Y-66910000D01*
X121266000Y-66910000D02*
X119742000Y-66910000D01*
X94000000Y-30000000D02*
X92000000Y-28000000D01*
X92000000Y-28000000D02*
X88000000Y-28000000D01*
D41*
X67700000Y-46100000D02*
X71450001Y-49850001D01*
X71531568Y-59831568D02*
X71531568Y-59100000D01*
X76234216Y-64534216D02*
X71531568Y-59831568D01*
X76965784Y-64534216D02*
X76234216Y-64534216D01*
X71450001Y-49850001D02*
X71500000Y-59100000D01*
X64034216Y-64534216D02*
X64034216Y-64465784D01*
X64034216Y-64465784D02*
X65500000Y-63000000D01*
X65500000Y-63000000D02*
X67700000Y-60800000D01*
X67700000Y-60800000D02*
X67700000Y-53900000D01*
D40*
X82000000Y-36450000D02*
X81950000Y-36500000D01*
X82000000Y-35000000D02*
X82000000Y-36450000D01*
X94850000Y-55000000D02*
X95500000Y-55000000D01*
X94750000Y-54900000D02*
X94850000Y-55000000D01*
X94750000Y-53150000D02*
X94750000Y-54900000D01*
X98000000Y-51250000D02*
X100000000Y-51250000D01*
X97100000Y-51250000D02*
X98000000Y-51250000D01*
X96750000Y-51600000D02*
X97100000Y-51250000D01*
X96750000Y-55500000D02*
X96750000Y-51600000D01*
X96250000Y-56000000D02*
X96750000Y-55500000D01*
X94850000Y-56000000D02*
X96250000Y-56000000D01*
X94550000Y-56300000D02*
X94850000Y-56000000D01*
X94550000Y-57000000D02*
X94550000Y-56300000D01*
X86550000Y-57000000D02*
X86550000Y-60250000D01*
X86550000Y-61150000D02*
X86900000Y-61500000D01*
X86550000Y-60250000D02*
X86550000Y-61150000D01*
X90450000Y-61500000D02*
X90800000Y-61150000D01*
X90800000Y-61150000D02*
X90800000Y-60250000D01*
X86900000Y-61500000D02*
X90450000Y-61500000D01*
X82000000Y-33100000D02*
X80000000Y-33100000D01*
X80000000Y-30920000D02*
X80380000Y-30540000D01*
X80000000Y-33100000D02*
X80000000Y-30920000D01*
D41*
X58998740Y-85998760D02*
X69001260Y-85998760D01*
D40*
X90900000Y-35000000D02*
X90000000Y-35000000D01*
X92500000Y-35000000D02*
X90900000Y-35000000D01*
X97500000Y-30000000D02*
X92500000Y-35000000D01*
X99000000Y-30000000D02*
X97500000Y-30000000D01*
D41*
X71000000Y-119500000D02*
X74000012Y-119500000D01*
X81000000Y-104500000D02*
X81000000Y-106500000D01*
X81000000Y-106500000D02*
X81000000Y-108500000D01*
X69500000Y-109750000D02*
X76250000Y-109750000D01*
X81000000Y-108500000D02*
X81000000Y-110500000D01*
X71500000Y-111750000D02*
X69500000Y-109750000D01*
X71500000Y-118250000D02*
X71500000Y-111750000D01*
X71000000Y-118750000D02*
X71500000Y-118250000D01*
X71000000Y-119500000D02*
X71000000Y-118750000D01*
X81750000Y-120250000D02*
X81000000Y-119500000D01*
X81750000Y-121250000D02*
X81750000Y-120250000D01*
X79001240Y-85001240D02*
X79000000Y-85000000D01*
X79001240Y-85998760D02*
X79001240Y-85001240D01*
X79001240Y-85998760D02*
X79000000Y-85000000D01*
X62250000Y-70000000D02*
X58500000Y-66250000D01*
X69500000Y-70000000D02*
X62250000Y-70000000D01*
X76965784Y-77465784D02*
X69500000Y-70000000D01*
X58500000Y-62697056D02*
X58500000Y-66250000D01*
X59000000Y-62197056D02*
X58500000Y-62697056D01*
X59000000Y-60500000D02*
X59000000Y-62197056D01*
X57000000Y-60500000D02*
X59000000Y-60500000D01*
X53000000Y-64500000D02*
X57000000Y-60500000D01*
X44350000Y-64500000D02*
X53000000Y-64500000D01*
X38100000Y-64500000D02*
X41500000Y-64500000D01*
X41500000Y-64500000D02*
X44350000Y-64500000D01*
D42*
X50199999Y-48199999D02*
X41739999Y-39739999D01*
X41739999Y-39739999D02*
X41739999Y-33527767D01*
X50199999Y-56800001D02*
X50199999Y-48199999D01*
X41739999Y-33527767D02*
X43500000Y-31767766D01*
X48000000Y-59000000D02*
X50199999Y-56800001D01*
X43500000Y-31767766D02*
X43500000Y-30000000D01*
X47926002Y-59000000D02*
X48000000Y-59000000D01*
X45926002Y-61000000D02*
X47926002Y-59000000D01*
X43000000Y-61000000D02*
X45926002Y-61000000D01*
X41500000Y-62500000D02*
X43000000Y-61000000D01*
X41500000Y-64000000D02*
X41500000Y-62500000D01*
D41*
X56000000Y-67000000D02*
X53999986Y-67000000D01*
X53999986Y-67000000D02*
X52000000Y-67000000D01*
X79001240Y-85001240D02*
X65750000Y-71750000D01*
X65750000Y-71750000D02*
X60750000Y-71750000D01*
X60750000Y-71750000D02*
X56399999Y-67399999D01*
X56399999Y-67399999D02*
X56000000Y-67000000D01*
X30000000Y-120000000D02*
X30000000Y-119500000D01*
X73000000Y-33500000D02*
X73000000Y-30000000D01*
X30500000Y-119500000D02*
X30000000Y-120000000D01*
X32000000Y-122000000D02*
X30000000Y-120000000D01*
X36000000Y-122000000D02*
X32000000Y-122000000D01*
X26020020Y-47000000D02*
X26010010Y-47010010D01*
D10*
X26010010Y-30000000D02*
X26010010Y-47010010D01*
X26040203Y-120000000D02*
X26500000Y-120000000D01*
X30000000Y-120000000D02*
X26040203Y-120000000D01*
D41*
X38510010Y-26000000D02*
X38500000Y-26010010D01*
D10*
X30000000Y-26000000D02*
X38510010Y-26000000D01*
D41*
X30000000Y-26040203D02*
X30000000Y-26000000D01*
D10*
X30000000Y-30000000D02*
X30000000Y-26040203D01*
X29989990Y-123969807D02*
X29989990Y-123989990D01*
X30000000Y-123959797D02*
X29989990Y-123969807D01*
X30000000Y-120000000D02*
X30000000Y-123959797D01*
X29989990Y-123989990D02*
X41489990Y-123989990D01*
X123959797Y-30000000D02*
X123989990Y-30000000D01*
X120000000Y-30000000D02*
X123959797Y-30000000D01*
X120000000Y-30000000D02*
X120000000Y-26010010D01*
X120000000Y-26010010D02*
X98760002Y-26010010D01*
X119989990Y-123969807D02*
X119989990Y-123989990D01*
X120000000Y-123959797D02*
X119989990Y-123969807D01*
X120000000Y-120000000D02*
X120000000Y-123959797D01*
X41489990Y-123989990D02*
X119989990Y-123989990D01*
X123959797Y-120000000D02*
X123989990Y-120000000D01*
X120000000Y-120000000D02*
X123959797Y-120000000D01*
D41*
X73000000Y-29500000D02*
X74000000Y-28500000D01*
X73000000Y-30000000D02*
X73000000Y-29500000D01*
X73000000Y-33500000D02*
X73000000Y-35000000D01*
D10*
X74000000Y-28500000D02*
X74000000Y-26375000D01*
X74364990Y-26010010D02*
X120000000Y-26010010D01*
X74000000Y-26375000D02*
X74364990Y-26010010D01*
X26040203Y-30000000D02*
X26010010Y-30000000D01*
X30000000Y-30000000D02*
X26040203Y-30000000D01*
D43*
X38500000Y-30000000D02*
X38500000Y-27000000D01*
X30000000Y-47000000D02*
X27000000Y-47000000D01*
D10*
X30000000Y-114750000D02*
X30000000Y-120000000D01*
X38000000Y-106750000D02*
X30000000Y-114750000D01*
X37000000Y-26000000D02*
X74000000Y-26000000D01*
D41*
X38500000Y-27000000D02*
X39500000Y-26000000D01*
D10*
X124000000Y-120000000D02*
X124000000Y-30000000D01*
X26000000Y-120000000D02*
X26000000Y-47000000D01*
D41*
X26040203Y-119540203D02*
X26010010Y-119510010D01*
X26040203Y-120000000D02*
X26040203Y-119540203D01*
X49000000Y-85997520D02*
X48998760Y-85998760D01*
X48998760Y-85998760D02*
X48998760Y-78498760D01*
X34000000Y-77500000D02*
X39500000Y-72000000D01*
X34000000Y-89300239D02*
X34000000Y-77500000D01*
X30000000Y-93300239D02*
X34000000Y-89300239D01*
X30000000Y-98000000D02*
X30000000Y-93300239D01*
X43000000Y-75500000D02*
X52000000Y-75500000D01*
X39500000Y-72000000D02*
X43000000Y-75500000D01*
X49001240Y-78498760D02*
X52000000Y-75500000D01*
X48998760Y-78498760D02*
X49001240Y-78498760D01*
D44*
X32250000Y-37000000D02*
X30500000Y-37000000D01*
X44200000Y-48950000D02*
X32250000Y-37000000D01*
X44200000Y-48950000D02*
X44200000Y-55400000D01*
D41*
X94750000Y-96000000D02*
X94500000Y-96250000D01*
X101500000Y-69420000D02*
X102000000Y-69920000D01*
X101500000Y-65000000D02*
X101500000Y-69420000D01*
X105420000Y-69920000D02*
X105500000Y-70000000D01*
X102000000Y-69920000D02*
X105420000Y-69920000D01*
X82900000Y-97500000D02*
X82900000Y-99500000D01*
X82900000Y-101450000D02*
X82950000Y-101500000D01*
X82900000Y-99500000D02*
X82900000Y-101450000D01*
X84300000Y-101500000D02*
X85050000Y-102250000D01*
X82950000Y-101500000D02*
X84300000Y-101500000D01*
X94500000Y-100000000D02*
X94500000Y-96250000D01*
X85050000Y-102250000D02*
X92250000Y-102250000D01*
X96500000Y-102500000D02*
X94500000Y-100500000D01*
X100000000Y-102500000D02*
X96500000Y-102500000D01*
X94500000Y-100500000D02*
X94500000Y-100000000D01*
X92250000Y-102250000D02*
X94500000Y-100500000D01*
X100399999Y-105399999D02*
X100000000Y-105000000D01*
X103500000Y-108500000D02*
X100399999Y-105399999D01*
X103500000Y-120000000D02*
X103500000Y-108500000D01*
X82900000Y-97500000D02*
X82900000Y-95500000D01*
X101500000Y-64000000D02*
X101500000Y-65000000D01*
X93500000Y-63500000D02*
X101000000Y-63500000D01*
X101000000Y-63500000D02*
X101500000Y-64000000D01*
X93500000Y-91500000D02*
X93500000Y-63500000D01*
X94500000Y-92500000D02*
X93500000Y-91500000D01*
X94500000Y-96250000D02*
X94500000Y-92500000D01*
X114500000Y-97580000D02*
X114500000Y-96250000D01*
X114500000Y-100000000D02*
X114500000Y-96250000D01*
X101850000Y-91000000D02*
X104000000Y-88850000D01*
X101500000Y-91000000D02*
X101850000Y-91000000D01*
X102000000Y-83460000D02*
X104000000Y-83500000D01*
X103750000Y-92900000D02*
X101850000Y-91000000D01*
X107100000Y-96250000D02*
X103750000Y-92900000D01*
X114500000Y-96250000D02*
X107100000Y-96250000D01*
X84250000Y-104500000D02*
X85000000Y-103750000D01*
X82900000Y-104500000D02*
X84250000Y-104500000D01*
X85000000Y-103750000D02*
X93250000Y-103750000D01*
X110750000Y-103750000D02*
X114500000Y-100000000D01*
X106000000Y-112500000D02*
X106000000Y-103750000D01*
X113500000Y-120000000D02*
X106000000Y-112500000D01*
X106000000Y-103750000D02*
X110750000Y-103750000D01*
X93250000Y-103750000D02*
X106000000Y-103750000D01*
X82900000Y-104500000D02*
X82900000Y-106500000D01*
X82900000Y-106500000D02*
X82900000Y-108500000D01*
X82900000Y-108500000D02*
X82900000Y-110500000D01*
X105500000Y-84500000D02*
X104000000Y-84500000D01*
X104000000Y-84500000D02*
X104000000Y-83500000D01*
X104000000Y-88850000D02*
X104000000Y-84500000D01*
D10*
X38000000Y-99000000D02*
X38000000Y-102750000D01*
D41*
X38000000Y-116000000D02*
X38000000Y-114500000D01*
X36000000Y-118000000D02*
X38000000Y-116000000D01*
X59500000Y-31500000D02*
X61000000Y-30000000D01*
X59500000Y-37000000D02*
X59500000Y-31500000D01*
X103400000Y-38600000D02*
X103000000Y-39000000D01*
X110200000Y-38600000D02*
X103400000Y-38600000D01*
X110200000Y-38600000D02*
X110200000Y-37800000D01*
X103000000Y-31160000D02*
X104160000Y-30000000D01*
X103000000Y-39000000D02*
X103000000Y-31160000D01*
X59440000Y-37060000D02*
X59500000Y-37000000D01*
X59440000Y-41420000D02*
X59440000Y-37060000D01*
D40*
X113250000Y-35550000D02*
X110200000Y-38600000D01*
X113250000Y-33850000D02*
X113250000Y-35550000D01*
X110200000Y-42950000D02*
X110200000Y-38600000D01*
X114281000Y-62465000D02*
X112250000Y-60434000D01*
X112250000Y-45000000D02*
X110200000Y-42950000D01*
X88549999Y-36050001D02*
X93199999Y-36050001D01*
X87100000Y-37500000D02*
X88549999Y-36050001D01*
X93199999Y-36050001D02*
X96250000Y-33000000D01*
X88450000Y-57000000D02*
X88450000Y-60250000D01*
X88450000Y-60250000D02*
X89500000Y-60250000D01*
X89500000Y-60250000D02*
X89500000Y-59500000D01*
X89500000Y-59500000D02*
X90000000Y-59000000D01*
X91135002Y-59000000D02*
X91750000Y-59614998D01*
X90000000Y-59000000D02*
X91135002Y-59000000D01*
X91750000Y-60885002D02*
X92414988Y-61549990D01*
X91750000Y-59614998D02*
X91750000Y-60885002D01*
X100450000Y-61150000D02*
X100450000Y-60250000D01*
X100050010Y-61549990D02*
X100450000Y-61150000D01*
X92414988Y-61549990D02*
X100050010Y-61549990D01*
X112250000Y-59500000D02*
X112250000Y-45000000D01*
X112250000Y-60434000D02*
X112250000Y-59500000D01*
X87100000Y-37500000D02*
X85250000Y-37500000D01*
X106250000Y-59500000D02*
X112250000Y-59500000D01*
X105750000Y-60000000D02*
X106250000Y-59500000D01*
X105000000Y-62750000D02*
X105750000Y-62000000D01*
X102750000Y-62750000D02*
X105000000Y-62750000D01*
X101500000Y-61500000D02*
X102750000Y-62750000D01*
X100800000Y-61500000D02*
X101500000Y-61500000D01*
X105750000Y-62000000D02*
X105750000Y-60000000D01*
X100450000Y-61150000D02*
X100800000Y-61500000D01*
X103550000Y-56550000D02*
X104500000Y-57500000D01*
X103550000Y-56550000D02*
X102500000Y-56550000D01*
X105250000Y-56750000D02*
X104500000Y-57500000D01*
X105550000Y-56450000D02*
X105250000Y-56750000D01*
X105550000Y-54750000D02*
X105550000Y-56450000D01*
X103950000Y-54750000D02*
X105550000Y-54750000D01*
D41*
X62068432Y-75500000D02*
X64034216Y-77465784D01*
X59000000Y-75500000D02*
X62068432Y-75500000D01*
X42349999Y-68599999D02*
X45750000Y-72000000D01*
X32400001Y-68599999D02*
X42349999Y-68599999D01*
X30000000Y-71000000D02*
X32400001Y-68599999D01*
X47022792Y-72000000D02*
X47572781Y-71450011D01*
X45750000Y-72000000D02*
X47022792Y-72000000D01*
X54950011Y-71450011D02*
X57800001Y-74300001D01*
X57800001Y-74300001D02*
X59000000Y-75500000D01*
X47572781Y-71450011D02*
X54950011Y-71450011D01*
D40*
X121802000Y-65104000D02*
X121901000Y-65005000D01*
X119234000Y-65104000D02*
X121802000Y-65104000D01*
X113149630Y-65005000D02*
X111394630Y-63250000D01*
X114281000Y-65005000D02*
X113149630Y-65005000D01*
X107500000Y-61000000D02*
X107500000Y-63250000D01*
X111394630Y-63250000D02*
X107500000Y-63250000D01*
X101250000Y-62000000D02*
X102500000Y-63250000D01*
X86000000Y-62000000D02*
X101250000Y-62000000D01*
X102500000Y-63250000D02*
X107500000Y-63250000D01*
X85250000Y-61250000D02*
X86000000Y-62000000D01*
X85250000Y-50000000D02*
X85250000Y-61250000D01*
X117500000Y-69000000D02*
X119250000Y-69000000D01*
X117500000Y-87000000D02*
X119350000Y-87000000D01*
X98550000Y-60250000D02*
X98550000Y-57000000D01*
X98550000Y-56300000D02*
X98000000Y-55750000D01*
X98550000Y-57000000D02*
X98550000Y-56300000D01*
X98000000Y-55750000D02*
X98000000Y-53150000D01*
X115412370Y-56750000D02*
X115932000Y-56230370D01*
X114281000Y-56750000D02*
X115412370Y-56750000D01*
X115932000Y-56230370D02*
X115943630Y-56230370D01*
X115943630Y-56230370D02*
X117964000Y-54210000D01*
X117964000Y-49464000D02*
X119996000Y-47432000D01*
X117964000Y-54210000D02*
X117964000Y-49464000D01*
X119996000Y-54706370D02*
X119996000Y-52432000D01*
X115412370Y-59290000D02*
X119996000Y-54706370D01*
X114281000Y-59290000D02*
X115412370Y-59290000D01*
X121901000Y-59290000D02*
X121901000Y-62465000D01*
X118228234Y-37272000D02*
X119996000Y-37272000D01*
X115340000Y-37160000D02*
X115340000Y-33636000D01*
X115228000Y-37272000D02*
X115340000Y-37160000D01*
X115228000Y-37272000D02*
X118228234Y-37272000D01*
X114478000Y-37272000D02*
X115228000Y-37272000D01*
X114125000Y-37625000D02*
X114478000Y-37272000D01*
X113000000Y-38750000D02*
X114125000Y-37625000D01*
X87500000Y-55000000D02*
X86500000Y-55000000D01*
X114500000Y-38750000D02*
X113000000Y-38750000D01*
X92750000Y-51250000D02*
X90750000Y-51250000D01*
X88750000Y-51250000D02*
X90750000Y-51250000D01*
X92450000Y-56300000D02*
X92150000Y-56000000D01*
X92450000Y-57000000D02*
X92450000Y-56300000D01*
X92150000Y-56000000D02*
X90500000Y-56000000D01*
X88750000Y-54250000D02*
X90500000Y-56000000D01*
X88750000Y-53150000D02*
X88750000Y-54250000D01*
X90550000Y-57050000D02*
X90550000Y-57000000D01*
X92700000Y-59200000D02*
X90550000Y-57050000D01*
X92700000Y-60250000D02*
X92700000Y-59200000D01*
X100450000Y-56300000D02*
X100450000Y-57000000D01*
X100450000Y-55750000D02*
X100450000Y-56300000D01*
X101450000Y-54750000D02*
X100450000Y-55750000D01*
X102050000Y-54750000D02*
X101450000Y-54750000D01*
D45*
G36*
X80015000Y-104214250D02*
G01*
X80173750Y-104373000D01*
X80873000Y-104373000D01*
X80873000Y-104353000D01*
X81127000Y-104353000D01*
X81127000Y-104373000D01*
X81147000Y-104373000D01*
X81147000Y-104627000D01*
X81127000Y-104627000D01*
X81127000Y-105626250D01*
X81250750Y-105750000D01*
X81127000Y-105873750D01*
X81127000Y-106873000D01*
X81147000Y-106873000D01*
X81147000Y-107127000D01*
X81127000Y-107127000D01*
X81127000Y-108126250D01*
X81250750Y-108250000D01*
X81127000Y-108373750D01*
X81127000Y-109373000D01*
X81147000Y-109373000D01*
X81147000Y-109627000D01*
X81127000Y-109627000D01*
X81127000Y-110626250D01*
X81250750Y-110750000D01*
X81127000Y-110873750D01*
X81127000Y-111873000D01*
X81147000Y-111873000D01*
X81147000Y-112127000D01*
X81127000Y-112127000D01*
X81127000Y-113126250D01*
X81285750Y-113285000D01*
X81350000Y-113288072D01*
X81373000Y-113285807D01*
X81373000Y-113373000D01*
X76127000Y-113373000D01*
X76127000Y-112650000D01*
X80011928Y-112650000D01*
X80024188Y-112774482D01*
X80060498Y-112894180D01*
X80119463Y-113004494D01*
X80198815Y-113101185D01*
X80295506Y-113180537D01*
X80405820Y-113239502D01*
X80525518Y-113275812D01*
X80650000Y-113288072D01*
X80714250Y-113285000D01*
X80873000Y-113126250D01*
X80873000Y-112127000D01*
X80173750Y-112127000D01*
X80015000Y-112285750D01*
X80011928Y-112650000D01*
X76127000Y-112650000D01*
X76127000Y-110150000D01*
X80011928Y-110150000D01*
X80024188Y-110274482D01*
X80060498Y-110394180D01*
X80119463Y-110504494D01*
X80198815Y-110601185D01*
X80295506Y-110680537D01*
X80405820Y-110739502D01*
X80440427Y-110750000D01*
X80405820Y-110760498D01*
X80295506Y-110819463D01*
X80198815Y-110898815D01*
X80119463Y-110995506D01*
X80060498Y-111105820D01*
X80024188Y-111225518D01*
X80011928Y-111350000D01*
X80015000Y-111714250D01*
X80173750Y-111873000D01*
X80873000Y-111873000D01*
X80873000Y-110873750D01*
X80749250Y-110750000D01*
X80873000Y-110626250D01*
X80873000Y-109627000D01*
X80173750Y-109627000D01*
X80015000Y-109785750D01*
X80011928Y-110150000D01*
X76127000Y-110150000D01*
X76127000Y-107650000D01*
X80011928Y-107650000D01*
X80024188Y-107774482D01*
X80060498Y-107894180D01*
X80119463Y-108004494D01*
X80198815Y-108101185D01*
X80295506Y-108180537D01*
X80405820Y-108239502D01*
X80440427Y-108250000D01*
X80405820Y-108260498D01*
X80295506Y-108319463D01*
X80198815Y-108398815D01*
X80119463Y-108495506D01*
X80060498Y-108605820D01*
X80024188Y-108725518D01*
X80011928Y-108850000D01*
X80015000Y-109214250D01*
X80173750Y-109373000D01*
X80873000Y-109373000D01*
X80873000Y-108373750D01*
X80749250Y-108250000D01*
X80873000Y-108126250D01*
X80873000Y-107127000D01*
X80173750Y-107127000D01*
X80015000Y-107285750D01*
X80011928Y-107650000D01*
X76127000Y-107650000D01*
X76127000Y-105150000D01*
X80011928Y-105150000D01*
X80024188Y-105274482D01*
X80060498Y-105394180D01*
X80119463Y-105504494D01*
X80198815Y-105601185D01*
X80295506Y-105680537D01*
X80405820Y-105739502D01*
X80440427Y-105750000D01*
X80405820Y-105760498D01*
X80295506Y-105819463D01*
X80198815Y-105898815D01*
X80119463Y-105995506D01*
X80060498Y-106105820D01*
X80024188Y-106225518D01*
X80011928Y-106350000D01*
X80015000Y-106714250D01*
X80173750Y-106873000D01*
X80873000Y-106873000D01*
X80873000Y-105873750D01*
X80749250Y-105750000D01*
X80873000Y-105626250D01*
X80873000Y-104627000D01*
X80173750Y-104627000D01*
X80015000Y-104785750D01*
X80011928Y-105150000D01*
X76127000Y-105150000D01*
X76127000Y-103877000D01*
X80012156Y-103877000D01*
X80015000Y-104214250D01*
G37*
X80015000Y-104214250D02*
X80173750Y-104373000D01*
X80873000Y-104373000D01*
X80873000Y-104353000D01*
X81127000Y-104353000D01*
X81127000Y-104373000D01*
X81147000Y-104373000D01*
X81147000Y-104627000D01*
X81127000Y-104627000D01*
X81127000Y-105626250D01*
X81250750Y-105750000D01*
X81127000Y-105873750D01*
X81127000Y-106873000D01*
X81147000Y-106873000D01*
X81147000Y-107127000D01*
X81127000Y-107127000D01*
X81127000Y-108126250D01*
X81250750Y-108250000D01*
X81127000Y-108373750D01*
X81127000Y-109373000D01*
X81147000Y-109373000D01*
X81147000Y-109627000D01*
X81127000Y-109627000D01*
X81127000Y-110626250D01*
X81250750Y-110750000D01*
X81127000Y-110873750D01*
X81127000Y-111873000D01*
X81147000Y-111873000D01*
X81147000Y-112127000D01*
X81127000Y-112127000D01*
X81127000Y-113126250D01*
X81285750Y-113285000D01*
X81350000Y-113288072D01*
X81373000Y-113285807D01*
X81373000Y-113373000D01*
X76127000Y-113373000D01*
X76127000Y-112650000D01*
X80011928Y-112650000D01*
X80024188Y-112774482D01*
X80060498Y-112894180D01*
X80119463Y-113004494D01*
X80198815Y-113101185D01*
X80295506Y-113180537D01*
X80405820Y-113239502D01*
X80525518Y-113275812D01*
X80650000Y-113288072D01*
X80714250Y-113285000D01*
X80873000Y-113126250D01*
X80873000Y-112127000D01*
X80173750Y-112127000D01*
X80015000Y-112285750D01*
X80011928Y-112650000D01*
X76127000Y-112650000D01*
X76127000Y-110150000D01*
X80011928Y-110150000D01*
X80024188Y-110274482D01*
X80060498Y-110394180D01*
X80119463Y-110504494D01*
X80198815Y-110601185D01*
X80295506Y-110680537D01*
X80405820Y-110739502D01*
X80440427Y-110750000D01*
X80405820Y-110760498D01*
X80295506Y-110819463D01*
X80198815Y-110898815D01*
X80119463Y-110995506D01*
X80060498Y-111105820D01*
X80024188Y-111225518D01*
X80011928Y-111350000D01*
X80015000Y-111714250D01*
X80173750Y-111873000D01*
X80873000Y-111873000D01*
X80873000Y-110873750D01*
X80749250Y-110750000D01*
X80873000Y-110626250D01*
X80873000Y-109627000D01*
X80173750Y-109627000D01*
X80015000Y-109785750D01*
X80011928Y-110150000D01*
X76127000Y-110150000D01*
X76127000Y-107650000D01*
X80011928Y-107650000D01*
X80024188Y-107774482D01*
X80060498Y-107894180D01*
X80119463Y-108004494D01*
X80198815Y-108101185D01*
X80295506Y-108180537D01*
X80405820Y-108239502D01*
X80440427Y-108250000D01*
X80405820Y-108260498D01*
X80295506Y-108319463D01*
X80198815Y-108398815D01*
X80119463Y-108495506D01*
X80060498Y-108605820D01*
X80024188Y-108725518D01*
X80011928Y-108850000D01*
X80015000Y-109214250D01*
X80173750Y-109373000D01*
X80873000Y-109373000D01*
X80873000Y-108373750D01*
X80749250Y-108250000D01*
X80873000Y-108126250D01*
X80873000Y-107127000D01*
X80173750Y-107127000D01*
X80015000Y-107285750D01*
X80011928Y-107650000D01*
X76127000Y-107650000D01*
X76127000Y-105150000D01*
X80011928Y-105150000D01*
X80024188Y-105274482D01*
X80060498Y-105394180D01*
X80119463Y-105504494D01*
X80198815Y-105601185D01*
X80295506Y-105680537D01*
X80405820Y-105739502D01*
X80440427Y-105750000D01*
X80405820Y-105760498D01*
X80295506Y-105819463D01*
X80198815Y-105898815D01*
X80119463Y-105995506D01*
X80060498Y-106105820D01*
X80024188Y-106225518D01*
X80011928Y-106350000D01*
X80015000Y-106714250D01*
X80173750Y-106873000D01*
X80873000Y-106873000D01*
X80873000Y-105873750D01*
X80749250Y-105750000D01*
X80873000Y-105626250D01*
X80873000Y-104627000D01*
X80173750Y-104627000D01*
X80015000Y-104785750D01*
X80011928Y-105150000D01*
X76127000Y-105150000D01*
X76127000Y-103877000D01*
X80012156Y-103877000D01*
X80015000Y-104214250D01*
G36*
X81373000Y-92714193D02*
G01*
X81350000Y-92711928D01*
X81285750Y-92715000D01*
X81127000Y-92873750D01*
X81127000Y-93873000D01*
X81147000Y-93873000D01*
X81147000Y-94127000D01*
X81127000Y-94127000D01*
X81127000Y-95126250D01*
X81250750Y-95250000D01*
X81127000Y-95373750D01*
X81127000Y-96373000D01*
X81147000Y-96373000D01*
X81147000Y-96627000D01*
X81127000Y-96627000D01*
X81127000Y-97626250D01*
X81250750Y-97750000D01*
X81127000Y-97873750D01*
X81127000Y-98873000D01*
X81147000Y-98873000D01*
X81147000Y-99127000D01*
X81127000Y-99127000D01*
X81127000Y-100126250D01*
X81275750Y-100275000D01*
X81177000Y-100373750D01*
X81177000Y-101373000D01*
X81197000Y-101373000D01*
X81197000Y-101627000D01*
X81177000Y-101627000D01*
X81177000Y-101647000D01*
X80923000Y-101647000D01*
X80923000Y-101627000D01*
X80223750Y-101627000D01*
X80065000Y-101785750D01*
X80062156Y-102123000D01*
X76127000Y-102123000D01*
X76127000Y-99650000D01*
X80011928Y-99650000D01*
X80024188Y-99774482D01*
X80060498Y-99894180D01*
X80119463Y-100004494D01*
X80198815Y-100101185D01*
X80295506Y-100180537D01*
X80405820Y-100239502D01*
X80465427Y-100257584D01*
X80455820Y-100260498D01*
X80345506Y-100319463D01*
X80248815Y-100398815D01*
X80169463Y-100495506D01*
X80110498Y-100605820D01*
X80074188Y-100725518D01*
X80061928Y-100850000D01*
X80065000Y-101214250D01*
X80223750Y-101373000D01*
X80923000Y-101373000D01*
X80923000Y-100373750D01*
X80774250Y-100225000D01*
X80873000Y-100126250D01*
X80873000Y-99127000D01*
X80173750Y-99127000D01*
X80015000Y-99285750D01*
X80011928Y-99650000D01*
X76127000Y-99650000D01*
X76127000Y-97150000D01*
X80011928Y-97150000D01*
X80024188Y-97274482D01*
X80060498Y-97394180D01*
X80119463Y-97504494D01*
X80198815Y-97601185D01*
X80295506Y-97680537D01*
X80405820Y-97739502D01*
X80440427Y-97750000D01*
X80405820Y-97760498D01*
X80295506Y-97819463D01*
X80198815Y-97898815D01*
X80119463Y-97995506D01*
X80060498Y-98105820D01*
X80024188Y-98225518D01*
X80011928Y-98350000D01*
X80015000Y-98714250D01*
X80173750Y-98873000D01*
X80873000Y-98873000D01*
X80873000Y-97873750D01*
X80749250Y-97750000D01*
X80873000Y-97626250D01*
X80873000Y-96627000D01*
X80173750Y-96627000D01*
X80015000Y-96785750D01*
X80011928Y-97150000D01*
X76127000Y-97150000D01*
X76127000Y-94650000D01*
X80011928Y-94650000D01*
X80024188Y-94774482D01*
X80060498Y-94894180D01*
X80119463Y-95004494D01*
X80198815Y-95101185D01*
X80295506Y-95180537D01*
X80405820Y-95239502D01*
X80440427Y-95250000D01*
X80405820Y-95260498D01*
X80295506Y-95319463D01*
X80198815Y-95398815D01*
X80119463Y-95495506D01*
X80060498Y-95605820D01*
X80024188Y-95725518D01*
X80011928Y-95850000D01*
X80015000Y-96214250D01*
X80173750Y-96373000D01*
X80873000Y-96373000D01*
X80873000Y-95373750D01*
X80749250Y-95250000D01*
X80873000Y-95126250D01*
X80873000Y-94127000D01*
X80173750Y-94127000D01*
X80015000Y-94285750D01*
X80011928Y-94650000D01*
X76127000Y-94650000D01*
X76127000Y-93350000D01*
X80011928Y-93350000D01*
X80015000Y-93714250D01*
X80173750Y-93873000D01*
X80873000Y-93873000D01*
X80873000Y-92873750D01*
X80714250Y-92715000D01*
X80650000Y-92711928D01*
X80525518Y-92724188D01*
X80405820Y-92760498D01*
X80295506Y-92819463D01*
X80198815Y-92898815D01*
X80119463Y-92995506D01*
X80060498Y-93105820D01*
X80024188Y-93225518D01*
X80011928Y-93350000D01*
X76127000Y-93350000D01*
X76127000Y-92627000D01*
X81373000Y-92627000D01*
X81373000Y-92714193D01*
G37*
X81373000Y-92714193D02*
X81350000Y-92711928D01*
X81285750Y-92715000D01*
X81127000Y-92873750D01*
X81127000Y-93873000D01*
X81147000Y-93873000D01*
X81147000Y-94127000D01*
X81127000Y-94127000D01*
X81127000Y-95126250D01*
X81250750Y-95250000D01*
X81127000Y-95373750D01*
X81127000Y-96373000D01*
X81147000Y-96373000D01*
X81147000Y-96627000D01*
X81127000Y-96627000D01*
X81127000Y-97626250D01*
X81250750Y-97750000D01*
X81127000Y-97873750D01*
X81127000Y-98873000D01*
X81147000Y-98873000D01*
X81147000Y-99127000D01*
X81127000Y-99127000D01*
X81127000Y-100126250D01*
X81275750Y-100275000D01*
X81177000Y-100373750D01*
X81177000Y-101373000D01*
X81197000Y-101373000D01*
X81197000Y-101627000D01*
X81177000Y-101627000D01*
X81177000Y-101647000D01*
X80923000Y-101647000D01*
X80923000Y-101627000D01*
X80223750Y-101627000D01*
X80065000Y-101785750D01*
X80062156Y-102123000D01*
X76127000Y-102123000D01*
X76127000Y-99650000D01*
X80011928Y-99650000D01*
X80024188Y-99774482D01*
X80060498Y-99894180D01*
X80119463Y-100004494D01*
X80198815Y-100101185D01*
X80295506Y-100180537D01*
X80405820Y-100239502D01*
X80465427Y-100257584D01*
X80455820Y-100260498D01*
X80345506Y-100319463D01*
X80248815Y-100398815D01*
X80169463Y-100495506D01*
X80110498Y-100605820D01*
X80074188Y-100725518D01*
X80061928Y-100850000D01*
X80065000Y-101214250D01*
X80223750Y-101373000D01*
X80923000Y-101373000D01*
X80923000Y-100373750D01*
X80774250Y-100225000D01*
X80873000Y-100126250D01*
X80873000Y-99127000D01*
X80173750Y-99127000D01*
X80015000Y-99285750D01*
X80011928Y-99650000D01*
X76127000Y-99650000D01*
X76127000Y-97150000D01*
X80011928Y-97150000D01*
X80024188Y-97274482D01*
X80060498Y-97394180D01*
X80119463Y-97504494D01*
X80198815Y-97601185D01*
X80295506Y-97680537D01*
X80405820Y-97739502D01*
X80440427Y-97750000D01*
X80405820Y-97760498D01*
X80295506Y-97819463D01*
X80198815Y-97898815D01*
X80119463Y-97995506D01*
X80060498Y-98105820D01*
X80024188Y-98225518D01*
X80011928Y-98350000D01*
X80015000Y-98714250D01*
X80173750Y-98873000D01*
X80873000Y-98873000D01*
X80873000Y-97873750D01*
X80749250Y-97750000D01*
X80873000Y-97626250D01*
X80873000Y-96627000D01*
X80173750Y-96627000D01*
X80015000Y-96785750D01*
X80011928Y-97150000D01*
X76127000Y-97150000D01*
X76127000Y-94650000D01*
X80011928Y-94650000D01*
X80024188Y-94774482D01*
X80060498Y-94894180D01*
X80119463Y-95004494D01*
X80198815Y-95101185D01*
X80295506Y-95180537D01*
X80405820Y-95239502D01*
X80440427Y-95250000D01*
X80405820Y-95260498D01*
X80295506Y-95319463D01*
X80198815Y-95398815D01*
X80119463Y-95495506D01*
X80060498Y-95605820D01*
X80024188Y-95725518D01*
X80011928Y-95850000D01*
X80015000Y-96214250D01*
X80173750Y-96373000D01*
X80873000Y-96373000D01*
X80873000Y-95373750D01*
X80749250Y-95250000D01*
X80873000Y-95126250D01*
X80873000Y-94127000D01*
X80173750Y-94127000D01*
X80015000Y-94285750D01*
X80011928Y-94650000D01*
X76127000Y-94650000D01*
X76127000Y-93350000D01*
X80011928Y-93350000D01*
X80015000Y-93714250D01*
X80173750Y-93873000D01*
X80873000Y-93873000D01*
X80873000Y-92873750D01*
X80714250Y-92715000D01*
X80650000Y-92711928D01*
X80525518Y-92724188D01*
X80405820Y-92760498D01*
X80295506Y-92819463D01*
X80198815Y-92898815D01*
X80119463Y-92995506D01*
X80060498Y-93105820D01*
X80024188Y-93225518D01*
X80011928Y-93350000D01*
X76127000Y-93350000D01*
X76127000Y-92627000D01*
X81373000Y-92627000D01*
X81373000Y-92714193D01*
G36*
X87623000Y-102123000D02*
G01*
X83937844Y-102123000D01*
X83935000Y-101785750D01*
X83776250Y-101627000D01*
X83077000Y-101627000D01*
X83077000Y-101647000D01*
X82823000Y-101647000D01*
X82823000Y-101627000D01*
X82803000Y-101627000D01*
X82803000Y-101373000D01*
X82823000Y-101373000D01*
X82823000Y-100373750D01*
X82674250Y-100225000D01*
X82773000Y-100126250D01*
X82773000Y-99127000D01*
X83027000Y-99127000D01*
X83027000Y-100126250D01*
X83175750Y-100275000D01*
X83077000Y-100373750D01*
X83077000Y-101373000D01*
X83776250Y-101373000D01*
X83935000Y-101214250D01*
X83938072Y-100850000D01*
X83925812Y-100725518D01*
X83889502Y-100605820D01*
X83830537Y-100495506D01*
X83751185Y-100398815D01*
X83654494Y-100319463D01*
X83544180Y-100260498D01*
X83484573Y-100242416D01*
X83494180Y-100239502D01*
X83604494Y-100180537D01*
X83701185Y-100101185D01*
X83780537Y-100004494D01*
X83839502Y-99894180D01*
X83875812Y-99774482D01*
X83888072Y-99650000D01*
X83885000Y-99285750D01*
X83726250Y-99127000D01*
X83027000Y-99127000D01*
X82773000Y-99127000D01*
X82753000Y-99127000D01*
X82753000Y-98873000D01*
X82773000Y-98873000D01*
X82773000Y-97873750D01*
X82649250Y-97750000D01*
X82773000Y-97626250D01*
X82773000Y-96627000D01*
X83027000Y-96627000D01*
X83027000Y-97626250D01*
X83150750Y-97750000D01*
X83027000Y-97873750D01*
X83027000Y-98873000D01*
X83726250Y-98873000D01*
X83885000Y-98714250D01*
X83888072Y-98350000D01*
X83875812Y-98225518D01*
X83839502Y-98105820D01*
X83780537Y-97995506D01*
X83701185Y-97898815D01*
X83604494Y-97819463D01*
X83494180Y-97760498D01*
X83459573Y-97750000D01*
X83494180Y-97739502D01*
X83604494Y-97680537D01*
X83701185Y-97601185D01*
X83780537Y-97504494D01*
X83839502Y-97394180D01*
X83875812Y-97274482D01*
X83888072Y-97150000D01*
X83885000Y-96785750D01*
X83726250Y-96627000D01*
X83027000Y-96627000D01*
X82773000Y-96627000D01*
X82753000Y-96627000D01*
X82753000Y-96373000D01*
X82773000Y-96373000D01*
X82773000Y-95373750D01*
X82649250Y-95250000D01*
X82773000Y-95126250D01*
X82773000Y-94127000D01*
X83027000Y-94127000D01*
X83027000Y-95126250D01*
X83150750Y-95250000D01*
X83027000Y-95373750D01*
X83027000Y-96373000D01*
X83726250Y-96373000D01*
X83885000Y-96214250D01*
X83888072Y-95850000D01*
X83875812Y-95725518D01*
X83839502Y-95605820D01*
X83780537Y-95495506D01*
X83701185Y-95398815D01*
X83604494Y-95319463D01*
X83494180Y-95260498D01*
X83459573Y-95250000D01*
X83494180Y-95239502D01*
X83604494Y-95180537D01*
X83701185Y-95101185D01*
X83780537Y-95004494D01*
X83839502Y-94894180D01*
X83875812Y-94774482D01*
X83888072Y-94650000D01*
X83885000Y-94285750D01*
X83726250Y-94127000D01*
X83027000Y-94127000D01*
X82773000Y-94127000D01*
X82753000Y-94127000D01*
X82753000Y-93873000D01*
X82773000Y-93873000D01*
X82773000Y-92873750D01*
X83027000Y-92873750D01*
X83027000Y-93873000D01*
X83726250Y-93873000D01*
X83885000Y-93714250D01*
X83888072Y-93350000D01*
X83875812Y-93225518D01*
X83839502Y-93105820D01*
X83780537Y-92995506D01*
X83701185Y-92898815D01*
X83604494Y-92819463D01*
X83494180Y-92760498D01*
X83374482Y-92724188D01*
X83250000Y-92711928D01*
X83185750Y-92715000D01*
X83027000Y-92873750D01*
X82773000Y-92873750D01*
X82614250Y-92715000D01*
X82550000Y-92711928D01*
X82425518Y-92724188D01*
X82377000Y-92738906D01*
X82377000Y-92627000D01*
X87623000Y-92627000D01*
X87623000Y-102123000D01*
G37*
X87623000Y-102123000D02*
X83937844Y-102123000D01*
X83935000Y-101785750D01*
X83776250Y-101627000D01*
X83077000Y-101627000D01*
X83077000Y-101647000D01*
X82823000Y-101647000D01*
X82823000Y-101627000D01*
X82803000Y-101627000D01*
X82803000Y-101373000D01*
X82823000Y-101373000D01*
X82823000Y-100373750D01*
X82674250Y-100225000D01*
X82773000Y-100126250D01*
X82773000Y-99127000D01*
X83027000Y-99127000D01*
X83027000Y-100126250D01*
X83175750Y-100275000D01*
X83077000Y-100373750D01*
X83077000Y-101373000D01*
X83776250Y-101373000D01*
X83935000Y-101214250D01*
X83938072Y-100850000D01*
X83925812Y-100725518D01*
X83889502Y-100605820D01*
X83830537Y-100495506D01*
X83751185Y-100398815D01*
X83654494Y-100319463D01*
X83544180Y-100260498D01*
X83484573Y-100242416D01*
X83494180Y-100239502D01*
X83604494Y-100180537D01*
X83701185Y-100101185D01*
X83780537Y-100004494D01*
X83839502Y-99894180D01*
X83875812Y-99774482D01*
X83888072Y-99650000D01*
X83885000Y-99285750D01*
X83726250Y-99127000D01*
X83027000Y-99127000D01*
X82773000Y-99127000D01*
X82753000Y-99127000D01*
X82753000Y-98873000D01*
X82773000Y-98873000D01*
X82773000Y-97873750D01*
X82649250Y-97750000D01*
X82773000Y-97626250D01*
X82773000Y-96627000D01*
X83027000Y-96627000D01*
X83027000Y-97626250D01*
X83150750Y-97750000D01*
X83027000Y-97873750D01*
X83027000Y-98873000D01*
X83726250Y-98873000D01*
X83885000Y-98714250D01*
X83888072Y-98350000D01*
X83875812Y-98225518D01*
X83839502Y-98105820D01*
X83780537Y-97995506D01*
X83701185Y-97898815D01*
X83604494Y-97819463D01*
X83494180Y-97760498D01*
X83459573Y-97750000D01*
X83494180Y-97739502D01*
X83604494Y-97680537D01*
X83701185Y-97601185D01*
X83780537Y-97504494D01*
X83839502Y-97394180D01*
X83875812Y-97274482D01*
X83888072Y-97150000D01*
X83885000Y-96785750D01*
X83726250Y-96627000D01*
X83027000Y-96627000D01*
X82773000Y-96627000D01*
X82753000Y-96627000D01*
X82753000Y-96373000D01*
X82773000Y-96373000D01*
X82773000Y-95373750D01*
X82649250Y-95250000D01*
X82773000Y-95126250D01*
X82773000Y-94127000D01*
X83027000Y-94127000D01*
X83027000Y-95126250D01*
X83150750Y-95250000D01*
X83027000Y-95373750D01*
X83027000Y-96373000D01*
X83726250Y-96373000D01*
X83885000Y-96214250D01*
X83888072Y-95850000D01*
X83875812Y-95725518D01*
X83839502Y-95605820D01*
X83780537Y-95495506D01*
X83701185Y-95398815D01*
X83604494Y-95319463D01*
X83494180Y-95260498D01*
X83459573Y-95250000D01*
X83494180Y-95239502D01*
X83604494Y-95180537D01*
X83701185Y-95101185D01*
X83780537Y-95004494D01*
X83839502Y-94894180D01*
X83875812Y-94774482D01*
X83888072Y-94650000D01*
X83885000Y-94285750D01*
X83726250Y-94127000D01*
X83027000Y-94127000D01*
X82773000Y-94127000D01*
X82753000Y-94127000D01*
X82753000Y-93873000D01*
X82773000Y-93873000D01*
X82773000Y-92873750D01*
X83027000Y-92873750D01*
X83027000Y-93873000D01*
X83726250Y-93873000D01*
X83885000Y-93714250D01*
X83888072Y-93350000D01*
X83875812Y-93225518D01*
X83839502Y-93105820D01*
X83780537Y-92995506D01*
X83701185Y-92898815D01*
X83604494Y-92819463D01*
X83494180Y-92760498D01*
X83374482Y-92724188D01*
X83250000Y-92711928D01*
X83185750Y-92715000D01*
X83027000Y-92873750D01*
X82773000Y-92873750D01*
X82614250Y-92715000D01*
X82550000Y-92711928D01*
X82425518Y-92724188D01*
X82377000Y-92738906D01*
X82377000Y-92627000D01*
X87623000Y-92627000D01*
X87623000Y-102123000D01*
G36*
X87623000Y-113373000D02*
G01*
X82377000Y-113373000D01*
X82377000Y-113261094D01*
X82425518Y-113275812D01*
X82550000Y-113288072D01*
X82614250Y-113285000D01*
X82773000Y-113126250D01*
X82773000Y-112127000D01*
X83027000Y-112127000D01*
X83027000Y-113126250D01*
X83185750Y-113285000D01*
X83250000Y-113288072D01*
X83374482Y-113275812D01*
X83494180Y-113239502D01*
X83604494Y-113180537D01*
X83701185Y-113101185D01*
X83780537Y-113004494D01*
X83839502Y-112894180D01*
X83875812Y-112774482D01*
X83888072Y-112650000D01*
X83885000Y-112285750D01*
X83726250Y-112127000D01*
X83027000Y-112127000D01*
X82773000Y-112127000D01*
X82753000Y-112127000D01*
X82753000Y-111873000D01*
X82773000Y-111873000D01*
X82773000Y-110873750D01*
X82649250Y-110750000D01*
X82773000Y-110626250D01*
X82773000Y-109627000D01*
X83027000Y-109627000D01*
X83027000Y-110626250D01*
X83150750Y-110750000D01*
X83027000Y-110873750D01*
X83027000Y-111873000D01*
X83726250Y-111873000D01*
X83885000Y-111714250D01*
X83888072Y-111350000D01*
X83875812Y-111225518D01*
X83839502Y-111105820D01*
X83780537Y-110995506D01*
X83701185Y-110898815D01*
X83604494Y-110819463D01*
X83494180Y-110760498D01*
X83459573Y-110750000D01*
X83494180Y-110739502D01*
X83604494Y-110680537D01*
X83701185Y-110601185D01*
X83780537Y-110504494D01*
X83839502Y-110394180D01*
X83875812Y-110274482D01*
X83888072Y-110150000D01*
X83885000Y-109785750D01*
X83726250Y-109627000D01*
X83027000Y-109627000D01*
X82773000Y-109627000D01*
X82753000Y-109627000D01*
X82753000Y-109373000D01*
X82773000Y-109373000D01*
X82773000Y-108373750D01*
X82649250Y-108250000D01*
X82773000Y-108126250D01*
X82773000Y-107127000D01*
X83027000Y-107127000D01*
X83027000Y-108126250D01*
X83150750Y-108250000D01*
X83027000Y-108373750D01*
X83027000Y-109373000D01*
X83726250Y-109373000D01*
X83885000Y-109214250D01*
X83888072Y-108850000D01*
X83875812Y-108725518D01*
X83839502Y-108605820D01*
X83780537Y-108495506D01*
X83701185Y-108398815D01*
X83604494Y-108319463D01*
X83494180Y-108260498D01*
X83459573Y-108250000D01*
X83494180Y-108239502D01*
X83604494Y-108180537D01*
X83701185Y-108101185D01*
X83780537Y-108004494D01*
X83839502Y-107894180D01*
X83875812Y-107774482D01*
X83888072Y-107650000D01*
X83885000Y-107285750D01*
X83726250Y-107127000D01*
X83027000Y-107127000D01*
X82773000Y-107127000D01*
X82753000Y-107127000D01*
X82753000Y-106873000D01*
X82773000Y-106873000D01*
X82773000Y-105873750D01*
X82649250Y-105750000D01*
X82773000Y-105626250D01*
X82773000Y-104627000D01*
X83027000Y-104627000D01*
X83027000Y-105626250D01*
X83150750Y-105750000D01*
X83027000Y-105873750D01*
X83027000Y-106873000D01*
X83726250Y-106873000D01*
X83885000Y-106714250D01*
X83888072Y-106350000D01*
X83875812Y-106225518D01*
X83839502Y-106105820D01*
X83780537Y-105995506D01*
X83701185Y-105898815D01*
X83604494Y-105819463D01*
X83494180Y-105760498D01*
X83459573Y-105750000D01*
X83494180Y-105739502D01*
X83604494Y-105680537D01*
X83701185Y-105601185D01*
X83780537Y-105504494D01*
X83839502Y-105394180D01*
X83875812Y-105274482D01*
X83888072Y-105150000D01*
X83885000Y-104785750D01*
X83726250Y-104627000D01*
X83027000Y-104627000D01*
X82773000Y-104627000D01*
X82753000Y-104627000D01*
X82753000Y-104373000D01*
X82773000Y-104373000D01*
X82773000Y-104353000D01*
X83027000Y-104353000D01*
X83027000Y-104373000D01*
X83726250Y-104373000D01*
X83885000Y-104214250D01*
X83887844Y-103877000D01*
X87623000Y-103877000D01*
X87623000Y-113373000D01*
G37*
X87623000Y-113373000D02*
X82377000Y-113373000D01*
X82377000Y-113261094D01*
X82425518Y-113275812D01*
X82550000Y-113288072D01*
X82614250Y-113285000D01*
X82773000Y-113126250D01*
X82773000Y-112127000D01*
X83027000Y-112127000D01*
X83027000Y-113126250D01*
X83185750Y-113285000D01*
X83250000Y-113288072D01*
X83374482Y-113275812D01*
X83494180Y-113239502D01*
X83604494Y-113180537D01*
X83701185Y-113101185D01*
X83780537Y-113004494D01*
X83839502Y-112894180D01*
X83875812Y-112774482D01*
X83888072Y-112650000D01*
X83885000Y-112285750D01*
X83726250Y-112127000D01*
X83027000Y-112127000D01*
X82773000Y-112127000D01*
X82753000Y-112127000D01*
X82753000Y-111873000D01*
X82773000Y-111873000D01*
X82773000Y-110873750D01*
X82649250Y-110750000D01*
X82773000Y-110626250D01*
X82773000Y-109627000D01*
X83027000Y-109627000D01*
X83027000Y-110626250D01*
X83150750Y-110750000D01*
X83027000Y-110873750D01*
X83027000Y-111873000D01*
X83726250Y-111873000D01*
X83885000Y-111714250D01*
X83888072Y-111350000D01*
X83875812Y-111225518D01*
X83839502Y-111105820D01*
X83780537Y-110995506D01*
X83701185Y-110898815D01*
X83604494Y-110819463D01*
X83494180Y-110760498D01*
X83459573Y-110750000D01*
X83494180Y-110739502D01*
X83604494Y-110680537D01*
X83701185Y-110601185D01*
X83780537Y-110504494D01*
X83839502Y-110394180D01*
X83875812Y-110274482D01*
X83888072Y-110150000D01*
X83885000Y-109785750D01*
X83726250Y-109627000D01*
X83027000Y-109627000D01*
X82773000Y-109627000D01*
X82753000Y-109627000D01*
X82753000Y-109373000D01*
X82773000Y-109373000D01*
X82773000Y-108373750D01*
X82649250Y-108250000D01*
X82773000Y-108126250D01*
X82773000Y-107127000D01*
X83027000Y-107127000D01*
X83027000Y-108126250D01*
X83150750Y-108250000D01*
X83027000Y-108373750D01*
X83027000Y-109373000D01*
X83726250Y-109373000D01*
X83885000Y-109214250D01*
X83888072Y-108850000D01*
X83875812Y-108725518D01*
X83839502Y-108605820D01*
X83780537Y-108495506D01*
X83701185Y-108398815D01*
X83604494Y-108319463D01*
X83494180Y-108260498D01*
X83459573Y-108250000D01*
X83494180Y-108239502D01*
X83604494Y-108180537D01*
X83701185Y-108101185D01*
X83780537Y-108004494D01*
X83839502Y-107894180D01*
X83875812Y-107774482D01*
X83888072Y-107650000D01*
X83885000Y-107285750D01*
X83726250Y-107127000D01*
X83027000Y-107127000D01*
X82773000Y-107127000D01*
X82753000Y-107127000D01*
X82753000Y-106873000D01*
X82773000Y-106873000D01*
X82773000Y-105873750D01*
X82649250Y-105750000D01*
X82773000Y-105626250D01*
X82773000Y-104627000D01*
X83027000Y-104627000D01*
X83027000Y-105626250D01*
X83150750Y-105750000D01*
X83027000Y-105873750D01*
X83027000Y-106873000D01*
X83726250Y-106873000D01*
X83885000Y-106714250D01*
X83888072Y-106350000D01*
X83875812Y-106225518D01*
X83839502Y-106105820D01*
X83780537Y-105995506D01*
X83701185Y-105898815D01*
X83604494Y-105819463D01*
X83494180Y-105760498D01*
X83459573Y-105750000D01*
X83494180Y-105739502D01*
X83604494Y-105680537D01*
X83701185Y-105601185D01*
X83780537Y-105504494D01*
X83839502Y-105394180D01*
X83875812Y-105274482D01*
X83888072Y-105150000D01*
X83885000Y-104785750D01*
X83726250Y-104627000D01*
X83027000Y-104627000D01*
X82773000Y-104627000D01*
X82753000Y-104627000D01*
X82753000Y-104373000D01*
X82773000Y-104373000D01*
X82773000Y-104353000D01*
X83027000Y-104353000D01*
X83027000Y-104373000D01*
X83726250Y-104373000D01*
X83885000Y-104214250D01*
X83887844Y-103877000D01*
X87623000Y-103877000D01*
X87623000Y-113373000D01*
M02*
